<svg width="129" height="39" viewBox="0 0 129 39" fill="none" xmlns="http://www.w3.org/2000/svg">
<path d="M123.709 38.0645H4.75806C2.14113 38.0645 0 35.9233 0 33.3064V4.75805C0 2.14112 2.14113 -1.80019e-06 4.75806 -1.80019e-06H123.709C126.326 -1.80019e-06 128.468 2.14112 128.468 4.75805V33.3064C128.468 35.9233 126.326 38.0645 123.709 38.0645Z" fill="black"/>
<path d="M123.709 -1.80019e-06H4.75806C2.14113 -1.80019e-06 0 2.14112 0 4.75805V33.3064C0 35.9233 2.14113 38.0645 4.75806 38.0645H123.709C126.326 38.0645 128.468 35.9233 128.468 33.3064V4.75805C128.468 2.14112 126.326 -1.80019e-06 123.709 -1.80019e-06ZM123.709 0.761286C125.913 0.761286 127.706 2.5545 127.706 4.75805V33.3064C127.706 35.5103 125.913 37.3035 123.709 37.3035H4.75806C2.55451 37.3035 0.761289 35.5103 0.761289 33.3064V4.75805C0.761289 2.5545 2.55451 0.761286 4.75806 0.761286H123.709Z" fill="#A6A6A6"/>
<path d="M45.1234 9.74756C45.1234 10.5448 44.8873 11.1797 44.4145 11.6534C43.8774 12.2165 43.1774 12.4983 42.3168 12.4983C41.4928 12.4983 40.7921 12.2128 40.2159 11.6411C39.6386 11.0697 39.3506 10.3613 39.3506 9.51594C39.3506 8.67025 39.6386 7.96215 40.2159 7.39042C40.7921 6.81908 41.4928 6.53321 42.3168 6.53321C42.7258 6.53321 43.1172 6.61315 43.4889 6.77264C43.8606 6.93251 44.1588 7.14472 44.3818 7.4105L43.88 7.91267C43.502 7.46103 42.9815 7.23541 42.3168 7.23541C41.7158 7.23541 41.1961 7.44657 40.7575 7.86918C40.3188 8.29227 40.0996 8.84087 40.0996 9.51594C40.0996 10.191 40.3188 10.7396 40.7575 11.1627C41.1961 11.5853 41.7158 11.7965 42.3168 11.7965C42.9544 11.7965 43.486 11.5842 43.9116 11.159C44.1878 10.882 44.3476 10.497 44.3903 10.0025H42.3168V9.31668H45.0837C45.1104 9.46579 45.1234 9.60891 45.1234 9.74756Z" fill="white"/>
<path d="M45.1239 9.74761H45.0287C45.028 10.5267 44.8004 11.1318 44.3476 11.5861L44.3466 11.5869L44.3462 11.5877C43.8262 12.1314 43.1577 12.402 42.3173 12.4032C41.5152 12.402 40.8438 12.1285 40.2832 11.5739C39.7239 11.0181 39.4472 10.3397 39.4462 9.51599C39.4472 8.6919 39.7239 8.01387 40.2832 7.45851C40.8438 6.90353 41.5152 6.62956 42.3173 6.62842C42.7139 6.62842 43.0916 6.70579 43.4518 6.86004C43.8124 7.01544 44.0972 7.21909 44.3094 7.47193L44.3823 7.41055L44.315 7.34327L43.8131 7.84582L43.8804 7.91272L43.9537 7.85181C43.5581 7.37782 43.0028 7.13887 42.3173 7.14029C41.694 7.13953 41.1457 7.36221 40.6921 7.8009C40.2342 8.24102 40.0041 8.82046 40.0049 9.51599C40.0041 10.2115 40.2342 10.791 40.6921 11.2311C41.1457 11.6698 41.694 11.8925 42.3173 11.8917C42.976 11.8928 43.5373 11.6694 43.9793 11.2263C44.2745 10.9304 44.4418 10.5204 44.4856 10.0107L44.4945 9.90739H42.4124V9.41189H45.0841V9.31673L44.9904 9.33347C45.0164 9.47774 45.0287 9.61486 45.0287 9.74761H45.1239H45.219C45.219 9.60297 45.2056 9.45433 45.1777 9.29969L45.1636 9.22156H42.2221V10.0026V10.0977H44.3907V10.0026L44.296 9.99437C44.254 10.4732 44.1016 10.8338 43.8447 11.0918C43.4358 11.4992 42.934 11.7002 42.3173 11.7014C41.7385 11.7006 41.2475 11.5013 40.8241 11.0943C40.4048 10.6888 40.1962 10.171 40.1952 9.51599C40.1962 8.861 40.4048 8.34323 40.8241 7.93765C41.2475 7.53065 41.7385 7.33138 42.3173 7.33062C42.9608 7.33214 43.4467 7.54473 43.8076 7.9741L43.8745 8.05365L44.4496 7.47783L44.5112 7.41617L44.4551 7.34955C44.2213 7.07083 43.9098 6.84958 43.5269 6.68533C43.1433 6.5206 42.7385 6.4381 42.3173 6.4381C41.4713 6.43734 40.7412 6.73472 40.149 7.32319C39.5547 7.91053 39.2551 8.64879 39.2559 9.51599C39.2551 10.3828 39.5547 11.1215 40.1494 11.7092C40.7412 12.2973 41.4713 12.5943 42.3173 12.5935C43.1983 12.5943 43.9291 12.3016 44.4837 11.7192L44.4149 11.6534L44.4822 11.7207C44.9751 11.2281 45.2197 10.5628 45.219 9.74761H45.1239Z" fill="white"/>
<path d="M49.51 7.36286H46.9098V9.1732H49.2546V9.85932H46.9098V11.6697H49.51V12.3711H46.1768V6.66143H49.51V7.36286Z" fill="white"/>
<path d="M49.5114 7.36291V7.26775H46.816V9.26842H49.1609V9.76392L46.816 9.76421V11.7649H49.4162V12.276H46.2733V6.75664H49.4162V7.36291H49.5114V7.26775V7.36291H49.6065V6.66148V6.56632H46.083V12.4663H49.6065V11.6697V11.5746H47.0064V9.95453H49.3512V9.17326V9.07809H47.0064V7.45807H49.6065V7.36291H49.5114Z" fill="white"/>
<path d="M52.6043 12.3711H51.8701V7.36286H50.2754V6.66143H54.199V7.36286H52.6043V12.3711Z" fill="white"/>
<path d="M52.6047 12.3711V12.276H51.9657V7.26775H50.371V6.75664H54.1043V7.26775H52.5095V12.3711H52.6047V12.276V12.3711H52.6999V7.45807H54.2946V6.66148V6.56632H50.1807V7.36291V7.45807H51.7754V12.4663H52.6047H52.6999V12.3711H52.6047Z" fill="white"/>
<path d="M57.0371 12.3711V6.66143H57.7705V12.3711H57.0371Z" fill="white"/>
<path d="M57.0375 12.3711H57.1327V6.75664H57.6758V12.276H57.0375V12.3711H57.1327H57.0375V12.4663H57.7709H57.8661V6.56632H57.0375H56.9424V12.4663H57.0375V12.3711Z" fill="white"/>
<path d="M61.0251 12.3711H60.2909V7.36286H58.6963V6.66143H62.6198V7.36286H61.0251V12.3711Z" fill="white"/>
<path d="M61.0265 12.3711V12.276H60.3875V7.26775H58.7929V6.75664H62.526V7.26775H60.9313V12.3711H61.0265V12.276V12.3711H61.1216V7.45807H62.7164V6.66148V6.56632H58.6025V7.36291V7.45807H60.1972V12.4663H61.0265H61.1216V12.3711H61.0265Z" fill="white"/>
<path d="M66.4033 11.1549C66.8259 11.5827 67.343 11.7965 67.9545 11.7965C68.566 11.7965 69.0834 11.5827 69.5054 11.1549C69.9283 10.7271 70.1403 10.1802 70.1403 9.51594C70.1403 8.85172 69.9283 8.30483 69.5054 7.87698C69.0834 7.44914 68.566 7.23541 67.9545 7.23541C67.343 7.23541 66.8259 7.44914 66.4033 7.87698C65.9814 8.30483 65.7695 8.85172 65.7695 9.51594C65.7695 10.1802 65.9814 10.7271 66.4033 11.1549ZM70.0481 11.6329C69.4867 12.2101 68.7886 12.4983 67.9545 12.4983C67.1196 12.4983 66.4218 12.2101 65.8617 11.6329C65.3 11.0563 65.0205 10.3505 65.0205 9.51594C65.0205 8.68138 65.3 7.97547 65.8617 7.39899C66.4218 6.82165 67.1196 6.53321 67.9545 6.53321C68.7842 6.53321 69.4804 6.82317 70.0443 7.4027C70.6075 7.98223 70.8893 8.68661 70.8893 9.51594C70.8893 10.3505 70.6082 11.0563 70.0481 11.6329Z" fill="white"/>
<path d="M66.4037 11.155L66.3361 11.2219C66.7744 11.6668 67.3212 11.8928 67.9549 11.8917C68.5883 11.8928 69.1359 11.6668 69.5735 11.2219C70.0146 10.7765 70.2365 10.2003 70.2359 9.51599C70.2365 8.83169 70.0146 8.25549 69.5735 7.81014C69.1359 7.36516 68.5883 7.13915 67.9549 7.1403C67.3212 7.13915 66.7744 7.36516 66.3361 7.81014C65.8959 8.25549 65.6737 8.83169 65.6748 9.51599C65.6737 10.2003 65.8959 10.7765 66.3361 11.2219L66.4037 11.155L66.4714 11.0881C66.0677 10.6772 65.8659 10.1605 65.8651 9.51599C65.8659 8.87147 66.0677 8.35474 66.4714 7.94393C66.8788 7.53322 67.3653 7.33176 67.9549 7.33062C68.5441 7.33176 69.0318 7.53322 69.4381 7.94393C69.8426 8.35474 70.0444 8.87147 70.0452 9.51599C70.0444 10.1605 69.8426 10.6772 69.4381 11.0881C69.0318 11.4988 68.5441 11.7002 67.9549 11.7014C67.3653 11.7002 66.8788 11.4988 66.4714 11.0881L66.4037 11.155ZM70.0485 11.6329L69.9805 11.5668C69.4348 12.1259 68.7675 12.402 67.9549 12.4032C67.142 12.402 66.4747 12.1259 65.9301 11.5668L65.9275 11.5639L65.9301 11.5668C65.3856 11.0058 65.1169 10.3293 65.1161 9.51599C65.1169 8.70265 65.3856 8.02615 65.9301 7.46518C66.4747 6.90611 67.142 6.62957 67.9549 6.62842C68.7623 6.62957 69.428 6.90725 69.9767 7.46927C70.5232 8.03281 70.7934 8.70827 70.7946 9.51599C70.7934 10.3293 70.5239 11.0058 69.9805 11.5668L70.0485 11.6329L70.1169 11.6991C70.6938 11.1066 70.9855 10.3717 70.9849 9.51599C70.9855 8.66516 70.6926 7.93175 70.1131 7.33661C69.5333 6.73919 68.8069 6.43706 67.9549 6.4381C67.0985 6.43706 66.3699 6.73776 65.7937 7.3329V7.33252C65.2157 7.92537 64.925 8.66031 64.9258 9.51599C64.925 10.3717 65.2157 11.1066 65.7937 11.6995L65.7963 11.7021L65.7937 11.6991C66.3699 12.2942 67.0985 12.5943 67.9549 12.5935C68.811 12.5943 69.5396 12.2942 70.1169 11.6991L70.0485 11.6329Z" fill="white"/>
<path d="M71.918 12.3711V6.66143H72.8109L75.5858 11.1032H75.6174L75.5858 10.0028V6.66143H76.3199V12.3711H75.5542L72.651 7.7141H72.6194L72.651 8.81483V12.3711H71.918Z" fill="white"/>
<path d="M71.9194 12.3711H72.0145V6.75664H72.7595L75.5344 11.1984H75.6188H75.7165L75.6823 10.0014V6.75664H76.2262V12.276H75.6084L72.7052 7.61899H72.6208H72.5231L72.5572 8.8164V12.276H71.9194V12.3711H72.0145H71.9194V12.4663H72.6524H72.7476V8.81336L72.716 7.71158L72.6208 7.71415V7.80931H72.6524V7.71415L72.5717 7.76478L75.5028 12.4663H76.3213H76.4165V6.56632H75.5872H75.492V10.004L75.5236 11.1058L75.6188 11.1032V11.0081H75.5872V11.1032L75.6679 11.0527L72.865 6.56632H71.9194H71.8242V12.4663H71.9194V12.3711Z" fill="white"/>
<path d="M101.761 28.5483H103.537V16.652H101.761V28.5483ZM117.755 20.9373L115.72 26.0949H115.659L113.546 20.9373H111.633L114.801 28.146L112.995 32.1558H114.848L119.73 20.9373H117.755ZM107.685 27.1971C107.103 27.1971 106.292 26.9064 106.292 26.1868C106.292 25.2686 107.303 24.9166 108.174 24.9166C108.956 24.9166 109.322 25.0849 109.797 25.3147C109.659 26.4165 108.71 27.1971 107.685 27.1971ZM107.899 20.677C106.614 20.677 105.282 21.2435 104.731 22.4985L106.307 23.1565C106.644 22.4985 107.271 22.284 107.93 22.284C108.848 22.284 109.782 22.8353 109.797 23.8148V23.9371C109.475 23.7534 108.787 23.478 107.945 23.478C106.246 23.478 104.516 24.4113 104.516 26.1562C104.516 27.748 105.909 28.7735 107.47 28.7735C108.664 28.7735 109.322 28.2379 109.736 27.6105H109.797V28.5286H111.511V23.9675C111.511 21.8558 109.935 20.677 107.899 20.677ZM96.9253 22.3855H94.3997V18.3077H96.9253C98.2528 18.3077 99.0064 19.4068 99.0064 20.3465C99.0064 21.2685 98.2528 22.3855 96.9253 22.3855ZM96.8796 16.652H92.6249V28.5483H94.3997V24.0412H96.8796C98.8475 24.0412 100.782 22.6163 100.782 20.3465C100.782 18.0769 98.8475 16.652 96.8796 16.652ZM73.6783 27.1993C72.4516 27.1993 71.4245 26.1722 71.4245 24.7615C71.4245 23.336 72.4516 22.2933 73.6783 22.2933C74.8894 22.2933 75.8399 23.336 75.8399 24.7615C75.8399 26.1722 74.8894 27.1993 73.6783 27.1993ZM75.7173 21.6034H75.6559C75.2574 21.1283 74.4905 20.699 73.5248 20.699C71.5011 20.699 69.6463 22.4773 69.6463 24.7615C69.6463 27.0306 71.5011 28.7936 73.5248 28.7936C74.4905 28.7936 75.2574 28.3642 75.6559 27.874H75.7173V28.4565C75.7173 30.0051 74.8894 30.8329 73.5557 30.8329C72.4672 30.8329 71.7926 30.0508 71.5164 29.3917L69.9682 30.0356C70.4128 31.1087 71.5934 32.4272 73.5557 32.4272C75.6406 32.4272 77.4037 31.2005 77.4037 28.2111V20.9443H75.7173V21.6034ZM78.63 28.5483H80.4084V16.6516H78.63V28.5483ZM83.0301 24.6237C82.984 23.0598 84.2412 22.2628 85.1456 22.2628C85.8513 22.2628 86.449 22.6152 86.6478 23.1215L83.0301 24.6237ZM88.5492 23.2746C88.2123 22.3699 87.1846 20.699 85.0843 20.699C82.9993 20.699 81.2671 22.3394 81.2671 24.7463C81.2671 27.0153 82.984 28.7936 85.2835 28.7936C87.1389 28.7936 88.2123 27.6591 88.6567 27L87.2769 26.08C86.8172 26.7547 86.1882 27.1993 85.2835 27.1993C84.3791 27.1993 83.7353 26.7852 83.3212 25.9729L88.7328 23.7345L88.5492 23.2746ZM45.4334 21.9409V23.6579H49.5419C49.4193 24.6237 49.0974 25.3288 48.6067 25.8194C48.009 26.4175 47.0738 27.0766 45.4334 27.0766C42.9037 27.0766 40.9261 25.0377 40.9261 22.5081C40.9261 19.9786 42.9037 17.9393 45.4334 17.9393C46.7979 17.9393 47.7941 18.4761 48.5301 19.166L49.7412 17.9549C48.7141 16.9736 47.3495 16.2224 45.4334 16.2224C41.9685 16.2224 39.0557 19.0433 39.0557 22.5081C39.0557 25.9729 41.9685 28.7936 45.4334 28.7936C47.3038 28.7936 48.7141 28.1807 49.8178 27.0306C50.9523 25.8961 51.3051 24.3017 51.3051 23.0141C51.3051 22.6152 51.2745 22.2476 51.2129 21.9409H45.4334ZM55.9762 27.1993C54.7494 27.1993 53.6915 26.1874 53.6915 24.7463C53.6915 23.2899 54.7494 22.2933 55.9762 22.2933C57.2024 22.2933 58.2603 23.2899 58.2603 24.7463C58.2603 26.1874 57.2024 27.1993 55.9762 27.1993ZM55.9762 20.699C53.7376 20.699 51.9132 22.4007 51.9132 24.7463C51.9132 27.0766 53.7376 28.7936 55.9762 28.7936C58.2143 28.7936 60.0387 27.0766 60.0387 24.7463C60.0387 22.4007 58.2143 20.699 55.9762 20.699ZM64.8387 27.1993C63.6125 27.1993 62.5545 26.1874 62.5545 24.7463C62.5545 23.2899 63.6125 22.2933 64.8387 22.2933C66.0651 22.2933 67.123 23.2899 67.123 24.7463C67.123 26.1874 66.0651 27.1993 64.8387 27.1993ZM64.8387 20.699C62.6002 20.699 60.7762 22.4007 60.7762 24.7463C60.7762 27.0766 62.6002 28.7936 64.8387 28.7936C67.0769 28.7936 68.9013 27.0766 68.9013 24.7463C68.9013 22.4007 67.0769 20.699 64.8387 20.699Z" fill="white"/>
<path d="M10.0013 30.8228L9.93064 30.7551C9.65372 30.4621 9.49023 30.0071 9.49023 29.418V29.5566V8.5108C9.49023 8.50889 9.49023 8.50747 9.49023 8.50594C9.49023 8.50775 9.49023 8.50927 9.49023 8.51118V8.65021C9.49023 8.01225 9.68084 7.53168 10.0002 7.24354L21.7905 19.0335L10.0013 30.8228ZM9.49023 8.5048C9.49023 8.45237 9.49166 8.40146 9.49433 8.35131C9.49166 8.40108 9.49023 8.45237 9.49023 8.5048ZM9.49433 8.34902C9.49433 8.34836 9.49433 8.3476 9.49461 8.34684C9.49433 8.3476 9.49433 8.34836 9.49433 8.34902ZM9.49461 8.34236C9.49461 8.34198 9.49461 8.3416 9.49461 8.34122C9.49461 8.3416 9.49461 8.34198 9.49461 8.34236Z" fill="url(#paint0_linear_2758_25713)"/>
<path d="M25.7205 23.1035L25.8101 23.0526L30.4663 20.407C30.9102 20.1547 31.2061 19.8487 31.3537 19.525C31.2064 19.8487 30.9105 20.155 30.4663 20.4074L25.8101 23.053L25.7205 23.1035ZM25.7216 22.9641L21.791 19.0328L25.7213 15.1022L30.4663 17.7979C31.0688 18.1403 31.4071 18.5816 31.4637 19.0324C31.4637 19.0328 31.4637 19.0336 31.4637 19.0342C31.4071 19.4841 31.0688 19.9257 30.4663 20.268L25.7216 22.9641Z" fill="url(#paint1_linear_2758_25713)"/>
<path d="M10.8427 31.2708C10.5133 31.2708 10.2259 31.1637 10.0018 30.9615L10.0022 30.9611C10.2263 31.1633 10.5141 31.2708 10.8434 31.2708C10.872 31.2708 10.901 31.27 10.9304 31.2686C10.9006 31.27 10.8712 31.2708 10.8427 31.2708ZM10.8431 31.1313C10.5137 31.1317 10.2263 31.0243 10.0022 30.8221V30.8218L21.7913 19.0325L25.722 22.9638L11.9091 30.8121C11.527 31.0288 11.1649 31.1313 10.8431 31.1313ZM9.99888 30.9589C9.97804 30.94 9.95758 30.9199 9.9375 30.8991L9.99888 30.9589Z" fill="url(#paint2_linear_2758_25713)"/>
<path d="M21.7922 19.033L10.002 7.24297C10.2261 7.04114 10.5131 6.93408 10.842 6.93408C11.1647 6.93408 11.5271 7.03704 11.91 7.25411L25.7225 15.1023L21.7922 19.033ZM25.8114 15.0135L11.91 7.11517C11.5271 6.89801 11.1647 6.79505 10.842 6.79505C10.8405 6.79505 10.8395 6.79505 10.8379 6.79505C10.8398 6.79505 10.8413 6.79505 10.8436 6.79505C11.1655 6.79505 11.5275 6.89763 11.91 7.11479L25.8114 15.0135Z" fill="url(#paint3_linear_2758_25713)"/>
<path d="M10.9296 31.269C11.2288 31.2519 11.56 31.1489 11.9083 30.9516L25.72 23.1037L11.9083 30.9516C11.5603 31.1493 11.2288 31.2519 10.9296 31.269ZM10.001 30.962L9.99804 30.9594C9.99909 30.9602 10.0002 30.9612 10.001 30.962ZM9.93666 30.8995L9.93066 30.8936V30.8933C9.93295 30.8954 9.93476 30.8976 9.93666 30.8995Z" fill="black"/>
<path d="M25.7217 23.1035L25.8113 23.0526L25.7217 23.1035Z" fill="url(#paint4_linear_2758_25713)"/>
<path d="M10.8416 31.2708C10.5123 31.2708 10.2245 31.1633 10.0004 30.9611L10 30.9615C9.99925 30.9607 9.99811 30.9597 9.99706 30.9589L9.93568 30.8991C9.93378 30.8971 9.93197 30.895 9.92969 30.8928L10.0004 30.8221C10.2245 31.0243 10.5119 31.1317 10.8412 31.1313C11.1631 31.1313 11.5252 31.0288 11.9073 30.8121L25.7202 22.9638L25.8087 23.0523L25.719 23.1033L11.9073 30.9511C11.559 31.1485 11.2278 31.2514 10.9286 31.2686C10.8992 31.27 10.8702 31.2708 10.8416 31.2708Z" fill="url(#paint5_linear_2758_25713)"/>
<path d="M9.93064 30.8936C9.65372 30.6006 9.49023 30.1456 9.49023 29.5564V29.5561C9.49023 30.1456 9.65372 30.6002 9.93064 30.8932V30.8936Z" fill="black"/>
<path d="M9.93064 30.8936C9.65372 30.6006 9.49023 30.146 9.49023 29.5564V29.4178C9.49023 30.0069 9.65372 30.4619 9.93064 30.7549L10.0013 30.8226L9.93064 30.8936Z" fill="url(#paint6_linear_2758_25713)"/>
<path d="M9.92969 30.8936L10.0004 30.8226V30.8229L9.92969 30.8936Z" fill="url(#paint7_linear_2758_25713)"/>
<path d="M31.3525 19.5249C31.4257 19.3643 31.4625 19.1993 31.4625 19.0342C31.4625 19.0339 31.4625 19.0335 31.4625 19.0335C31.4625 19.1989 31.4257 19.3639 31.3525 19.5249Z" fill="black"/>
<path d="M25.8102 23.0522L25.7217 22.9637L30.4663 20.2676C31.0689 19.9253 31.4072 19.4837 31.4637 19.0339C31.4637 19.199 31.4269 19.364 31.3537 19.5246C31.2061 19.8484 30.9102 20.1543 30.4663 20.4067L25.8102 23.0522Z" fill="url(#paint8_linear_2758_25713)"/>
<path d="M31.4635 19.0327V19.0323C31.4631 18.5345 31.1304 18.0369 30.4661 17.6592L25.81 15.0136H25.8096L25.81 15.0133L30.4661 17.6588C31.1312 18.0365 31.4642 18.5349 31.4635 19.0327Z" fill="#404040"/>
<path d="M31.4641 19.0322C31.4076 18.5814 31.0693 18.1401 30.4667 17.7977L25.7217 15.102L25.8102 15.0135H25.8106L30.4667 17.6591C31.131 18.0367 31.4637 18.5344 31.4641 19.0322Z" fill="url(#paint9_linear_2758_25713)"/>
<path d="M9.49023 8.50513C9.49023 8.50475 9.49023 8.50437 9.49023 8.50399C9.49023 8.50437 9.49023 8.50475 9.49023 8.50513ZM9.49433 8.35049C9.49433 8.34973 9.49433 8.34897 9.49433 8.34821C9.49433 8.34897 9.49433 8.34973 9.49433 8.35049ZM9.49461 8.34602C9.49461 8.3445 9.49461 8.34307 9.49461 8.34155C9.49461 8.34307 9.49461 8.3445 9.49461 8.34602ZM9.49461 8.3404C9.54971 7.36281 10.0813 6.79813 10.8332 6.7948C10.5072 6.7967 10.2233 6.90375 10.001 7.10407V7.10369L9.9983 7.10635C9.97489 7.12748 9.95262 7.14984 9.93064 7.17287C9.68084 7.43713 9.52325 7.833 9.49461 8.3404Z" fill="#404040"/>
<path d="M9.49023 8.64941V8.51038C9.49023 8.50848 9.49023 8.50696 9.49023 8.50515C9.49023 8.50477 9.49023 8.50439 9.49023 8.50401C9.49023 8.45158 9.49166 8.40028 9.49433 8.35051C9.49433 8.34975 9.49433 8.34899 9.49433 8.34823C9.49433 8.34756 9.49433 8.3468 9.49461 8.34604C9.49461 8.34452 9.49461 8.34309 9.49461 8.34157C9.49461 8.34119 9.49461 8.34081 9.49461 8.34043C9.52325 7.83303 9.68084 7.43716 9.93064 7.17289L10.0002 7.24274C9.68084 7.53089 9.49023 8.01145 9.49023 8.64941ZM9.9983 7.10637L10.001 7.10371C10.0002 7.10485 9.99906 7.10561 9.9983 7.10637Z" fill="url(#paint10_linear_2758_25713)"/>
<path d="M25.7198 15.1013L11.9073 7.25309C11.5244 7.03603 11.162 6.93307 10.8393 6.93307C10.5104 6.93307 10.2234 7.04012 9.99925 7.24196L9.92969 7.17211C9.95167 7.14908 9.97394 7.12672 9.99735 7.10559C9.99811 7.10483 9.99925 7.10407 10 7.10331C10.2223 6.903 10.5063 6.79594 10.8323 6.79404C10.8331 6.79404 10.8341 6.79404 10.8352 6.79404C10.8368 6.79404 10.8378 6.79404 10.8393 6.79404C11.162 6.79404 11.5244 6.897 11.9073 7.11416L25.8087 15.0125L25.8083 15.0128L25.7198 15.1013Z" fill="url(#paint11_linear_2758_25713)"/>
<defs>
<linearGradient id="paint0_linear_2758_25713" x1="20.745" y1="8.28879" x2="4.77462" y2="24.2592" gradientUnits="userSpaceOnUse">
<stop stop-color="#00A0FF"/>
<stop offset="0.00657445" stop-color="#00A1FF"/>
<stop offset="0.2601" stop-color="#00BEFF"/>
<stop offset="0.5122" stop-color="#00D2FF"/>
<stop offset="0.7604" stop-color="#00DFFF"/>
<stop offset="1" stop-color="#00E3FF"/>
</linearGradient>
<linearGradient id="paint1_linear_2758_25713" x1="32.1978" y1="19.0334" x2="9.1717" y2="19.0334" gradientUnits="userSpaceOnUse">
<stop stop-color="#FFE000"/>
<stop offset="0.4087" stop-color="#FFBD00"/>
<stop offset="0.7754" stop-color="#FFA500"/>
<stop offset="1" stop-color="#FF9C00"/>
</linearGradient>
<linearGradient id="paint2_linear_2758_25713" x1="23.6266" y1="21.2168" x2="1.96956" y2="42.8738" gradientUnits="userSpaceOnUse">
<stop stop-color="#FF3A44"/>
<stop offset="1" stop-color="#C31162"/>
</linearGradient>
<linearGradient id="paint3_linear_2758_25713" x1="6.94604" y1="0.167647" x2="16.6168" y2="9.8384" gradientUnits="userSpaceOnUse">
<stop stop-color="#32A071"/>
<stop offset="0.0685" stop-color="#2DA771"/>
<stop offset="0.4762" stop-color="#15CF74"/>
<stop offset="0.8009" stop-color="#06E775"/>
<stop offset="1" stop-color="#00F076"/>
</linearGradient>
<linearGradient id="paint4_linear_2758_25713" x1="32.1988" y1="19.0333" x2="9.17352" y2="19.0333" gradientUnits="userSpaceOnUse">
<stop stop-color="#CCB300"/>
<stop offset="0.4087" stop-color="#CC9700"/>
<stop offset="0.7754" stop-color="#CC8400"/>
<stop offset="1" stop-color="#CC7D00"/>
</linearGradient>
<linearGradient id="paint5_linear_2758_25713" x1="23.6248" y1="21.2168" x2="1.96774" y2="42.8738" gradientUnits="userSpaceOnUse">
<stop stop-color="#CC2E36"/>
<stop offset="1" stop-color="#9C0E4E"/>
</linearGradient>
<linearGradient id="paint6_linear_2758_25713" x1="20.745" y1="8.28859" x2="4.77461" y2="24.259" gradientUnits="userSpaceOnUse">
<stop stop-color="#008DE0"/>
<stop offset="0.00657445" stop-color="#008DE0"/>
<stop offset="0.2601" stop-color="#00A7E0"/>
<stop offset="0.5122" stop-color="#00B8E0"/>
<stop offset="0.7604" stop-color="#00C4E0"/>
<stop offset="1" stop-color="#00C7E0"/>
</linearGradient>
<linearGradient id="paint7_linear_2758_25713" x1="23.6249" y1="21.218" x2="1.96893" y2="42.8753" gradientUnits="userSpaceOnUse">
<stop stop-color="#E0333C"/>
<stop offset="1" stop-color="#AB0F56"/>
</linearGradient>
<linearGradient id="paint8_linear_2758_25713" x1="32.1979" y1="19.033" x2="9.17173" y2="19.033" gradientUnits="userSpaceOnUse">
<stop stop-color="#E0C500"/>
<stop offset="0.4087" stop-color="#E0A600"/>
<stop offset="0.7754" stop-color="#E09100"/>
<stop offset="1" stop-color="#E08900"/>
</linearGradient>
<linearGradient id="paint9_linear_2758_25713" x1="32.1982" y1="19.0332" x2="9.17212" y2="19.0332" gradientUnits="userSpaceOnUse">
<stop stop-color="#FFE840"/>
<stop offset="0.4087" stop-color="#FFCE40"/>
<stop offset="0.7754" stop-color="#FFBC40"/>
<stop offset="1" stop-color="#FFB540"/>
</linearGradient>
<linearGradient id="paint10_linear_2758_25713" x1="20.745" y1="8.28799" x2="4.7746" y2="24.2584" gradientUnits="userSpaceOnUse">
<stop stop-color="#40B8FF"/>
<stop offset="0.00657445" stop-color="#40B9FF"/>
<stop offset="0.2601" stop-color="#40CEFF"/>
<stop offset="0.5122" stop-color="#40DDFF"/>
<stop offset="0.7604" stop-color="#40E7FF"/>
<stop offset="1" stop-color="#40EAFF"/>
</linearGradient>
<linearGradient id="paint11_linear_2758_25713" x1="6.94334" y1="0.166633" x2="16.6141" y2="9.83738" gradientUnits="userSpaceOnUse">
<stop stop-color="#65B895"/>
<stop offset="0.0685" stop-color="#62BD95"/>
<stop offset="0.4762" stop-color="#50DB97"/>
<stop offset="0.8009" stop-color="#44ED98"/>
<stop offset="1" stop-color="#40F498"/>
</linearGradient>
</defs>
</svg>
