<svg width="115" height="39" viewBox="0 0 115 39" fill="none" xmlns="http://www.w3.org/2000/svg">
<path d="M105.567 0.000123709H9.56656C9.21662 0.000123709 8.87088 0.00012371 8.52187 0.00202693C8.22972 0.00393016 7.93989 0.00945902 7.64493 0.0141124C7.00415 0.0216318 6.36487 0.0778478 5.73265 0.182272C5.10132 0.288969 4.48976 0.490123 3.91867 0.778932C3.34828 1.07018 2.82709 1.44864 2.37402 1.90056C1.91857 2.35121 1.53892 2.8721 1.24967 3.44321C0.959611 4.01317 0.758487 4.62395 0.653238 5.25443C0.546989 5.88411 0.489816 6.52106 0.482231 7.15955C0.473375 7.45132 0.47244 7.74405 0.467773 8.03585V30.0316C0.47244 30.3271 0.473375 30.6134 0.482231 30.9089C0.489818 31.5474 0.546992 32.1843 0.653238 32.814C0.758196 33.4448 0.959332 34.0559 1.24967 34.6261C1.53879 35.1954 1.91849 35.7142 2.37402 36.1623C2.82537 36.6162 3.34689 36.995 3.91867 37.284C4.48976 37.5736 5.10125 37.7759 5.73265 37.8843C6.36497 37.9878 7.00419 38.0441 7.64493 38.0525C7.93989 38.059 8.22972 38.0627 8.52187 38.0627C8.87087 38.0646 9.21664 38.0646 9.56656 38.0646H105.567C105.91 38.0646 106.259 38.0646 106.602 38.0627C106.893 38.0627 107.191 38.059 107.482 38.0525C108.121 38.0445 108.759 37.9883 109.39 37.8843C110.024 37.7751 110.637 37.5728 111.211 37.284C111.782 36.9948 112.304 36.6161 112.754 36.1623C113.209 35.7124 113.589 35.194 113.882 34.6261C114.17 34.0555 114.369 33.4445 114.473 32.814C114.579 32.1842 114.638 31.5475 114.65 30.9089C114.654 30.6134 114.654 30.3271 114.654 30.0316C114.661 29.6859 114.661 29.3421 114.661 28.9908V9.07481C114.661 8.72632 114.661 8.38062 114.654 8.03585C114.654 7.74405 114.654 7.45132 114.65 7.15952C114.638 6.52097 114.579 5.88416 114.473 5.25439C114.369 4.62427 114.17 4.01355 113.882 3.44317C113.293 2.29845 112.359 1.36666 111.211 0.778846C110.637 0.490744 110.024 0.289642 109.39 0.182186C108.759 0.0773021 108.121 0.0210666 107.482 0.0139792C107.191 0.00933531 106.893 0.00375887 106.602 0.00190322C106.259 0 105.91 0 105.567 0V0.000123709Z" fill="#A6A6A6"/>
<path d="M8.52644 37.2317C8.23569 37.2317 7.95196 37.2279 7.66349 37.2215C7.0659 37.2137 6.46971 37.1618 5.8798 37.0663C5.32974 36.9718 4.79689 36.7961 4.2988 36.5449C3.80529 36.2958 3.35516 35.9691 2.96567 35.5775C2.57054 35.1904 2.24158 34.7415 1.99182 34.2485C1.7393 33.7524 1.56455 33.2205 1.47364 32.6715C1.37547 32.0816 1.32235 31.4852 1.31475 30.8873C1.3087 30.6866 1.30078 30.0183 1.30078 30.0183V8.03559C1.30078 8.03559 1.30922 7.37764 1.3148 7.18434C1.32208 6.58737 1.37488 5.99183 1.47276 5.40285C1.56384 4.85236 1.73873 4.31898 1.99138 3.82118C2.24022 3.32854 2.56736 2.8793 2.96011 2.49087C3.35242 2.09875 3.80398 1.77043 4.29834 1.51788C4.79527 1.26749 5.32713 1.09301 5.87607 1.00026C6.46792 0.903734 7.06618 0.851548 7.66584 0.844139L8.52691 0.83252H106.597L107.469 0.844605C108.063 0.851646 108.656 0.903367 109.242 0.999327C109.796 1.09324 110.334 1.26894 110.836 1.52067C111.827 2.02963 112.633 2.83487 113.141 3.8235C113.39 4.31787 113.562 4.8469 113.652 5.39263C113.751 5.98644 113.806 6.58666 113.818 7.18852C113.82 7.45802 113.82 7.7475 113.82 8.03559C113.828 8.39244 113.828 8.7321 113.828 9.07455V28.9905C113.828 29.3362 113.828 29.6736 113.82 30.0137C113.82 30.3231 113.82 30.6066 113.817 30.8984C113.806 31.4895 113.751 32.079 113.654 32.6622C113.565 33.2152 113.391 33.7511 113.138 34.2514C112.887 34.739 112.56 35.184 112.169 35.57C111.779 35.9638 111.328 36.2924 110.834 36.5431C110.332 36.7962 109.796 36.9726 109.242 37.0663C108.652 37.1623 108.056 37.2142 107.458 37.2215C107.179 37.2279 106.886 37.2317 106.602 37.2317L105.567 37.2336L8.52644 37.2317Z" fill="black"/>
<path d="M24.1062 19.3188C24.1164 18.5246 24.328 17.7458 24.7212 17.055C25.1144 16.3641 25.6764 15.7837 26.355 15.3677C25.9239 14.7538 25.3552 14.2485 24.6941 13.8921C24.0329 13.5357 23.2975 13.3379 22.5463 13.3144C20.9438 13.1467 19.3903 14.2706 18.5737 14.2706C17.7413 14.2706 16.4841 13.3311 15.1302 13.3589C14.2545 13.3871 13.401 13.641 12.653 14.0959C11.9049 14.5509 11.2878 15.1913 10.8618 15.9547C9.01617 19.1411 10.3928 23.8241 12.1607 26.3997C13.0453 27.6609 14.079 29.0697 15.4317 29.0198C16.7553 28.965 17.2497 28.1781 18.8474 28.1781C20.4303 28.1781 20.8942 29.0198 22.2742 28.988C23.6946 28.965 24.5895 27.7212 25.443 26.448C26.0785 25.5494 26.5675 24.5561 26.892 23.5051C26.0668 23.1571 25.3626 22.5746 24.8672 21.8301C24.3718 21.0857 24.1071 20.2123 24.1062 19.3188V19.3188Z" fill="white"/>
<path d="M21.4995 11.6203C22.2739 10.6932 22.6555 9.50164 22.5631 8.29858C21.3799 8.4225 20.287 8.98639 19.5021 9.87789C19.1184 10.3134 18.8245 10.8201 18.6372 11.3689C18.4499 11.9178 18.373 12.4981 18.4107 13.0766C19.0025 13.0827 19.588 12.9548 20.123 12.7025C20.658 12.4503 21.1287 12.0802 21.4995 11.6203Z" fill="white"/>
<path d="M40.8382 25.8267H36.3212L35.2365 29.0207H33.3232L37.6017 17.2036H39.5894L43.8679 29.0207H41.922L40.8382 25.8267ZM36.789 24.3528H40.3695L38.6045 19.1691H38.5551L36.789 24.3528Z" fill="white"/>
<path d="M53.1072 24.7135C53.1072 27.3908 51.6702 29.111 49.5016 29.111C48.9523 29.1396 48.406 29.0134 47.9252 28.7469C47.4444 28.4803 47.0487 28.0841 46.7832 27.6036H46.7422V31.871H44.9688V20.4052H46.6854V21.8382H46.718C46.9956 21.3601 47.3981 20.9659 47.8825 20.6977C48.3669 20.4295 48.9152 20.2973 49.469 20.3151C51.6618 20.3151 53.1072 22.0436 53.1072 24.7135ZM51.2844 24.7135C51.2844 22.9692 50.3804 21.8224 49.0012 21.8224C47.6462 21.8224 46.7348 22.9933 46.7348 24.7135C46.7348 26.4494 47.6462 27.612 49.0012 27.612C50.3804 27.612 51.2844 26.4736 51.2844 24.7135Z" fill="white"/>
<path d="M62.617 24.7135C62.617 27.3908 61.18 29.111 59.0114 29.111C58.4621 29.1396 57.9157 29.0134 57.435 28.7468C56.9542 28.4803 56.5584 28.0841 56.293 27.6036H56.252V31.871H54.4785V20.4052H56.1951V21.8382H56.2277C56.5054 21.36 56.9078 20.9659 57.3922 20.6977C57.8767 20.4295 58.4249 20.2973 58.9787 20.3151C61.1716 20.3151 62.617 22.0436 62.617 24.7135ZM60.7941 24.7135C60.7941 22.9692 59.8902 21.8224 58.5109 21.8224C57.1559 21.8224 56.2445 22.9933 56.2445 24.7135C56.2445 26.4494 57.1559 27.612 58.5109 27.612C59.8902 27.612 60.7941 26.4736 60.7941 24.7135H60.7941Z" fill="white"/>
<path d="M68.9023 25.728C69.0337 26.8998 70.1753 27.6692 71.7353 27.6692C73.2301 27.6692 74.3056 26.8998 74.3056 25.8431C74.3056 24.9259 73.657 24.3767 72.1212 24.0003L70.5854 23.6314C68.4093 23.1073 67.3991 22.0925 67.3991 20.4457C67.3991 18.4068 69.181 17.0063 71.7111 17.0063C74.2152 17.0063 75.9318 18.4068 75.9895 20.4457H74.1993C74.0921 19.2664 73.1146 18.5546 71.6859 18.5546C70.2573 18.5546 69.2797 19.2748 69.2797 20.3231C69.2797 21.1585 69.9041 21.6501 71.4315 22.0264L72.7371 22.3461C75.1685 22.9195 76.1787 23.8934 76.1787 25.6219C76.1787 27.8328 74.4127 29.2174 71.6039 29.2174C68.9759 29.2174 67.2015 27.8653 67.0869 25.7279L68.9023 25.728Z" fill="white"/>
<path d="M80.0048 18.3662V20.4051H81.6478V21.8056H80.0048V26.5553C80.0048 27.2931 80.3338 27.637 81.056 27.637C81.2511 27.6336 81.4458 27.6199 81.6394 27.5961V28.9882C81.3147 29.0487 80.9847 29.0761 80.6544 29.07C78.9052 29.07 78.223 28.4148 78.223 26.7439V21.8056H76.9668V20.4051H78.223V18.3662H80.0048Z" fill="white"/>
<path d="M82.5996 24.7133C82.5996 22.0025 84.2006 20.2991 86.6972 20.2991C89.2022 20.2991 90.7958 22.0025 90.7958 24.7133C90.7958 27.4315 89.2106 29.1275 86.6972 29.1275C84.1848 29.1275 82.5996 27.4315 82.5996 24.7133ZM88.9888 24.7133C88.9888 22.8537 88.1343 21.7562 86.6972 21.7562C85.2602 21.7562 84.4066 22.8621 84.4066 24.7133C84.4066 26.5803 85.2602 27.6694 86.6972 27.6694C88.1343 27.6694 88.9888 26.5803 88.9888 24.7133H88.9888Z" fill="white"/>
<path d="M92.2588 20.4051H93.9502V21.8716H93.9913C94.1057 21.4136 94.3748 21.0088 94.7532 20.7253C95.1317 20.4419 95.5965 20.297 96.0694 20.315C96.2738 20.3143 96.4776 20.3364 96.677 20.381V22.0351C96.419 21.9565 96.1499 21.9204 95.8802 21.9283C95.6226 21.9178 95.3657 21.9631 95.1273 22.061C94.8889 22.159 94.6745 22.3071 94.499 22.4955C94.3234 22.6838 94.1908 22.9078 94.1102 23.152C94.0297 23.3963 94.0031 23.655 94.0322 23.9105V29.0207H92.2588L92.2588 20.4051Z" fill="white"/>
<path d="M104.853 26.4901C104.615 28.0541 103.087 29.1275 101.133 29.1275C98.6196 29.1275 97.0596 27.4482 97.0596 24.7542C97.0596 22.0517 98.628 20.2991 101.058 20.2991C103.449 20.2991 104.952 21.9365 104.952 24.5488V25.1547H98.8498V25.2616C98.8216 25.5787 98.8614 25.8981 98.9666 26.1986C99.0717 26.4992 99.2398 26.774 99.4596 27.0048C99.6794 27.2356 99.946 27.4172 100.242 27.5373C100.537 27.6575 100.855 27.7136 101.174 27.7019C101.593 27.7411 102.014 27.6443 102.373 27.426C102.733 27.2076 103.012 26.8794 103.169 26.4901L104.853 26.4901ZM98.8582 23.9187H103.178C103.194 23.6336 103.15 23.3483 103.05 23.0807C102.95 22.8131 102.796 22.569 102.597 22.3637C102.398 22.1583 102.159 21.9963 101.894 21.8876C101.629 21.7789 101.345 21.7259 101.058 21.7321C100.77 21.7303 100.483 21.7857 100.216 21.8949C99.9489 22.0041 99.706 22.1649 99.5014 22.3682C99.2968 22.5715 99.1347 22.8132 99.0243 23.0793C98.9139 23.3455 98.8574 23.6307 98.8582 23.9187V23.9187Z" fill="white"/>
<path d="M36.5645 8.30845C36.9364 8.28184 37.3094 8.33785 37.6569 8.47244C38.0044 8.60703 38.3176 8.81684 38.5739 9.08674C38.8302 9.35664 39.0232 9.6799 39.1391 10.0332C39.2549 10.3865 39.2907 10.7611 39.2438 11.1298C39.2438 12.9438 38.2606 13.9866 36.5645 13.9866H34.5078V8.30845H36.5645ZM35.3922 13.1836H36.4658C36.7314 13.1994 36.9973 13.1559 37.244 13.0564C37.4908 12.9568 37.7121 12.8037 37.892 12.6081C38.0719 12.4124 38.2057 12.1793 38.2838 11.9256C38.362 11.6719 38.3824 11.404 38.3436 11.1414C38.3796 10.8799 38.3571 10.6136 38.2778 10.3618C38.1984 10.1099 38.0642 9.87866 37.8848 9.6846C37.7053 9.49054 37.485 9.33846 37.2397 9.23927C36.9944 9.14008 36.7301 9.09623 36.4658 9.11085H35.3922V13.1836Z" fill="white"/>
<path d="M40.243 11.842C40.216 11.5604 40.2483 11.2763 40.3378 11.0078C40.4274 10.7394 40.5722 10.4926 40.763 10.2833C40.9538 10.0739 41.1864 9.90669 41.4458 9.79223C41.7052 9.67778 41.9858 9.61865 42.2694 9.61865C42.5531 9.61865 42.8337 9.67778 43.0931 9.79223C43.3525 9.90669 43.5851 10.0739 43.7759 10.2833C43.9667 10.4926 44.1115 10.7394 44.2011 11.0078C44.2906 11.2763 44.3229 11.5604 44.2959 11.842C44.3234 12.1239 44.2915 12.4084 44.2022 12.6772C44.1129 12.9461 43.9681 13.1933 43.7773 13.4031C43.5864 13.6128 43.3537 13.7804 43.094 13.8951C42.8343 14.0098 42.5535 14.0691 42.2694 14.0691C41.9854 14.0691 41.7045 14.0098 41.4449 13.8951C41.1852 13.7804 40.9524 13.6128 40.7616 13.4031C40.5707 13.1933 40.426 12.9461 40.3367 12.6772C40.2474 12.4084 40.2155 12.1239 40.243 11.842V11.842ZM43.4236 11.842C43.4236 10.9131 43.0052 10.37 42.2708 10.37C41.5337 10.37 41.119 10.9131 41.119 11.842C41.119 12.7783 41.5337 13.3173 42.2708 13.3173C43.0052 13.3173 43.4236 12.7745 43.4236 11.842H43.4236Z" fill="white"/>
<path d="M49.6843 13.9865H48.8046L47.9165 10.8305H47.8494L46.965 13.9865H46.0936L44.9092 9.70142H45.7693L46.5391 12.9712H46.6025L47.4859 9.70142H48.2995L49.183 12.9712H49.2501L50.0161 9.70142H50.8641L49.6843 13.9865Z" fill="white"/>
<path d="M51.8594 9.70119H52.6757V10.3819H52.7391C52.8466 10.1374 53.0279 9.93247 53.2578 9.79562C53.4876 9.65877 53.7546 9.59685 54.0214 9.61848C54.2305 9.6028 54.4404 9.63424 54.6357 9.71046C54.8309 9.78668 55.0065 9.90573 55.1493 10.0588C55.2922 10.2118 55.3986 10.395 55.4609 10.5947C55.5231 10.7943 55.5395 11.0054 55.5088 11.2122V13.9862H54.6607V11.4246C54.6607 10.736 54.3606 10.3935 53.7335 10.3935C53.5915 10.3869 53.4498 10.411 53.3181 10.4642C53.1863 10.5173 53.0676 10.5982 52.9702 10.7013C52.8727 10.8045 52.7988 10.9274 52.7534 11.0617C52.7081 11.196 52.6924 11.3385 52.7074 11.4794V13.9862H51.8594L51.8594 9.70119Z" fill="white"/>
<path d="M56.8594 8.02856H57.7074V13.9864H56.8594V8.02856Z" fill="white"/>
<path d="M58.8865 11.8421C58.8595 11.5604 58.8918 11.2763 58.9814 11.0079C59.071 10.7394 59.2158 10.4926 59.4067 10.2833C59.5975 10.074 59.8301 9.90669 60.0895 9.79223C60.3489 9.67778 60.6295 9.61865 60.9132 9.61865C61.1969 9.61865 61.4775 9.67778 61.7369 9.79223C61.9963 9.90669 62.2289 10.074 62.4198 10.2833C62.6106 10.4926 62.7554 10.7394 62.845 11.0079C62.9346 11.2763 62.9669 11.5604 62.9399 11.8421C62.9674 12.124 62.9354 12.4085 62.8461 12.6773C62.7568 12.9462 62.612 13.1934 62.4211 13.4032C62.2303 13.6129 61.9975 13.7805 61.7378 13.8952C61.4781 14.0099 61.1972 14.0692 60.9132 14.0692C60.6292 14.0692 60.3483 14.0099 60.0886 13.8952C59.8289 13.7805 59.5961 13.6129 59.4053 13.4032C59.2144 13.1934 59.0697 12.9462 58.9803 12.6773C58.891 12.4085 58.859 12.124 58.8865 11.8421V11.8421ZM62.0671 11.8421C62.0671 10.9132 61.6487 10.37 60.9144 10.37C60.1772 10.37 59.7625 10.9132 59.7625 11.8421C59.7625 12.7783 60.1772 13.3173 60.9144 13.3173C61.6487 13.3173 62.0671 12.7746 62.0671 11.8421H62.0671Z" fill="white"/>
<path d="M63.832 12.7746C63.832 12.0032 64.408 11.5586 65.4303 11.4954L66.5942 11.4285V11.0586C66.5942 10.606 66.2942 10.3505 65.7145 10.3505C65.2411 10.3505 64.9131 10.5238 64.8189 10.8268H63.9979C64.0846 10.0907 64.7789 9.61865 65.7536 9.61865C66.8309 9.61865 67.4385 10.1535 67.4385 11.0586V13.9864H66.6222V13.3842H66.5551C66.4189 13.6002 66.2277 13.7763 66.0009 13.8945C65.7741 14.0127 65.52 14.0688 65.2644 14.057C65.084 14.0757 64.9017 14.0565 64.7292 14.0007C64.5567 13.9448 64.3978 13.8535 64.2629 13.7327C64.1279 13.6119 64.0199 13.4642 63.9457 13.2992C63.8714 13.1341 63.8327 12.9554 63.832 12.7746V12.7746ZM66.5942 12.4084V12.0502L65.5449 12.1171C64.9531 12.1566 64.6847 12.3573 64.6847 12.7351C64.6847 13.1207 65.0202 13.3452 65.4816 13.3452C65.6167 13.3588 65.7533 13.3452 65.883 13.3051C66.0128 13.2651 66.1332 13.1994 66.237 13.112C66.3408 13.0246 66.426 12.9173 66.4873 12.7964C66.5487 12.6755 66.5851 12.5436 66.5942 12.4084V12.4084Z" fill="white"/>
<path d="M68.5547 11.842C68.5547 10.488 69.2527 9.63024 70.3384 9.63024C70.6069 9.6179 70.8735 9.68204 71.1068 9.81517C71.3401 9.94829 71.5307 10.1449 71.6561 10.382H71.7195V8.02856H72.5675V13.9864H71.7549V13.3094H71.6878C71.5527 13.5449 71.3555 13.739 71.1176 13.8708C70.8798 14.0026 70.6103 14.067 70.3384 14.057C69.2452 14.057 68.5547 13.1992 68.5547 11.842ZM69.4307 11.842C69.4307 12.7509 69.8603 13.2978 70.5788 13.2978C71.2936 13.2978 71.7353 12.743 71.7353 11.8457C71.7353 10.9526 71.289 10.39 70.5788 10.39C69.865 10.39 69.4307 10.9406 69.4307 11.842H69.4307Z" fill="white"/>
<path d="M76.075 11.842C76.048 11.5604 76.0803 11.2763 76.1699 11.0078C76.2594 10.7394 76.4042 10.4926 76.595 10.2833C76.7858 10.0739 77.0184 9.90669 77.2778 9.79223C77.5372 9.67778 77.8178 9.61865 78.1015 9.61865C78.3851 9.61865 78.6657 9.67778 78.9251 9.79223C79.1845 9.90669 79.4171 10.0739 79.6079 10.2833C79.7987 10.4926 79.9435 10.7394 80.0331 11.0078C80.1226 11.2763 80.1549 11.5604 80.1279 11.842C80.1555 12.1239 80.1235 12.4084 80.0342 12.6772C79.9449 12.9461 79.8002 13.1933 79.6093 13.4031C79.4185 13.6128 79.1857 13.7804 78.926 13.8951C78.6664 14.0098 78.3855 14.0691 78.1015 14.0691C77.8175 14.0691 77.5366 14.0098 77.2769 13.8951C77.0172 13.7804 76.7845 13.6128 76.5936 13.4031C76.4028 13.1933 76.258 12.9461 76.1687 12.6772C76.0794 12.4084 76.0475 12.1239 76.075 11.842V11.842ZM79.2556 11.842C79.2556 10.9131 78.8372 10.37 78.1029 10.37C77.3657 10.37 76.951 10.9131 76.951 11.842C76.951 12.7783 77.3658 13.3173 78.1029 13.3173C78.8372 13.3173 79.2556 12.7745 79.2556 11.842Z" fill="white"/>
<path d="M81.2666 9.70119H82.083V10.3819H82.1463C82.2538 10.1374 82.4352 9.93247 82.665 9.79562C82.8949 9.65877 83.1618 9.59685 83.4287 9.61848C83.6377 9.6028 83.8477 9.63424 84.0429 9.71046C84.2382 9.78668 84.4137 9.90573 84.5566 10.0588C84.6994 10.2118 84.8059 10.395 84.8681 10.5947C84.9303 10.7943 84.9467 11.0054 84.916 11.2122V13.9862H84.068V11.4246C84.068 10.736 83.7679 10.3935 83.1407 10.3935C82.9987 10.3869 82.857 10.411 82.7253 10.4642C82.5935 10.5173 82.4749 10.5982 82.3774 10.7013C82.28 10.8045 82.206 10.9274 82.1607 11.0617C82.1153 11.196 82.0996 11.3385 82.1146 11.4794V13.9862H81.2666V9.70119Z" fill="white"/>
<path d="M89.7079 8.63452V9.72088H90.6389V10.4332H89.7079V12.6366C89.7079 13.0854 89.8934 13.282 90.3155 13.282C90.4236 13.2816 90.5316 13.2751 90.6389 13.2625V13.9669C90.4866 13.9941 90.3323 14.0085 90.1776 14.0101C89.2345 14.0101 88.8589 13.6793 88.8589 12.8531V10.4332H88.1768V9.72084H88.8589V8.63452H89.7079Z" fill="white"/>
<path d="M91.7959 8.02856H92.6365V10.3899H92.7036C92.8163 10.1432 93.0026 9.93706 93.2371 9.79969C93.4715 9.66233 93.7428 9.6004 94.0138 9.62233C94.2218 9.61105 94.4297 9.64567 94.6228 9.72375C94.8158 9.80182 94.9892 9.92141 95.1305 10.074C95.2719 10.2266 95.3777 10.4084 95.4405 10.6064C95.5033 10.8045 95.5214 11.0139 95.4937 11.2198V13.9864H94.6448V11.4284C94.6448 10.744 94.3251 10.3974 93.7259 10.3974C93.5802 10.3854 93.4336 10.4054 93.2964 10.4559C93.1592 10.5064 93.0347 10.5862 92.9316 10.6896C92.8286 10.7931 92.7494 10.9178 92.6997 11.055C92.6501 11.1921 92.631 11.3385 92.644 11.4837V13.9863H91.7959L91.7959 8.02856Z" fill="white"/>
<path d="M100.439 12.8295C100.323 13.2211 100.074 13.5599 99.7333 13.7865C99.3929 14.0131 98.9834 14.1132 98.5766 14.0692C98.2935 14.0766 98.0121 14.0226 97.7521 13.9107C97.492 13.7989 97.2595 13.6319 97.0706 13.4215C96.8818 13.2111 96.7411 12.9622 96.6584 12.6921C96.5756 12.422 96.5529 12.1372 96.5916 11.8574C96.5539 11.5768 96.5771 11.2914 96.6596 11.0205C96.7421 10.7496 96.8821 10.4995 97.0699 10.2873C97.2578 10.075 97.4892 9.90544 97.7485 9.79009C98.0078 9.67475 98.2889 9.61631 98.5728 9.61872C99.7685 9.61872 100.49 10.4333 100.49 11.7789V12.074H97.4554V12.1214C97.4422 12.2786 97.462 12.4369 97.5136 12.5861C97.5653 12.7352 97.6476 12.872 97.7554 12.9876C97.8631 13.1031 97.9939 13.195 98.1393 13.2572C98.2847 13.3194 98.4416 13.3507 98.5998 13.3489C98.8027 13.3732 99.0082 13.3368 99.1903 13.2443C99.3723 13.1518 99.5226 13.0074 99.6222 12.8295L100.439 12.8295ZM97.4554 11.4485H99.6259C99.6365 11.3047 99.6169 11.1603 99.5683 11.0244C99.5197 10.8886 99.4431 10.7645 99.3435 10.6599C99.2439 10.5554 99.1234 10.4728 98.9899 10.4174C98.8564 10.3621 98.7127 10.3352 98.5681 10.3385C98.4215 10.3366 98.2759 10.3641 98.14 10.4192C98.0042 10.4744 97.8808 10.5561 97.7771 10.6595C97.6734 10.763 97.5915 10.8861 97.5363 11.0216C97.481 11.1571 97.4535 11.3023 97.4554 11.4485H97.4554Z" fill="white"/>
</svg>
