<svg width="56" height="56" viewBox="0 0 56 56" fill="none" xmlns="http://www.w3.org/2000/svg">
<rect width="56" height="56" rx="12" fill="#724C9B"/>
<mask id="mask0_32_5" style="mask-type:alpha" maskUnits="userSpaceOnUse" x="0" y="0" width="56" height="56">
<rect width="56" height="56" rx="12" fill="url(#paint0_linear_32_5)"/>
</mask>
<g mask="url(#mask0_32_5)">
<path d="M56.5691 36.3932C54.913 36.3932 53.8506 34.6177 51.9757 30.8448C50.1008 27.0718 47.4135 21.5974 41.9763 21.5974C36.5392 21.5974 33.9144 26.9239 31.977 30.8448C30.0396 34.7657 29.0397 36.3932 27.4148 36.3932C25.7899 36.3932 24.6962 34.6177 22.8214 30.8448C20.9465 27.0718 18.2592 21.5974 12.822 21.5974C7.38488 21.5974 4.76005 26.9239 2.82268 30.8448C1.56244 33.3953 0.705828 34.9949 -0.203458 35.8015C-1.07036 36.5704 -2.46648 36.4859 -3.27942 37.3117C-4.66308 38.7173 -4.45267 41.1699 -3.24128 42.5899C-2.47601 43.487 -1.16921 43.8152 -0.0116945 43.5904C0.0203603 43.5842 0.0522638 43.5771 0.0840119 43.5693C4.29804 42.523 6.55304 37.9903 8.22857 34.5438C10.1347 30.6229 11.1346 28.9953 12.822 28.9953C14.5094 28.9953 15.5406 30.7708 17.3842 34.5438C19.2278 38.3167 21.9464 43.7912 27.4148 43.7912C32.8832 43.7912 35.4768 38.4647 37.4141 34.5438C39.3515 30.6229 40.3202 28.9953 42.0076 28.9953C43.695 28.9953 44.7262 30.7708 46.601 34.5438C48.4759 38.3167 51.1632 43.7912 56.6004 43.7912C60.222 43.7912 60.8079 36.6244 56.5691 36.3932Z" fill="white"/>
<path d="M16.6042 15.9022C16.6042 17.9419 14.9757 19.5954 12.967 19.5954C10.9583 19.5954 9.32986 17.9419 9.32986 15.9022C9.32986 13.8625 10.9583 12.209 12.967 12.209C14.9757 12.209 16.6042 13.8625 16.6042 15.9022Z" fill="white"/>
<path d="M44.9875 15.9022C44.9875 17.9419 43.3591 19.5954 41.3503 19.5954C39.3416 19.5954 37.7132 17.9419 37.7132 15.9022C37.7132 13.8625 39.3416 12.209 41.3503 12.209C43.3591 12.209 44.9875 13.8625 44.9875 15.9022Z" fill="#FFF8FB"/>
</g>
<defs>
<linearGradient id="paint0_linear_32_5" x1="28" y1="0" x2="28" y2="56" gradientUnits="userSpaceOnUse">
<stop stop-color="#FF2C62"/>
<stop offset="1" stop-color="#724C9B"/>
</linearGradient>
</defs>
</svg>
