<svg width="48" height="48" viewBox="0 0 48 48" fill="none" xmlns="http://www.w3.org/2000/svg">
<rect width="48" height="48" rx="8" fill="url(#paint0_linear_2500_25069)"/>
<mask id="mask0_2500_25069" style="mask-type:alpha" maskUnits="userSpaceOnUse" x="0" y="0" width="48" height="48">
<rect width="48" height="48" rx="8" fill="url(#paint1_linear_2500_25069)"/>
</mask>
<g mask="url(#mask0_2500_25069)">
<path d="M48.4876 31.1942C47.068 31.1942 46.1574 29.6724 44.5503 26.4384C42.9433 23.2044 40.6399 18.512 35.9795 18.512C31.319 18.512 29.0692 23.0776 27.4086 26.4384C25.748 29.7992 24.8909 31.1942 23.4982 31.1942C22.1054 31.1942 21.1679 29.6724 19.5609 26.4384C17.9539 23.2044 15.6505 18.512 10.9901 18.512C6.32965 18.512 4.0798 23.0776 2.41919 26.4384C1.21916 28.8671 0.446114 30.2898 -0.436204 30.8921C-1.07424 31.3277 -1.95777 31.2795 -2.5634 31.7592C-4.11372 32.9869 -3.85934 35.5209 -2.54488 36.7505C-1.9708 37.2876 -1.13251 37.4226 -0.346774 37.3986C-0.204222 37.3942 -0.0645556 37.3789 0.0717657 37.3451C3.68379 36.4483 5.61664 32.5631 7.05281 29.6089C8.68663 26.2482 9.54372 24.8531 10.9901 24.8531C12.4364 24.8531 13.3203 26.375 14.9005 29.6089C16.4808 32.8429 18.811 37.5353 23.4982 37.5353C28.1853 37.5353 30.4084 32.9697 32.069 29.6089C33.7296 26.2482 34.5599 24.8531 36.0062 24.8531C37.4526 24.8531 38.3365 26.375 39.9435 29.6089C41.5505 32.8429 43.854 37.5353 48.5144 37.5353C51.6186 37.5353 52.1208 31.3924 48.4876 31.1942Z" fill="white"/>
<path d="M14.2319 13.6305C14.2319 15.3788 12.8361 16.7961 11.1143 16.7961C9.39255 16.7961 7.99678 15.3788 7.99678 13.6305C7.99678 11.8821 9.39255 10.4648 11.1143 10.4648C12.8361 10.4648 14.2319 11.8821 14.2319 13.6305Z" fill="white"/>
<path d="M38.5605 13.6305C38.5605 15.3788 37.1647 16.7961 35.4429 16.7961C33.7211 16.7961 32.3253 15.3788 32.3253 13.6305C32.3253 11.8821 33.7211 10.4648 35.4429 10.4648C37.1647 10.4648 38.5605 11.8821 38.5605 13.6305Z" fill="#FFF8FB"/>
</g>
<defs>
<linearGradient id="paint0_linear_2500_25069" x1="24" y1="0" x2="24" y2="48" gradientUnits="userSpaceOnUse">
<stop stop-color="#FF2C62"/>
<stop offset="1" stop-color="#724C9B"/>
</linearGradient>
<linearGradient id="paint1_linear_2500_25069" x1="24" y1="0" x2="24" y2="48" gradientUnits="userSpaceOnUse">
<stop stop-color="#FF2C62"/>
<stop offset="1" stop-color="#724C9B"/>
</linearGradient>
</defs>
</svg>
