<svg width="242" height="282" viewBox="0 0 242 282" fill="none" xmlns="http://www.w3.org/2000/svg">
<path d="M59.6766 281.294C58.3531 281.294 57.4707 280.412 57.4707 279.088C57.4707 261.882 67.6178 246.882 74.6766 231.441C92.7648 190.853 80.4119 171 92.3236 155.118C93.206 154.235 94.5295 153.794 95.4119 154.677C96.2942 155.559 96.7354 156.882 95.8531 157.765C85.706 171.441 96.7354 192.618 78.6472 233.206C76.8825 236.735 75.1178 240.706 73.3531 244.235C67.6178 255.265 61.8825 267.177 61.8825 279.088C61.8825 280.412 61.0001 281.294 59.6766 281.294Z" fill="#D12E58"/>
<path d="M94.9701 165.706C91.8819 165.265 84.3819 163.941 83.4995 161.294C83.0584 159.971 83.9407 158.206 85.2642 157.765C86.1466 157.324 87.0289 156.882 87.9113 156C91.4407 154.235 90.1172 151.147 90.1172 147.177V146.735C90.9995 149.824 94.5289 152.471 98.0583 152.029C98.0583 152.029 98.0584 152.471 97.6172 152.471C95.4113 157.324 97.6172 161.294 98.0583 162.618C99.3819 164.824 97.6172 166.147 94.9701 165.706Z" fill="#B9002F"/>
<path d="M98.4996 162.618C96.2937 161.735 94.0878 161.294 94.0878 160.853C92.3231 159.529 90.1172 157.765 88.3525 156C91.882 154.235 90.5584 151.147 90.5584 147.177C91.4408 147.618 92.7643 148.5 93.6467 148.941C95.8525 150.265 97.6172 152.029 98.0584 152.471C96.7349 155.118 96.7349 158.206 98.0584 160.853C98.0584 161.735 98.0584 162.177 98.4996 162.618Z" fill="#D12E58"/>
<path d="M180.559 97.7646C176.147 107.912 169.088 116.294 161.147 124.235C148.353 137.471 133.353 148.941 115.706 155.559C107.323 158.647 99.3823 159.529 90.9999 154.676C79.5294 147.618 71.147 131.294 66.2941 118.5C63.647 110.559 61.4411 102.618 59.6764 94.2352C59.2352 91.5882 59.2352 87.1764 57.0294 85.8529C54.8235 84.5293 51.2941 84.0882 49.0882 82.3235C47.7647 81.4411 39.3823 71.7352 40.7058 69.0882C40.7058 68.647 40.7058 67.7646 40.2646 67.3235C40.7058 67.7646 40.7058 68.2058 41.147 68.647C43.7941 71.7352 47.7646 73.9411 51.7352 74.3823C53.4999 74.8235 56.147 74.3823 56.5882 72.6176C57.4705 70.8529 55.7058 68.647 57.0294 67.3235C58.3529 66.4411 60.1176 66.8823 61.4411 65.9999C62.3235 65.1176 61.8823 63.794 61.4411 62.9117C60.9999 62.0293 60.1176 61.5882 59.2352 60.7058C57.9117 59.8235 55.2647 56.294 55.7058 54.5293C56.147 52.3235 56.5882 53.647 58.3529 54.0882C60.9999 54.9705 62.7646 56.2941 65.8529 56.2941C67.1764 56.2941 70.7058 56.2941 71.147 54.0882C71.5882 52.3235 70.2646 52.3235 69.3823 51.4411C66.2941 46.5882 71.147 45.7058 74.6764 43.0588C75.9999 42.1764 76.8823 39.9705 75.9999 38.647C74.6764 35.9999 71.147 37.3235 68.9411 35.9999C67.1764 35.1176 65.8529 32.0293 64.9705 30.7058C63.647 28.4999 62.3235 25.8529 61.8823 23.2058C61.4411 21.4411 60.9999 17.0293 63.2058 17.0293C64.5294 17.0293 67.6176 20.5588 69.3823 21.4411C81.7352 27.6176 95.4117 15.2646 108.206 13.0588C128.059 9.52935 149.235 15.2646 163.353 28.9411C181 45.2646 190.265 75.2646 180.559 97.7646Z" fill="#FF2C62"/>
<path d="M49.5289 17.9118C48.6466 13.0588 46.4407 8.20588 42.9113 4.23529C39.3818 -0.176476 35.8524 2.47058 36.7348 5.55882C37.176 7.32352 38.0583 7.7647 50.4113 23.2059H52.176C51.2936 19.6765 50.4113 16.5882 49.0877 13.0588" fill="#D12E58"/>
<path d="M9.38231 49.6764C7.61761 49.2352 6.29408 48.7941 4.52937 49.2352C2.76467 49.6764 1.44114 50.5588 0.999962 51.8823C0.117609 54.9705 3.64702 57.1764 6.73526 57.6176C12.0294 58.4999 17.3235 57.1764 22.6176 56.7352C27.9117 56.2941 33.647 57.1764 37.1764 61.147C27.4705 54.9705 20.4117 52.3235 9.38231 49.6764Z" fill="#D12E58"/>
<path d="M16.8821 24.9705C12.0291 21.8823 8.05854 16.5882 7.17618 10.8529C6.73501 9.08815 7.17618 6.88227 8.49971 5.99992C10.7056 4.67639 12.9115 6.88227 14.6762 8.64698C21.735 17.9117 29.235 27.1764 36.2938 36.4411C33.2056 30.2646 22.1762 29.3823 16.8821 24.9705Z" fill="#D12E58"/>
<path d="M180.559 97.7647C176.147 107.912 169.088 116.294 161.147 124.235C148.353 137.471 133.353 148.941 115.706 155.559C107.323 158.647 99.3822 159.529 90.9998 154.676C79.5292 147.618 71.1469 131.294 66.2939 118.5C79.5292 120.706 98.941 107.912 109.529 99.5294C140.412 74.8235 152.323 43.0588 163.353 28.5C181 45.2647 190.265 75.2647 180.559 97.7647Z" fill="#D12E58"/>
<path d="M107.765 158.647C107.324 157.323 107.765 156.441 109.089 156C131.589 147.176 148.794 135.706 161.147 122.029C176.147 105.265 183.206 84.5293 181.442 65.5587C179.236 44.3823 164.236 25.8528 145.265 20.9999C143.942 20.5587 143.5 19.6764 143.5 18.3528C143.942 17.0293 144.824 16.5881 146.147 16.5881C166.883 21.8823 183.206 41.7352 185.412 65.1175C187.618 85.4117 179.677 107.47 164.236 125.118C151.442 139.676 133.794 151.147 110.412 160.412C109.53 159.971 108.206 159.529 107.765 158.647Z" fill="#D12E58"/>
<path d="M214.97 1.14696C215.853 2.02931 219.382 6.88225 218.941 8.20578C218.5 9.52931 217.176 9.52931 216.294 8.64696C214.97 5.9999 214.97 5.9999 213.647 4.2352C210.558 5.55872 200.411 12.6175 198.205 13.9411C198.647 14.3823 198.205 14.3823 200.411 16.5881C200.853 17.0293 200.853 17.9117 200.411 18.3528C199.97 18.794 199.088 18.794 198.647 18.3528C197.764 17.0293 196.441 16.147 196 15.2646C192.911 17.4705 184.529 22.7646 181.441 26.294C182.323 27.6175 184.529 30.2646 184.97 31.147C185.411 31.5881 185.411 32.4705 184.97 32.9117C184.529 33.3528 183.647 33.3528 183.205 32.9117C181.882 31.5881 179.676 28.4999 178.794 27.1764C178.353 26.294 178.353 24.9705 179.235 24.5293C185.853 19.6764 170.411 28.9411 212.764 2.02931C212.764 0.264607 214.529 0.264607 214.97 1.14696Z" fill="#D12E58"/>
<path d="M226.882 21.8822L227.764 22.3234C229.088 22.7646 229.97 24.0881 230.411 24.9705C230.853 25.8528 230.411 28.0587 229.97 28.9411C227.764 32.0293 222.029 35.5587 214.529 35.9999C209.676 35.9999 211 35.9999 207.47 35.1175C207.029 35.9999 206.588 36.8822 206.147 37.7646C202.617 44.3822 193.794 50.1175 192.911 50.1175C191.588 50.1175 191.147 48.3528 192.47 47.9116C197.764 44.3822 203.058 40.4116 205.264 34.6764C204.382 35.1175 193.353 39.5293 192.47 39.5293C190.706 40.4116 190.706 40.4116 190.264 40.4116C188.941 41.294 187.617 39.0881 188.941 38.2058C190.264 37.3234 190.264 37.3234 191.147 36.8822C191.588 36.8822 221.588 24.5293 226 23.2058C224.676 21.8822 226 21.4411 226.882 21.8822ZM207.911 32.4705C209.235 32.9116 210.558 33.3528 213.647 33.3528C218.058 32.9117 219.823 32.9116 223.353 30.7058C223.794 30.2646 226 28.9411 226.441 28.4999C227.323 27.6175 227.764 26.294 226.882 25.4117L221.588 27.1764C216.735 28.4999 212.764 30.7058 207.911 32.4705Z" fill="#D12E58"/>
<path d="M235.264 47.0293C236.146 47.0293 236.588 47.4705 237.029 47.9116C240.117 50.1175 239.235 54.0881 236.588 55.8528C233.94 57.6175 229.529 58.9411 224.676 58.9411C221.146 58.9411 218.058 58.0587 217.176 57.6175C216.735 57.6175 214.97 56.7352 214.088 56.294C212.764 57.6175 210.117 62.9116 197.764 67.7646C197.323 67.7646 196.882 68.2058 196.44 68.2058C195.558 67.7646 195.558 67.3234 195.558 66.4411C195.999 65.5587 196.44 65.5587 196.882 65.5587C197.323 65.1175 207.47 61.5881 211.882 55.4117C210.999 55.4117 199.088 57.6175 198.205 57.6175C195.999 57.1764 195.999 57.6175 195.558 57.6175C193.793 58.0587 192.911 55.8528 194.676 54.9705C196.44 54.5293 225.558 48.794 233.94 47.9116C233.94 47.9116 234.382 47.0293 235.264 47.0293ZM215.411 54.0881C220.705 56.294 226.882 57.1764 232.617 54.5293C234.382 53.6469 235.705 53.2058 235.705 51.4411V50.9999C235.264 50.5587 226.44 51.4411 215.411 54.0881Z" fill="#D12E58"/>
<path d="M239.676 85.8528C236.147 90.7057 213.647 89.8234 203.058 86.7352C197.323 85.4116 193.352 80.5587 200.411 76.1469C206.588 72.6175 230.411 73.4999 233.941 74.3822C241.882 77.0293 242.764 82.3234 239.676 85.8528ZM234.382 77.4705C230.411 75.7058 217.617 76.1469 213.205 76.1469C207.47 76.1469 203.5 77.0293 201.294 78.794C199.529 79.6763 199.088 80.9999 200.852 82.7646C202.617 84.0881 216.735 87.6175 228.205 86.7352C230.852 86.294 237.029 86.294 238.352 83.6469C239.235 80.1175 237.47 78.794 234.382 77.4705Z" fill="#D12E58"/>
<path d="M236.587 104.823C237.47 105.265 237.47 105.706 237.47 106.147C237.911 107.47 237.911 108.794 237.911 109.676C237.47 110.559 236.146 111.882 235.264 112.765C232.617 113.647 226.881 113.206 222.029 110.559C216.293 107.47 214.97 104.823 213.646 103.5C211.44 103.941 208.352 107.47 193.793 106.588C192.029 106.588 192.029 103.941 193.793 103.941H195.558C197.764 104.382 207.029 104.382 211.881 101.294C207.911 100.412 200.411 97.7645 196.44 96.8822C194.676 96.441 195.117 94.2351 196.881 94.2351C200.411 94.6763 208.793 97.3233 212.323 98.6469C222.029 101.735 223.352 100.853 235.264 105.706C235.264 104.823 236.146 104.382 236.587 104.823ZM216.293 102.617C218.058 104.382 217.617 104.382 221.587 107.47C225.999 110.559 235.705 112.765 235.705 108.794C232.176 107.47 236.146 107.47 216.293 102.617Z" fill="#D12E58"/>
</svg>
