<svg width="300" height="300" viewBox="0 0 300 300" fill="none" xmlns="http://www.w3.org/2000/svg">
<path d="M187.5 84.2647C189.265 69.2647 187.059 53.8236 180.883 40.1471C180 37.9412 179.118 36.1765 178.677 33.9706C178.236 31.7647 178.677 29.5589 180.441 27.7942C184.853 22.9412 187.059 29.1177 188.383 32.2059C190.147 35.7353 193.677 35.7353 194.559 32.2059C195 29.5589 192.353 22.9412 196.324 12.353C198.088 7.94121 202.059 7.50003 202.059 13.6765C202.059 21.1765 203.383 28.2353 205.147 35.2942C205.588 37.0589 206.912 38.8236 208.236 38.3824C209.559 37.9412 210 36.6177 213.53 28.6765C215.294 24.2647 218.383 26.0294 217.941 28.2353C217.941 30 215.294 33.5294 215.294 39.7059C215.294 40.5883 215.294 41.4706 216.177 42.353C217.059 43.2353 218.383 43.2353 219.265 42.7942C220.147 42.353 221.03 41.4706 221.471 40.5883C226.765 35.2942 233.824 32.6471 240.441 33.0883C240 35.7353 238.236 37.5 236.912 39.7059C235.147 41.4706 233.824 44.1177 234.706 46.7647C236.471 50.7353 242.206 50.2942 244.853 50.2942C248.824 50.2942 252.353 51.6177 255.883 53.3824C257.647 54.2647 258.971 56.0294 258.53 57.7942C257.647 60.8824 252.794 58.6765 244.853 59.1177C242.647 59.1177 240.441 59.5589 239.559 61.3236C238.236 63.5294 240 66.1765 241.765 67.9412C243.971 69.2647 246.177 70.1471 247.941 71.9118C250.588 74.5589 250.147 79.853 244.412 78.9706C225.883 75 209.559 74.1177 193.236 86.9118" fill="#F2D544"/>
<path d="M233.824 47.6471C232.941 49.853 228.088 53.3824 224.559 56.0295C221.03 58.6765 218.824 60.8824 216.177 61.3236C211.324 62.2059 206.03 56.9118 203.824 53.3824C202.059 50.7353 203.824 47.6471 207.794 35.2942C208.677 32.6471 210.883 31.3236 213.088 31.3236C219.265 30.8824 230.735 37.0589 233.383 43.2353C234.265 44.5589 234.265 46.3236 233.824 47.6471Z" fill="#FF5C88"/>
<path d="M218.383 60.8824C213.971 63.9707 206.912 58.2354 203.824 53.3824C203.383 52.9412 203.383 52.0589 202.941 51.1765C208.677 49.4118 215.294 56.0295 218.383 60.8824Z" fill="#FF5C88"/>
<path d="M216.618 40.1471C217.836 40.1471 218.824 39.1595 218.824 37.9412C218.824 36.723 217.836 35.7354 216.618 35.7354C215.4 35.7354 214.412 36.723 214.412 37.9412C214.412 39.1595 215.4 40.1471 216.618 40.1471Z" fill="#FF5C88"/>
<path d="M233.824 47.6471H233.383C232.059 47.6471 231.177 46.7648 231.177 45.4412C231.177 43.6765 232.5 42.7942 233.824 43.2354C234.265 44.5589 234.265 46.3236 233.824 47.6471Z" fill="#FF5C88"/>
<path d="M220.147 49.4118C221.366 49.4118 222.353 48.4242 222.353 47.2059C222.353 45.9876 221.366 45 220.147 45C218.929 45 217.941 45.9876 217.941 47.2059C217.941 48.4242 218.929 49.4118 220.147 49.4118Z" fill="#FF5C88"/>
<path d="M206.912 38.8236C206.912 38.3825 208.236 34.853 208.236 34.4119C210.883 35.2942 209.118 39.706 206.912 38.8236Z" fill="#FF5C88"/>
<path d="M207.353 49.4118C208.572 49.4118 209.559 48.4242 209.559 47.2059C209.559 45.9876 208.572 45 207.353 45C206.135 45 205.147 45.9876 205.147 47.2059C205.147 48.4242 206.135 49.4118 207.353 49.4118Z" fill="#FF5C88"/>
<path d="M227.206 36.1765C225.882 37.9412 223.235 37.0588 223.235 34.8529C223.235 34.4118 223.235 34.4118 223.235 33.9706C225 34.8529 225.882 35.2941 227.206 36.1765Z" fill="#FF5C88"/>
<path d="M224.559 56.0295C223.677 56.9118 222.794 57.353 221.471 58.2354C219.265 57.353 219.706 53.8236 222.353 53.8236C223.677 53.8236 224.559 54.706 224.559 56.0295Z" fill="#FF5C88"/>
<path d="M204.264 90.4412C198.529 101.912 191.911 112.941 185.294 123.971C183.97 125.735 182.205 127.941 181.764 130.147C181.323 132.794 181.764 135.882 182.205 138.529C183.97 153.529 185.294 159.265 174.264 175.588C168.97 183.529 164.117 191.912 158.823 199.853C118.235 262.5 127.941 245.735 108.529 275.294C101.911 285 97.4996 288.529 85.1467 284.559C73.6761 280.588 63.529 274.853 54.2643 266.912C40.1467 254.559 41.029 245.735 49.4114 231.176C69.7055 197.206 87.3525 168.088 116.029 127.5C125.735 113.824 138.088 114.706 152.205 109.853C154.411 108.971 153.088 109.412 182.205 76.3236C183.529 75 184.853 74.1177 186.617 74.5589C193.235 75.4412 200.294 79.4118 203.382 85.1471C205.147 86.9118 205.147 89.1177 204.264 90.4412Z" fill="#32CE5A"/>
<path d="M204.265 90.4412C209.118 90.4412 212.647 83.8236 208.235 77.6471C206.912 75.4412 204.706 73.6765 202.5 71.9118C198.088 68.8236 192.794 66.1765 187.5 67.0589C185.294 67.5 183.529 68.8236 182.647 70.5883C181.765 72.353 182.647 75.0001 184.412 75.8824C191.029 78.9706 201.176 83.3824 204.265 90.4412Z" fill="#32CE5A"/>
<path d="M198.971 89.5589C195 84.2647 188.824 80.7353 182.647 78.9706C181.324 78.5294 180.882 77.6471 181.324 76.3236C181.765 75 182.647 74.5589 183.971 75C191.03 77.2059 197.647 81.1765 202.5 87.353C203.382 88.2353 202.941 89.5589 202.059 90.4412C201.177 90.4412 199.853 90.4412 198.971 89.5589Z" fill="black"/>
<path d="M121.764 243.971C119.117 247.941 112.059 258.088 108.088 259.412C106.323 259.853 104.559 259.853 103.676 258.529C102.353 256.765 103.235 253.677 104.559 251.471C146.47 183.53 150 172.059 171.617 148.677C172.059 147.794 172.941 147.353 173.823 146.912C174.706 146.471 176.029 146.471 176.47 147.353C176.911 148.235 176.911 149.559 176.47 150.441C163.235 183.088 141.617 215.735 121.764 243.971Z" fill="#34A853"/>
<path d="M183.088 87.353C182.647 91.3236 179.558 93.9706 166.764 108.529C165.441 109.853 164.117 111.618 162.352 112.059C158.823 112.941 159.264 109.853 161.029 108.088C166.323 101.029 171.617 94.853 177.794 88.6765C180.882 85.5883 183.529 82.9412 183.088 87.353Z" fill="#34A853"/>
<path d="M129.264 132.353C127.941 127.059 121.764 133.235 120.441 135C111.617 147.794 107.205 156.177 103.676 163.235C102.794 165.441 101.029 167.647 101.911 170.294C102.794 172.5 105.882 172.5 108.088 171.618C110.735 169.853 110.294 169.853 127.941 136.324C128.823 135 129.264 133.677 129.264 132.353Z" fill="#34A853"/>
<path d="M150.441 213.529C144.265 223.235 136.765 234.265 130.589 243.529C106.324 236.029 84.265 222.353 66.1768 204.706C74.5591 191.471 82.9415 178.235 91.3238 165C104.559 186.618 124.853 203.824 150.441 213.529Z" fill="#F2D544"/>
<path d="M87.3528 290.735C74.1176 283.235 60.8823 275.294 49.4117 264.706C40.147 255.883 39.7058 249.265 44.5587 236.912C60.8823 197.647 87.3529 164.118 112.941 131.471C113.823 130.588 115.147 130.588 116.029 131.03C116.912 131.912 116.912 133.235 116.47 134.118C91.3234 166.324 64.8529 199.853 48.5293 238.235C43.6764 249.706 44.5587 254.118 52.4999 261.618C63.5293 271.765 76.7646 279.706 89.5587 287.206C90.4411 287.647 90.8823 288.971 90.4411 289.853C89.9999 291.177 88.6764 291.618 87.3528 290.735Z" fill="black"/>
<path d="M171.618 265.588C169.412 265.147 167.206 264.265 164.559 262.941C163.235 262.5 162.794 261.176 163.235 260.294C163.676 259.412 165 258.971 165.882 259.853C168.088 261.177 169.853 261.618 171.176 262.059C176.912 262.941 173.382 255.882 166.765 255C164.559 254.559 162.353 255 160.147 255C148.676 254.118 144.706 241.765 151.323 239.559C154.412 238.235 161.029 240.882 159.265 243.971C158.823 244.853 157.5 244.853 156.618 244.412C154.853 243.088 152.206 242.647 152.206 245.294C152.206 246.618 153.088 247.941 153.971 249.265C157.941 252.794 162.794 251.471 166.765 251.912C179.118 252.353 182.206 266.912 171.618 265.588Z" fill="black"/>
<path d="M160.147 232.5C159.264 231.618 158.823 230.735 159.706 229.853C160.147 228.971 161.47 228.971 162.353 229.853C166.764 233.382 178.676 242.647 183.97 244.853C185.735 245.735 187.5 246.177 188.823 245.294C196.764 240 176.47 228.088 168.088 221.912C165.882 220.588 167.647 217.5 169.853 218.824C180.441 226.324 196.764 236.029 194.117 244.412C192.794 248.382 188.823 250.588 183.088 247.941C180.882 247.059 165 236.471 160.147 232.5Z" fill="black"/>
<path d="M187.5 221.912C168.089 209.559 179.559 194.559 189.706 201.177C190.589 201.618 191.03 202.941 190.589 203.824C190.147 204.706 188.824 204.706 187.942 204.265C187.059 203.824 183.971 202.5 181.765 205.147C177.353 211.324 189.706 221.029 197.647 222.794C204.706 224.118 206.912 218.382 202.059 212.647C201.177 211.765 201.177 210.882 202.059 210C202.942 209.559 204.265 209.559 204.706 210.441C214.412 220.588 205.589 233.382 187.5 221.912Z" fill="black"/>
<path d="M201.176 199.853C180.441 189.265 190.588 173.382 201.618 179.118C202.5 179.559 202.941 180.882 202.5 181.765C202.059 182.647 200.735 183.088 199.853 182.206C198.971 181.765 195.441 180.441 193.676 183.529C188.823 191.912 211.323 203.382 216.618 198.088C220.588 194.118 214.853 189.265 214.412 188.824C212.647 187.059 214.853 184.412 217.059 186.177C227.206 195.441 220.147 209.559 201.176 199.853Z" fill="black"/>
<path d="M229.853 179.118C230.294 180.441 228.53 181.324 227.206 180.882C222.353 179.118 202.941 172.059 197.647 170.294C195.883 169.853 195.883 168.088 197.206 167.206C198.088 164.118 198.971 161.471 200.294 157.941C201.177 155.735 204.706 157.059 204.265 159.265C203.383 161.471 202.941 162.353 201.177 167.647C201.618 168.088 215.736 172.941 216.618 172.941C217.5 170.735 217.941 168.971 218.383 167.647C219.265 165.441 222.794 166.765 222.353 168.971C222.353 169.412 221.471 170.735 220.588 174.265C222.794 175.147 225 176.03 226.765 176.471C227.647 173.824 228.53 171.177 229.853 168.088C230.736 165.882 234.265 167.206 233.824 169.412C233.383 169.853 232.059 172.941 229.853 179.118Z" fill="black"/>
<path d="M239.118 153.529C238.235 157.941 231.618 158.824 227.206 158.382C224.559 157.941 224.559 154.412 227.206 154.853C229.412 154.853 231.618 154.853 232.941 154.412C238.235 152.647 232.059 147.794 226.324 150C224.118 150.882 222.353 152.206 220.147 153.088C213.529 155.735 206.912 153.088 204.706 148.676C200.735 140.735 214.853 138.971 214.412 143.382C214.412 144.265 213.088 145.147 212.206 144.706C210 144.265 207.353 145.147 208.676 147.353C209.118 148.676 210.441 149.559 212.206 150C217.5 151.765 221.029 148.235 225 146.471C232.941 143.382 240.441 148.676 239.118 153.529Z" fill="black"/>
<path d="M244.412 131.912C244.853 136.765 237.794 138.53 232.941 138.53C231.618 138.53 230.736 137.647 230.736 136.765C230.736 135.882 231.618 135 232.5 135C234.706 135 236.912 134.559 238.236 134.118C243.53 131.912 236.912 127.5 231.177 130.147C229.412 131.03 227.647 132.353 225.441 133.677C215.294 138.971 205.147 130.147 210 124.853C212.206 122.206 219.265 121.324 218.824 124.412C218.824 125.294 217.941 126.177 216.618 126.177C214.412 126.177 211.765 127.059 213.089 129.265C214.412 131.471 218.824 132.794 223.236 131.03C225.441 130.147 226.765 128.824 228.971 127.5C236.912 123.53 244.412 127.059 244.412 131.912Z" fill="black"/>
</svg>
