<svg width="22" height="22" viewBox="0 0 22 22" fill="none" xmlns="http://www.w3.org/2000/svg">
<path d="M0.8 7C0.8 4.12812 3.12812 1.8 6 1.8H16C18.8719 1.8 21.2 4.12812 21.2 7V17C21.2 19.3196 19.3196 21.2 17 21.2H5C2.6804 21.2 0.8 19.3196 0.8 17V7Z" stroke="black" stroke-width="1.6"/>
<rect x="6.4" y="0.4" width="0.8" height="3.2" rx="0.4" fill="black" stroke="black" stroke-width="0.8"/>
<rect x="14.8004" y="0.4" width="0.8" height="3.2" rx="0.4" fill="black" stroke="black" stroke-width="0.8"/>
<circle cx="6" cy="11.2002" r="1" fill="black"/>
<circle cx="6" cy="16" r="1" fill="black"/>
<circle cx="11" cy="11.2002" r="1" fill="black"/>
<circle cx="11" cy="16" r="1" fill="black"/>
<circle cx="16" cy="11.2002" r="1" fill="black"/>
<circle cx="16" cy="16" r="1" fill="black"/>
</svg>
