<svg width="33" height="16" viewBox="0 0 33 16" fill="none" xmlns="http://www.w3.org/2000/svg">
<path d="M31.2795 12.2521C30.4276 12.2521 29.881 11.3526 28.9165 9.44117C27.9521 7.52973 26.5696 4.75628 23.7726 4.75628C20.9756 4.75628 19.6253 7.45478 18.6287 9.44117C17.6321 11.4276 17.1177 12.2521 16.2818 12.2521C15.4459 12.2521 14.8833 11.3526 13.9188 9.44117C12.9543 7.52973 11.5719 4.75628 8.77492 4.75628C5.97792 4.75628 4.62764 7.45478 3.63101 9.44117C2.63438 11.4276 2.12846 12.2754 1.26043 12.2754C-0.619351 12.8262 -0.208418 15.4492 1.26042 15.8876C1.59879 15.8876 1.92383 15.9605 2.22218 15.8876C4.38998 15.3575 5.55 13.0612 6.41194 11.3151C7.39249 9.32873 7.90689 8.50419 8.77492 8.50419C9.64296 8.50419 10.1734 9.40369 11.1218 11.3151C12.0702 13.2265 13.4687 16 16.2818 16C19.0949 16 20.4291 13.3015 21.4257 11.3151C22.4223 9.32873 22.9207 8.50419 23.7887 8.50419C24.6567 8.50419 25.1872 9.40369 26.1517 11.3151C27.1162 13.2265 28.4986 16 31.2956 16C33.1586 16 33.46 12.3692 31.2795 12.2521Z" fill="black"/>
<path d="M10.7205 1.87104C10.7205 2.90438 9.88285 3.74208 8.84951 3.74208C7.81616 3.74208 6.97847 2.90438 6.97847 1.87104C6.97847 0.837692 7.81616 0 8.84951 0C9.88285 0 10.7205 0.837692 10.7205 1.87104Z" fill="black"/>
<path d="M25.3216 1.87104C25.3216 2.90438 24.4839 3.74208 23.4506 3.74208C22.4173 3.74208 21.5796 2.90438 21.5796 1.87104C21.5796 0.837692 22.4173 0 23.4506 0C24.4839 0 25.3216 0.837692 25.3216 1.87104Z" fill="black"/>
</svg>
