<svg width="24" height="24" viewBox="0 0 24 24" fill="none" xmlns="http://www.w3.org/2000/svg">
<path d="M22.9455 17.357C22.8811 17.1138 22.7666 16.8869 22.6091 16.6908C22.4517 16.4947 22.2549 16.3338 22.0315 16.2185L17.34 13.786C16.9615 13.5852 16.5234 13.5272 16.1057 13.6226C15.688 13.7181 15.3184 13.9606 15.0645 14.3059L14.306 15.3457C14.267 15.3997 14.2097 15.4376 14.1447 15.4523C14.0798 15.467 14.0117 15.4574 13.9533 15.4254C12.8378 14.7902 11.8166 14.0021 10.9192 13.0839C10.0017 12.186 9.21403 11.1642 8.57922 10.048C8.5472 9.98959 8.53763 9.92147 8.5523 9.85647C8.56696 9.79147 8.60486 9.73408 8.65886 9.69509L9.69423 8.93611C10.0394 8.68202 10.2817 8.31228 10.3771 7.8943C10.4725 7.47632 10.4145 7.03796 10.2138 6.65917L7.79795 1.96868C7.68193 1.7448 7.52007 1.5479 7.32291 1.39081C7.12576 1.23372 6.89773 1.11996 6.6537 1.05694C6.40966 0.993927 6.1551 0.983072 5.90659 1.02508C5.65809 1.0671 5.42122 1.16103 5.21142 1.30077L2.26459 3.27412C1.85081 3.5498 1.51669 3.92945 1.29571 4.37502C1.07472 4.82059 0.974631 5.31644 1.00546 5.81291C1.04446 6.65231 1.15741 7.48663 1.343 8.30616C2.14323 11.3952 4.07365 14.5715 6.75499 17.2583C9.43634 19.9451 12.6145 21.8691 15.7017 22.6623C16.5207 22.8479 17.3545 22.9609 18.1934 23H18.383C18.8458 22.999 19.3014 22.8847 19.7099 22.6671C20.1184 22.4494 20.4676 22.1351 20.7268 21.7515L22.6914 18.8028C22.8332 18.5934 22.9291 18.3563 22.9729 18.1071C23.0167 17.8579 23.0073 17.6023 22.9455 17.357ZM21.4284 17.9566L19.4753 20.909C19.3456 21.1005 19.1683 21.2548 18.9607 21.3566C18.7532 21.4585 18.5227 21.5043 18.292 21.4896C17.548 21.4552 16.8083 21.3575 16.0809 21.1974C13.2517 20.4612 10.3238 18.6814 7.83208 16.1768C5.34037 13.6721 3.55407 10.7539 2.81831 7.92287C2.65701 7.19515 2.55805 6.455 2.52249 5.71045C2.50733 5.48009 2.55297 5.2498 2.65481 5.04265C2.75665 4.83551 2.91113 4.6588 3.10275 4.53023L6.04958 2.56447C6.09444 2.53442 6.14729 2.51856 6.20128 2.51894H6.27334C6.31068 2.52868 6.34554 2.54623 6.37561 2.57043C6.40568 2.59463 6.43028 2.62494 6.4478 2.65935L8.87504 7.35364C8.90521 7.41185 8.91376 7.47888 8.89917 7.54281C8.88459 7.60674 8.84782 7.66342 8.7954 7.70277L7.76002 8.46175C7.40893 8.72311 7.16568 9.1041 7.07623 9.53273C6.98679 9.96135 7.05735 10.4079 7.27458 10.788C7.97654 12.0158 8.84436 13.1408 9.85352 14.1313C10.8434 15.1412 11.9677 16.0095 13.1948 16.7119C13.5746 16.9292 14.0209 16.9998 14.4493 16.9103C14.8777 16.8208 15.2584 16.5774 15.5196 16.2261L16.2781 15.1863C16.3175 15.1339 16.3741 15.0971 16.438 15.0825C16.5019 15.0679 16.5689 15.0764 16.627 15.1066L21.3185 17.5353C21.3528 17.5533 21.383 17.5783 21.407 17.6087C21.4311 17.6391 21.4485 17.6742 21.4582 17.7118C21.4679 17.7494 21.4695 17.7885 21.4631 17.8268C21.4566 17.865 21.4423 17.9015 21.4209 17.9338L21.4284 17.9566Z" fill="black"/>
</svg>
