<svg width="22" height="22" viewBox="0 0 22 22" fill="none" xmlns="http://www.w3.org/2000/svg">
<path d="M21.8111 0.188783C21.5595 -0.0629277 21.1513 -0.0629277 20.8996 0.188783L19.0223 2.06609C18.9069 2.01109 18.7851 1.96679 18.658 1.93503L12.824 0.493732C12.1689 0.329978 11.4653 0.524841 10.9878 1.00235L0.565415 11.4076C-0.188472 12.1615 -0.188472 13.3883 0.565415 14.1422L7.85777 21.4345C8.61169 22.1885 9.83845 22.1885 10.5924 21.4345L20.9976 11.0121C21.4752 10.5346 21.6701 9.83096 21.5062 9.17582L20.065 3.34196C20.0332 3.21485 19.9889 3.09304 19.9339 2.97762L21.8112 1.10032C22.0628 0.848611 22.0628 0.440494 21.8111 0.188783ZM20.2555 9.48855C20.3101 9.70691 20.2452 9.94144 20.086 10.1006L9.6808 20.523C9.42947 20.7743 9.02054 20.7743 8.76922 20.523L1.47691 13.2306C1.22559 12.9793 1.22559 12.5704 1.47691 12.3191L11.8993 1.91389C12.0212 1.79199 12.1873 1.72534 12.3565 1.72534C12.4083 1.72534 12.4603 1.73158 12.5114 1.74434L17.9912 3.09712L16.439 4.64937C15.7203 4.30708 14.8326 4.43263 14.2385 5.02672C13.4846 5.78069 13.4846 7.0074 14.2385 7.76138C14.6155 8.13834 15.1107 8.32684 15.6058 8.32684C16.101 8.32684 16.5962 8.13838 16.9731 7.76138C17.5673 7.1672 17.6928 6.27956 17.3505 5.5609L18.9027 4.00866L20.2555 9.48855ZM16.0616 6.84988C15.8103 7.10116 15.4014 7.1012 15.1501 6.84988C14.8988 6.5986 14.8988 6.18962 15.1501 5.93834C15.2758 5.81266 15.4408 5.74988 15.6058 5.74988C15.7708 5.74988 15.9359 5.8127 16.0615 5.9383L16.0616 5.93834L16.0616 5.93838C16.3129 6.18967 16.3129 6.5986 16.0616 6.84988Z" fill="black"/>
<path d="M10.5921 7.76125C9.83814 7.00732 8.61138 7.00732 7.85741 7.76125C7.10352 8.51518 7.10352 9.74193 7.85741 10.4959C8.61134 11.2498 9.83814 11.2498 10.5921 10.4959C11.346 9.74193 11.346 8.51522 10.5921 7.76125ZM9.68057 9.58432C9.42925 9.83565 9.02031 9.83565 8.76903 9.58432C8.51775 9.333 8.51766 8.92407 8.76899 8.67279C9.02031 8.4215 9.4292 8.42146 9.68057 8.67279C9.93185 8.92407 9.93185 9.333 9.68057 9.58432Z" fill="black"/>
<path d="M11.5042 14.142C10.7485 13.3863 9.5254 13.3862 8.76958 14.142C8.01561 14.896 8.01561 16.1227 8.76958 16.8767C9.52531 17.6323 10.7484 17.6325 11.5042 16.8767C12.2582 16.1227 12.2582 14.896 11.5042 14.142ZM10.5927 15.9651C10.3408 16.217 9.933 16.217 9.68112 15.9651C9.42984 15.7138 9.42984 15.3049 9.68112 15.0536C9.933 14.8017 10.3408 14.8017 10.5927 15.0536C10.8439 15.3049 10.8439 15.7137 10.5927 15.9651Z" fill="black"/>
<path d="M14.4227 11.7927C14.3834 11.4389 14.0647 11.1839 13.7109 11.2232L5.50706 12.1348C5.15325 12.1741 4.89828 12.4927 4.93759 12.8466C4.97425 13.1762 5.25328 13.4201 5.57744 13.4201C5.6012 13.4201 5.62526 13.4187 5.64941 13.4161L13.8533 12.5045C14.2071 12.4652 14.4621 12.1465 14.4227 11.7927Z" fill="black"/>
</svg>
