<svg width="24" height="24" viewBox="0 0 24 24" fill="none" xmlns="http://www.w3.org/2000/svg">
<g clip-path="url(#clip0_2514_27384)">
<path d="M12.0003 0.0115767C7.08512 0.0115767 2.41766 -0.425659 0.634874 4.14975C-0.101523 6.03947 0.00541729 8.49367 0.00541729 12.0078C0.00541729 15.0915 -0.0934008 17.9897 0.634874 19.8645C2.4136 24.4426 7.11896 24.004 11.9976 24.004C16.7043 24.004 21.5572 24.4941 23.3617 19.8645C24.0994 17.9558 23.9911 15.5382 23.9911 12.0078C23.9911 7.3214 24.2497 4.29594 21.9769 2.02448C19.6756 -0.276755 16.5635 0.0115767 11.9949 0.0115767H12.0003ZM10.9255 2.17339C21.1782 2.15714 22.4831 1.01736 21.763 16.8512C21.5071 22.4514 17.2431 21.8368 12.0016 21.8368C2.44473 21.8368 2.16994 21.5634 2.16994 12.0024C2.16994 2.33041 2.92799 2.1788 10.9255 2.17068V2.17339ZM18.4032 4.16464C17.6086 4.16464 16.9642 4.80898 16.9642 5.60359C16.9642 6.39819 17.6086 7.04254 18.4032 7.04254C19.1978 7.04254 19.8421 6.39819 19.8421 5.60359C19.8421 4.80898 19.1978 4.16464 18.4032 4.16464ZM12.0003 5.84725C8.59852 5.84725 5.84109 8.60603 5.84109 12.0078C5.84109 15.4096 8.59852 18.167 12.0003 18.167C15.4021 18.167 18.1581 15.4096 18.1581 12.0078C18.1581 8.60603 15.4021 5.84725 12.0003 5.84725ZM12.0003 8.00906C17.2864 8.00906 17.2932 16.0065 12.0003 16.0065C6.71557 16.0065 6.70744 8.00906 12.0003 8.00906Z" fill="black"/>
</g>
<defs>
<clipPath id="clip0_2514_27384">
<rect width="24" height="24" fill="white"/>
</clipPath>
</defs>
</svg>
