<svg width="15" height="14" viewBox="0 0 15 14" fill="#919191" xmlns="http://www.w3.org/2000/svg">
<path id="Vector" fill-rule="evenodd" clip-rule="evenodd" d="M9.51009 3.5C9.51009 4.11884 9.26426 4.71233 8.82667 5.14992C8.38909 5.5875 7.7956 5.83333 7.17676 5.83333C6.55792 5.83333 5.96443 5.5875 5.52684 5.14992C5.08926 4.71233 4.84342 4.11884 4.84342 3.5C4.84342 2.88116 5.08926 2.28767 5.52684 1.85008C5.96443 1.4125 6.55792 1.16667 7.17676 1.16667C7.7956 1.16667 8.38909 1.4125 8.82667 1.85008C9.26426 2.28767 9.51009 2.88116 9.51009 3.5ZM7.17676 7C8.10502 7 8.99525 6.63125 9.65163 5.97487C10.308 5.3185 10.6768 4.42826 10.6768 3.5C10.6768 2.57174 10.308 1.6815 9.65163 1.02513C8.99525 0.368749 8.10502 0 7.17676 0C6.2485 0 5.35826 0.368749 4.70188 1.02513C4.04551 1.6815 3.67676 2.57174 3.67676 3.5C3.67676 4.42826 4.04551 5.3185 4.70188 5.97487C5.35826 6.63125 6.2485 7 7.17676 7ZM14.1768 12.8333C14.1768 14 13.0101 14 13.0101 14H1.34342C1.34342 14 0.176758 14 0.176758 12.8333C0.176758 11.6667 1.34342 8.16667 7.17676 8.16667C13.0101 8.16667 14.1768 11.6667 14.1768 12.8333ZM13.0101 12.8287C13.0089 12.5417 12.8304 11.6783 12.0394 10.8873C11.2788 10.1267 9.84726 9.33333 7.17676 9.33333C4.50509 9.33333 3.07476 10.1267 2.31409 10.8873C1.52309 11.6783 1.34576 12.5417 1.34342 12.8287H13.0101Z" fill="#919191"/>
</svg>
