<svg width="16" height="15" viewBox="0 0 16 15" fill="none" xmlns="http://www.w3.org/2000/svg">
<path d="M6.92 13.72L5.54 12.46C4.12667 11.1667 2.85013 9.8832 1.7104 8.6096C0.570133 7.33653 0 5.93333 0 4.4C0 3.14667 0.42 2.1 1.26 1.26C2.1 0.42 3.14667 0 4.4 0C5.10667 0 5.77333 0.149867 6.4 0.4496C7.02667 0.749866 7.56 1.16 8 1.68C8.44 1.16 8.97333 0.749866 9.6 0.4496C10.2267 0.149867 10.8933 0 11.6 0C12.8533 0 13.9 0.42 14.74 1.26C15.58 2.1 16 3.14667 16 4.4C16 5.93333 15.4333 7.34 14.3 8.62C13.1667 9.9 11.88 11.1867 10.44 12.48L9.08 13.72C8.77333 14.0133 8.41333 14.16 8 14.16C7.58667 14.16 7.22667 14.0133 6.92 13.72ZM7.24 3.28C6.85333 2.73333 6.44 2.31653 6 2.0296C5.56 1.7432 5.02667 1.6 4.4 1.6C3.6 1.6 2.93333 1.86667 2.4 2.4C1.86667 2.93333 1.6 3.6 1.6 4.4C1.6 5.09333 1.84667 5.82987 2.34 6.6096C2.83333 7.38987 3.42347 8.14667 4.1104 8.88C4.7968 9.61333 5.50347 10.3 6.2304 10.94C6.9568 11.58 7.54667 12.1067 8 12.52C8.45333 12.1067 9.04347 11.58 9.7704 10.94C10.4968 10.3 11.2035 9.61333 11.8904 8.88C12.5768 8.14667 13.1667 7.38987 13.66 6.6096C14.1533 5.82987 14.4 5.09333 14.4 4.4C14.4 3.6 14.1333 2.93333 13.6 2.4C13.0667 1.86667 12.4 1.6 11.6 1.6C10.9733 1.6 10.44 1.7432 10 2.0296C9.56 2.31653 9.14667 2.73333 8.76 3.28C8.66667 3.41333 8.55333 3.51333 8.42 3.58C8.28667 3.64667 8.14667 3.68 8 3.68C7.85333 3.68 7.71333 3.64667 7.58 3.58C7.44667 3.51333 7.33333 3.41333 7.24 3.28Z" fill="black"/>
</svg>
