<svg width="17" height="17" viewBox="0 0 17 17" fill="none" xmlns="http://www.w3.org/2000/svg">
<path d="M16.3444 6.51132H15.7V6.47812H8.5V9.67812H13.0212C12.3616 11.5409 10.5892 12.8781 8.5 12.8781C5.8492 12.8781 3.7 10.7289 3.7 8.07812C3.7 5.42732 5.8492 3.27812 8.5 3.27812C9.7236 3.27812 10.8368 3.73972 11.6844 4.49372L13.9472 2.23092C12.5184 0.899325 10.6072 0.078125 8.5 0.078125C4.082 0.078125 0.5 3.66012 0.5 8.07812C0.5 12.4961 4.082 16.0781 8.5 16.0781C12.918 16.0781 16.5 12.4961 16.5 8.07812C16.5 7.54172 16.4448 7.01812 16.3444 6.51132Z" fill="#FFC107"/>
<path d="M1.42188 4.35453L4.05027 6.28212C4.76147 4.52133 6.48388 3.27813 8.49948 3.27813C9.72307 3.27813 10.8363 3.73972 11.6839 4.49372L13.9467 2.23093C12.5179 0.899325 10.6067 0.078125 8.49948 0.078125C5.42668 0.078125 2.76188 1.81292 1.42188 4.35453Z" fill="#FF3D00"/>
<path d="M8.50091 16.0776C10.5673 16.0776 12.4449 15.2868 13.8645 14.0008L11.3885 11.9056C10.5853 12.514 9.58691 12.8776 8.50091 12.8776C6.42011 12.8776 4.65331 11.5508 3.98771 9.69922L1.37891 11.7092C2.70291 14.3 5.39171 16.0776 8.50091 16.0776Z" fill="#4CAF50"/>
<path d="M16.3444 6.50976H15.7V6.47656H8.5V9.67656H13.0212C12.7044 10.5714 12.1288 11.343 11.3864 11.905C11.3868 11.9046 11.3872 11.9046 11.3876 11.9042L13.8636 13.9994C13.6884 14.1586 16.5 12.0766 16.5 8.07656C16.5 7.54016 16.4448 7.01656 16.3444 6.50976Z" fill="#1976D2"/>
</svg>
