<svg width="24" height="24" viewBox="0 0 24 24" fill="none" xmlns="http://www.w3.org/2000/svg">
<g clip-path="url(#clip0_1034_7829)">
<path d="M1.49971 1.633C-0.386289 3.592 -0.00028903 5.67301 -0.00028903 11.995C-0.00028903 17.245 -0.916289 22.508 3.87771 23.747C5.37471 24.132 18.6387 24.132 20.1337 23.745C22.1297 23.23 23.7537 21.611 23.9757 18.788C24.0067 18.394 24.0067 5.603 23.9747 5.201C23.7387 2.194 21.8877 0.461001 19.4487 0.110001C18.8897 0.0290007 18.7777 0.00500065 15.9097 6.44475e-07C5.73671 0.00500065 3.50671 -0.448 1.49971 1.633Z" fill="url(#paint0_linear_1034_7829)"/>
<path d="M11.9978 3.139C8.36682 3.139 4.91882 2.816 3.60181 6.196C3.05781 7.592 3.13681 9.405 3.13681 12.001C3.13681 14.279 3.06381 16.42 3.60181 17.805C4.91581 21.187 8.39182 20.863 11.9958 20.863C15.4728 20.863 19.0578 21.225 20.3908 17.805C20.9358 16.395 20.8558 14.609 20.8558 12.001C20.8558 8.539 21.0468 6.304 19.3678 4.626C17.6678 2.926 15.3688 3.139 11.9938 3.139H11.9978ZM11.2038 4.736C18.7778 4.724 19.7418 3.882 19.2098 15.579C19.0208 19.716 15.8708 19.262 11.9988 19.262C4.93881 19.262 4.73582 19.06 4.73582 11.997C4.73582 4.852 5.29582 4.74 11.2038 4.734V4.736ZM16.7278 6.207C16.1408 6.207 15.6648 6.683 15.6648 7.27C15.6648 7.857 16.1408 8.333 16.7278 8.333C17.3148 8.333 17.7908 7.857 17.7908 7.27C17.7908 6.683 17.3148 6.207 16.7278 6.207ZM11.9978 7.45C9.48482 7.45 7.44782 9.488 7.44782 12.001C7.44782 14.514 9.48482 16.551 11.9978 16.551C14.5108 16.551 16.5468 14.514 16.5468 12.001C16.5468 9.488 14.5108 7.45 11.9978 7.45ZM11.9978 9.047C15.9028 9.047 15.9078 14.955 11.9978 14.955C8.09382 14.955 8.08782 9.047 11.9978 9.047Z" fill="white"/>
</g>
<defs>
<linearGradient id="paint0_linear_1034_7829" x1="1.54573" y1="22.4671" x2="23.8512" y2="3.162" gradientUnits="userSpaceOnUse">
<stop stop-color="#FFDD55"/>
<stop offset="0.5" stop-color="#FF543E"/>
<stop offset="1" stop-color="#C837AB"/>
</linearGradient>
<clipPath id="clip0_1034_7829">
<rect width="24" height="24" fill="white"/>
</clipPath>
</defs>
</svg>
