<svg width="24" height="24" viewBox="0 0 24 24" fill="none" xmlns="http://www.w3.org/2000/svg">
<g clip-path="url(#clip0_1034_7832)">
<path d="M20.7273 0H3.27273C1.46525 0 0 1.46525 0 3.27273V20.7273C0 22.5347 1.46525 24 3.27273 24H20.7273C22.5347 24 24 22.5347 24 20.7273V3.27273C24 1.46525 22.5347 0 20.7273 0Z" fill="#D50012"/>
<path d="M12.3515 4.5C8.26063 4.5 6.19336 7.43454 6.19336 9.88227C6.19336 11.3645 6.75381 12.6818 7.9579 13.1741C7.99983 13.1962 8.04645 13.2079 8.09385 13.2082C8.14125 13.2086 8.18803 13.1975 8.23026 13.176C8.27249 13.1545 8.30894 13.1231 8.33653 13.0846C8.36412 13.0461 8.38205 13.0015 8.38881 12.9545C8.42972 12.8032 8.52518 12.4214 8.56472 12.2632C8.62336 12.0464 8.60018 11.9714 8.44063 11.7832C8.09427 11.3741 7.87199 10.8436 7.87199 10.0936C7.87199 7.91182 9.50836 5.96591 12.1143 5.96591C14.4324 5.96591 15.6993 7.38 15.6993 9.26863C15.6993 11.7532 14.6002 13.8491 12.972 13.8491C12.0706 13.8491 11.3956 13.1032 11.6084 12.1895C11.8674 11.0986 12.3693 9.92045 12.3693 9.13227C12.3693 8.42727 11.9902 7.83818 11.2074 7.83818C10.2856 7.83818 9.54517 8.79273 9.54517 10.0691C9.53861 10.5378 9.63156 11.0026 9.8179 11.4327C9.8179 11.4327 8.87427 15.4268 8.70927 16.1277C8.38063 17.52 8.66018 19.2286 8.68336 19.4004C8.68697 19.4226 8.69702 19.4432 8.71224 19.4597C8.72746 19.4762 8.74719 19.4878 8.76897 19.4932C8.79076 19.4986 8.81365 19.4974 8.83479 19.4899C8.85593 19.4824 8.8744 19.4688 8.8879 19.4509C8.97381 19.3391 10.0702 17.985 10.4438 16.6309C10.5488 16.2477 11.0493 14.2623 11.0493 14.2623C11.3493 14.8336 12.2234 15.3368 13.1547 15.3368C15.9243 15.3368 17.8033 12.8114 17.8033 9.43227C17.8061 6.87954 15.6406 4.5 12.3515 4.5Z" fill="white"/>
</g>
<defs>
<clipPath id="clip0_1034_7832">
<rect width="24" height="24" fill="white"/>
</clipPath>
</defs>
</svg>
