<svg width="24" height="24" viewBox="0 0 24 24" fill="none" xmlns="http://www.w3.org/2000/svg">
<path d="M23.9374 9.20629C23.7803 8.72032 23.3493 8.37516 22.8393 8.3292L15.9123 7.70021L13.1731 1.28898C12.9712 0.819115 12.5112 0.514969 12.0001 0.514969C11.4891 0.514969 11.0291 0.819115 10.8271 1.29007L8.08797 7.70021L1.15982 8.3292C0.650771 8.37625 0.220828 8.72032 0.0628038 9.20629C-0.0952203 9.69227 0.0507185 10.2253 0.435799 10.5613L5.67183 15.1533L4.12785 21.9546C4.01487 22.4547 4.20897 22.9716 4.6239 23.2715C4.84692 23.4327 5.10786 23.5147 5.37098 23.5147C5.59786 23.5147 5.8229 23.4535 6.02487 23.3327L12.0001 19.7615L17.9732 23.3327C18.4103 23.5956 18.9612 23.5717 19.3753 23.2715C19.7904 22.9707 19.9843 22.4536 19.8713 21.9546L18.3273 15.1533L23.5633 10.5622C23.9484 10.2253 24.0955 9.69318 23.9374 9.20629V9.20629Z" fill="#FFCC00"/>
</svg>
