<svg width="24" height="24" viewBox="0 0 24 24" fill="none" xmlns="http://www.w3.org/2000/svg">
<rect width="24" height="24" rx="6" fill="#00A9A9"/>
<path d="M15.4629 13.5726C15.527 13.0439 15.575 12.5153 15.575 11.9706C15.575 11.426 15.527 10.8973 15.4629 10.3687H18.1702C18.2983 10.8813 18.3784 11.418 18.3784 11.9706C18.3784 12.5233 18.2983 13.06 18.1702 13.5726M14.0452 18.026C14.5257 17.1369 14.8942 16.1757 15.1505 15.1745H17.5134C16.7374 16.5108 15.5062 17.523 14.0452 18.026ZM13.8449 13.5726H10.0964C10.0163 13.0439 9.96822 12.5153 9.96822 11.9706C9.96822 11.426 10.0163 10.8893 10.0964 10.3687H13.8449C13.917 10.8893 13.9731 11.426 13.9731 11.9706C13.9731 12.5153 13.917 13.0439 13.8449 13.5726ZM11.9706 18.3464C11.3058 17.3852 10.7692 16.3199 10.4408 15.1745H13.5005C13.1721 16.3199 12.6355 17.3852 11.9706 18.3464ZM8.76676 8.76676H6.42793C7.19594 7.42691 8.42619 6.4131 9.88812 5.91531C9.40754 6.80438 9.0471 7.76555 8.76676 8.76676ZM6.42793 15.1745H8.76676C9.0471 16.1757 9.40754 17.1369 9.88812 18.026C8.42925 17.5227 7.20074 16.5103 6.42793 15.1745ZM5.77113 13.5726C5.64298 13.06 5.56288 12.5233 5.56288 11.9706C5.56288 11.418 5.64298 10.8813 5.77113 10.3687H8.47841C8.41434 10.8973 8.36628 11.426 8.36628 11.9706C8.36628 12.5153 8.41434 13.0439 8.47841 13.5726M11.9706 5.58691C12.6355 6.54807 13.1721 7.62137 13.5005 8.76676H10.4408C10.7692 7.62137 11.3058 6.54807 11.9706 5.58691ZM17.5134 8.76676H15.1505C14.8998 7.77473 14.5286 6.81712 14.0452 5.91531C15.5189 6.41992 16.7444 7.43715 17.5134 8.76676ZM11.9706 3.96094C7.54128 3.96094 3.96094 7.56531 3.96094 11.9706C3.96094 14.095 4.80482 16.1323 6.30693 17.6344C7.0507 18.3781 7.93368 18.9681 8.90546 19.3707C9.87725 19.7732 10.9188 19.9804 11.9706 19.9804C14.095 19.9804 16.1323 19.1365 17.6344 17.6344C19.1365 16.1323 19.9804 14.095 19.9804 11.9706C19.9804 10.9188 19.7732 9.87725 19.3707 8.90546C18.9681 7.93368 18.3781 7.0507 17.6344 6.30693C16.8906 5.56316 16.0076 4.97317 15.0358 4.57064C14.064 4.16811 13.0225 3.96094 11.9706 3.96094Z" fill="white"/>
</svg>
