<svg width="18" height="18" viewBox="0 0 18 18" fill="none" xmlns="http://www.w3.org/2000/svg">
<path d="M17.7069 16.293L13.6009 12.1865C14.6644 10.7655 15.1501 8.99439 14.9602 7.22967C14.7704 5.46496 13.919 3.83769 12.5776 2.67545C11.2361 1.51321 9.50421 0.902283 7.73044 0.965662C5.95667 1.02904 4.27277 1.76202 3.0177 3.01704C1.76264 4.27206 1.0296 5.95594 0.96616 7.7297C0.902717 9.50347 1.51358 11.2354 2.67578 12.5769C3.83797 13.9184 5.46521 14.7698 7.22991 14.9597C8.99462 15.1497 10.7658 14.664 12.1868 13.6006L16.2929 17.707C16.481 17.8917 16.7344 17.9946 16.9981 17.9934C17.2617 17.9923 17.5141 17.887 17.7006 17.7006C17.887 17.5142 17.9922 17.2617 17.9934 16.9981C17.9946 16.7345 17.8916 16.4811 17.7069 16.293ZM4.46429 11.5351C3.64659 10.7172 3.13779 9.64098 3.02458 8.48995C2.91138 7.33891 3.20077 6.18423 3.84345 5.22263C4.48614 4.26104 5.44235 3.55203 6.54917 3.2164C7.65599 2.88076 8.84495 2.93928 9.91346 3.38197C10.982 3.82467 11.8639 4.62415 12.4091 5.64421C12.9543 6.66426 13.1289 7.84178 12.9032 8.97614C12.6775 10.1105 12.0655 11.1315 11.1714 11.8652C10.2773 12.5989 9.15652 13 7.99993 13C7.34301 13.0017 6.69227 12.8732 6.08538 12.6217C5.47848 12.3703 4.92749 12.001 4.46429 11.5351Z" fill="#D94A8C"/>
</svg>
