<svg width="16" height="9" viewBox="0 0 16 9" fill="none" xmlns="http://www.w3.org/2000/svg">
<path d="M15.4663 7.83789C15.4663 7.51416 15.3501 7.24854 15.1343 7.03272L8.91699 0.666016C8.63477 0.383789 8.34424 0.242676 7.9873 0.242676C7.63037 0.242676 7.33154 0.375488 7.05762 0.666016L0.832031 7.03271C0.616211 7.25684 0.5 7.52246 0.5 7.83789C0.5 8.47705 1.01465 9 1.65381 9C1.96924 9 2.26807 8.86719 2.50049 8.63477L7.9873 2.99023L13.4658 8.63477C13.6982 8.86719 13.9971 9 14.3125 9C14.9517 9 15.4663 8.47705 15.4663 7.83789Z" fill="black"/>
</svg>
