<svg width="16" height="9" viewBox="0 0 16 9" fill="none" xmlns="http://www.w3.org/2000/svg">
<path d="M0.533691 1.16211C0.533691 1.48584 0.649902 1.75146 0.865723 1.96729L7.08301 8.33398C7.36523 8.61621 7.65576 8.75732 8.0127 8.75732C8.36963 8.75732 8.66846 8.62451 8.94238 8.33398L15.168 1.96729C15.3838 1.74316 15.5 1.47754 15.5 1.16211C15.5 0.522949 14.9854 0 14.3462 0C14.0308 0 13.7319 0.132813 13.4995 0.365234L8.0127 6.00977L2.53418 0.365234C2.30176 0.132813 2.00293 0 1.6875 0C1.04834 0 0.533691 0.522949 0.533691 1.16211Z" fill="black"/>
</svg>
