<svg width="16" height="16" viewBox="0 0 16 16" fill="none" xmlns="http://www.w3.org/2000/svg">
<path d="M4.82726 14.24C4.63209 14.061 4.51549 13.8121 4.50285 13.5476C4.49021 13.2831 4.58254 13.0243 4.75976 12.8275L9.14976 7.99996L4.75976 3.17246C4.6696 3.0756 4.59955 2.96181 4.55369 2.83769C4.50782 2.71356 4.48705 2.58156 4.49257 2.44934C4.49809 2.31713 4.52981 2.18733 4.58587 2.06746C4.64193 1.94759 4.72122 1.84003 4.81915 1.75104C4.91708 1.66204 5.03171 1.59336 5.15637 1.54899C5.28104 1.50461 5.41328 1.48542 5.54542 1.49253C5.67756 1.49964 5.80697 1.53291 5.92616 1.5904C6.04535 1.64789 6.15194 1.72847 6.23976 1.82746L11.2398 7.32746C11.407 7.51151 11.4997 7.75128 11.4997 7.99996C11.4997 8.24865 11.407 8.48841 11.2398 8.67246L6.23976 14.1725C6.06076 14.3676 5.81193 14.4842 5.5474 14.4969C5.28288 14.5095 5.02406 14.4172 4.82726 14.24Z" fill="black"/>
</svg>
