<svg width="28" height="28" viewBox="0 0 28 28" fill="none" xmlns="http://www.w3.org/2000/svg">
<path d="M7.56547 13.8058H4.83186V11.3295H8.02304C8.40902 11.3295 8.67847 10.9211 8.52518 10.566L6.45143 5.76062C6.36491 5.56019 6.1676 5.43042 5.94929 5.43042H2.62063C2.40237 5.43042 2.20495 5.56019 2.11848 5.76062L0.0447344 10.566C-0.108555 10.9211 0.160836 11.3295 0.546875 11.3295H3.73811V13.8058H1.16189C0.521227 13.8058 0 14.327 0 14.9677V20.3255C0 20.8718 0.379477 21.33 0.888289 21.4535V22.0227C0.888289 22.3247 1.13318 22.5695 1.43516 22.5695C1.73715 22.5695 1.98204 22.3247 1.98204 22.0227V21.4874H6.76134V22.0227C6.76134 22.3247 7.00623 22.5695 7.30822 22.5695C7.6102 22.5695 7.85509 22.3247 7.85509 22.0227V21.4535C8.36391 21.3299 8.74338 20.8718 8.74338 20.3254V14.9837C8.74338 14.3342 8.21499 13.8058 7.56547 13.8058ZM2.98025 6.52422H5.58961L7.19135 10.2358H1.37851L2.98025 6.52422ZM1.16189 20.3936C1.12427 20.3936 1.09375 20.3631 1.09375 20.3254V14.9676C1.09375 14.93 1.12432 14.8995 1.16189 14.8995H7.56547C7.6119 14.8995 7.64963 14.9372 7.64963 14.9836V20.3254C7.64963 20.363 7.61906 20.3936 7.58149 20.3936H1.16189V20.3936Z" fill="black"/>
<path d="M26.9965 13.0144V8.74078C26.9965 7.65491 26.1131 6.77148 25.0272 6.77148H21.4621C21.1601 6.77148 20.9152 7.01632 20.9152 7.31836C20.9152 7.6204 21.1601 7.86523 21.4621 7.86523H25.0272C25.51 7.86523 25.9027 8.258 25.9027 8.74078V12.9253H24.6368V11.2882C24.6368 10.4439 23.9498 9.75688 23.1054 9.75688H20.07C19.6954 9.75688 19.3519 9.89234 19.0856 10.1165C18.8191 9.89228 18.4757 9.75688 18.101 9.75688H15.0658C14.2214 9.75688 13.5344 10.4439 13.5344 11.2882V12.9253H12.2684V8.74078C12.2684 8.258 12.6612 7.86523 13.144 7.86523H16.6213C16.9233 7.86523 17.1682 7.6204 17.1682 7.31836C17.1682 7.01632 16.9233 6.77148 16.6213 6.77148H13.144C12.0582 6.77148 11.1747 7.65491 11.1747 8.74078V13.0144C10.5901 13.2248 10.1709 13.7847 10.1709 14.4409V20.9155C10.1709 21.2175 10.4158 21.4623 10.7178 21.4623H11.8656V22.0226C11.8656 22.3247 12.1104 22.5695 12.4124 22.5695C12.7144 22.5695 12.9593 22.3247 12.9593 22.0226V21.4623H25.3703V22.0226C25.3703 22.3247 25.6151 22.5695 25.9171 22.5695C26.2191 22.5695 26.464 22.3247 26.464 22.0226V21.4623H27.4534C27.7554 21.4623 28.0003 21.2175 28.0003 20.9155V14.4409C28.0003 13.7847 27.581 13.2248 26.9965 13.0144ZM20.07 10.8506H23.1053C23.3467 10.8506 23.543 11.0469 23.543 11.2882V12.9252H19.6324V11.2882C19.6324 11.0469 19.8288 10.8506 20.07 10.8506ZM14.6281 11.2882C14.6281 11.0469 14.8245 10.8506 15.0658 10.8506H18.101C18.3424 10.8506 18.5387 11.047 18.5387 11.2882V12.9253H14.6281V11.2882ZM26.4496 14.019H26.4847C26.7174 14.019 26.9066 14.2082 26.9066 14.4409V17.459H11.2646V14.4409C11.2646 14.2082 11.4539 14.019 11.6865 14.019H11.7216H26.4496ZM26.9065 20.3686H11.2646V18.5527H26.9065V20.3686Z" fill="black"/>
<path d="M3.18489 17.4376C3.09657 17.2222 2.87143 17.0843 2.63955 17.1016C2.41118 17.1186 2.21441 17.2803 2.15316 17.5008C2.01666 17.992 2.59668 18.3863 3.00519 18.0856C3.2042 17.9391 3.27989 17.6656 3.18489 17.4376Z" fill="black"/>
<path d="M18.5804 7.52779C18.7739 7.99219 19.4625 7.95698 19.6086 7.47704C19.7496 7.01378 19.2358 6.60559 18.8164 6.84305C18.5784 6.97774 18.4769 7.27508 18.5804 7.52779Z" fill="black"/>
</svg>
