<svg id="Wedding_Arch" height="24" viewBox="0 0 64 64" width="24" xmlns="http://www.w3.org/2000/svg"><path d="m61 8c.5527 0 1-.4478 1-1v-4c0-.5522-.4473-1-1-1h-34v-1c0-.5522-.4478-1-1-1h-14c-2.2056 0-4 1.7944-4 4v6h-2c-.5522 0-1 .4478-1 1v2c0 .6978.1204 1.3713.3419 2h-2.3419c-.5522 0-1 .4478-1 1v2c0 3.3086 2.6914 6 6 6v10c.0373.4016.249.8041.6564.9306.019.007.037.0166.0565.0225l-1.7084 17.9522c-.0464.4893.2695.9399.7456 1.063.4059.1048.8257.1653 1.25.2048v3.827c-1.6543 0-3 1.3457-3 3v2c0 .5522.4478 1 1 1h10c.5522 0 1-.4478 1-1v-2c0-1.6543-1.3457-3-3-3v-5.6566c.2168-.1744.4269-.3562.627-.5563l.0801-.0801c.2012-.2012.3071-.478.2915-.7617l-.028-.5327.6335.1259c.2603.0547.5176.0815.7861.0815 1.4688 0 2.8442-.853 3.5044-2.1729.0957-.1919.1274-.4097.0903-.6206l-2.7668-15.6982c2.8138-1.9371 5.0147-4.752 6.1713-8.1481 2.8289-.1829 5.1242-2.33 5.5373-5.0909 3.4253 2.0641 7.1418 3.1107 11.0734 3.1107 4.2068 0 8.2352-1.0184 12-3.0253v39.0252c-1.6543 0-3 1.3457-3 3v2c0 .5522.4473 1 1 1h10c.5527 0 1-.4478 1-1v-2c0-1.6543-1.3457-3-3-3v-50h2zm-1-4v2h-33v-2zm-8.502 4c-2.0206 1.666-5.7012 4-10.498 4-4.167 0-7.213-2.356-8.8354-4h19.3335zm-28.1434 8.2224c-.0681-.4196-.2025-.834-.4265-1.2224-.6052-1.0485-1.6667-1.6735-2.7969-1.7792.7404-.7682 1.7593-1.2208 2.8687-1.2208h2v1c0 1.3098-.6383 2.4858-1.6453 3.2224zm-10.2265 18.2386.8479 16.1357c-.1738.1558-.3574.3003-.5591.4409-1.0063.7222-2.2295 1.1387-3.5439 1.1807-.0186.002-.0376.0024-.0562.0024-.2417.001-.4927-.0103-.7349-.0371l1.6453-17.2861c.8174-.0868 1.6193-.2319 2.4008-.4365zm-3.1282-2.4522v-7.9622c.7557.5806 1.7145.8502 2.666.7283.2595.6205.6895 1.147 1.2245 1.5348-.6898 2.571-2.5421 4.5494-3.8905 5.6991zm6-7.0088c-.8555 0-1.5635-.6743-1.6118-1.5352-.019-.3369-.2065-.6411-.4985-.8101-.1543-.0889-.3272-.1338-.5-.1338-.1543 0-.3086.0356-.4507.1074-.6561.3314-1.4318.1756-1.9119-.3352l-.0005-.0005c-.0828-.0882-.1595-.1837-.2224-.2927-.4277-.7412-.1982-1.6914.5229-2.1636.2822-.1846.4521-.499.4521-.8364s-.1699-.6519-.4521-.8364c-.7212-.4722-.9507-1.4224-.5229-2.1636.4272-.7407 1.3652-1.0166 2.1348-.6284.3018.1523.6587.1416.9507-.0264.292-.1689.4795-.4731.4985-.8101.0483-.8608.7563-1.5352 1.6118-1.5352s1.5635.6743 1.6118 1.5352c.019.3369.2065.6411.4985.8101.292.168.6494.1787.9507.0264.769-.3882 1.7075-.1123 2.1348.6284.4277.7412.1982 1.6914-.5229 2.1636-.2822.1846-.4521.499-.4521.8364s.1699.6519.4521.8364c.7212.4722.9507 1.4224.5229 2.1636-.0629.1089-.1395.2045-.2224.2927l-.0005.0005c-.4802.5109-1.2562.6666-1.9119.3353-.3013-.1519-.6587-.1416-.9507.0264-.292.1689-.4795.4731-.4985.8101-.0483.8608-.7563 1.5352-1.6118 1.5352zm9-15h-2c-1.478 0-2.8515.5312-3.9183 1.4554.6019-1.9044.9183-3.8886.9183-5.9256v-3.5298h5zm-12.9999-8h6v3.5298c0 1.9425-.3256 3.8283-.9329 5.6319-.3378-.1049-.6962-.1617-1.0671-.1617-.9722 0-1.8549.3917-2.5069 1.0239-.9037-1.0276-2.1298-1.7068-3.4931-1.9334v-6.0905c0-1.103.897-2 2-2zm-5 10h2c1.1097 0 2.1289.4527 2.8693 1.2213-1.1305.1063-2.1922.7304-2.7975 1.7787-.224.3884-.3583.8029-.4265 1.2224-1.007-.7366-1.6453-1.9125-1.6453-3.2224zm-3 6v-1h2c.2098 0 .4093.0358.6107.0665.6743.7281 1.5277 1.2864 2.5117 1.6125.066.1091.1313.2187.2092.321-.6484.8513-.8897 1.9547-.6515 3h-.6801c-2.2056 0-4-1.7944-4-4zm12 43v1h-8v-1c0-.5513.4487-1 1-1h6c.5513 0 1 .4487 1 1zm-5-3v-3.8907c.691-.1031 1.3588-.3015 2-.5764v4.4671zm7.9512-10.1904c-.4321.604-1.166.9351-1.9463.7695l-1.1429-.2273-.7653-14.5392c.4368-.1765.8669-.3671 1.2851-.58l2.5693 14.577zm-6.6411-15.2029c1.3435-1.3367 2.7966-3.2377 3.4725-5.6232.0728.0044.1436.0165.2175.0165 1.4932 0 2.7856-.9136 3.334-2.2251.9761.1258 1.9603-.1618 2.7247-.7749h.1885c-1.7343 4.3689-5.4691 7.5435-9.9371 8.6066zm15.6899-14.6066c0 2.2056-1.7944 4-4 4h-.68c.2382-1.0453-.0031-2.1487-.6516-3 .0779-.1023.1432-.2119.2092-.321.9839-.326 1.8374-.8844 2.5117-1.6125.2014-.0307.4009-.0665.6107-.0665h2zm13 2c-3.929 0-7.6249-1.1681-11-3.4492v-.5508c0-.5522-.4478-1-1-1h-2.3419c.2215-.6287.3419-1.3022.3419-2v-5h2.4917c1.1299 1.4692 5.1313 6 11.5083 6 5.6208 0 9.7929-2.7457 12-4.6314v7.3023c-3.7414 2.2015-7.7737 3.3291-12 3.3291zm19 41v1h-8v-1c0-.5513.4482-1 1-1h6c.5518 0 1 .4487 1 1zm-3-3h-2v-50.0001h2v50z"/><path d="m19 19c0-1.6543-1.3457-3-3-3s-3 1.3457-3 3 1.3457 3 3 3 3-1.3457 3-3zm-3 1c-.5513 0-1-.4487-1-1s.4487-1 1-1 1 .4487 1 1-.4487 1-1 1z"/><path d="m37.25 15.5264c-1.2119-.3125-2.4092-.7856-3.5576-1.4058-.4883-.2627-1.0938-.0811-1.3555.4048-.2622.4858-.0811 1.0928.4048 1.355 1.2915.6973 2.6401 1.2295 4.0083 1.5825.084.0215.168.0317.251.0317.4453 0 .8506-.2993.9678-.7505.1377-.5347-.1846-1.0801-.7188-1.2178z"/><path d="m50.8984 14.4414c-.2412-.4956-.8369-.7031-1.3369-.4609-2.1484 1.0474-4.3896 1.6943-6.6621 1.9238-.5498.0557-.9502.5459-.8945 1.0957.0518.5151.4863.8994.9941.8994.0332 0 .0674-.0015.1016-.0049 2.5078-.2534 4.9766-.9653 7.3379-2.1162.4961-.2422.7021-.8408.46-1.3369z"/></svg>