<svg height="24" viewBox="0 0 64 64" width="24" xmlns="http://www.w3.org/2000/svg"><g id="_12-talking" data-name="12-talking"><path d="m26.777 53.788a9.921 9.921 0 0 0 -4.808-6.672 15.628 15.628 0 0 0 -3.769-1.532 7 7 0 1 0 -8.406 0 15.628 15.628 0 0 0 -3.766 1.532 9.922 9.922 0 0 0 -4.808 6.671l-1.2 6.013a1 1 0 0 0 .621 1.13 37.164 37.164 0 0 0 26.718 0 1 1 0 0 0 .621-1.13zm-17.777-13.788a5 5 0 1 1 5 5 5.006 5.006 0 0 1 -5-5zm-6.853 19.359 1.037-5.18a7.919 7.919 0 0 1 3.839-5.326 14.3 14.3 0 0 1 13.954 0 7.918 7.918 0 0 1 3.839 5.327l1.037 5.179a35.15 35.15 0 0 1 -23.706 0z"/><path d="m63.98 59.8-1.2-6.016a9.921 9.921 0 0 0 -4.808-6.672 15.628 15.628 0 0 0 -3.772-1.528 7 7 0 1 0 -8.406 0 15.628 15.628 0 0 0 -3.766 1.532 9.922 9.922 0 0 0 -4.808 6.671l-1.2 6.013a1 1 0 0 0 .621 1.13 37.164 37.164 0 0 0 26.718 0 1 1 0 0 0 .621-1.13zm-18.98-19.8a5 5 0 1 1 5 5 5.006 5.006 0 0 1 -5-5zm-6.853 19.359 1.037-5.18a7.919 7.919 0 0 1 3.839-5.326 14.3 14.3 0 0 1 13.954 0 7.918 7.918 0 0 1 3.839 5.327l1.037 5.179a35.15 35.15 0 0 1 -23.706 0z"/><path d="m38.938 23.944 4.219 6.6a1 1 0 0 0 1.822-.333l1.439-6.831c7.555-1.636 12.582-6.153 12.582-11.38 0-6.617-8.3-12-18.5-12s-18.5 5.383-18.5 12c0 6.248 7.4 11.43 16.938 11.944zm1.562-21.944c9.1 0 16.5 4.486 16.5 10 0 4.318-4.775 8.243-11.611 9.544a1 1 0 0 0 -.792.776l-1.072 5.08-3.181-4.974a1 1 0 0 0 -.808-.46c-8.712-.307-15.536-4.686-15.536-9.966 0-5.514 7.4-10 16.5-10z"/><path d="m37.97 25.973a1 1 0 0 0 -1.214-.726 26.063 26.063 0 0 1 -9.913.5.983.983 0 0 0 -.675.147l-4.668 2.966.736-3.314a1 1 0 0 0 -.611-1.148c-4.774-1.872-7.625-5.012-7.625-8.398 0-3.325 2.758-6.433 7.377-8.313a1 1 0 0 0 -.754-1.853c-5.399 2.198-8.623 5.999-8.623 10.166 0 4.035 3.011 7.7 8.1 9.931l-1.079 4.852a1 1 0 0 0 1.514 1.061l6.4-4.072a27.984 27.984 0 0 0 10.309-.586 1 1 0 0 0 .726-1.213z"/><path d="m34 7h5v2h-5z"/><path d="m41 7h2v2h-2z"/><path d="m45 7h5v2h-5z"/><path d="m31 11h12v2h-12z"/><path d="m45 11h5v2h-5z"/><path d="m31 15h4v2h-4z"/><path d="m37 15h11v2h-11z"/></g></svg>