<svg width="24" height="24" viewBox="0 0 24 24" fill="none" xmlns="http://www.w3.org/2000/svg">
<g clip-path="url(#clip0_4671_23646)">
<path d="M22.8747 21.375H21.3747V20.4247C21.6402 20.5526 21.9334 20.625 22.2383 20.625H23.292L22.2188 10.6099C22.6133 10.3395 22.8747 9.88838 22.8747 9.375C22.8747 8.664 22.377 8.06662 21.7114 7.91325C21.6072 7.46062 21.2952 7.0905 20.8838 6.89663C19.6695 3.43875 16.4254 1.125 12.7497 1.125H11.7942C11.5343 0.678 11.0532 0.375 10.4997 0.375C9.78828 0.375 9.19128 0.872625 9.03791 1.53825C8.81328 1.59 8.61003 1.69575 8.43641 1.83637C8.26016 1.69462 8.05803 1.58925 7.83678 1.53825C7.68341 0.872625 7.08603 0.375 6.37466 0.375C5.78928 0.375 5.28528 0.71475 5.03853 1.20525C4.31703 0.669 3.44891 0.375 2.53353 0.375H1.49966V1.4115C1.49966 1.866 1.58253 2.32125 1.73703 2.7495C1.30803 2.93475 0.899656 3.16875 0.524656 3.45L0.253906 3.65287L0.757531 4.49213C1.22141 5.265 1.91516 5.85113 2.73978 6.18338C2.66816 6.35888 2.62466 6.549 2.62466 6.75C2.62466 6.90037 2.65016 7.04925 2.69403 7.19175C2.49791 7.3875 2.35203 7.63387 2.28791 7.91288C1.62228 8.06663 1.12466 8.664 1.12466 9.375C1.12466 9.88838 1.38603 10.3395 1.78053 10.6099L0.707281 20.625H1.76103C2.06591 20.625 2.35916 20.5526 2.62466 20.4247V21.375H1.12466C0.711031 21.375 0.374656 21.7114 0.374656 22.125V22.875C0.374656 23.2886 0.711031 23.625 1.12466 23.625H6.37466C6.78828 23.625 7.12466 23.2886 7.12466 22.875V22.125C7.12466 21.7114 6.78828 21.375 6.37466 21.375H4.87466V18.0401C5.29616 17.8181 5.66328 17.4926 5.93666 17.0828L6.02291 16.9534L5.54478 14.5624C8.71728 13.5491 11.1169 10.9924 11.9997 7.87012C12.8828 10.9924 15.282 13.5491 18.4545 14.5624L17.9764 16.9534L18.0627 17.0828C18.336 17.4926 18.7032 17.8181 19.1247 18.0401V21.375H17.6247C17.211 21.375 16.8747 21.7114 16.8747 22.125V22.875C16.8747 23.2886 17.211 23.625 17.6247 23.625H22.8747C23.2883 23.625 23.6247 23.2886 23.6247 22.875V22.125C23.6247 21.7114 23.2883 21.375 22.8747 21.375ZM13.8747 3.48038C14.3963 3.57562 14.8992 3.7365 15.3747 3.954V5.21775C15.3747 7.13962 16.2825 8.95125 17.8058 10.0852C18.0079 10.4591 18.3627 10.7393 18.7875 10.8371C18.8389 11.0591 18.9428 11.2598 19.0804 11.4323L18.8978 12.3458C15.8783 11.286 13.8747 8.47462 13.8747 5.21737V3.48038ZM19.4172 10.125H19.1247C18.711 10.125 18.3747 9.78862 18.3747 9.375C18.3747 8.96138 18.711 8.625 19.1247 8.625H19.4172C19.2372 8.8245 19.1247 9.08587 19.1247 9.375C19.1247 9.66413 19.2375 9.9255 19.4172 10.125ZM18.7879 7.91325C18.2509 8.037 17.8279 8.4525 17.6828 8.98125C16.6995 7.99575 16.1247 6.6435 16.1247 5.21737V4.35413C17.3768 5.14012 18.3525 6.35287 18.8202 7.81275C18.8097 7.8465 18.7958 7.87837 18.7879 7.91325ZM19.4997 10.5V10.2075C19.6992 10.3875 19.9605 10.5 20.2497 10.5C20.5388 10.5 20.8002 10.3871 20.9997 10.2075V10.5C20.9997 10.9136 20.6633 11.25 20.2497 11.25C19.836 11.25 19.4997 10.9136 19.4997 10.5ZM19.8747 9.375C19.8747 9.168 20.043 9 20.2497 9C20.4563 9 20.6247 9.168 20.6247 9.375C20.6247 9.582 20.4563 9.75 20.2497 9.75C20.043 9.75 19.8747 9.582 19.8747 9.375ZM22.2383 19.875C21.8232 19.875 21.438 19.6687 21.2078 19.3234C21.0717 19.119 20.9997 18.882 20.9997 18.6364V11.7971C21.2202 11.6689 21.4039 11.4862 21.5352 11.2673L22.4573 19.875H22.2383ZM21.3747 8.625C21.7883 8.625 22.1247 8.96138 22.1247 9.375C22.1247 9.78862 21.7883 10.125 21.3747 10.125H21.0822C21.2622 9.9255 21.3747 9.66413 21.3747 9.375C21.3747 9.08587 21.2618 8.8245 21.0822 8.625H21.3747ZM20.9997 8.5425C20.8002 8.3625 20.5388 8.25 20.2497 8.25C19.9605 8.25 19.6992 8.36288 19.4997 8.5425V8.25C19.4997 7.83637 19.836 7.5 20.2497 7.5C20.6633 7.5 20.9997 7.83637 20.9997 8.25V8.5425ZM20.0363 6.76837C19.7779 6.8055 19.5413 6.9075 19.3429 7.059C18.2993 4.51875 15.8348 2.7675 13.0752 2.6385C13.0002 2.33887 12.8397 2.073 12.6147 1.875H12.7497C15.9709 1.875 18.8307 3.8205 20.0363 6.76837ZM11.6247 3.75H11.3322C11.5118 3.5505 11.6247 3.28912 11.6247 3C11.6247 2.71088 11.5118 2.4495 11.3322 2.25H11.6247C12.0383 2.25 12.3747 2.58637 12.3747 3C12.3747 3.41363 12.0383 3.75 11.6247 3.75ZM5.24966 2.25H5.54216C5.36253 2.4495 5.24966 2.71088 5.24966 3C5.24966 3.28912 5.36253 3.5505 5.54216 3.75H5.24966C4.83603 3.75 4.49966 3.41363 4.49966 3C4.49966 2.58637 4.83603 2.25 5.24966 2.25ZM8.42216 4.15312C8.59878 4.29937 8.80728 4.4085 9.03791 4.46175C9.18341 5.09325 9.73016 5.56838 10.3935 5.61563C10.4622 5.73113 10.4997 5.8635 10.4997 6C10.4997 6.41363 10.1633 6.75 9.74966 6.75H9.45716C9.63716 6.5505 9.74966 6.28912 9.74966 6C9.74966 5.37975 9.24491 4.875 8.62466 4.875C8.33553 4.875 8.07416 4.98787 7.87466 5.1675V4.875C7.87466 4.53525 8.10566 4.24237 8.42216 4.15312ZM7.87466 6.8325C8.07416 7.0125 8.33553 7.125 8.62466 7.125C8.91378 7.125 9.17516 7.01212 9.37466 6.8325V7.125C9.37466 7.53863 9.03828 7.875 8.62466 7.875C8.21103 7.875 7.87466 7.53863 7.87466 7.125V6.8325ZM8.24966 6C8.24966 5.793 8.41803 5.625 8.62466 5.625C8.83128 5.625 8.99966 5.793 8.99966 6C8.99966 6.207 8.83128 6.375 8.62466 6.375C8.41803 6.375 8.24966 6.207 8.24966 6ZM7.79216 6.75H7.49966C7.08603 6.75 6.74966 6.41363 6.74966 6C6.74966 5.58637 7.08603 5.25 7.49966 5.25H7.79216C7.61216 5.4495 7.49966 5.71088 7.49966 6C7.49966 6.28912 7.61253 6.5505 7.79216 6.75ZM5.21141 7.91325C5.20803 7.89825 5.20128 7.88475 5.19753 7.86975C5.21516 7.8705 5.23166 7.875 5.24966 7.875C5.53878 7.875 5.80016 7.76212 5.99966 7.5825V7.875C5.99966 8.0175 5.95653 8.15137 5.88416 8.26837C5.69666 8.09737 5.46716 7.97212 5.21141 7.91325ZM4.58216 8.625H4.87466C5.28828 8.625 5.62466 8.96138 5.62466 9.375C5.62466 9.78862 5.28828 10.125 4.87466 10.125H4.58216C4.76216 9.9255 4.87466 9.66413 4.87466 9.375C4.87466 9.08587 4.76178 8.8245 4.58216 8.625ZM4.87466 6.75C4.87466 6.543 5.04303 6.375 5.24966 6.375C5.45628 6.375 5.62466 6.543 5.62466 6.75C5.62466 6.957 5.45628 7.125 5.24966 7.125C5.04303 7.125 4.87466 6.957 4.87466 6.75ZM6.35328 6.96262C6.48491 7.119 6.64878 7.24538 6.83328 7.338C6.70428 7.4385 6.54566 7.5 6.37466 7.5H6.08216C6.21678 7.35075 6.31353 7.16775 6.35328 6.96262ZM6.00641 5.92313C5.80616 5.73975 5.54178 5.625 5.24966 5.625C4.96053 5.625 4.69916 5.73787 4.49966 5.9175V5.625C4.49966 5.2665 4.75278 4.96688 5.08953 4.893C5.30028 5.244 5.64978 5.5005 6.06228 5.58862C6.03153 5.69588 6.01241 5.80762 6.00641 5.92313ZM4.49966 8.25V8.5425C4.30016 8.3625 4.03878 8.25 3.74966 8.25C3.46053 8.25 3.19916 8.36288 2.99966 8.5425V8.25C2.99966 7.83637 3.33603 7.5 3.74966 7.5C4.16328 7.5 4.49966 7.83637 4.49966 8.25ZM4.12466 9.375C4.12466 9.582 3.95628 9.75 3.74966 9.75C3.54303 9.75 3.37466 9.582 3.37466 9.375C3.37466 9.168 3.54303 9 3.74966 9C3.95628 9 4.12466 9.168 4.12466 9.375ZM2.99966 10.5V10.2075C3.19916 10.3871 3.46053 10.5 3.74966 10.5C4.03878 10.5 4.30016 10.3871 4.49966 10.2075V10.5C4.49966 10.9136 4.16328 11.25 3.74966 11.25C3.33603 11.25 2.99966 10.9136 2.99966 10.5ZM4.91853 11.4319C5.05616 11.2594 5.16041 11.0588 5.21141 10.8368C5.87703 10.6834 6.37466 10.086 6.37466 9.375C6.37466 9.22275 6.34766 9.07725 6.30528 8.9385C6.50703 8.73863 6.64878 8.48812 6.71216 8.21175C6.94578 8.15775 7.16028 8.04713 7.34066 7.89525C7.60316 8.33138 8.07941 8.625 8.62466 8.625C8.92878 8.625 9.20928 8.52975 9.44591 8.37375C8.60666 10.2195 7.04516 11.664 5.10153 12.3484L4.91853 11.4319ZM10.4997 4.875C10.086 4.875 9.74966 4.53863 9.74966 4.125V3.8325C9.94916 4.0125 10.2105 4.125 10.4997 4.125C10.7888 4.125 11.0502 4.01213 11.2497 3.8325V4.125C11.2497 4.53863 10.9133 4.875 10.4997 4.875ZM10.1247 3C10.1247 2.793 10.293 2.625 10.4997 2.625C10.7063 2.625 10.8747 2.793 10.8747 3C10.8747 3.207 10.7063 3.375 10.4997 3.375C10.293 3.375 10.1247 3.207 10.1247 3ZM10.4997 1.125C10.9133 1.125 11.2497 1.46137 11.2497 1.875V2.1675C11.0502 1.98788 10.7888 1.875 10.4997 1.875C10.2105 1.875 9.94916 1.98788 9.74966 2.1675V1.875C9.74966 1.46137 10.086 1.125 10.4997 1.125ZM9.37466 2.25H9.66716C9.48753 2.4495 9.37466 2.71088 9.37466 3C9.37466 3.28912 9.48753 3.5505 9.66716 3.75H9.37466C8.96103 3.75 8.62466 3.41363 8.62466 3C8.62466 2.58637 8.96103 2.25 9.37466 2.25ZM7.49966 2.25C7.68228 2.25 7.85516 2.3175 7.98978 2.43412C7.91778 2.60925 7.87466 2.799 7.87466 3C7.87466 3.18637 7.91066 3.36413 7.97291 3.52913C7.57016 3.726 7.26641 4.095 7.16328 4.53788C6.93078 4.59113 6.72116 4.70138 6.54378 4.84912C6.48791 4.86225 6.43203 4.875 6.37466 4.875C5.96103 4.875 5.62466 4.53863 5.62466 4.125V3.8325C5.82416 4.0125 6.08553 4.125 6.37466 4.125C6.99491 4.125 7.49966 3.62025 7.49966 3C7.49966 2.71088 7.38678 2.4495 7.20716 2.25H7.49966ZM5.99966 3C5.99966 2.793 6.16803 2.625 6.37466 2.625C6.58128 2.625 6.74966 2.793 6.74966 3C6.74966 3.207 6.58128 3.375 6.37466 3.375C6.16803 3.375 5.99966 3.207 5.99966 3ZM6.37466 1.125C6.78828 1.125 7.12466 1.46137 7.12466 1.875V2.1675C6.92516 1.98788 6.66378 1.875 6.37466 1.875C6.08553 1.875 5.82416 1.98788 5.62466 2.1675V1.875C5.62466 1.46137 5.96103 1.125 6.37466 1.125ZM2.24966 1.4115V1.125H2.53353C3.23553 1.125 3.90528 1.33312 4.47378 1.719C4.25628 1.85137 4.07441 2.03625 3.94766 2.2575C3.43766 2.2725 2.93216 2.35425 2.44353 2.4975C2.31716 2.14987 2.24966 1.7805 2.24966 1.4115ZM1.40066 4.10625L1.25103 3.8565C1.99653 3.37013 2.86353 3.07837 3.75078 3.01388C3.75416 3.39187 3.90041 3.73425 4.13516 3.99675L2.68616 3.75525L2.56278 4.49513L4.04741 4.74263C3.92666 4.90388 3.83403 5.08687 3.78753 5.28862C3.57678 5.33737 3.38628 5.43412 3.21941 5.56125C2.45853 5.30775 1.81653 4.79925 1.40066 4.10625ZM3.37466 6.75C3.37466 6.33637 3.71103 6 4.12466 6H4.41716C4.23716 6.1995 4.12466 6.46088 4.12466 6.75C4.12466 6.76875 4.12916 6.786 4.13028 6.80438C4.00803 6.77213 3.88166 6.75 3.74966 6.75C3.62178 6.75 3.49991 6.771 3.38141 6.80137C3.37991 6.78412 3.37466 6.76725 3.37466 6.75ZM2.62466 8.625H2.91716C2.73753 8.8245 2.62466 9.08587 2.62466 9.375C2.62466 9.66413 2.73753 9.9255 2.91716 10.125H2.62466C2.21103 10.125 1.87466 9.78862 1.87466 9.375C1.87466 8.96138 2.21103 8.625 2.62466 8.625ZM1.76103 19.875H1.54203L2.46416 11.2673C2.59541 11.4862 2.77916 11.6689 2.99966 11.7971V18.6364C2.99966 18.8816 2.92766 19.119 2.79153 19.3234C2.56166 19.6687 2.17616 19.875 1.76103 19.875ZM6.37503 22.875H1.12466V22.125H6.37466L6.37503 22.875ZM4.12466 21.375H3.37466V19.7936C3.38778 19.7752 3.40316 19.7588 3.41553 19.7396C3.63416 19.4119 3.74966 19.0301 3.74966 18.6364V18.3608C3.87678 18.351 4.00166 18.3334 4.12466 18.3071V21.375ZM3.74966 17.6119V12C3.92516 12 4.09353 11.9692 4.24991 11.9137L5.22491 16.7891C4.86528 17.2552 4.33278 17.5504 3.74966 17.6119ZM5.39666 13.8229L5.24966 13.0886C7.93278 12.1823 9.96941 9.9645 10.6362 7.203C11.0063 6.92963 11.2497 6.49425 11.2497 6C11.2497 5.817 11.2159 5.63775 11.1525 5.46975C11.3322 5.382 11.4938 5.2635 11.6247 5.115V5.21737C11.6247 9.13087 9.08141 12.6079 5.39666 13.8229ZM12.3747 5.21737V4.2945C12.7125 4.098 12.9638 3.774 13.068 3.38812C13.0868 3.38925 13.1059 3.38962 13.1247 3.39075V5.21737C13.1247 8.8335 15.3728 11.9494 18.75 13.0864L18.6027 13.8229C14.9179 12.6079 12.3747 9.13087 12.3747 5.21737ZM18.774 16.7891L19.749 11.9137C19.9058 11.9692 20.0742 12 20.2497 12V17.6119C19.6665 17.5504 19.134 17.2552 18.774 16.7891ZM19.8747 18.3075C19.9977 18.3334 20.1225 18.351 20.2497 18.3611V18.6368C20.2497 19.0305 20.3652 19.4119 20.5838 19.7396C20.5965 19.7588 20.6115 19.7752 20.6247 19.7936V21.375H19.8747V18.3075ZM22.8747 22.875H17.6247V22.125H22.8747V22.875Z" fill="black"/>
</g>
<defs>
<clipPath id="clip0_4671_23646">
<rect width="24" height="24" fill="white"/>
</clipPath>
</defs>
</svg>
