<svg width="22" height="22" viewBox="0 0 22 22" fill="none" xmlns="http://www.w3.org/2000/svg">
<g clip-path="url(#clip0_4671_23589)">
<path d="M19.0813 16.5152C19.0871 16.5188 19.0929 16.5223 19.0988 16.5257C20.0222 17.0588 21.207 16.7413 21.7401 15.8179C21.773 15.761 21.8029 15.7025 21.8298 15.6425C21.9351 15.5278 21.9994 15.3748 21.9994 15.2068V7.04279C21.9994 5.97657 21.1319 5.1092 20.0658 5.1092C18.9996 5.1092 18.1322 5.97661 18.1322 7.04279V11.5017L14.5377 9.42575C14.5266 9.41939 14.5154 9.41334 14.504 9.40762C14.2307 9.25418 13.9391 9.13718 13.6373 9.05867C13.9375 8.72833 14.1761 8.34135 14.3364 7.91626H14.8463C16.0521 7.91626 17.033 6.93533 17.033 5.72954V4.94669C17.033 3.7409 16.0521 2.75997 14.8463 2.75997H14.4714C14.1038 1.18065 12.6856 0 10.9959 0H10.9837C9.29401 0 7.87583 1.18065 7.50814 2.76001H7.1332C5.92745 2.76001 4.94652 3.74095 4.94652 4.94673V5.72958C4.94652 6.93533 5.92745 7.9163 7.1332 7.9163H7.64311C7.80398 8.34298 8.04388 8.73116 8.34565 9.06237C8.25623 9.086 8.16754 9.1126 8.07993 9.14311C8.06902 9.14693 8.05832 9.15097 8.04775 9.15527L1.27712 11.6218C1.00878 11.7194 0.770773 11.8712 0.572301 12.0704C0.450055 12.1916 0.344523 12.3284 0.258672 12.4771C-0.274441 13.4004 0.0430547 14.5854 0.966883 15.1187L6.19773 18.1328H1.93093C0.866207 18.1328 0 18.999 0 20.0637V20.0691C0 21.1338 0.866207 22 1.93093 22H9.70733C10.2039 22 10.6572 21.8115 10.9996 21.5024C11.3421 21.8115 11.7954 22 12.2919 22H20.0683C21.133 22 21.9992 21.1338 21.9992 20.0691V20.0637C21.9992 18.999 21.133 18.1328 20.0683 18.1328H15.7991V14.4787L19.0813 16.5152ZM8.70358 6.66076V3.57745C9.54216 4.01027 11.0098 4.53664 13.276 4.62215V6.66072C13.276 7.91802 12.2531 8.94085 10.9959 8.94085H10.9837C9.72645 8.9409 8.70358 7.91802 8.70358 6.66076ZM15.744 4.94673V5.72958C15.744 6.22458 15.3413 6.62724 14.8463 6.62724H14.5651V4.04912H14.8463C15.3413 4.04907 15.744 4.45173 15.744 4.94673ZM10.9837 1.28906H10.9959C12.173 1.28906 13.1444 2.18565 13.2636 3.33171C10.9919 3.23658 9.67708 2.66179 9.08084 2.31498C9.48922 1.69744 10.1895 1.28906 10.9837 1.28906ZM6.23558 5.72958V4.94673C6.23558 4.45173 6.63824 4.04907 7.1332 4.04907H7.41447V6.6272H7.1332C6.63824 6.6272 6.23558 6.22454 6.23558 5.72958ZM10.3492 20.0691C10.3492 20.423 10.0612 20.711 9.70728 20.711H1.93093C1.57704 20.711 1.28906 20.423 1.28906 20.0691V20.0637C1.28906 19.7099 1.577 19.4219 1.93093 19.4219H9.70733C10.0612 19.4219 10.3492 19.7098 10.3492 20.0637V20.0691H10.3492ZM20.7102 20.0637V20.0691C20.7102 20.423 20.4222 20.711 20.0683 20.711H12.2919C11.938 20.711 11.65 20.423 11.65 20.0691V20.0637C11.65 19.7099 11.938 19.4219 12.2919 19.4219H20.0683C20.4222 19.4219 20.7102 19.7098 20.7102 20.0637ZM12.2919 18.1328C11.7954 18.1328 11.3421 18.3213 10.9996 18.6304C10.6572 18.3213 10.2039 18.1328 9.70733 18.1328H9.33363C9.41282 18.0415 9.48492 17.9418 9.54757 17.8333C9.80581 17.3861 9.87439 16.865 9.74076 16.3661C9.60708 15.8672 9.28714 15.4502 8.83936 15.1917L6.48987 13.8379L7.24797 13.5615C7.58244 13.4397 7.75474 13.0698 7.63284 12.7353C7.51094 12.4009 7.14098 12.2285 6.80659 12.3505L4.74916 13.1003C4.51378 13.1861 4.34943 13.4005 4.32773 13.6501C4.30607 13.8997 4.43098 14.1393 4.64806 14.2643L8.1953 16.3083C8.3444 16.3944 8.45105 16.5334 8.49561 16.6997C8.54017 16.866 8.51727 17.0396 8.4312 17.1887C8.25348 17.4965 7.85851 17.6023 7.55025 17.4243L1.61094 14.0021C1.46184 13.9159 1.35519 13.777 1.31063 13.6107C1.26607 13.4444 1.28893 13.2707 1.37504 13.1216C1.40366 13.0721 1.43894 13.0263 1.48255 12.983C1.54928 12.9161 1.62843 12.8657 1.71811 12.833L8.52891 10.3519C8.77022 10.2709 9.02301 10.23 9.28073 10.23H10.9837H10.9958H12.7182C13.1299 10.23 13.5358 10.3381 13.8921 10.5425C13.9014 10.5478 13.9107 10.5529 13.9202 10.5577L18.4543 13.1764C18.6538 13.2916 18.8995 13.2915 19.0989 13.1765C19.2984 13.0613 19.4212 12.8485 19.4212 12.6182V7.04279C19.4212 6.6874 19.7104 6.39826 20.0658 6.39826C20.4212 6.39826 20.7103 6.6874 20.7103 7.04279V14.9574C20.7007 14.9804 20.6923 15.0041 20.6853 15.0284C20.6707 15.0792 20.65 15.1279 20.6237 15.1734C20.4474 15.4787 20.0574 15.5854 19.7507 15.4135L15.4943 12.7726C15.2955 12.6494 15.0456 12.6434 14.8411 12.7571C14.6367 12.8709 14.5099 13.0864 14.5099 13.3203V18.1328H12.2919Z" fill="#000000"/>
</g>
<defs>
<clipPath id="clip0_4671_23589">
<rect width="22" height="22" fill="white"/>
</clipPath>
</defs>
</svg>
