<svg width="22" height="22" viewBox="0 0 22 22" fill="none" xmlns="http://www.w3.org/2000/svg">
<g clip-path="url(#clip0_4671_24119)">
<mask id="mask0_4671_24119" style="mask-type:luminance" maskUnits="userSpaceOnUse" x="0" y="0" width="22" height="22">
<path d="M0 1.90735e-06H22V22H0V1.90735e-06Z" fill="white"/>
</mask>
<g mask="url(#mask0_4671_24119)">
<path d="M21.3555 21.3555H0.644531V1.9336H21.3555V21.3555Z" stroke="#919191" stroke-width="1.4" stroke-miterlimit="10"/>
<path d="M21.3555 5.80078H0.644531" stroke="#919191" stroke-width="1.4" stroke-miterlimit="10"/>
<path d="M5.84375 0V3.86719" stroke="#919191" stroke-width="1.4" stroke-miterlimit="10"/>
<path d="M11 0V3.86719" stroke="#919191" stroke-width="1.4" stroke-miterlimit="10"/>
<path d="M16.1562 0V3.86719" stroke="#919191" stroke-width="1.4" stroke-miterlimit="10"/>
<path d="M12.2891 14.8672C12.2891 17.003 10.5577 18.7773 8.42188 18.7773C6.28607 18.7773 4.55469 17.003 4.55469 14.8672C4.55469 12.7314 6.28607 11 8.42188 11C10.5577 11 12.2891 12.7314 12.2891 14.8672Z" stroke="#919191" stroke-width="1.4" stroke-miterlimit="10"/>
<path d="M17.4453 14.8672C17.4453 17.003 15.7139 18.7773 13.5781 18.7773C11.4423 18.7773 9.71094 17.003 9.71094 14.8672C9.71094 12.7314 11.4423 11 13.5781 11C15.7139 11 17.4453 12.7314 17.4453 14.8672Z" stroke="#919191" stroke-width="1.4" stroke-miterlimit="10"/>
<path d="M9.71094 9.71094C9.71094 10.4229 9.13378 11 8.42188 11C7.70997 11 7.13281 10.4229 7.13281 9.71094C7.13281 8.99899 7.70997 8.42188 8.42188 8.42188C9.13378 8.42188 9.71094 8.99899 9.71094 9.71094Z" stroke="#919191" stroke-width="1.4" stroke-miterlimit="10"/>
<path d="M14.8672 9.71094C14.8672 10.4229 14.29 11 13.5781 11C12.8662 11 12.2891 10.4229 12.2891 9.71094C12.2891 8.99899 12.8662 8.42188 13.5781 8.42188C14.29 8.42188 14.8672 8.99899 14.8672 9.71094Z" stroke="#919191" stroke-width="1.4" stroke-miterlimit="10"/>
</g>
</g>
<defs>
<clipPath id="clip0_4671_24119">
<rect width="22" height="22" fill="white"/>
</clipPath>
</defs>
</svg>
