<svg width="22" height="22" viewBox="0 0 22 22" fill="none" xmlns="http://www.w3.org/2000/svg">
<g clip-path="url(#clip0_4671_23339)">
<path d="M19.378 2.86389C19.378 1.83572 18.8805 0.860696 18.0471 0.255721L17.6949 0L17.3261 0.231232C16.8536 0.527511 16.4567 0.923595 16.1557 1.38236C15.8547 0.923552 15.4577 0.527511 14.9853 0.231232L14.6165 0L14.2643 0.255721C13.9999 0.447641 13.7695 0.676939 13.5779 0.933219C13.3862 0.676939 13.1558 0.447641 12.8914 0.255721L12.5392 0L12.1705 0.231232C11.698 0.527511 11.301 0.923595 11 1.38236C10.699 0.923552 10.3021 0.527511 9.82961 0.231232L9.46085 0L9.10863 0.255721C8.84423 0.447641 8.61381 0.676939 8.42219 0.933219C8.23058 0.676939 8.00016 0.447641 7.73576 0.255721L7.38354 0L7.01478 0.231232C6.54231 0.527511 6.14537 0.923595 5.84436 1.38236C5.54336 0.923552 5.14641 0.527511 4.67394 0.231232L4.30518 0L3.95296 0.255721C3.11959 0.860696 2.62207 1.83572 2.62207 2.86389C2.62207 4.42 3.73088 5.72193 5.1999 6.02135V7.77895H2.62207V8.42341C2.62207 15.599 9.06236 17.9215 9.06665 17.9251V22H12.9334V18.1333H13.5779C14.6439 18.1333 15.5112 19.0006 15.5112 20.0666V20.7111H16.8002V20.0666C16.8002 18.6751 15.9134 17.4869 14.6753 17.037C17.47 15.2511 19.378 12.0522 19.378 8.42341V7.77895H16.8002V6.02135C18.2692 5.72193 19.378 4.42 19.378 2.86389ZM13.5779 4.79498C14.0429 5.41422 14.7255 5.86118 15.5112 6.0213V7.77891H11.6445V6.0213C12.4302 5.86118 13.1128 5.41427 13.5779 4.79498ZM9.52491 1.61566C10.0457 2.10154 10.3555 2.79789 10.3555 3.5251H11.6444C11.6444 2.79789 11.9543 2.10149 12.4751 1.61566C12.7672 1.96156 12.9334 2.40392 12.9334 2.86389C12.9334 3.92995 12.066 4.79726 11 4.79726C9.93392 4.79726 9.06661 3.92995 9.06661 2.86389C9.06665 2.40392 9.23284 1.96152 9.52491 1.61566ZM8.42219 4.79498C8.88728 5.41422 9.56985 5.86118 10.3556 6.0213V7.77891H6.48882V6.0213C7.2745 5.86118 7.95711 5.41427 8.42219 4.79498ZM3.91099 2.86389C3.91099 2.40392 4.07721 1.96156 4.36928 1.61566C4.89009 2.10154 5.1999 2.79789 5.1999 3.5251H6.48882C6.48882 2.79789 6.79863 2.10149 7.31944 1.61566C7.61155 1.96156 7.77774 2.40392 7.77774 2.86389C7.77774 3.92995 6.91042 4.79726 5.84436 4.79726C4.7783 4.79726 3.91099 3.92995 3.91099 2.86389ZM7.77774 15.5554V15.7851C5.58181 14.265 4.13436 11.7792 3.9347 9.06744H11.2523C9.16027 10.4611 7.77774 12.8488 7.77774 15.5554ZM11.6445 20.7111H10.3556V18.1333H11.6445V20.7111ZM18.0654 9.06787C17.6444 14.7839 12.1692 16.8409 12.1648 16.8443H9.83519C9.57388 16.7379 9.37634 16.667 9.06661 16.5235V15.5554C9.06661 11.9782 11.9577 9.06787 15.5112 9.06787H18.0654ZM16.1557 4.79726C15.0896 4.79726 14.2223 3.92995 14.2223 2.86389C14.2223 2.40392 14.3885 1.96156 14.6806 1.61566C15.2014 2.10154 15.5112 2.79789 15.5112 3.5251H16.8002C16.8002 2.79789 17.11 2.10149 17.6308 1.61566C17.9229 1.96156 18.0891 2.40392 18.0891 2.86389C18.0891 3.92995 17.2218 4.79726 16.1557 4.79726Z" fill="#000000"/>
</g>
<defs>
<clipPath id="clip0_4671_23339">
<rect width="22" height="22" fill="white"/>
</clipPath>
</defs>
</svg>
