<svg width="24" height="24" viewBox="0 0 24 24" fill="none" xmlns="http://www.w3.org/2000/svg">
<path d="M4.60694 11.0683C5.13779 11.0498 5.64028 10.8282 6.01232 10.4536C6.8269 11.2758 8.15423 11.2753 8.96848 10.4537C9.35852 10.8473 9.8873 11.0699 10.446 11.0701H10.4461C10.6402 11.0701 10.7976 10.9128 10.7977 10.7186C10.7977 10.5245 10.6404 10.367 10.4463 10.367C10.0344 10.3668 9.64693 10.184 9.38313 9.86518C9.28024 9.74078 9.12907 9.66943 8.96848 9.66943C8.80789 9.66943 8.65677 9.74078 8.55378 9.86518C7.99959 10.5348 6.98017 10.5335 6.42701 9.86518C6.21045 9.60348 5.81301 9.60489 5.59772 9.86518C5.34221 10.1739 4.9816 10.3516 4.58247 10.3655C4.38841 10.3723 4.23659 10.5351 4.24338 10.7291C4.25013 10.9232 4.41274 11.0748 4.60694 11.0683Z" fill="black"/>
<path d="M4.60685 9.03652C5.13774 9.01805 5.64028 8.79643 6.01232 8.42186C6.62782 9.04215 7.57004 9.21493 8.36647 8.8456C8.54263 8.7639 8.61922 8.55489 8.53747 8.37879C8.45582 8.20263 8.2469 8.12613 8.07065 8.20774C7.50301 8.47099 6.82713 8.3171 6.42701 7.83355C6.21045 7.5719 5.81296 7.57325 5.59776 7.83355C5.34216 8.14235 4.9816 8.32005 4.58252 8.33388C4.38846 8.34063 4.23659 8.50338 4.24338 8.69744C4.25009 8.8914 4.41485 9.04266 4.60685 9.03652Z" fill="black"/>
<path d="M23.9632 8.44161V8.44156C22.9265 5.83972 20.5759 4.03877 17.8785 3.66364V3.32858C17.8785 2.73755 17.3977 2.25671 16.8067 2.25671C16.2156 2.25671 15.7347 2.73755 15.7347 3.32858V3.66364C14.873 3.7835 14.042 4.04777 13.2706 4.44766H9.32911C9.13491 4.44766 8.97755 4.60506 8.97755 4.79921C8.97755 4.99336 9.13491 5.15077 9.32911 5.15077H12.1576C11.8773 5.36339 11.579 5.6234 11.3178 5.88833H3.47815C3.31015 5.88833 3.16564 6.0072 3.1332 6.17206L1.60304 13.9517C1.56039 14.1687 1.72674 14.371 1.94799 14.371H5.92811V15.1086H1.07219C0.840119 15.1086 0.66556 14.8961 0.710372 14.6686L2.52384 5.44832C2.55773 5.27587 2.70993 5.15072 2.88566 5.15072H7.6483C7.8425 5.15072 7.99985 4.99332 7.99985 4.79916C7.99985 4.60501 7.8425 4.44761 7.6483 4.44761H2.88566C2.37482 4.44761 1.93247 4.81144 1.8339 5.31267L0.0205259 14.5329C-0.109925 15.1955 0.39805 15.8117 1.07224 15.8117H5.92816V16.6376C5.92816 16.8318 6.08552 16.9892 6.27972 16.9892C6.47392 16.9892 6.63127 16.8318 6.63127 16.6376V15.8117H8.1372V16.6376C8.1372 16.8318 8.29455 16.9892 8.48875 16.9892C8.68295 16.9892 8.84031 16.8318 8.84031 16.6376V15.8117H15.7348V16.8046H12.3405C11.7495 16.8046 11.2687 17.2855 11.2687 17.8766C11.2687 18.3573 11.5867 18.765 12.0234 18.9005V20.6714C12.0234 21.2624 12.5043 21.7433 13.0953 21.7433C13.6864 21.7433 14.1672 21.2624 14.1672 20.6714V18.9484H19.2985V20.6714C19.2985 21.2624 19.7793 21.7433 20.3703 21.7433C20.9614 21.7433 21.4423 21.2624 21.4423 20.6714V18.1737L23.6324 14.527C23.7755 14.2887 23.8196 14.0069 23.7582 13.7367L23.3661 11.7426C23.3287 11.5521 23.1437 11.428 22.9532 11.4655C22.7628 11.503 22.6387 11.6878 22.6761 11.8783L22.8802 12.9156C22.6241 12.8753 22.3599 12.9337 22.1566 13.0585L21.3869 9.14495H22.1385L22.3455 10.1975C22.383 10.3879 22.5679 10.5121 22.7583 10.4746C22.9488 10.4371 23.0729 10.2523 23.0355 10.0618L22.8551 9.14495H23.485C23.8472 9.145 24.0976 8.77905 23.9632 8.44161ZM17.8785 15.8117H20.36L19.7637 16.8046H17.8785V15.8117H17.8785ZM20.7823 15.1086H17.8785V14.371H21.2252C21.0716 14.6268 20.9364 14.852 20.7823 15.1086ZM15.5472 8.44189C15.864 5.29889 16.5685 4.30028 16.8039 4.29269H16.8094C17.0448 4.30024 17.7493 5.2988 18.0661 8.44189C17.7418 8.44189 15.9182 8.44189 15.5472 8.44189ZM13.1009 8.44189C13.6003 6.53247 14.5687 5.12002 15.709 4.55898C15.2058 5.61852 14.9555 7.28091 14.841 8.44189H13.1009ZM10.413 8.44189C11.1765 6.72841 12.5874 5.42601 14.2543 4.77259C13.2963 5.75169 12.6986 7.11643 12.3757 8.44189H10.413ZM18.7723 8.44189C18.6577 7.27913 18.4072 5.61768 17.9043 4.55893C19.0446 5.11997 20.0129 6.53243 20.5124 8.44189H18.7723ZM16.4378 3.59816V3.32858C16.4378 3.12524 16.6033 2.95983 16.8067 2.95983C17.01 2.95983 17.1754 3.12524 17.1754 3.32858V3.59816C16.9416 3.58709 16.6896 3.58634 16.4378 3.59816ZM3.76727 6.59144H10.7051C10.2722 7.15295 9.91625 7.7737 9.6502 8.44147C9.51586 8.77849 9.76565 9.145 10.1283 9.145H15.7347V13.6679H8.84026V13.3241C8.84026 12.5212 8.18707 11.8681 7.38421 11.8681C6.9428 11.8681 6.54695 12.0658 6.27972 12.3769C6.01249 12.0657 5.61663 11.8681 5.17522 11.8681C4.37232 11.8681 3.71917 12.5212 3.71917 13.3241V13.6679H2.37543L3.76727 6.59144ZM5.92811 13.6679H4.42219V13.3241C4.42219 12.9089 4.75996 12.5712 5.17513 12.5712C5.59029 12.5712 5.92807 12.9089 5.92807 13.3241V13.6679H5.92811ZM8.13715 13.6679H6.63122V13.3241C6.63122 12.9089 6.969 12.5712 7.38416 12.5712C7.79933 12.5712 8.1371 12.9089 8.1371 13.3241V13.6679H8.13715ZM6.63122 15.1086V14.371H8.13715V15.1086H6.63122ZM8.84026 15.1086V14.371H15.7347V15.1086H8.84026ZM16.4378 9.145H17.1754V16.8046H16.4378C16.4378 16.0924 16.4378 10.043 16.4378 9.145ZM13.4641 20.6713C13.4641 20.8747 13.2986 21.0401 13.0953 21.0401C12.8919 21.0401 12.7265 20.8747 12.7265 20.6713V18.9484H13.4641V20.6713ZM20.7391 20.6713C20.7391 20.8747 20.5737 21.0401 20.3703 21.0401C20.167 21.0401 20.0015 20.8747 20.0015 20.6713V18.9484H20.3703C20.4859 18.9484 20.6172 18.9274 20.7391 18.8822V20.6713ZM22.9032 13.659C23.0775 13.7636 23.1345 13.9903 23.0295 14.165L20.7893 17.8951L20.7893 17.8952L20.6865 18.0664C20.6202 18.1767 20.4991 18.2453 20.3703 18.2453C19.38 18.2453 13.3218 18.2453 12.3405 18.2453C12.1371 18.2453 11.9717 18.0799 11.9717 17.8765C11.9717 17.6732 12.1371 17.5077 12.3405 17.5077H19.9626C20.0861 17.5077 20.2005 17.443 20.264 17.3371C20.6373 16.7156 21.7903 14.7959 22.1478 14.2005L22.3972 13.7853C22.5018 13.6111 22.7277 13.5536 22.9032 13.659ZM21.5597 13.6679H17.8785V9.145H20.6702L21.5597 13.6679ZM21.2376 8.44189C20.9146 7.1162 20.317 5.75155 19.359 4.77259C21.0024 5.41673 22.424 6.69944 23.2004 8.44189C22.5058 8.44189 21.9321 8.44189 21.2376 8.44189Z" fill="black"/>
</svg>
