<svg width="24" height="24" viewBox="0 0 24 24" fill="none" xmlns="http://www.w3.org/2000/svg">
<g clip-path="url(#clip0_718_22583)">
<path d="M23.5312 12.5741H20.508L14.2696 11.4972C13.2159 11.3153 12.1355 11.6581 11.3795 12.4142L7.32361 16.4701L2.20142 11.3479C2.01836 11.1648 1.72152 11.1648 1.53846 11.3479L0.135275 12.751C-0.0450683 12.9313 -0.0451152 13.2336 0.135275 13.414L5.25747 18.5362L4.68498 19.1087C3.9689 19.8248 3.96886 21.02 4.68498 21.7361C5.40106 22.4522 6.59628 22.4522 7.31236 21.7361L7.89268 21.1558L10.1685 23.4321C10.349 23.6127 10.6509 23.6127 10.8315 23.4321L11.8453 22.4183C12.3919 22.7824 13.1201 22.7992 13.6811 22.4567L16.183 20.9295C16.5513 20.7046 16.9728 20.561 17.4022 20.514L20.4935 20.1726H23.5312C23.7901 20.1726 24 19.9627 24 19.7038V13.0429C24 12.7839 23.7901 12.5741 23.5312 12.5741ZM1.86994 12.3423L2.52929 13.0016L1.78907 13.7419L1.12972 13.0825L1.86994 12.3423ZM2.45204 14.4048L3.19226 13.6646L6.6607 17.1331L5.92048 17.8733L2.45204 14.4048ZM11.5866 19.7952C11.4207 19.9611 11.296 20.1534 11.2124 20.359L9.95113 19.0974L12.0109 17.0377C12.3288 16.7196 12.8596 16.7196 13.1775 17.0377C13.4992 17.3593 13.4992 17.8826 13.1775 18.2043L11.5866 19.7952ZM10.5 22.4376L8.55925 20.4965L9.29173 19.764L11.2325 21.7052L10.5 22.4376ZM17.2998 19.582C16.7348 19.6438 16.1797 19.833 15.6945 20.1292L13.1926 21.6565C12.8635 21.8573 12.4338 21.7818 12.193 21.4808C11.9517 21.1793 11.9766 20.7312 12.2496 20.4582L13.8405 18.8673C14.5277 18.18 14.5277 17.0619 13.8405 16.3746C13.1621 15.6963 12.0263 15.6963 11.3479 16.3746L6.64935 21.0732C6.29471 21.4278 5.70254 21.4278 5.3479 21.0732C4.99326 20.7185 4.99326 20.1264 5.3479 19.7717L12.0424 13.0772C12.5833 12.5363 13.3563 12.2909 14.1101 12.4212L19.999 13.4377V19.284L17.2998 19.582ZM23.0624 19.235H20.9366V13.5116H23.0624V19.235Z" fill="black"/>
<path d="M14.7528 4.08161H11.9205C11.0939 4.08161 10.4214 4.75409 10.4214 5.5807C10.4214 6.40732 11.0939 7.07985 11.9205 7.07985H12.2269C12.5333 7.07985 12.7826 7.32915 12.7826 7.6356C12.7826 7.94205 12.5333 8.19135 12.2269 8.19135H4.05559C3.48217 8.19135 3.01562 8.65789 3.01562 9.23131V10.6557C3.01562 10.9146 3.2255 11.1245 3.48442 11.1245C3.74333 11.1245 3.95321 10.9146 3.95321 10.6557V9.23131C3.95321 9.17487 3.99915 9.12893 4.05559 9.12893H12.2269C13.0503 9.12893 13.7202 8.45898 13.7202 7.6356C13.7202 6.81222 13.0503 6.14227 12.2269 6.14227H11.9205C11.6109 6.14227 11.359 5.89034 11.359 5.5807C11.359 5.27111 11.6109 5.01919 11.9205 5.01919H14.7528C16.0173 5.01919 17.0461 3.99038 17.0461 2.72582C17.0461 1.46126 16.0173 0.432495 14.7528 0.432495H11.2452C10.9863 0.432495 10.7764 0.642373 10.7764 0.901285C10.7764 1.1602 10.9863 1.37008 11.2452 1.37008H14.7528C15.5004 1.37008 16.1086 1.97828 16.1086 2.72586C16.1086 3.47344 15.5004 4.08161 14.7528 4.08161Z" fill="black"/>
<path d="M1.5557 10.3426C1.81462 10.3426 2.02449 10.1328 2.02449 9.87384V8.53614C2.02449 7.54873 2.82781 6.74537 3.81527 6.74537C4.90624 6.74537 5.79385 5.85781 5.79385 4.76679C5.79385 3.67577 4.90624 2.78826 3.81527 2.78826H3.56508C3.17411 2.78826 2.85599 2.47014 2.85599 2.07917C2.85599 1.6882 3.17411 1.37008 3.56508 1.37008H7.1209C7.37981 1.37008 7.58969 1.1602 7.58969 0.901285C7.58969 0.642373 7.37981 0.432495 7.1209 0.432495H3.56508C2.65708 0.432495 1.91841 1.17121 1.91841 2.07917C1.91841 2.98712 2.65708 3.72584 3.56508 3.72584H3.81527C4.38931 3.72584 4.85627 4.1928 4.85627 4.76684C4.85627 5.34082 4.38931 5.80783 3.81527 5.80783C2.31088 5.80783 1.08691 7.03175 1.08691 8.53619V9.87388C1.08691 10.1328 1.29679 10.3426 1.5557 10.3426Z" fill="black"/>
<path d="M8.79864 1.08053C8.87524 1.26444 9.06618 1.38426 9.26575 1.36874C9.4654 1.35323 9.63656 1.20954 9.68564 1.01528C9.78596 0.618305 9.34028 0.289495 8.99047 0.499232C8.7941 0.616945 8.71056 0.869108 8.79864 1.08053Z" fill="black"/>
</g>
<defs>
<clipPath id="clip0_718_22583">
<rect width="24" height="24" fill="white"/>
</clipPath>
</defs>
</svg>
