<svg clip-rule="evenodd" fill-rule="evenodd" height="24" image-rendering="optimizeQuality" shape-rendering="geometricPrecision" text-rendering="geometricPrecision" viewBox="0 0 6.82666 6.82666" width="24" xmlns="http://www.w3.org/2000/svg"><g id="Layer_x0020_1"><g id="_509083208"><path id="_509084168" d="m5.07691 1.94643c-.0107323 0-.0198268.00908268-.0198268.0198031l.00001181.350035c0 .0107283.00903543.0197992.0197992.0197992l.602575-.00001968c.0107795 0 .0197913-.00904724.0197913-.0197677l.00001181-.350071c0-.0107008-.00905906-.0197598-.0198189-.0197598l-.602543-.00001968zm.602559.530476h-.602559c-.0886496 0-.160685-.0720551-.160685-.160626l.00001181-.350071c0-.0885591.0720118-.160618.160657-.160618l.602575-.00001968c.0886339 0 .16065.0720906.16065.160661l.00001575.350035c0 .0885827-.0720315.160657-.160665.160638z"/><path id="_509083784" d="m6.05483 2.47691c-.00974016 0-.019437-.00199213-.0286063-.00602756l-.28502-.126331c-.0355472-.0157638-.0516024-.0573425-.0359488-.0929134.0158031-.0355945.0574646-.051622.0929291-.0358504l.186272.082437v-.313965l-.186256.0824528c-.0354291.0157638-.0771732-.00027165-.0929449-.0358307-.0156102-.0355866.00035827-.0771772.0359488-.0929252l.28502-.126331c.0217874-.00965748.0469488-.00762992.0670039.00536614.0199291.0129843.0320394.0352047.0320394.0590315l.00004724.530457c0 .0238268-.0121575.0460512-.0320866.0590512-.0116063.00755118-.0250669.0113976-.0383976.011378z"/><path id="_509083712" d="m.942972 3.10497h.00011024zm4.71889-2.62633c-.0189331 0-.0376772.00493701-.0544252.0145906l-4.62925 2.67273c-.052437.0302677-.0704528.0975-.040252.149898.0303465.0523425.0975709.0703898.149913.0401417l4.62941-2.67276c.0523307-.0302677.0702795-.0974646.0400827-.149858-.0145433-.0252283-.0382795-.0432835-.0666457-.0509016-.00952362-.00257874-.019311-.00384252-.0288346-.00384646zm-4.62843 3.03284c-.0866654 0-.171063-.0449055-.217402-.125193-.0690512-.119685-.0279961-.27322.0917047-.342291l4.62944-2.67276c.038748-.0224213.0819291-.033752.125748-.0335079.0213976.00012205.0429528.00300394.0642205.00870079.0648465.0173504.118846.0587402.152232.116535.0690984.119642.0278819.273197-.0917087.342276l-4.62939 2.67274c-.0393425.0227244-.0824134.0335315-.124846.0335079z"/><path id="_509083544" d="m5.39615 1.94643c-.0388425 0-.070437-.0315079-.070437-.0704094l.00000787-.926142c0-.038874.0315472-.0704055.0704213-.0704055.0390197-.00002362.0704291.0315315.0704291.0704291l.00000787.926098c0 .0389016-.0314252.0704488-.0704291.0704291z"/><path id="_509083976" d="m3.19903 4.69981c-.0388465 0-.0704331-.0315315-.0704331-.0704213l.00000394-2.41101c0-.0389016.0315354-.0703976.0704173-.0703976.0390197-.00000394.070437.0315197.070437.0704173l.00000787 2.41098c0 .0388976-.031437.070437-.0704331.0704291zm.29724 0c-.0388465 0-.0704291-.0315315-.0704291-.0704213l.00004724-2.5826c0-.038874.0314921-.0704094.0703819-.0704094.0388976-.00001968.0704291.0315354.0704291.0704291l.00005118 2.58257c0 .0388976-.0315984.070437-.0704803.0704291z"/><path id="_509083640" d="m3.05256 4.69979c-.0169016 0-.0310827.0142559-.0310827.0310906l.00003937.107126c0 .0168386.0141417.0310827.0310157.0310827l.590358-.00002362c.0167362 0 .0310433-.0142087.0310433-.0310472v-.107142c0-.0168346-.0143228-.0310669-.0310709-.0310669l-.590303-.00001968zm.590331.310134h-.590331c-.0947559 0-.171945-.0771063-.171945-.171906l.00004331-.107142c0-.0948031.0771102-.171913.171874-.171913l.590358-.00000394c.0947559 0 .171902.077126.171902.171921v.107126c0 .0948071-.0771614.171937-.171902.171917z"/><path id="_509083424" d="m3.3477 5.98345c-.0388465 0-.0704291-.0315236-.0704291-.0704173v-.973539c0-.0388976.0315472-.0704055.0704291-.0704055.0389016-.00002362.0704291.0315315.0704291.0704252v.973508c0 .0388976-.0315394.0704409-.0704291.0704291z"/><path id="_509083520" d="m3.90982 5.98345c-.0243228 0-.0480787-.0126102-.0610354-.0352008l-.562043-.973539c-.0194803-.0337008-.008-.0767559.025752-.0961969.0336693-.0194882.0767874-.00789764.0962244.0257835l.562008.973508c.0194252.0336732.00791732.0767756-.0257165.0962165-.0110906.00640157-.0232323.00945276-.035189.00942913z"/><path id="_509084072" d="m2.78553 5.98345c-.0118858 0-.0240039-.00301969-.0351339-.00942913-.0335906-.0194606-.0452402-.0625197-.0257953-.0962008l.562138-.973539c.0194173-.0336732.0624291-.0452362.0961772-.0257677.0336732.0194409.0452362.0625157.0257992.0962047l-.562055.973516c-.0130945.0225866-.0367126.0352402-.0611732.0352402l.00004331-.00002362z"/><path id="_509084048" d="m.842831 4.38802h-.00011024l-.00049606.388409.80202.00055118.00043701-.388437-.80185-.00052362zm.801413.529823h-.801413c-.0780236 0-.141492-.0634213-.141492-.141394l.00002756-.387906c0-.077937.0634291-.141358.141445-.141358l.801433-.00002362c.0778543 0 .141291.0634449.141291.141409l.00000787.387858c0 .0779685-.0634724.141413-.141299.141413z"/><path id="_509083832" d="m1.24351 4.38802c-.0388425 0-.0704449-.0315079-.0704449-.0704055l.00001575-.966697c0-.0388701.0315354-.0703898.0704213-.0703898.0389094-.00001181.0704252.0315236.0704252.0704173l.00001181.966646c0 .0389055-.0315551.0704409-.0704291.0704291z"/><path id="_509084024" d="m3.19903 3.7352h-.370248c-.0388465 0-.070437-.0315079-.070437-.0704055.00000787-.0388976.0315472-.0704291.070437-.0704291l.370248-.00002362c.0390079 0 .0704252.0315591.0704252.0704528.00000787.038878-.0314291.0704291-.0704252.0704055z"/><path id="_509083088" d="m2.35547 3.58296c-.0451181 0-.0819409.0367244-.0819409.0818425.00001181.0450945.036811.0818386.0819291.0818386l.317661-.00001575c.0451181 0 .0819213-.0367008.0819213-.0818228.00000787-.0451417-.0368031-.0818268-.0819213-.0818268l-.31765-.00001575zm.31765.304524h-.31765c-.122756 0-.222669-.0998937-.222669-.222681.00004724-.122807.0998937-.222685.222657-.222685l.317661-.00001575c.122921 0 .22278.0999134.22278.222701.00000787.122787-.0998937.222685-.22278.222681z"/><path id="_509082680" d="m4.37883 5.98353c-.0007126 0-.00133858.00000394-.00207874-.00001181l-.00304331-.00007087-2.05516.00005512c-.0387362.00107087-.071311-.0294843-.0724055-.0683819-.0011063-.0388898.0294606-.0712992.0683465-.0724134.00235039-.00006299.00477165-.0001063.00709055-.0001063l2.05213-.00001181c.00248031 0 .00475591.00005906.00707087.00011811.0389291.00109055.0695827.0335433.0683622.0724134-.00109449.0381732-.0324016.0684252-.070311.0684094zm-.00512205.330909h-2.05208c-.00220079 0-.0045748-.00003543-.00688976-.00008661-.0388898-.00098819-.0695787-.0332795-.0685945-.0721654.00098425-.0388976.0331299-.0695984.0721378-.0686535l.00334646.00007087 2.05549-.00008268c.0382992-.00082284.0711654.0297835.0721417.0686811.00088189.0388622-.0298425.071185-.0687087.0721496-.00215748.00002756-.00452756.00010236-.00684252.00008661z"/><path id="_509082752" d="m4.67585 5.80894c-.148567 0-.269504.120949-.269504.269587 0 .148618.120929.269563.269492.269563.148677-.00000787.269606-.120925.269606-.269563.00001575-.148646-.120929-.269567-.269594-.269587zm0 .68c-.226205 0-.410362-.18411-.410362-.410413 0-.226339.184142-.410425.41035-.410425.22637-.00001968.410465.18411.410465.410425.00001575.226283-.184134.410421-.410453.410413z"/><path id="_509083160" d="m2.0195 5.80894c-.148559 0-.269539.120949-.269539.269587.00003937.148618.120933.269563.269492.269563.148724-.00000787.269606-.120925.269606-.269563 0-.148646-.120925-.269567-.269606-.269567l.00004724-.00001968zm0 .68c-.226362 0-.410398-.18411-.410398-.410413.00003937-.226339.184016-.410425.41035-.410425.226358-.00001968.410469.18411.410469.410425 0 .226283-.184146.410421-.410469.410421l.00004724-.00000787z"/><path id="_509083136" d="m4.67585 6.04144c-.0204213 0-.0370591.0166535-.0370591.0370866.00002756.0204134.016626.037063.0370472.037063.0204213-.00000394.0370433-.0166339.0370433-.037063.00005512-.0204409-.0166299-.037063-.0370315-.0370866zm0 .215004c-.0980512 0-.177917-.0798031-.177917-.177917.00002756-.0981063.0798425-.177921.177906-.177921.0982244-.00002362.177902.0798228.177902.177921.00005512.0981063-.0797165.177921-.17789.177917z"/><path id="_509082656" d="m2.0195 6.04144c-.0204646 0-.0371024.0166535-.0371024.0370866.00001968.0204134.0166378.037063.0370551.037063.0204646-.00000394.0370433-.0166339.0370433-.037063.00003543-.0204409-.0166299-.037063-.0370433-.037063l.00004724-.00002362zm0 .215004c-.0981024 0-.177961-.0798031-.177961-.177917.00001968-.0981063.0798504-.177921.177913-.177921.0982087-.00002362.177906.0798228.177906.177921.0000315.0981063-.0797244.177921-.177858.177917z"/></g></g></svg>