<svg width="74" height="40" viewBox="0 0 74 40" fill="none" xmlns="http://www.w3.org/2000/svg">
<rect width="74" height="40" rx="20" fill="white"/>
<g clip-path="url(#clip0_417_4202)">
<path d="M54 20.75C53.11 20.75 52.24 20.4861 51.4999 19.9916C50.7599 19.4971 50.1831 18.7943 49.8425 17.9721C49.5019 17.1498 49.4128 16.245 49.5865 15.3721C49.7601 14.4992 50.1887 13.6974 50.818 13.068C51.4474 12.4387 52.2492 12.0101 53.1221 11.8365C53.995 11.6628 54.8998 11.7519 55.7221 12.0925C56.5443 12.4331 57.2471 13.0099 57.7416 13.7499C58.2361 14.49 58.5 15.36 58.5 16.25C58.5 17.4435 58.0259 18.5881 57.182 19.432C56.3381 20.2759 55.1935 20.75 54 20.75ZM54 13.25C53.4067 13.25 52.8266 13.4259 52.3333 13.7556C51.8399 14.0852 51.4554 14.5538 51.2284 15.102C51.0013 15.6501 50.9419 16.2533 51.0576 16.8353C51.1734 17.4172 51.4591 17.9518 51.8787 18.3713C52.2982 18.7909 52.8328 19.0766 53.4147 19.1924C53.9967 19.3081 54.5999 19.2487 55.1481 19.0216C55.6962 18.7946 56.1648 18.4101 56.4944 17.9167C56.8241 17.4234 57 16.8433 57 16.25C57 15.4544 56.6839 14.6913 56.1213 14.1287C55.5587 13.5661 54.7957 13.25 54 13.25Z" fill="black"/>
<path d="M54 31.25C52.3368 31.2489 50.6946 30.879 49.1915 30.167C47.6884 29.4551 46.3619 28.4187 45.3075 27.1325L44.9175 26.6525L45.3075 26.18C46.3628 24.8955 47.6897 23.8608 49.1927 23.1504C50.6958 22.4401 52.3375 22.0716 54 22.0716C55.6624 22.0716 57.3042 22.4401 58.8072 23.1504C60.3102 23.8608 61.6371 24.8955 62.6925 26.18L63.0825 26.6525L62.6925 27.1325C61.638 28.4187 60.3115 29.4551 58.8085 30.167C57.3054 30.879 55.6632 31.2489 54 31.25ZM46.8825 26.66C47.7947 27.6365 48.8978 28.4151 50.1235 28.9474C51.3492 29.4797 52.6712 29.7544 54.0075 29.7544C55.3438 29.7544 56.6658 29.4797 57.8915 28.9474C59.1171 28.4151 60.2203 27.6365 61.1325 26.66C60.2203 25.6835 59.1171 24.9049 57.8915 24.3726C56.6658 23.8403 55.3438 23.5656 54.0075 23.5656C52.6712 23.5656 51.3492 23.8403 50.1235 24.3726C48.8978 24.9049 47.7947 25.6835 46.8825 26.66Z" fill="black"/>
<path d="M53.9999 31.25C51.4445 31.2517 48.9646 30.3833 46.9685 28.7878C44.9723 27.1923 43.5788 24.9648 43.0173 22.4718C42.4559 19.9788 42.7599 17.3689 43.8794 15.0717C44.9988 12.7745 46.867 10.9269 49.1765 9.83296C51.4859 8.73901 54.099 8.46392 56.5856 9.05296C59.0723 9.642 61.2842 11.0601 62.8575 13.0738C64.4308 15.0875 65.2717 17.5768 65.2417 20.1321C65.2117 22.6874 64.3126 25.1563 62.6924 27.1325C61.638 28.4187 60.3115 29.4551 58.8084 30.1671C57.3053 30.879 55.6631 31.2489 53.9999 31.25ZM53.9999 10.25C52.0716 10.25 50.1865 10.8218 48.5831 11.8932C46.9798 12.9645 45.7301 14.4873 44.9921 16.2688C44.2542 18.0504 44.0611 20.0108 44.4373 21.9021C44.8135 23.7935 45.7421 25.5307 47.1057 26.8943C48.4692 28.2579 50.2065 29.1865 52.0978 29.5627C53.9891 29.9389 55.9495 29.7458 57.7311 29.0078C59.5127 28.2699 61.0354 27.0202 62.1068 25.4168C63.1781 23.8134 63.7499 21.9284 63.7499 20C63.7499 17.4141 62.7227 14.9342 60.8942 13.1057C59.0658 11.2772 56.5858 10.25 53.9999 10.25Z" fill="black"/>
<path d="M45.885 26.66C45.885 26.66 53.4375 35.0975 61.125 27.5L62.115 26.66C62.115 26.66 55.695 20 49.1775 23.9975L45.885 26.66Z" fill="black"/>
<path d="M54 20C56.0711 20 57.75 18.3211 57.75 16.25C57.75 14.1789 56.0711 12.5 54 12.5C51.9289 12.5 50.25 14.1789 50.25 16.25C50.25 18.3211 51.9289 20 54 20Z" fill="black"/>
</g>
<path d="M28.2581 13.6129H13.7419C12.7839 13.6129 12 14.3968 12 15.3549C12 16.3129 12.7839 17.0968 13.7419 17.0968H28.2581C29.2161 17.0968 30 16.3129 30 15.3549C30 14.3968 29.2161 13.6129 28.2581 13.6129Z" fill="black"/>
<path d="M28.2581 18.2581H13.7419C12.7839 18.2581 12 19.042 12 20C12 20.9581 12.7839 21.742 13.7419 21.742H28.2581C29.2161 21.742 30 20.9581 30 20C30 19.042 29.2161 18.2581 28.2581 18.2581Z" fill="black"/>
<path d="M28.2581 22.9032H13.7419C12.7839 22.9032 12 23.6871 12 24.6452C12 25.6032 12.7839 26.3871 13.7419 26.3871H28.2581C29.2161 26.3871 30 25.6032 30 24.6452C30 23.6871 29.2161 22.9032 28.2581 22.9032Z" fill="black"/>
<defs>
<clipPath id="clip0_417_4202">
<rect width="24" height="24" fill="white" transform="translate(42 8)"/>
</clipPath>
</defs>
</svg>
