<svg width="50" height="24" viewBox="0 0 50 24" fill="none" xmlns="http://www.w3.org/2000/svg">
<path d="M46.9193 18.3781C45.6413 18.3781 44.8215 17.0289 43.3748 14.1617C41.9281 11.2946 39.8544 7.13443 35.6589 7.13443C31.4634 7.13443 29.438 11.1822 27.9431 14.1617C26.4481 17.1413 25.6765 18.3781 24.4227 18.3781C23.1689 18.3781 22.325 17.0289 20.8782 14.1617C19.4315 11.2946 17.3579 7.13443 13.1624 7.13443C8.96688 7.13443 6.94147 11.1822 5.44652 14.1617C3.95157 17.1413 3.19269 18.4131 1.89064 18.4131C-0.929027 19.2393 -0.312627 23.1738 1.89064 23.8313C2.39819 23.8313 2.88575 23.9408 3.33326 23.8313C6.58496 23.0363 8.325 19.5918 9.6179 16.9727C11.0887 13.9931 11.8603 12.7563 13.1624 12.7563C14.4644 12.7563 15.2601 14.1055 16.6827 16.9727C18.1054 19.8398 20.2031 24 24.4227 24C28.6423 24 30.6436 19.9523 32.1386 16.9727C33.6335 13.9931 34.381 12.7563 35.683 12.7563C36.9851 12.7563 37.7808 14.1055 39.2275 16.9727C40.6743 19.8398 42.7479 24 46.9434 24C49.738 24 50.1901 18.5538 46.9193 18.3781Z" fill="url(#paint0_linear_2499_25501)"/>
<path d="M16.0808 2.80656C16.0808 4.35658 14.8243 5.61311 13.2743 5.61311C11.7242 5.61311 10.4677 4.35658 10.4677 2.80656C10.4677 1.25654 11.7242 0 13.2743 0C14.8243 0 16.0808 1.25654 16.0808 2.80656Z" fill="#724C9B"/>
<path d="M37.9825 2.80656C37.9825 4.35658 36.7259 5.61311 35.1759 5.61311C33.6259 5.61311 32.3693 4.35658 32.3693 2.80656C32.3693 1.25654 33.6259 0 35.1759 0C36.7259 0 37.9825 1.25654 37.9825 2.80656Z" fill="#D94A8C"/>
<defs>
<linearGradient id="paint0_linear_2499_25501" x1="12.5398" y1="-1.38103" x2="34.3022" y2="4.35726" gradientUnits="userSpaceOnUse">
<stop stop-color="#724C9B"/>
<stop offset="1" stop-color="#D94A8C"/>
</linearGradient>
</defs>
</svg>
