<svg xmlns="http://www.w3.org/2000/svg" width="29" height="36" viewBox="0 0 29 36" fill="none">
<path d="M9.95098 22.3955L9.96707 25.8837L9.98317 29.3719L6.78653 27.3159L3.58984 25.2601L6.77044 23.8278L9.95098 22.3955Z" fill="#D22F27"/>
<path d="M15.9044 26.343C22.7643 26.343 28.3254 20.7819 28.3254 13.922C28.3254 7.06204 22.7643 1.50098 15.9044 1.50098C9.04446 1.50098 3.4834 7.06204 3.4834 13.922C3.4834 20.7819 9.04446 26.343 15.9044 26.343Z" fill="#EA5A47"/>
<path d="M24.4505 5.03796C23.7264 4.31382 22.934 3.70029 22.0957 3.19238C24.9901 7.97013 24.3767 14.2768 20.2501 18.4034C16.1235 22.53 9.81681 23.1435 5.03906 20.249C5.54697 21.0874 6.16055 21.8797 6.88463 22.6039C11.7353 27.4546 19.5999 27.4546 24.4505 22.6039C29.3013 17.7532 29.3013 9.88867 24.4505 5.03796Z" fill="#D22F27"/>
<path d="M9.96422 24.8357L9.96962 25.8834L9.98582 29.372L6.78881 27.3144L3.5918 25.2623L6.77261 23.8258L7.82568 23.3506" stroke="black" stroke-width="1.1394" stroke-miterlimit="10" stroke-linecap="round" stroke-linejoin="round"/>
<path d="M15.9044 26.343C22.7643 26.343 28.3254 20.7819 28.3254 13.922C28.3254 7.06204 22.7643 1.50098 15.9044 1.50098C9.04446 1.50098 3.4834 7.06204 3.4834 13.922C3.4834 20.7819 9.04446 26.343 15.9044 26.343Z" stroke="black" stroke-width="1.0741" stroke-miterlimit="10"/>
<path d="M1.1748 34.4913C1.44741 34.5126 1.72856 34.4912 2.01024 34.4219C3.47023 34.0629 4.3918 32.5545 4.06864 31.0527" stroke="black" stroke-width="1.0741" stroke-miterlimit="10" stroke-linecap="round" stroke-linejoin="round"/>
<path d="M4.0995 31.1545C4.01142 30.8956 3.96261 30.6179 3.96007 30.3278C3.94678 28.8244 5.18033 27.5583 6.71533 27.5" stroke="black" stroke-width="1.0741" stroke-miterlimit="10" stroke-linecap="round" stroke-linejoin="round"/>
</svg>