<?xml version="1.0"?>
<svg xmlns="http://www.w3.org/2000/svg" id="outline" viewBox="0 0 512 512" width="24" height="24"><path d="M168,208h16.02185A39.79083,39.79083,0,0,0,176,232H152a7.99924,7.99924,0,0,0-7.15527,4.42236l-5.55616,11.11182a182.70473,182.70473,0,0,0-2.14795,158.9707l39.60987,84.87842A8,8,0,0,0,184,496H328a8,8,0,0,0,7.24951-4.6167l39.60987-84.87891a182.70366,182.70366,0,0,0-2.14795-158.97021l-5.55616-11.11182A7.99924,7.99924,0,0,0,360,232H336a39.79083,39.79083,0,0,0-8.02185-24H344a56.06353,56.06353,0,0,0,56-56V136a7.99977,7.99977,0,0,0-8-8H362.92529q1.08985-2.31428,2.04248-4.68848l16.68555-41.71289a7.99947,7.99947,0,0,0-1.771-8.62793L357.25488,50.34326a7.99876,7.99876,0,0,0-8.62793-1.771L306.91406,65.25732c-2.52954,1.01185-4.98926,2.14618-7.38965,3.37818q-1.10668-3.29626-2.47412-6.49341L279.353,20.84863A8.00006,8.00006,0,0,0,272,16H240a8.00006,8.00006,0,0,0-7.353,4.84863L214.94971,62.14209c-.91211,2.12811-1.71387,4.3053-2.45215,6.50421-2.40711-1.23639-4.87451-2.374-7.41162-3.389L163.37305,48.57227a8.00112,8.00112,0,0,0-8.62793,1.771L132.11768,72.9707a7.99947,7.99947,0,0,0-1.771,8.62793L147.03174,123.311q.94957,2.37423,2.04272,4.689H120a7.99977,7.99977,0,0,0-8,8v16A56.06353,56.06353,0,0,0,168,208Zm23.84521-92.93359a7.99061,7.99061,0,0,1,9.23487-1.499l15.86011,7.93024-1.99048,4.64447a85.60572,85.60572,0,0,0-5.803,19.92218,55.95976,55.95976,0,0,0-31.14722-17.15234Zm128.30958-.00049,13.84594,13.846a55.96009,55.96009,0,0,0-31.14746,17.15234,85.60572,85.60572,0,0,0-5.803-19.92218l-1.99048-4.64441,15.8606-7.9303A7.98972,7.98972,0,0,1,320.15479,115.06592Zm-37.81055,17.3789A69.55959,69.55959,0,0,1,288,160a31.80608,31.80608,0,0,1-4.68384,16.65021l-8.07983-24.24a23.94934,23.94934,0,0,0-8.11182-11.4018l11.019-18.36493ZM252.46777,152a7.9905,7.9905,0,0,1,7.58985,5.47021l10.36108,31.0835A31.978,31.978,0,0,1,224,160a70.393,70.393,0,0,1,.47083-8Zm17.901-47.49725L251.47046,136h-23.22c.437-1.19342.90149-2.3797,1.40527-3.55518L245.27539,96h21.44922ZM216,208h32a24.02687,24.02687,0,0,1-24,24H192A24.02687,24.02687,0,0,1,216,208Zm139.05566,40,3.34522,6.68945A167.47067,167.47067,0,0,1,374.04663,304H315.69507A31.794,31.794,0,0,0,320,288a24.02687,24.02687,0,0,0-24-24,47.98836,47.98836,0,0,0-40,21.50677A47.98836,47.98836,0,0,0,216,264a24.02687,24.02687,0,0,0-24,24,32.04915,32.04915,0,0,0,24.69165,31.14807A39.794,39.794,0,0,0,208,344v40h16V344a24.02687,24.02687,0,0,1,24-24h16a24.02687,24.02687,0,0,1,24,24v40h16V344a39.79083,39.79083,0,0,0-8.02185-24H375.734q.25983,4.61718.266,9.24219a167.81582,167.81582,0,0,1-15.63965,70.49658L322.90527,480H189.09473l-37.45508-80.26123A167.81582,167.81582,0,0,1,136,329.24219q0-4.62286.266-9.24219H184V304H137.95337a167.47067,167.47067,0,0,1,15.64575-49.31055L156.94434,248ZM208,288a8.00917,8.00917,0,0,1,8-8,32.05732,32.05732,0,0,1,30.98779,24H224A16.01833,16.01833,0,0,1,208,288Zm80,16H265.01221A32.05732,32.05732,0,0,1,296,280a8.00917,8.00917,0,0,1,8,8A16.01833,16.01833,0,0,1,288,304Zm32-72H288a24.02687,24.02687,0,0,1-24-24h32A24.02687,24.02687,0,0,1,320,232Zm64-80a40.04521,40.04521,0,0,1-40,40H318.80652l3.45032-2.76025A60.63814,60.63814,0,0,1,360,176V160a76.69724,76.69724,0,0,0-47.73828,16.74561l-8.245,6.596A40.03917,40.03917,0,0,1,344,144h40ZM349.67139,65.38672l15.167,15.16748-14.72656,36.81543c-.4729,1.18262-.98291,2.35065-1.52,3.5061l-16.418-16.41821,8.90857-35.63519ZM312.85645,80.11279l9.90087-3.96032L317.563,96.92969a23.94189,23.94189,0,0,0-13.79834,2.32715l-15.01831,7.50933-2.9502-6.88378a32.25914,32.25914,0,0,1,3.57642-4.28473A69.5653,69.5653,0,0,1,312.85645,80.11279Zm-83.20069-11.668L245.27539,32h21.44922l15.61963,36.44482a70.06828,70.06828,0,0,1,3.18469,9.21241,86.33792,86.33792,0,0,0-6.81775,6.00671A7.99332,7.99332,0,0,0,272,80H240a7.99332,7.99332,0,0,0-6.71118,3.66394,86.32661,86.32661,0,0,0-6.82251-6.01038A70.11254,70.11254,0,0,1,229.65576,68.44482Zm-7.02832,27.15284a32.262,32.262,0,0,1,3.57691,4.28387l-2.95069,6.88458-15.01782-7.50927A23.94792,23.94792,0,0,0,194.437,96.93l-5.19433-20.77752,9.90087,3.96032A69.5653,69.5653,0,0,1,222.62744,95.59766ZM162.32861,65.38672l8.589,3.43561,8.90869,35.63556-16.41809,16.418c-.53735-1.15571-1.04736-2.32392-1.5205-3.50678L147.16162,80.5542ZM128,144h40a40.03917,40.03917,0,0,1,39.98328,39.34161l-8.245-6.596A76.69724,76.69724,0,0,0,152,160v16a60.63814,60.63814,0,0,1,37.74316,13.23975L193.19348,192H168a40.04521,40.04521,0,0,1-40-40Z"/></svg>
