<svg width="32" height="32" viewBox="0 0 32 32" fill="none" xmlns="http://www.w3.org/2000/svg">
<g id="icon / sf symbols / arrow right">
<rect x="32" y="32" width="32" height="32" rx="8" transform="rotate(-180 32 32)" fill="white"/>
<path id="right" d="M18.9384 9C18.6427 9 18.4 9.10871 18.2028 9.31059L12.3867 15.1265C12.1289 15.3905 12 15.6622 12 15.9961C12 16.33 12.1213 16.6095 12.3867 16.8658L18.2028 22.6894C18.4076 22.8913 18.6502 23 18.9384 23C19.5223 23 20 22.5186 20 21.9207C20 21.6256 19.8787 21.3461 19.6664 21.1287L14.51 15.9961L19.6664 10.8713C19.8787 10.6539 20 10.3744 20 10.0793C20 9.48142 19.5223 9 18.9384 9Z" fill="#1A1A1A"/>
</g>
</svg>
