<svg xmlns="http://www.w3.org/2000/svg" width="43" height="42" viewBox="0 0 43 42" fill="none">
<path d="M11.3839 18.3374C10.8523 18.1617 10.3034 18.0082 9.99517 16.6807C9.71133 17.9035 9.25652 18.1227 8.60645 18.3374C9.66664 18.6877 9.82661 19.2678 9.99517 19.9941C10.2857 18.742 10.7663 18.5414 11.3839 18.3374Z" fill="#F0C020"/>
<path d="M33.505 6.90087C32.9734 6.7252 32.4245 6.57167 32.1163 5.24414C31.8324 6.46699 31.3776 6.68614 30.7275 6.90087C31.7877 7.25113 31.9477 7.83129 32.1163 8.55759C32.4068 7.30562 32.8874 7.10499 33.505 6.90087Z" fill="#F0C020"/>
<path d="M34.8937 21.6929C34.3621 21.5172 33.8132 21.3637 33.5049 20.0361C33.2211 21.259 32.7663 21.4781 32.1162 21.6929C33.1764 22.0431 33.3364 22.6233 33.5049 23.3496C33.7955 22.0976 34.2761 21.897 34.8937 21.6929Z" fill="#F0C020"/>
<path d="M9.64708 20.0742C9.73257 20.4424 10.257 20.4422 10.3425 20.0742C10.5982 18.9722 10.9745 18.8478 11.4954 18.6757C11.8208 18.5682 11.8216 18.1055 11.4954 17.9979C10.995 17.8331 10.6042 17.7265 10.3425 16.5994C10.2573 16.232 9.73216 16.233 9.64721 16.5994C9.39129 17.7016 9.03445 17.8195 8.49428 17.998C8.16898 18.1055 8.16817 18.5681 8.49428 18.6759C9.39142 18.9722 9.49315 19.4106 9.64708 20.0742ZM9.996 17.7226C10.157 18.0126 10.3404 18.2047 10.5297 18.3401C10.3322 18.479 10.1548 18.6653 10.0018 18.9358C9.87536 18.7228 9.69982 18.5213 9.44296 18.3449C9.65084 18.2024 9.83684 18.009 9.996 17.7226Z" fill="#1A1A1A"/>
<path d="M32.4636 8.63772C32.7193 7.53566 33.0956 7.41125 33.6165 7.2392C33.9418 7.13171 33.9427 6.66898 33.6165 6.56135C33.1161 6.39655 32.7253 6.28999 32.4636 5.16283C32.3784 4.79552 31.8533 4.79645 31.7683 5.16283C31.5124 6.26503 31.1555 6.38299 30.6154 6.56148C30.2901 6.66898 30.2893 7.13157 30.6154 7.23934C31.5127 7.53579 31.6144 7.97423 31.7683 8.63786C31.8537 9.00584 32.3781 9.00571 32.4636 8.63772ZM31.5642 6.90839C31.7721 6.76587 31.9579 6.57235 32.1172 6.28596C32.2783 6.57598 32.4616 6.76802 32.6511 6.90343C32.4535 7.04233 32.2761 7.2286 32.1231 7.49915C31.9966 7.28631 31.821 7.08474 31.5642 6.90839Z" fill="#1A1A1A"/>
<path d="M32.004 22.0312C32.9013 22.3276 33.003 22.7661 33.157 23.4297C33.2424 23.7978 33.7669 23.7977 33.8524 23.4297C34.1081 22.3276 34.4844 22.2032 35.0053 22.0312C35.3306 21.9237 35.3314 21.461 35.0053 21.3533C34.5049 21.1885 34.1141 21.082 33.8524 19.9548C33.7672 19.5875 33.242 19.5884 33.1571 19.9548C32.9012 21.057 32.5443 21.1749 32.0042 21.3535C31.6787 21.4608 31.6779 21.9234 32.004 22.0312ZM33.5059 21.0781C33.6669 21.3681 33.8503 21.56 34.0397 21.6956C33.8422 21.8345 33.6648 22.0207 33.5118 22.2913C33.3854 22.0783 33.2098 21.8767 32.953 21.7004C33.1607 21.5579 33.3467 21.3643 33.5059 21.0781Z" fill="#1A1A1A"/>
<path d="M21.7496 36.8241C17.8404 36.8037 11.4973 32.9273 12.404 26.457C14.0218 14.9379 13.4257 20.2924 13.2472 14.9815C13.1059 10.7326 13.9578 4.33594 21.7494 4.33594C29.5874 4.33594 30.3731 10.7746 30.2231 15.0345C30.0445 20.1584 29.5127 15.1918 31.095 26.457C32.0092 32.9815 25.5545 36.844 21.7496 36.8241Z" fill="#FFCAC6"/>
<path d="M30.2237 15.0345C29.4953 16.3081 28.2504 17.542 26.8444 18.6279C25.1734 19.9214 23.2753 21.0029 21.75 21.6938C20.4456 21.1045 18.4501 20.0118 16.6557 18.6324C15.2607 17.5574 13.985 16.3081 13.2478 14.9815C13.1065 10.7326 13.9584 4.33594 21.75 4.33594C29.588 4.33594 30.3737 10.7746 30.2237 15.0345Z" fill="#FC5D3D"/>
<path d="M26.8439 18.6278C25.173 19.9212 23.2748 21.0028 21.7496 21.6936C20.4451 21.1044 18.4497 20.0117 16.6553 18.6322C17.227 17.9392 17.9421 17.3631 18.7566 16.9503C17.5691 16.0475 16.8032 14.6216 16.8032 13.0148C16.8032 10.2822 19.017 8.06836 21.7496 8.06836C24.4822 8.06836 26.696 10.2822 26.696 13.0148C26.696 14.6217 25.9301 16.0475 24.7426 16.9503C25.5727 17.3711 26.3062 17.9715 26.8439 18.6278Z" fill="#FEB69F"/>
<path d="M21.7497 34.7199C20.3894 34.7199 19.0882 34.2981 17.9864 33.5004C17.8363 33.3917 17.8028 33.182 17.9115 33.0319C18.02 32.8818 18.2298 32.8483 18.38 32.9569C19.3665 33.6713 20.5315 34.0489 21.7495 34.0489C24.683 34.0489 28.9574 31.1171 28.3583 26.8408L27.787 22.7731C27.7612 22.5897 27.8891 22.42 28.0726 22.3943C28.2573 22.3684 28.4257 22.4964 28.4514 22.6798L29.0227 26.7476C29.6921 31.525 24.9918 34.7199 21.7497 34.7199ZM27.6006 21.4441L27.5259 20.9125C27.5001 20.7289 27.628 20.5593 27.8114 20.5335C27.9942 20.5079 28.1645 20.6357 28.1903 20.819L28.265 21.3506C28.2908 21.5342 28.1629 21.7038 27.9795 21.7296C27.7965 21.7556 27.6264 21.628 27.6006 21.4441Z" fill="white"/>
<path d="M23.7767 27.2247C23.7767 26.1081 22.8681 25.1996 21.7502 25.1982C20.6323 25.1996 19.7236 26.1081 19.7236 27.2247C19.7236 28.228 20.4564 29.0615 21.4147 29.2223V29.996H20.6498C20.4646 29.996 20.3143 30.1463 20.3143 30.3301C20.3143 30.5153 20.4646 30.667 20.6498 30.667H21.4147V31.7446C21.4147 31.9298 21.565 32.0801 21.7502 32.0801C21.9354 32.0801 22.0857 31.9298 22.0857 31.7446V30.667H22.8507C23.0359 30.667 23.1862 30.5153 23.1862 30.3301C23.1862 30.1463 23.0359 29.996 22.8507 29.996H22.0857V29.2223C23.0441 29.0615 23.7767 28.228 23.7767 27.2247ZM20.3946 27.2247C20.3961 26.4785 21.0039 25.8706 21.7502 25.8693C22.4964 25.8706 23.1043 26.4785 23.1057 27.2247C23.1043 27.9709 22.4964 28.5801 21.7502 28.5815C21.0039 28.5801 20.3961 27.9709 20.3946 27.2247Z" fill="#1A1A1A"/>
<path d="M17.0528 27.5879C16.8756 27.5436 16.6904 27.655 16.6448 27.8308C16.6 28.0125 16.7099 28.1942 16.8877 28.2387C17.0826 28.2849 17.2514 28.1664 17.2957 27.9972V27.9958C17.3412 27.816 17.2326 27.6335 17.0528 27.5879Z" fill="#1A1A1A"/>
<path d="M20.6322 11.8755C20.6322 11.6902 20.482 11.54 20.2967 11.54H20.1128C19.9275 11.54 19.7773 11.6902 19.7773 11.8755C19.7773 12.0609 19.9275 12.211 20.1128 12.211H20.2967C20.482 12.211 20.6322 12.0607 20.6322 11.8755Z" fill="#1A1A1A"/>
<path d="M23.7221 11.8755C23.7221 11.6902 23.5719 11.54 23.3865 11.54H23.2027C23.0174 11.54 22.8672 11.6902 22.8672 11.8755C22.8672 12.0609 23.0174 12.211 23.2027 12.211H23.3865C23.5719 12.211 23.7221 12.0607 23.7221 11.8755Z" fill="#1A1A1A"/>
<path d="M21.7486 14.8929C22.472 14.8929 23.0866 14.3789 23.2113 13.6703C23.245 13.485 23.118 13.3123 22.9388 13.2825C22.7565 13.2502 22.582 13.3737 22.551 13.5535C22.4846 13.926 22.1606 14.2219 21.7418 14.2219C21.3499 14.2219 21.0172 13.94 20.9488 13.5535C20.9179 13.3737 20.7421 13.2502 20.5608 13.2825C20.3784 13.3147 20.2561 13.4891 20.2884 13.6703V13.6716C20.4126 14.3753 21.0218 14.8929 21.7486 14.8929Z" fill="#1A1A1A"/>
<path d="M26.2537 12.0237C26.292 12.1981 26.4678 12.3212 26.6537 12.28C26.8359 12.2408 26.9488 12.0602 26.91 11.8801C26.8711 11.7029 26.6872 11.5848 26.5101 11.6251C26.331 11.6636 26.2144 11.8407 26.2537 12.0237Z" fill="#1A1A1A"/>
<path d="M31.4272 26.4104C30.5641 20.2582 30.3242 18.9092 30.3282 18.2107C30.3269 18.0107 30.347 17.843 30.3765 17.588C30.4288 17.1518 30.5079 16.4942 30.5589 15.0462C30.7919 8.38452 28.3298 4 21.75 4C18.8849 4 16.2815 4.86064 14.6655 7.19804C14.56 7.35063 14.5961 7.55851 14.75 7.66506C14.8963 7.7684 15.115 7.72814 15.2169 7.58186C16.5859 5.62921 18.7223 4.67772 21.75 4.67101C27.9496 4.68685 30.0903 8.76834 29.8907 14.9373C29.2828 15.9702 28.2502 17.0806 26.8881 18.1663C26.4437 17.6799 25.9123 17.2432 25.3318 16.8927C26.3491 15.9559 26.9491 14.681 27.0241 13.3041C27.0335 13.1189 26.8913 12.9605 26.7074 12.9512C26.5236 12.9404 26.3639 13.084 26.3545 13.2679C26.2807 14.6166 25.6204 15.8607 24.5401 16.682C24.341 16.8347 24.3715 17.1357 24.5911 17.2497C25.2461 17.5813 25.8617 18.0465 26.3551 18.5778C24.9687 19.6152 23.3157 20.6018 21.75 21.3243C21.0183 20.9854 19.1051 20.0386 17.1466 18.5811C17.6488 18.0388 18.2511 17.5821 18.9089 17.2497C19.1286 17.1354 19.1584 16.8344 18.9599 16.682C17.8031 15.803 17.1388 14.465 17.1388 13.0142C17.1388 10.4652 19.2004 8.40304 21.75 8.40304C23.4319 8.40304 25.0098 9.31991 25.8257 10.8536C25.9112 11.0166 26.1133 11.08 26.278 10.9931C26.4417 10.9059 26.5046 10.7033 26.4175 10.5395C26.0752 9.89403 25.6117 9.33991 25.0634 8.89838C25.5463 8.59347 25.7182 8.08793 25.7182 7.51194L25.7169 7.50791C25.7048 7.32405 25.5424 7.1818 25.3614 7.19522C25.1762 7.2073 25.0351 7.367 25.0472 7.55086C25.0472 8.02754 24.8635 8.36922 24.3877 8.4382C24.0956 8.26991 23.7879 8.12887 23.4672 8.01895C23.7625 7.67231 23.8155 7.2646 23.7026 6.82482C23.657 6.64902 23.4691 6.53763 23.2933 6.5846C23.1113 6.63211 23.0065 6.81596 23.0531 6.99392C23.1301 7.29708 23.0814 7.50402 22.8397 7.69043C22.7796 7.73431 22.7093 7.77323 22.621 7.80665C22.3359 7.75927 22.0452 7.73203 21.75 7.73203C18.8385 7.73203 16.4678 10.0866 16.4678 13.0142C16.4678 14.5283 17.1077 15.917 18.1668 16.8927C17.5858 17.2427 17.065 17.6716 16.6118 18.1709C15.2076 17.0556 14.1893 15.9519 13.5803 14.8858C13.5341 13.2264 13.6424 11.4934 14.1233 9.90356C14.1774 9.72104 14.0731 9.53785 13.8992 9.48619C13.7232 9.43251 13.5341 9.53584 13.4818 9.70896C12.9737 11.3917 12.8527 13.2143 12.9128 14.9925C12.9652 16.5828 13.0605 17.2592 13.1169 17.6631C13.1476 17.8926 13.1692 18.0443 13.1679 18.2348C13.1696 18.8833 12.943 20.2218 12.0728 26.4104C11.1204 33.083 17.6776 37.1587 21.785 37.1587H21.7878C25.9085 37.1587 32.3716 33.0109 31.4272 26.4104ZM21.7876 36.4877C20.0343 36.4877 18.2071 35.7946 16.2042 34.3737L17.0489 29.285C17.0803 29.0976 16.9521 28.9298 16.7724 28.8999C16.5911 28.869 16.4168 28.9952 16.3873 29.1763L15.6007 33.9146C13.4554 32.1277 12.3408 29.3292 12.7368 26.5029C13.6321 20.1245 13.835 19.0097 13.8386 18.2347C13.836 17.969 13.8118 17.7878 13.7769 17.5368C13.7376 17.2566 13.685 16.877 13.6393 16.1767C15.3738 18.4384 18.4925 20.4812 21.0409 21.7295C19.229 22.8907 17.8607 24.565 17.0756 26.5124C17.0057 26.6842 17.089 26.8801 17.2608 26.9486C17.444 27.0217 17.6307 26.9283 17.6983 26.7634V26.762C18.5112 24.7466 20.0044 23.0534 21.9016 21.9928C24.6183 20.76 28.0093 18.5549 29.831 16.2112C29.7911 16.8295 29.7475 17.2003 29.7148 17.4766C29.6812 17.749 29.6584 17.945 29.6571 18.2107C29.6609 19.0504 29.9008 20.3434 30.7629 26.503C31.6181 32.6256 25.6232 36.4877 21.7876 36.4877Z" fill="#1A1A1A"/>
<path d="M14.1351 8.85652C14.2964 8.93261 14.5009 8.86511 14.5806 8.69413C14.657 8.52718 14.5895 8.32722 14.4182 8.24858C14.2544 8.17209 14.0477 8.24858 13.9727 8.41097C13.8948 8.57872 13.9673 8.77868 14.1351 8.85652Z" fill="#1A1A1A"/>
</svg>