<svg width="15" height="16" viewBox="0 0 15 16" fill="none" xmlns="http://www.w3.org/2000/svg">
<path d="M0.916504 5.33398C0.916504 3.53906 2.37158 2.08398 4.1665 2.08398H10.8332C12.6281 2.08398 14.0832 3.53906 14.0832 5.33398V12.0007C14.0832 13.4274 12.9266 14.584 11.4998 14.584H3.49984C2.0731 14.584 0.916504 13.4274 0.916504 12.0007V5.33398Z" stroke="#1A1A1A" stroke-width="1.5"/>
<rect x="4.43317" y="0.933659" width="0.533333" height="2.13333" rx="0.266667" fill="#1A1A1A" stroke="#1A1A1A" stroke-width="0.533333"/>
<rect x="10.0333" y="0.933659" width="0.533333" height="2.13333" rx="0.266667" fill="#1A1A1A" stroke="#1A1A1A" stroke-width="0.533333"/>
<circle cx="4.16667" cy="8.132" r="0.666667" fill="#1A1A1A"/>
<circle cx="4.16667" cy="11.3327" r="0.666667" fill="#1A1A1A"/>
<circle cx="7.50016" cy="8.132" r="0.666667" fill="#1A1A1A"/>
<circle cx="7.50016" cy="11.3327" r="0.666667" fill="#1A1A1A"/>
<circle cx="10.8332" cy="8.132" r="0.666667" fill="#1A1A1A"/>
<circle cx="10.8332" cy="11.3327" r="0.666667" fill="#1A1A1A"/>
</svg>
