<svg xmlns="http://www.w3.org/2000/svg" width="36" height="36" viewBox="0 0 36 36" fill="none">
<path d="M18 3.6C14.1809 3.6 10.5182 5.11714 7.81766 7.81766C5.11714 10.5182 3.6 14.1809 3.6 18C3.6 21.8191 5.11714 25.4818 7.81766 28.1823C10.5182 30.8829 14.1809 32.4 18 32.4C21.8191 32.4 25.4818 30.8829 28.1823 28.1823C30.8829 25.4818 32.4 21.8191 32.4 18C32.4 14.1809 30.8829 10.5182 28.1823 7.81766C25.4818 5.11714 21.8191 3.6 18 3.6ZM0 18C0 8.0586 8.0586 0 18 0C27.9414 0 36 8.0586 36 18C36 27.9414 27.9414 36 18 36C8.0586 36 0 27.9414 0 18ZM18 7.2C18.4774 7.2 18.9352 7.38964 19.2728 7.72721C19.6104 8.06477 19.8 8.52261 19.8 9V17.2548L24.6726 22.1274C25.0005 22.4669 25.1819 22.9216 25.1778 23.3935C25.1737 23.8655 24.9844 24.3169 24.6507 24.6507C24.3169 24.9844 23.8655 25.1737 23.3935 25.1778C22.9216 25.1819 22.4669 25.0005 22.1274 24.6726L16.7274 19.2726C16.3898 18.9351 16.2001 18.4774 16.2 18V9C16.2 8.52261 16.3896 8.06477 16.7272 7.72721C17.0648 7.38964 17.5226 7.2 18 7.2Z" fill="#C4C4C4"/>
</svg>