<svg width="650" height="650" viewBox="0 0 650 650" fill="none" xmlns="http://www.w3.org/2000/svg">
<path d="M317.567 529.022H238.58V522.977H311.522V415.539H317.567V529.022Z" fill="#E6E6E6"/>
<path d="M474.11 283.277C472.236 283.277 470.402 283.398 468.589 283.579C468.589 282.713 468.589 281.846 468.589 280.98C468.589 260.138 460.309 240.15 445.572 225.413C430.835 210.676 410.847 202.396 390.005 202.396C388.897 202.396 387.788 202.396 386.68 202.396C386.317 189.27 383.207 176.366 377.552 164.515C371.897 152.665 363.821 142.13 353.846 133.591C343.871 125.052 332.218 118.697 319.637 114.937C307.056 111.176 293.826 110.094 280.801 111.758C267.776 113.423 255.245 117.798 244.014 124.602C232.783 131.406 223.102 140.487 215.595 151.261C208.089 162.034 202.922 174.261 200.43 187.153C197.937 200.046 198.173 213.317 201.122 226.112C180.829 227.266 161.773 236.238 147.955 251.144C134.136 266.049 126.631 285.729 127.014 306.051C127.397 326.373 135.64 345.756 150.011 360.13C164.381 374.504 183.762 382.751 204.084 383.138H474.089C487.327 383.138 500.022 377.88 509.382 368.52C518.742 359.16 524 346.465 524 333.228C524 319.991 518.742 307.296 509.382 297.936C500.022 288.576 487.327 283.317 474.089 283.317L474.11 283.277Z" fill="url(#paint0_linear_5825_42971)"/>
<path d="M229.876 331.456H417.247V449.553H229.876V331.456Z" fill="#D94A8C"/>
<path opacity="0.09" d="M229.876 331.456H417.247V449.553H229.876V331.456Z" fill="black"/>
<path d="M213.716 281.886H434.113V339.816H213.716V281.886Z" fill="#D94A8C"/>
<path d="M238.58 303.165H370.077V316.645H238.58V303.165Z" fill="#24285B"/>
<path d="M398.166 322.912C404.242 322.912 409.167 317.986 409.167 311.91C409.167 305.834 404.242 300.908 398.166 300.908C392.09 300.908 387.164 305.834 387.164 311.91C387.164 317.986 392.09 322.912 398.166 322.912Z" fill="white"/>
<path d="M213.716 351.726H434.113V409.656H213.716V351.726Z" fill="#D94A8C"/>
<path d="M238.58 372.982H370.077V386.463H238.58V372.982Z" fill="#24285B"/>
<path d="M398.166 392.75C404.242 392.75 409.167 387.825 409.167 381.749C409.167 375.673 404.242 370.747 398.166 370.747C392.09 370.747 387.164 375.673 387.164 381.749C387.164 387.825 392.09 392.75 398.166 392.75Z" fill="white"/>
<path d="M213.716 421.564H434.113V479.495H213.716V421.564Z" fill="#D94A8C"/>
<path d="M238.58 442.821H370.077V456.301H238.58V442.821Z" fill="#24285B"/>
<path d="M398.166 462.587C404.242 462.587 409.167 457.662 409.167 451.586C409.167 445.51 404.242 440.584 398.166 440.584C392.09 440.584 387.164 445.51 387.164 451.586C387.164 457.662 392.09 462.587 398.166 462.587Z" fill="white"/>
<path d="M314.544 522.978H387.163V529.022H314.544V522.978Z" fill="#E6E6E6"/>
<path d="M241.785 538.129C248.35 538.129 253.673 532.807 253.673 526.241C253.673 519.675 248.35 514.353 241.785 514.353C235.219 514.353 229.896 519.675 229.896 526.241C229.896 532.807 235.219 538.129 241.785 538.129Z" fill="#C1C1C1"/>
<path d="M387.165 538.129C393.73 538.129 399.053 532.807 399.053 526.241C399.053 519.675 393.73 514.353 387.165 514.353C380.599 514.353 375.276 519.675 375.276 526.241C375.276 532.807 380.599 538.129 387.165 538.129Z" fill="#C1C1C1"/>
<defs>
<linearGradient id="paint0_linear_5825_42971" x1="325.5" y1="111" x2="325.5" y2="383.138" gradientUnits="userSpaceOnUse">
<stop stop-color="#2E7CF6"/>
<stop offset="1" stop-color="#C38DFF"/>
</linearGradient>
</defs>
</svg>
