<?xml version="1.0" encoding="UTF-8"?>
<svg xmlns="http://www.w3.org/2000/svg" id="Layer_1" data-name="Layer 1" viewBox="0 0 64 64" width="24" height="24"><path d="M11.71289,56.958l20,6a.95607.95607,0,0,0,.57306-.00391l.00116.00391,20-6A1.00024,1.00024,0,0,0,53,56V41.03088l4.24268-1.06067A.99981.99981,0,0,0,57.707,38.293l-6-6a.99466.99466,0,0,0-.50232-.26508l.00134-.00641-12-2.52636-.4121,1.957L46.14606,33,32,35.97809,17.85394,33l7.35211-1.54785-.4121-1.957-12,2.52636.00128.006a.99446.99446,0,0,0-.50226.2655l-6,6a.99981.99981,0,0,0,.46435,1.67724L11,41.03088V56A1.00024,1.00024,0,0,0,11.71289,56.958ZM50.67578,34.09033,55.044,38.458,37.418,42.86475l-3.71533-5.20118ZM33,40.12061l3.186,4.46044a1.00079,1.00079,0,0,0,1.05664.38916L51,41.53088v13.725l-18,5.4ZM31,60.65576l-18-5.3999v-13.725l13.75732,3.43933a1.00079,1.00079,0,0,0,1.05664-.38916L31,40.12061ZM8.95605,38.458l4.36817-4.36768,16.97314,3.57324L26.582,42.86475Z"/><path d="M24.5,10.38477h3.26074a1.00005,1.00005,0,0,0,1-1A3.23993,3.23993,0,1,1,32,12.55859a2.62077,2.62077,0,0,0-2.63037,2.605V24a1,1,0,0,0,1,1h3.26123a1,1,0,0,0,1-1V17.35791A8.459,8.459,0,0,0,40.5,9.38477a8.50079,8.50079,0,0,0-17,0A1.00005,1.00005,0,0,0,24.5,10.38477ZM32,3a6.45058,6.45058,0,0,1,6.5,6.38477,6.45447,6.45447,0,0,1-5.0835,6.23242,1,1,0,0,0-.78564.97656V23H31.36963V15.16357A.61878.61878,0,0,1,32,14.55859,5.17423,5.17423,0,1,0,32,4.21094a5.2319,5.2319,0,0,0-5.14111,4.17383h-1.2793A6.47615,6.47615,0,0,1,32,3Z"/><path d="M35,29a3,3,0,1,0-3,3A3.00328,3.00328,0,0,0,35,29Zm-4,0a1,1,0,1,1,1,1A1.0013,1.0013,0,0,1,31,29Z"/><path d="M56.18359,19.05029a1.0002,1.0002,0,0,0,1.70752.438,5.19544,5.19544,0,0,1,3.15381-1.86572,1.00008,1.00008,0,0,0,.438-1.70752,5.19749,5.19749,0,0,1-1.86621-3.15381.99977.99977,0,0,0-1.70752-.4375A5.19523,5.19523,0,0,1,54.75537,14.189a1.00008,1.00008,0,0,0-.438,1.70752A5.19744,5.19744,0,0,1,56.18359,19.05029Zm1.99707-4.23779a6.07538,6.07538,0,0,0,.8125,1.37354,6.09808,6.09808,0,0,0-1.37353.813,6.08582,6.08582,0,0,0-.8125-1.37353A6.08772,6.08772,0,0,0,58.18066,14.8125Z"/><path d="M2.45557,15.78516A5.19709,5.19709,0,0,1,4.82129,18.5835a1.00062,1.00062,0,0,0,.83447.59961c.02783.00244.05567.00341.0835.00341a1.00024,1.00024,0,0,0,.83886-.45556,5.20287,5.20287,0,0,1,2.79834-2.3667.99986.99986,0,0,0,.147-1.75635,5.19372,5.19372,0,0,1-2.36573-2.79785.99985.99985,0,0,0-1.75683-.147,5.19776,5.19776,0,0,1-2.79834,2.36572.99986.99986,0,0,0-.147,1.75635ZM6.0835,14.07227A6.09315,6.09315,0,0,0,7.11426,15.291a6.077,6.077,0,0,0-1.21875,1.03076,6.067,6.067,0,0,0-1.03076-1.21924A6.07779,6.07779,0,0,0,6.0835,14.07227Z"/><path d="M47.03418,22.19775A13.43969,13.43969,0,0,1,54.023,19.0249l-.27637-1.98047a15.33232,15.33232,0,0,0-11.63916,8.30616l1.78516.90136A13.32078,13.32078,0,0,1,47.03418,22.19775Z"/><path d="M20.50635,28.30762l1.90527-.60938a15.34865,15.34865,0,0,0-11.84424-10.4414l-.36914,1.96582a13.34808,13.34808,0,0,1,10.30811,9.085Z"/></svg>
