<svg xmlns="http://www.w3.org/2000/svg" width="43" height="42" viewBox="0 0 43 42" fill="none">
<path d="M13.1785 23.6777V30.1062H8.89284V23.6777H6.75V35.4633H15.3214V23.6777H13.1785Z" fill="#FAB400"/>
<path d="M11.0344 19.3926L8.8916 24.7497H13.1773L11.0344 19.3926Z" fill="#C80A50"/>
<path d="M11.0357 20.464C11.3316 20.464 11.5714 20.2242 11.5714 19.9283C11.5714 19.6324 11.3316 19.3926 11.0357 19.3926C10.7398 19.3926 10.5 19.6324 10.5 19.9283C10.5 20.2242 10.7398 20.464 11.0357 20.464Z" fill="#00A0C8"/>
<path d="M32.4651 19.3926L30.3223 24.7497H34.6079L32.4651 19.3926Z" fill="#0A5078"/>
<path d="M32.4634 20.464C32.7593 20.464 32.9992 20.2242 32.9992 19.9283C32.9992 19.6324 32.7593 19.3926 32.4634 19.3926C32.1676 19.3926 31.9277 19.6324 31.9277 19.9283C31.9277 20.2242 32.1676 20.464 32.4634 20.464Z" fill="#00A0C8"/>
<path d="M21.7512 19.3926L19.6084 24.7497H23.8941L21.7512 19.3926Z" fill="#00A0C8"/>
<path d="M22.2861 22.6064H21.2147C19.7356 22.6064 18.5361 23.8059 18.5361 25.285V30.6421C18.5361 30.9378 18.7761 31.1778 19.0718 31.1778H24.4289C24.7246 31.1778 24.9646 30.9378 24.9646 30.6421V25.285C24.9646 23.8059 23.7652 22.6064 22.2861 22.6064Z" fill="#0A5078"/>
<path d="M23.8924 23.6777V30.1062H19.6067C18.4233 30.1062 17.4639 31.0657 17.4639 32.2491V35.4633H26.0352V23.6777H23.8924Z" fill="#C80A50"/>
<path d="M20.6777 30.1064H22.8206V35.4635H20.6777V30.1064Z" fill="#00A0C8"/>
<path d="M21.7492 31.1785C21.1572 31.1785 20.6777 30.6991 20.6777 30.1071V28.5H22.8206V30.1071C22.8206 30.6991 22.3411 31.1785 21.7492 31.1785Z" fill="#D2AA82"/>
<path d="M22.2869 29.0357H21.2155C20.3279 29.0357 19.6084 28.3162 19.6084 27.4285V25.8214C19.6084 25.2295 20.0879 24.75 20.6798 24.75H21.2155C21.2155 25.342 21.695 25.8214 22.2869 25.8214H23.8941V27.4285C23.8941 28.3162 23.1746 29.0357 22.2869 29.0357Z" fill="#F0C8A0"/>
<path d="M10.5 30.1064H11.5714V35.4635H10.5V30.1064Z" fill="#00A0C8"/>
<path d="M11.0353 31.1785C10.4433 31.1785 9.96387 30.6991 9.96387 30.1071V28.5H12.1067V30.1071C12.1067 30.6991 11.6272 31.1785 11.0353 31.1785Z" fill="#D2AA82"/>
<path d="M11.5701 29.0357H10.4987C9.61106 29.0357 8.8916 28.3162 8.8916 27.4285V25.8214C8.8916 25.2295 9.37106 24.75 9.96302 24.75H12.1059C12.6978 24.75 13.1773 25.2295 13.1773 25.8214V27.4285C13.1773 28.3162 12.4578 29.0357 11.5701 29.0357Z" fill="#F0C8A0"/>
<path d="M12.1059 24.7492H9.96302C9.37106 24.7492 8.8916 25.2286 8.8916 25.8206V24.7492C8.8916 24.1572 9.37106 23.6777 9.96302 23.6777H12.1059C12.6978 23.6777 13.1773 24.1572 13.1773 24.7492V25.8206C13.1773 25.2286 12.6978 24.7492 12.1059 24.7492Z" fill="#0A5078"/>
<path d="M8.89284 22.071V21.5353C8.89284 20.9433 8.41338 20.4639 7.82142 20.4639C7.22946 20.4639 6.75 20.9433 6.75 21.5353V23.6781H8.89284V23.1424C9.18855 23.1424 9.42855 22.9024 9.42855 22.6067C9.42855 22.311 9.18855 22.071 8.89284 22.071Z" fill="#F0C8A0"/>
<path d="M14.2517 20.4639C13.6597 20.4639 13.1802 20.9433 13.1802 21.5353V22.071C12.8845 22.071 12.6445 22.311 12.6445 22.6067C12.6445 22.9024 12.8845 23.1424 13.1802 23.1424V23.6781H15.3231V21.5353C15.3231 20.9433 14.8436 20.4639 14.2517 20.4639Z" fill="#F0C8A0"/>
<path d="M24.9655 20.4639C24.3736 20.4639 23.8941 20.9433 23.8941 21.5353V22.071C23.5984 22.071 23.3584 22.311 23.3584 22.6067C23.3584 22.9024 23.5984 23.1424 23.8941 23.1424V23.6781H26.0369V21.5353C26.0369 20.9433 25.5575 20.4639 24.9655 20.4639Z" fill="#F0C8A0"/>
<path d="M35.142 30.1062H30.3206V23.6777H28.1777V35.4633H36.7491V31.7134C36.7491 30.8257 36.0296 30.1062 35.142 30.1062Z" fill="#00A0C8"/>
<path d="M31.9277 30.1064H32.9992V35.4635H31.9277V30.1064Z" fill="#0A5078"/>
<path d="M32.463 31.1785C31.8711 31.1785 31.3916 30.6991 31.3916 30.1071V28.5H33.5344V30.1071C33.5344 30.6991 33.055 31.1785 32.463 31.1785Z" fill="#D2AA82"/>
<path d="M33.0008 29.0357H31.9294C31.0417 29.0357 30.3223 28.3162 30.3223 27.4285V25.8214C30.3223 25.2295 30.8017 24.75 31.3937 24.75H33.5365C34.1285 24.75 34.6079 25.2295 34.6079 25.8214V27.4285C34.6079 28.3162 33.8885 29.0357 33.0008 29.0357Z" fill="#F0C8A0"/>
<path d="M33.5365 24.7492H31.3937C30.8017 24.7492 30.3223 25.2286 30.3223 25.8206V24.7492C30.3223 24.1572 30.8017 23.6777 31.3937 23.6777H33.5365C34.1285 23.6777 34.6079 24.1572 34.6079 24.7492V25.8206C34.6079 25.2286 34.1285 24.7492 33.5365 24.7492Z" fill="#DC9600"/>
<path d="M30.3206 22.071V21.5353C30.3206 20.9433 29.8411 20.4639 29.2492 20.4639C28.6572 20.4639 28.1777 20.9433 28.1777 21.5353V23.6781H30.3206V23.1424C30.6163 23.1424 30.8563 22.9024 30.8563 22.6067C30.8563 22.311 30.6163 22.071 30.3206 22.071Z" fill="#F0C8A0"/>
<path d="M11.2417 17.0331L7.82227 16.1781L11.0365 12.9639L11.8915 16.3833C11.9895 16.7754 11.6338 17.1312 11.2417 17.0331Z" fill="#C80A50"/>
<path d="M14.4556 13.8192L11.0361 12.9643L14.2504 9.75L15.1054 13.1694C15.2034 13.5616 14.8477 13.9173 14.4556 13.8192Z" fill="#FAB400"/>
<path d="M17.6694 10.6054L14.25 9.75039L17.4643 6.53613L18.3192 9.95557C18.4173 10.3477 18.0616 10.7034 17.6694 10.6054Z" fill="#C80A50"/>
<path d="M7.82198 16.7143C7.68483 16.7143 7.54769 16.6618 7.44323 16.5574C7.23377 16.3479 7.23377 16.0093 7.44323 15.7999L17.086 6.1571C17.2955 5.94763 17.634 5.94763 17.8435 6.1571C18.053 6.36656 18.053 6.70513 17.8435 6.91459L8.20072 16.5574C8.09626 16.6618 7.95912 16.7143 7.82198 16.7143Z" fill="#00A0C8"/>
<path d="M32.2581 17.0331L35.6775 16.1781L32.4632 12.9639L31.6083 16.3833C31.5102 16.7754 31.8659 17.1312 32.2581 17.0331Z" fill="#FAB400"/>
<path d="M29.0442 13.8192L32.4636 12.9643L29.2494 9.75L28.3944 13.1694C28.2964 13.5616 28.6521 13.9173 29.0442 13.8192Z" fill="#C80A50"/>
<path d="M25.8294 10.6054L29.2488 9.75039L26.0345 6.53613L25.1795 9.95557C25.0815 10.3477 25.4372 10.7034 25.8294 10.6054Z" fill="#FAB400"/>
<path d="M35.6786 16.7143C35.5415 16.7143 35.4043 16.6618 35.2999 16.5574L25.6571 6.91459C25.4476 6.70513 25.4476 6.36656 25.6571 6.1571C25.8666 5.94763 26.2051 5.94763 26.4146 6.1571L36.0574 15.7999C36.2668 16.0093 36.2668 16.3479 36.0574 16.5574C35.9529 16.6618 35.8158 16.7143 35.6786 16.7143Z" fill="#00A0C8"/>
<path d="M21.7496 20.464C22.0454 20.464 22.2853 20.2242 22.2853 19.9283C22.2853 19.6324 22.0454 19.3926 21.7496 19.3926C21.4537 19.3926 21.2139 19.6324 21.2139 19.9283C21.2139 20.2242 21.4537 20.464 21.7496 20.464Z" fill="#C80A50"/>
<path d="M20.6798 14.0354C21.2715 14.0354 21.7512 13.5557 21.7512 12.964C21.7512 12.3723 21.2715 11.8926 20.6798 11.8926C20.0881 11.8926 19.6084 12.3723 19.6084 12.964C19.6084 13.5557 20.0881 14.0354 20.6798 14.0354Z" fill="#C80A50"/>
<path d="M26.5718 16.1788C26.8677 16.1788 27.1076 15.939 27.1076 15.6431C27.1076 15.3473 26.8677 15.1074 26.5718 15.1074C26.276 15.1074 26.0361 15.3473 26.0361 15.6431C26.0361 15.939 26.276 16.1788 26.5718 16.1788Z" fill="#FAB400"/>
<path d="M17.9996 20.464C18.2954 20.464 18.5353 20.2242 18.5353 19.9283C18.5353 19.6324 18.2954 19.3926 17.9996 19.3926C17.7037 19.3926 17.4639 19.6324 17.4639 19.9283C17.4639 20.2242 17.7037 20.464 17.9996 20.464Z" fill="#00A0C8"/>
</svg>