<svg xmlns="http://www.w3.org/2000/svg" width="43" height="42" viewBox="0 0 43 42" fill="none">
<path d="M22.251 7.41308C22.251 6.4185 22.9358 5.6123 23.7805 5.6123C24.8364 5.6123 25.6924 6.62012 25.6924 7.86337C25.6924 9.41736 23.8509 10.9367 22.251 11.7546C20.6511 10.9367 18.8096 9.41736 18.8096 7.86337C18.8096 6.62012 19.6656 5.6123 20.7215 5.6123C21.5663 5.61223 22.251 6.4185 22.251 7.41308Z" fill="#D94A8C"/>
<path d="M40.137 25.0885C40.137 31.4749 34.9604 36.6516 28.5749 36.6516C26.2404 36.6516 24.0675 35.9594 22.2498 34.7685C21.1511 34.0494 20.1814 33.1474 19.3847 32.1051C17.8975 30.16 17.0127 27.7267 17.0127 25.0885C17.0127 24.078 17.1425 23.0985 17.3865 22.1639C17.7783 20.6587 18.4673 19.2727 19.3847 18.072C20.525 18.6352 21.5078 19.4678 22.2498 20.4857C22.0196 20.8015 21.8131 21.1346 21.631 21.4839C21.0702 22.5622 20.7527 23.7882 20.7527 25.0885C20.7527 26.8092 21.3086 28.4001 22.2497 29.6914C22.9925 30.71 23.9752 31.5426 25.1139 32.1051C25.8927 32.4903 26.7448 32.7499 27.6435 32.8568C27.9487 32.8927 28.2598 32.9115 28.5749 32.9115C29.7592 32.9115 30.8824 32.6479 31.888 32.1769C34.5523 30.9297 36.397 28.2246 36.397 25.0886C36.397 20.7682 32.8953 17.2665 28.5749 17.2665C27.3325 17.2665 26.1571 17.5562 25.1139 18.0721C24.3181 17.0305 23.3492 16.1286 22.2497 15.4087C24.0675 14.2186 26.2403 13.5264 28.5748 13.5264C34.9603 13.5263 40.137 18.703 40.137 25.0885Z" fill="#F9EFAA"/>
<path d="M27.4874 25.0885C27.4874 26.8394 27.0981 28.5005 26.4002 29.9877C26.0475 30.7419 25.615 31.4512 25.1146 32.1051C23.9759 31.5427 22.9932 30.7101 22.2504 29.6914C22.7083 29.0637 23.0756 28.365 23.3303 27.6149C23.3303 27.6141 23.3303 27.6141 23.3303 27.6141C23.6013 26.8215 23.7474 25.9726 23.7474 25.0886C23.7474 23.368 23.1923 21.777 22.2504 20.4857C21.5085 19.4679 20.5257 18.6353 19.3854 18.0721C18.343 17.5562 17.1676 17.2665 15.9253 17.2665C11.605 17.2665 8.1024 20.7681 8.1024 25.0886C8.1024 29.4091 11.605 32.9115 15.9253 32.9115C17.1676 32.9115 18.343 32.621 19.3854 32.1051C20.1821 33.1474 21.1518 34.0494 22.2504 34.7685C20.4327 35.9594 18.2598 36.6516 15.9253 36.6516C9.53896 36.6516 4.3623 31.4749 4.3623 25.0885C4.3623 18.703 9.53896 13.5264 15.9253 13.5264C18.2598 13.5264 20.4327 14.2185 22.2504 15.4087C23.3499 16.1286 24.3188 17.0306 25.1147 18.0721C26.6034 20.018 27.4874 22.4504 27.4874 25.0885Z" fill="#F9EFAA"/>
<path d="M22.25 20.4859C22.0198 20.8018 21.8133 21.1349 21.6312 21.4842C21.326 21.4483 21.0149 21.4295 20.6999 21.4295C19.5155 21.4295 18.3923 21.6923 17.3867 22.1641C17.7785 20.659 18.4674 19.273 19.3849 18.0723C20.5252 18.6355 21.5079 19.4681 22.25 20.4859Z" fill="#E5DB9E"/>
<path d="M26.4008 29.989C26.0482 30.7433 25.6156 31.4526 25.1152 32.1064C23.9765 31.544 22.9938 30.7115 22.251 29.6928C22.7089 29.0651 23.0762 28.3663 23.3309 27.6162C23.3448 27.6521 24.237 29.989 26.4008 29.989Z" fill="#E5DB9E"/>
<path d="M21.9723 12.2996C22.0598 12.3443 22.1554 12.3667 22.2509 12.3667C22.3465 12.3667 22.4421 12.3443 22.5296 12.2996C23.4761 11.8157 24.3568 11.1811 25.0096 10.5127C25.2458 10.2708 25.2411 9.88318 24.9993 9.64695C24.7573 9.41071 24.3697 9.41541 24.1336 9.65721C23.6347 10.1681 22.9744 10.6595 22.2512 11.0607C20.8397 10.275 19.4217 8.99606 19.4217 7.86322C19.4217 6.95955 20.0047 6.22439 20.7213 6.22439C21.2186 6.22439 21.6387 6.76869 21.6387 7.41301C21.6387 7.75107 21.9127 8.02517 22.2508 8.02517C22.589 8.02517 22.863 7.75107 22.863 7.41301C22.863 6.76869 23.2831 6.22439 23.7803 6.22439C24.497 6.22439 25.08 6.95962 25.08 7.86322C25.08 7.99663 25.0599 8.13632 25.0203 8.27861C24.9295 8.60431 25.1199 8.94186 25.4456 9.03277C25.7712 9.12346 26.1088 8.93311 26.1997 8.60748C26.2692 8.3581 26.3044 8.10777 26.3044 7.86322C26.3044 6.28444 25.1721 5 23.7803 5C23.1818 5 22.6398 5.278 22.2508 5.72554C21.8618 5.27808 21.3199 5 20.7213 5C19.3296 5 18.1973 6.28444 18.1973 7.86322C18.1973 8.74118 18.633 9.6325 19.4922 10.5126C20.145 11.181 21.0257 11.8156 21.9723 12.2996Z" fill="#2C205F"/>
<path d="M36.4485 32.7007C34.3663 34.8543 31.5702 36.0404 28.5755 36.0404C26.4374 36.0404 24.3663 35.4239 22.5856 34.2572C21.5425 33.5745 20.6294 32.7257 19.8717 31.7342C18.4022 29.8123 17.6254 27.5147 17.6254 25.0896C17.6254 23.3123 18.0614 21.5472 18.886 19.9851C19.0439 19.6861 18.9295 19.3158 18.6304 19.1579C18.3313 18.9998 17.9611 19.1144 17.8031 19.4135C16.8858 21.151 16.4009 23.1138 16.4009 25.0896C16.4009 27.7858 17.2647 30.3407 18.8988 32.4778C19.5455 33.324 20.2949 34.0756 21.1324 34.7229C19.5395 35.5863 17.7571 36.0404 15.925 36.0404C9.88684 36.0404 4.97432 31.1279 4.97432 25.0896C4.97432 21.8769 6.37807 18.8379 8.82592 16.7519C9.08325 16.5326 9.11404 16.1463 8.89478 15.8889C8.67546 15.6317 8.28906 15.6007 8.03186 15.8201C5.31064 18.1391 3.75 21.5178 3.75 25.0896C3.75 31.8031 9.21181 37.2648 15.9252 37.2648C18.1694 37.2648 20.3474 36.6529 22.2503 35.4928C24.1533 36.6529 26.3312 37.2648 28.5754 37.2648C31.9049 37.2648 35.0136 35.9462 37.3285 33.5517C37.5636 33.3086 37.5571 32.9211 37.3139 32.6861C37.071 32.4511 36.6833 32.4577 36.4485 32.7007Z" fill="#D0A330"/>
<path d="M28.5751 12.915C26.3314 12.915 24.1533 13.5268 22.25 14.6864C20.3466 13.5268 18.1686 12.915 15.9249 12.915C13.8596 12.915 11.8192 13.4416 10.0242 14.4379C9.72855 14.6019 9.62196 14.9747 9.786 15.2702C9.95004 15.5659 10.3226 15.6725 10.6184 15.5084C12.2321 14.6128 14.067 14.1394 15.9249 14.1394C18.0625 14.1394 20.1338 14.7557 21.9147 15.9216C22.9575 16.6045 23.8704 17.4533 24.6281 18.4449C26.0979 20.366 26.8749 22.6637 26.8749 25.0894C26.8749 26.7114 26.5287 28.2724 25.8461 29.7289C25.7026 30.0351 25.8344 30.3996 26.1406 30.5431C26.2246 30.5824 26.3129 30.6011 26.4 30.6011C26.6301 30.6011 26.8507 30.4707 26.9547 30.2486C27.7142 28.6281 28.0993 26.8923 28.0993 25.0894C28.0993 22.3925 27.2352 19.8376 25.6006 17.7012C24.9543 16.8554 24.2052 16.1038 23.3679 15.4564C24.9611 14.5933 26.7435 14.1394 28.5752 14.1394C34.6131 14.1394 39.5251 19.0515 39.5251 25.0894C39.5251 27.2633 38.8898 29.3637 37.6879 31.1633C37.5002 31.4445 37.5758 31.8246 37.857 32.0124C37.9615 32.0822 38.0796 32.1156 38.1965 32.1156C38.3941 32.1156 38.5881 32.02 38.7062 31.8433C40.0428 29.8416 40.7494 27.5061 40.7494 25.0893C40.7494 18.3763 35.288 12.915 28.5751 12.915Z" fill="#D0A330"/>
<path d="M22.7452 20.1262C21.9432 19.0259 20.8751 18.1261 19.657 17.5245C18.4917 16.9477 17.2362 16.6553 15.9254 16.6553C11.2743 16.6553 7.49023 20.439 7.49023 25.0896C7.49023 29.7408 11.2742 33.5248 15.9254 33.5248C16.5826 33.5248 17.2373 33.4486 17.8715 33.2986C18.2005 33.2207 18.404 32.8909 18.3263 32.5619C18.2483 32.2329 17.9187 32.0296 17.5895 32.1071C17.0476 32.2354 16.4878 32.3004 15.9254 32.3004C11.9494 32.3004 8.71463 29.0657 8.71463 25.0896C8.71463 21.114 11.9494 17.8797 15.9254 17.8797C17.0461 17.8797 18.1189 18.1294 19.1144 18.6221C20.0288 19.0738 20.8441 19.7218 21.4937 20.5098C20.6084 21.8743 20.1414 23.4477 20.1414 25.0896C20.1414 26.8876 20.6997 28.6039 21.7558 30.0532C22.5586 31.1541 23.6263 32.0539 24.8434 32.6549C26.0105 33.2321 27.2663 33.5247 28.5757 33.5247C33.2264 33.5247 37.01 29.7408 37.01 25.0896C37.01 20.4388 33.2263 16.6553 28.5757 16.6553C27.9186 16.6553 27.2639 16.7313 26.6297 16.881C26.3007 16.9587 26.097 17.2885 26.1747 17.6176C26.2524 17.9466 26.5823 18.1502 26.9112 18.0726C27.4532 17.9446 28.0132 17.8797 28.5757 17.8797C32.5512 17.8797 35.7856 21.114 35.7856 25.0896C35.7856 29.0656 32.5513 32.3004 28.5757 32.3004C27.4562 32.3004 26.3831 32.0503 25.3858 31.5573C24.4724 31.1061 23.6574 30.4581 23.0074 29.6697C23.8927 28.306 24.3597 26.7327 24.3597 25.0897C24.3596 23.2905 23.8014 21.574 22.7452 20.1262ZM22.2506 21.6269C22.8311 22.6824 23.1353 23.8632 23.1353 25.0896C23.1353 26.3161 22.8311 27.4969 22.2506 28.5524C21.6701 27.4962 21.3657 26.3155 21.3657 25.0896C21.3657 23.8638 21.6701 22.6831 22.2506 21.6269Z" fill="#D0A330"/>
</svg>