<svg id="Layer_1" enable-background="new 0 0 512 512" height="24" viewBox="0 0 512 512" width="24" xmlns="http://www.w3.org/2000/svg"><path d="m484.16 390.25h-2.12v-69.97c0-13.11-3.96-24.48-12.11-34.76l-28.8-36.29h31.44c10.19 0 18.49-8.29 18.49-18.47v-18.83c0-13.22-10.76-23.97-23.99-23.97h-21.17c-11.42 0-20.98 8.73-27.32 19.24-6.55-18.44-16.32-39.42-31.69-58.16-7.21-8.79-16.15-14.21-27.32-16.54-32.75-6.83-66.29-6.81-98.7-6.8h-8.29c-1.16 0-2.31 0-3.45 0-34.77 0-65.09.21-96.67 6.8-11.16 2.34-20.09 7.75-27.31 16.54-15.41 18.78-25.17 39.74-31.7 58.14-6.34-10.51-15.89-19.23-27.31-19.23h-21.18c-13.24 0-24.02 10.75-24.02 23.97v18.83c0 10.19 8.31 18.47 18.52 18.47h31.44l-28.81 36.29c-8.14 10.28-12.1 21.64-12.1 34.75v69.97h-2.12c-15.37.02-27.87 12.5-27.87 27.84 0 15.35 12.5 27.85 27.87 27.85h2.12v25.94c0 18.27 14.88 33.14 33.17 33.14h23.27c18.29 0 33.17-14.87 33.17-33.14v-25.94h272.79v25.94c0 18.27 14.88 33.14 33.17 33.14h23.3c18.29 0 33.17-14.87 33.17-33.14v-25.94h2.12c15.35 0 27.84-12.49 27.84-27.85.01-15.34-12.48-27.82-27.83-27.82zm-18.12-69.97v69.97h-150.45c-10.55-11.28-18.49-23.35-24.16-41.92 9.4 6.19 19.14 11.05 27.28 13.39 3.15.9 6.77 1.71 10.61 1.71 4.01 0 8.24-.88 12.41-3.47 7.5-4.69 11.81-12.45 11.81-21.28v-41.64c0-1.07-.07-2.13-.19-3.16 21.9-15.07 46.94-25.06 78.02-31.19l26.02 32.78c5.9 7.44 8.65 15.33 8.65 24.81zm-295.8-44.53c-1.67 1.05-3.18 2.27-4.52 3.6-21.32-14.28-45.23-24.21-73.95-30.67l5.02-6.32c26.7 7.46 53.96 18.77 77.09 31.55-1.21.48-2.43 1.09-3.64 1.84zm-45.71-41.35c40.58-7.84 81.68-9.62 131.47-9.62 49.81 0 90.92 1.78 131.5 9.62-38.3 13.6-75.3 33.6-98.41 53.55-9.21-8.63-23.36-9.08-33.07-1.3-9.69-7.76-23.85-7.32-33.09 1.29-23.14-19.96-60.13-39.95-98.4-53.54zm221.76 44.96c-1.36-1.35-2.88-2.57-4.58-3.64-1.19-.74-2.39-1.34-3.58-1.81 23.13-12.77 50.39-24.08 77.1-31.55l5.02 6.32c-28.75 6.47-52.66 16.4-73.96 30.68zm-90.28 86.52c1.23 8.63 2.99 16.72 5.31 24.37h-10.62c2.31-7.65 4.08-15.75 5.31-24.37zm-.01-29.25c-9.54-7.08-17.17-13.09-22.83-21.71-2.8-4.25-3.85-10.79.44-15.11 3.65-3.61 9.54-3.61 13.13-.02l3.57 3.6c1.5 1.51 3.53 2.36 5.66 2.36h.02c2.12 0 4.15-.84 5.65-2.34l3.6-3.6c3.62-3.61 9.51-3.62 13.12-.01 4.32 4.33 3.28 10.88.48 15.13-5.65 8.62-13.29 14.63-22.84 21.7zm34.76-10.78h20.74c4.42 0 8-3.58 8-8s-3.58-8-8-8h-14.32c.22-2.3.15-4.58-.19-6.82 8.99-6.54 18.31-11.44 26.12-13.67 5.82-1.66 8.27-1.22 10.14-.06 2.81 1.76 4.29 4.43 4.29 7.74v41.64c0 3.29-1.48 5.96-4.27 7.7-1.9 1.18-4.35 1.62-10.16-.04-9.61-2.76-22.58-10.25-33.41-19.07.36-.47.71-.94 1.06-1.42zm-116.31-28.81c0-3.3 1.49-5.98 4.27-7.72 1.9-1.17 4.35-1.62 10.17.04 7.84 2.24 17.16 7.14 26.14 13.66-.34 2.24-.4 4.53-.18 6.83h-14.35c-4.42 0-8 3.58-8 8s3.58 8 8 8h20.77c.34.48.69.94 1.04 1.41-10.81 8.83-23.79 16.32-33.43 19.08-5.82 1.66-8.27 1.22-10.12.07-2.82-1.77-4.31-4.44-4.31-7.72zm67.42 48.97c-1.2 22.75-5.41 41.09-13.28 57.23l-1.41-3.89c-1.09-3.02-3.89-5.1-7.1-5.27l-5.5-.29c10.47-12.88 18.48-27.94 23.92-50.41 1.11.89 2.23 1.76 3.37 2.63zm-8.36 80.57c4.36-6.43 8.1-13.19 11.26-20.33h22.48c3.17 7.13 6.9 13.89 11.27 20.33 1.19 1.76 3.01 2.92 5.03 3.33h-55.07c2.02-.41 3.84-1.58 5.03-3.33zm51.3-27.22-1.39 3.86c-7.88-16.16-12.08-34.5-13.26-57.22 1.13-.86 2.25-1.74 3.35-2.62 5.46 22.48 13.47 37.54 23.93 50.4l-5.52.29c-3.22.18-6.02 2.26-7.11 5.29zm161.08-195.39h21.17c4.4 0 7.99 3.57 7.99 7.97v18.83c0 1.34-1.14 2.47-2.49 2.47h-44.14l-2.01-2.53c1.45-10.51 10.96-26.74 19.48-26.74zm-71.38-44.76c16.61 20.24 26.17 43.77 32.17 62.92-3.63-.85-7.25-1.64-10.87-2.39-7.68-27.03-18.43-49.86-32.71-69.4 4.39 1.94 8.11 4.85 11.41 8.87zm-121.94-17.49h8.3c22.87-.01 46.29-.01 69.28 2.44 6.58.95 10.05 3.04 14.42 8.36 14.53 17.74 25.57 38.74 33.57 63.95-37.74-6.2-76.38-7.69-122.14-7.69-45.75 0-84.38 1.49-122.11 7.69 8.01-25.24 19.04-46.25 33.58-63.96 4.73-5.79 8.42-7.75 16.23-8.58 21.8-2.22 44.15-2.23 68.87-2.21zm-115.05 17.48c3.29-4.02 7.01-6.92 11.4-8.86-14.27 19.5-25.02 42.34-32.7 69.39-3.61.74-7.23 1.54-10.85 2.38 8.2-26.11 18.56-46.34 32.15-62.91zm-98.06 74.04c-1.36 0-2.52-1.13-2.52-2.47v-18.83c0-4.39 3.6-7.97 8.02-7.97h21.17c8.52 0 18.03 16.23 19.47 26.74l-2.01 2.53zm6.53 87.04c0-9.49 2.75-17.37 8.64-24.81l26.02-32.78c31.04 6.12 56.08 16.11 78 31.17-.13 1.04-.19 2.1-.19 3.18v41.64c0 8.8 4.3 16.55 11.83 21.29 4.15 2.58 8.38 3.46 12.38 3.45 3.84 0 7.47-.81 10.62-1.71 8.16-2.34 17.9-7.19 27.29-13.38-5.65 18.53-13.6 30.61-24.15 41.91h-150.44zm57.61 151.58c0 9.45-7.7 17.14-17.17 17.14h-23.27c-9.47 0-17.17-7.69-17.17-17.14v-25.94h57.61zm-75.73-41.95c-6.54 0-11.87-5.31-11.87-11.85 0-6.52 5.33-11.82 11.87-11.82h163.46c1.39 1.53 3.34 2.51 5.48 2.62l17.12.91 5.43 15.02c.96 2.65 3.23 4.56 5.96 5.11h-197.45zm438.17 41.95c0 9.45-7.7 17.14-17.17 17.14h-23.3c-9.47 0-17.17-7.69-17.17-17.14v-25.94h57.64zm18.12-41.95h-197.46c2.73-.55 5.01-2.47 5.96-5.12l5.4-15.01 17.14-.91c2.14-.11 4.09-1.09 5.48-2.62h163.46c6.53 0 11.84 5.3 11.84 11.82.02 6.53-5.29 11.84-11.82 11.84zm-390.75-125.95c-20.23 0-36.69 16.43-36.69 36.62s16.46 36.62 36.69 36.62c20.21 0 36.66-16.43 36.66-36.62s-16.45-36.62-36.66-36.62zm0 57.24c-11.41 0-20.69-9.25-20.69-20.62s9.28-20.62 20.69-20.62c11.39 0 20.66 9.25 20.66 20.62-.01 11.37-9.27 20.62-20.66 20.62zm325.21-57.24c-20.21 0-36.66 16.43-36.66 36.62s16.44 36.62 36.66 36.62 36.66-16.43 36.66-36.62-16.45-36.62-36.66-36.62zm0 57.24c-11.39 0-20.66-9.25-20.66-20.62s9.27-20.62 20.66-20.62 20.66 9.25 20.66 20.62-9.27 20.62-20.66 20.62zm-254.45-276.71c17.1 12.5 34.83 20.14 49.93 25.98 1.67.64 3.4.95 5.11.95 4.2 0 8.28-1.87 11.08-5.29 8.45-10.48 17.86-22.98 25.72-38.09 7.89 15.11 17.3 27.62 25.77 38.12 2.78 3.41 6.85 5.27 11.03 5.27 1.71 0 3.45-.31 5.12-.96 15.07-5.83 32.79-13.47 49.92-25.97 15.87-11.56 20.77-32.23 11.41-48.08-9.52-16.07-30.13-21.72-46.63-13.1-9.93-15.52-30.56-20.92-46.87-11.97-.05.03-.1.06-.15.09-3.78 2.18-6.99 4.95-9.6 8.12-2.62-3.18-5.83-5.94-9.62-8.12-.05-.03-.09-.05-.14-.08-16.31-8.97-36.93-3.58-46.85 11.97-16.52-8.6-37.13-2.94-46.63 13.1-9.39 15.81-4.48 36.48 11.4 48.06zm109.36-59.16c9.21-5 20.91-1.68 26.11 7.42 1.9 3.35 4.87 5.66 8.64 6.69 3.75 1.01 7.51.51 10.9-1.47 9.17-5.37 20.98-2.41 26.32 6.59 5.23 8.85 2.26 20.21-7.06 27-15.17 11.07-31.2 18.1-45.04 23.49-9.27-11.56-19.63-25.64-27.26-42.83-1.35-3.06-2.02-6.19-2.09-9.22.01-.39.01-.78 0-1.16.18-6.83 3.53-13.04 9.48-16.51zm-107 19.24c3.54-5.97 9.92-9.28 16.48-9.28 3.33 0 6.72.86 9.79 2.65 3.34 1.98 7.22 2.51 10.91 1.5 3.77-1.02 6.76-3.33 8.66-6.68 5.19-9.13 16.87-12.45 26.08-7.43 5.97 3.47 9.32 9.69 9.5 16.56v1.08c-.06 3.05-.74 6.2-2.1 9.27-7.61 17.2-17.98 31.29-27.24 42.84-13.84-5.39-29.88-12.42-45.03-23.5 0 0-.01 0-.01-.01-9.31-6.81-12.28-18.16-7.04-27z"/></svg>