<svg width="16" height="22" viewBox="0 0 16 22" fill="none" xmlns="http://www.w3.org/2000/svg">
<path d="M7.99996 16.8008C7.78804 16.8008 7.58969 16.6967 7.46938 16.5222L0.594421 6.55352C0.458425 6.35634 0.443 6.10003 0.554374 5.88794C0.665706 5.67589 0.885489 5.54308 1.125 5.54308H14.8749C15.1144 5.54308 15.3342 5.67589 15.4455 5.88794C15.5569 6.10003 15.5414 6.35634 15.4055 6.55352L8.53053 16.5222C8.41018 16.6967 8.21183 16.8008 7.99996 16.8008ZM2.35239 6.83213L7.99991 15.021L13.6474 6.83213H2.35239Z" fill="#222221"/>
<path d="M8 22C7.64405 22 7.35547 21.7115 7.35547 21.3555V16.1563C7.35547 15.8003 7.64405 15.5118 8 15.5118C8.35595 15.5118 8.64453 15.8003 8.64453 16.1563V21.3555C8.64453 21.7115 8.35595 22 8 22Z" fill="#222221"/>
<path d="M12.8124 22H3.1875C2.83155 22 2.54297 21.7114 2.54297 21.3555C2.54297 20.9995 2.83155 20.711 3.1875 20.711H12.8124C13.1684 20.711 13.457 20.9995 13.457 21.3555C13.457 21.7114 13.1684 22 12.8124 22Z" fill="#222221"/>
<path d="M7.99964 12.3322C7.90309 12.3322 7.80513 12.3105 7.71279 12.2645C7.39417 12.1058 7.2645 11.7189 7.42322 11.4002L12.9232 0.357333C13.0818 0.0387215 13.4688 -0.0909574 13.7875 0.0677682C14.1061 0.226451 14.2357 0.613425 14.077 0.932037L8.57706 11.9749C8.46435 12.2013 8.23644 12.3322 7.99964 12.3322Z" fill="#222221"/>
<path d="M12.0596 10.9138C11.9368 10.9138 11.8126 10.8788 11.7027 10.8055L10.7364 10.1614C10.327 9.88839 9.79814 9.88839 9.38895 10.1613C8.54518 10.7238 7.45498 10.7238 6.61134 10.1614C6.20211 9.88852 5.67317 9.88852 5.26393 10.1614L4.29749 10.8055C4.00126 11.003 3.60114 10.9229 3.4037 10.6267C3.20626 10.3305 3.28635 9.93029 3.58253 9.73289L4.5489 9.08879C5.39245 8.52638 6.48274 8.52638 7.32638 9.08883C7.73565 9.36168 8.26451 9.36168 8.67383 9.08883C9.51747 8.52625 10.6078 8.52629 11.4514 9.08888L12.4177 9.73289C12.7139 9.93029 12.7939 10.3305 12.5965 10.6267C12.4724 10.813 12.2679 10.9138 12.0596 10.9138Z" fill="#222221"/>
</svg>
