<svg width="21" height="22" viewBox="0 0 21 22" fill="none" xmlns="http://www.w3.org/2000/svg">
<path d="M20.8135 0.884894C20.679 0.748898 20.4909 0.679804 20.3004 0.696003L12.5374 1.36021C12.2877 1.38157 12.0729 1.54584 11.9869 1.78139C11.9009 2.01686 11.9593 2.28086 12.1366 2.45815L12.5781 2.8997L4.19479 11.283C3.91077 11.5671 3.75432 11.9447 3.75432 12.3464C3.75432 12.7166 3.88739 13.066 4.13038 13.3408L3.9943 13.4769C3.4388 14.0324 2.53486 14.0324 1.97936 13.4769C1.64919 13.1467 1.50172 12.6753 1.58483 12.2158L1.89313 10.5122C1.95651 10.162 1.72392 9.8266 1.37363 9.76318C1.02348 9.69993 0.688068 9.93239 0.624603 10.2827L0.316302 11.9863C0.157962 12.8615 0.438935 13.7595 1.06783 14.3884C1.5969 14.9175 2.29179 15.182 2.98677 15.182C3.68174 15.182 4.37668 14.9175 4.90571 14.3884L5.03951 14.2546L5.77759 14.9927L0.576306 20.2066C0.324896 20.4586 0.325369 20.8667 0.57738 21.1181C0.703193 21.2436 0.867892 21.3063 1.03259 21.3063C1.19781 21.3063 1.36298 21.2431 1.48888 21.117L6.68913 15.9042L8.20558 17.4207C8.4896 17.7047 8.86726 17.8612 9.26901 17.8612C9.67073 17.8612 10.0484 17.7047 10.3324 17.4207L18.7157 9.03736L19.1573 9.4789C19.2803 9.60188 19.445 9.66771 19.6131 9.66771C19.6861 9.66771 19.7597 9.65533 19.8307 9.62981C20.0655 9.54555 20.2306 9.33341 20.2545 9.08514L20.9967 1.40018C21.0152 1.20969 20.9481 1.02093 20.8135 0.884894ZM15.6688 6.00432L11.2855 6.01532L13.4826 3.81816L15.6688 6.00432ZM5.10629 12.1945L6.43552 10.8653C6.44708 10.8659 6.45851 10.8671 6.47024 10.8671L15.0624 10.8677L12.791 13.1392H5.74704L5.10629 12.4984C5.02254 12.4146 5.02254 12.2783 5.10629 12.1945ZM9.42095 16.5092C9.33716 16.593 9.20082 16.5929 9.11712 16.5092L7.17364 14.5657C7.16436 14.5552 7.15538 14.5445 7.14528 14.5344C7.13566 14.5249 7.12543 14.5163 7.11538 14.5075L7.0361 14.4282H11.502L9.42095 16.5092ZM16.3514 9.57872L7.72278 9.57803L9.99622 7.3046C10.015 7.30623 10.0338 7.30748 10.0529 7.30748H10.0546L16.889 7.29033C16.9101 7.29029 16.9309 7.28904 16.9515 7.28702L17.7974 8.13286L16.3514 9.57872ZM19.1029 7.60143L14.0279 2.52647L19.6394 2.04634L19.1029 7.60143Z" fill="black"/>
</svg>
