<svg width="17" height="17" viewBox="0 0 17 17" fill="none" xmlns="http://www.w3.org/2000/svg">
<g id="stars">
<path id="Vector" d="M2.34828 6.97148C2.30539 6.92999 2.27474 6.87647 2.25996 6.81728C2.24518 6.75808 2.24688 6.69568 2.26487 6.63746C2.28286 6.57925 2.31638 6.52766 2.36147 6.48881C2.40655 6.44996 2.46131 6.42547 2.51925 6.41824L6.18527 5.96233C6.23721 5.95598 6.28672 5.93574 6.32906 5.90356C6.37139 5.87138 6.40514 5.82834 6.42707 5.77856L7.97309 2.26317C7.99753 2.20764 8.03662 2.1606 8.08575 2.12764C8.13488 2.09467 8.19198 2.07715 8.25031 2.07715C8.30863 2.07715 8.36573 2.09467 8.41486 2.12764C8.46399 2.1606 8.50308 2.20764 8.52752 2.26317L10.0735 5.77856C10.0954 5.82829 10.129 5.87131 10.1712 5.90349C10.2135 5.93567 10.2629 5.95593 10.3147 5.96233L13.9807 6.41824C14.0387 6.42547 14.0935 6.44996 14.1385 6.48881C14.1836 6.52766 14.2171 6.57925 14.2351 6.63746C14.2531 6.69568 14.2548 6.75808 14.24 6.81728C14.2253 6.87647 14.1946 6.92999 14.1517 6.97148L11.4419 9.60002C11.4037 9.63722 11.3752 9.68406 11.3592 9.73607C11.3432 9.78808 11.3401 9.84352 11.3503 9.89713L12.069 13.6943C12.0804 13.7543 12.0752 13.8165 12.0539 13.8735C12.0327 13.9306 11.9963 13.98 11.949 14.016C11.9018 14.052 11.8457 14.073 11.7874 14.0766C11.7291 14.0802 11.6711 14.0662 11.6202 14.0362L8.39929 12.1453C8.35378 12.1186 8.30248 12.1045 8.25031 12.1045C8.19813 12.1045 8.14683 12.1186 8.10132 12.1453L4.87982 14.0355C4.82895 14.0654 4.77098 14.0794 4.71276 14.0759C4.65455 14.0723 4.59852 14.0514 4.55132 14.0155C4.50411 13.9796 4.46769 13.9302 4.44638 13.8733C4.42506 13.8164 4.41973 13.7543 4.43103 13.6943L5.15031 9.89713C5.1605 9.84352 5.15743 9.78808 5.1414 9.73607C5.12536 9.68406 5.0969 9.63722 5.05872 9.60002L2.34828 6.97148Z" stroke="#FFD056" stroke-width="0.9" stroke-linecap="round" stroke-linejoin="round"/>
</g>
</svg>
