<svg width="22" height="22" viewBox="0 0 22 22" fill="none" xmlns="http://www.w3.org/2000/svg">
<path d="M19.0817 16.5152C19.0876 16.5188 19.0934 16.5223 19.0993 16.5257C20.0226 17.0588 21.2075 16.7413 21.7406 15.8179C21.7734 15.761 21.8033 15.7025 21.8302 15.6425C21.9356 15.5278 21.9998 15.3748 21.9998 15.2068V7.04279C21.9998 5.97657 21.1324 5.1092 20.0662 5.1092C19.0001 5.1092 18.1327 5.97661 18.1327 7.04279V11.5017L14.5381 9.42575C14.5271 9.41939 14.5159 9.41334 14.5045 9.40762C14.2312 9.25418 13.9396 9.13718 13.6378 9.05867C13.938 8.72833 14.1766 8.34135 14.3369 7.91626H14.8468C16.0525 7.91626 17.0335 6.93533 17.0335 5.72954V4.94669C17.0335 3.7409 16.0525 2.75997 14.8468 2.75997H14.4718C14.1043 1.18065 12.6861 0 10.9964 0H10.9842C9.2945 0 7.87632 1.18065 7.50863 2.76001H7.13369C5.92794 2.76001 4.94701 3.74095 4.94701 4.94673V5.72958C4.94701 6.93533 5.92794 7.9163 7.13369 7.9163H7.6436C7.80447 8.34298 8.04437 8.73116 8.34614 9.06237C8.25672 9.086 8.16803 9.1126 8.08042 9.14311C8.0695 9.14693 8.0588 9.15097 8.04823 9.15527L1.27761 11.6218C1.00927 11.7194 0.771262 11.8712 0.572789 12.0704C0.450543 12.1916 0.345012 12.3284 0.25916 12.4771C-0.273953 13.4004 0.043543 14.5854 0.967371 15.1187L6.19821 18.1328H1.93142C0.866695 18.1328 0.000488281 18.999 0.000488281 20.0637V20.0691C0.000488281 21.1338 0.866695 22 1.93142 22H9.70782C10.2044 22 10.6576 21.8115 11.0001 21.5024C11.3426 21.8115 11.7958 22 12.2924 22H20.0688C21.1335 22 21.9997 21.1338 21.9997 20.0691V20.0637C21.9997 18.999 21.1335 18.1328 20.0688 18.1328H15.7995V14.4787L19.0817 16.5152ZM8.70407 6.66076V3.57745C9.54264 4.01027 11.0103 4.53664 13.2765 4.62215V6.66072C13.2765 7.91802 12.2536 8.94085 10.9964 8.94085H10.9842C9.72694 8.9409 8.70407 7.91802 8.70407 6.66076ZM15.7445 4.94673V5.72958C15.7445 6.22458 15.3418 6.62724 14.8468 6.62724H14.5656V4.04912H14.8468C15.3418 4.04907 15.7445 4.45173 15.7445 4.94673ZM10.9842 1.28906H10.9964C12.1734 1.28906 13.1449 2.18565 13.2641 3.33171C10.9924 3.23658 9.67757 2.66179 9.08133 2.31498C9.48971 1.69744 10.19 1.28906 10.9842 1.28906ZM6.23607 5.72958V4.94673C6.23607 4.45173 6.63873 4.04907 7.13369 4.04907H7.41496V6.6272H7.13369C6.63873 6.6272 6.23607 6.22454 6.23607 5.72958ZM10.3496 20.0691C10.3496 20.423 10.0617 20.711 9.70777 20.711H1.93142C1.57753 20.711 1.28955 20.423 1.28955 20.0691V20.0637C1.28955 19.7099 1.57748 19.4219 1.93142 19.4219H9.70782C10.0617 19.4219 10.3497 19.7098 10.3497 20.0637V20.0691H10.3496ZM20.7107 20.0637V20.0691C20.7107 20.423 20.4227 20.711 20.0688 20.711H12.2924C11.9385 20.711 11.6505 20.423 11.6505 20.0691V20.0637C11.6505 19.7099 11.9385 19.4219 12.2924 19.4219H20.0688C20.4227 19.4219 20.7107 19.7098 20.7107 20.0637ZM12.2924 18.1328C11.7958 18.1328 11.3426 18.3213 11.0001 18.6304C10.6576 18.3213 10.2044 18.1328 9.70782 18.1328H9.33412C9.41331 18.0415 9.48541 17.9418 9.54806 17.8333C9.8063 17.3861 9.87488 16.865 9.74125 16.3661C9.60757 15.8672 9.28763 15.4502 8.83985 15.1917L6.49036 13.8379L7.24846 13.5615C7.58293 13.4397 7.75523 13.0698 7.63333 12.7353C7.51143 12.4009 7.14146 12.2285 6.80708 12.3505L4.74965 13.1003C4.51427 13.1861 4.34991 13.4005 4.32821 13.6501C4.30656 13.8997 4.43147 14.1393 4.64855 14.2643L8.19579 16.3083C8.34489 16.3944 8.45154 16.5334 8.4961 16.6997C8.54066 16.866 8.51775 17.0396 8.43169 17.1887C8.25397 17.4965 7.859 17.6023 7.55074 17.4243L1.61143 14.0021C1.46233 13.9159 1.35568 13.777 1.31112 13.6107C1.26656 13.4444 1.28942 13.2707 1.37553 13.1216C1.40415 13.0721 1.43943 13.0263 1.48304 12.983C1.54977 12.9161 1.62892 12.8657 1.71859 12.833L8.5294 10.3519C8.77071 10.2709 9.0235 10.23 9.28122 10.23H10.9842H10.9963H12.7187C13.1304 10.23 13.5363 10.3381 13.8926 10.5425C13.9019 10.5478 13.9112 10.5529 13.9206 10.5577L18.4548 13.1764C18.6543 13.2916 18.9 13.2915 19.0994 13.1765C19.2989 13.0613 19.4217 12.8485 19.4217 12.6182V7.04279C19.4217 6.6874 19.7109 6.39826 20.0662 6.39826C20.4216 6.39826 20.7108 6.6874 20.7108 7.04279V14.9574C20.7012 14.9804 20.6928 15.0041 20.6858 15.0284C20.6712 15.0792 20.6505 15.1279 20.6242 15.1734C20.4479 15.4787 20.0579 15.5854 19.7512 15.4135L15.4948 12.7726C15.296 12.6494 15.046 12.6434 14.8416 12.7571C14.6372 12.8709 14.5104 13.0864 14.5104 13.3203V18.1328H12.2924Z" fill="black"/>
</svg>
