<svg width="53" height="52" viewBox="0 0 53 52" fill="none" xmlns="http://www.w3.org/2000/svg">
<g id="Vector">
<path d="M52.5 26C52.5 40.3594 40.8594 52 26.5 52C12.1406 52 0.5 40.3594 0.5 26C0.5 11.6406 12.1406 0 26.5 0C40.8594 0 52.5 11.6406 52.5 26Z" fill="white"/>
<path d="M15.7787 26.0332L15.6347 26.4949C15.3786 26.4604 15.0105 26.4432 14.5304 26.4432C14.1143 26.4432 13.7056 26.4629 13.3043 26.5023L13.4557 26.0332L13.7585 26.048C13.8866 26.048 13.9727 26.0148 14.017 25.9483C14.0614 25.8818 14.0835 25.7464 14.0835 25.542C14.0835 25.2983 14.0687 24.8699 14.0392 24.2568C14.022 23.7792 13.9887 23.272 13.9395 22.7352C13.6982 23.2203 13.3991 23.858 13.042 24.6483C12.69 25.4263 12.4474 25.9988 12.3145 26.3656C12.0904 26.3927 11.8762 26.4309 11.6719 26.4801C11.4823 26.0074 11.2755 25.5334 11.0514 25.0582C10.948 24.8391 10.6686 24.2617 10.2131 23.3261L9.925 22.7426C9.89545 23.1119 9.86468 23.581 9.83267 24.1497C9.7982 24.7702 9.78097 25.2441 9.78097 25.5716C9.78097 25.7735 9.80436 25.9052 9.85114 25.9668C9.90038 26.0259 10.0161 26.0554 10.1983 26.0554C10.3042 26.0554 10.3916 26.0505 10.4605 26.0406L10.3165 26.4949C9.95208 26.4604 9.64186 26.4432 9.3858 26.4432C8.95985 26.4432 8.55975 26.4629 8.18551 26.5023L8.33693 26.0332C8.53883 26.0431 8.65947 26.048 8.69886 26.048C8.77026 26.048 8.8232 26.0382 8.85767 26.0185C8.89214 25.9988 8.92415 25.9508 8.95369 25.8744C8.98324 25.7981 9.01648 25.6725 9.05341 25.4977C9.14451 25.0299 9.21591 24.5707 9.26761 24.1202C9.34148 23.5366 9.37841 23.0725 9.37841 22.7278C9.37841 22.4275 9.33655 22.2317 9.25284 22.1406C9.17159 22.0495 8.99678 22.004 8.72841 22.004C8.5142 22.004 8.37017 22.0114 8.29631 22.0261L8.44773 21.5571C8.58561 21.5743 8.76288 21.5866 8.97955 21.594C9.28977 21.6039 9.49905 21.6088 9.60739 21.6088C9.99148 21.6088 10.3214 21.5891 10.5972 21.5497C10.7523 22.0175 10.9788 22.574 11.2767 23.219C11.5869 23.8764 11.8898 24.4969 12.1852 25.0804C12.4487 24.5215 12.7318 23.8813 13.0347 23.1599C13.2956 22.5346 13.4865 22.0003 13.6071 21.5571C13.8336 21.5916 14.1672 21.6088 14.608 21.6088C15.0684 21.6088 15.4537 21.594 15.7639 21.5645L15.6051 22.0261C15.6002 22.0261 15.5842 22.0249 15.5571 22.0224C15.53 22.02 15.4943 22.0175 15.45 22.0151C15.4081 22.0126 15.3638 22.0114 15.317 22.0114C15.1472 22.0114 15.029 22.0458 14.9625 22.1148C14.896 22.1837 14.8628 22.3031 14.8628 22.473C14.8628 23.2313 14.8776 24.0685 14.9071 24.9844C14.9293 25.4497 14.9514 25.7267 14.9736 25.8153C15.0007 25.9212 15.0536 25.9877 15.1324 26.0148C15.1718 26.0271 15.2789 26.0406 15.4537 26.0554C15.6187 26.0554 15.727 26.048 15.7787 26.0332Z" fill="black"/>
<path d="M16.196 23.9983C16.196 23.5797 16.2625 23.2055 16.3955 22.8756C16.5309 22.5456 16.7155 22.2785 16.9494 22.0741C17.1833 21.8698 17.4517 21.7147 17.7545 21.6088C18.0598 21.5029 18.3898 21.45 18.7443 21.45C19.0939 21.45 19.4128 21.5029 19.7009 21.6088C19.9914 21.7122 20.2437 21.8661 20.458 22.0705C20.6722 22.2723 20.8384 22.5346 20.9565 22.8571C21.0747 23.1796 21.1338 23.5477 21.1338 23.9614C21.1338 24.3799 21.0735 24.7554 20.9528 25.0878C20.8322 25.4177 20.6623 25.691 20.4432 25.9077C20.2265 26.1243 19.968 26.2893 19.6676 26.4026C19.3697 26.5158 19.0398 26.5724 18.6778 26.5724C18.3134 26.5724 17.9786 26.5146 17.6733 26.3989C17.3705 26.2807 17.1095 26.1133 16.8903 25.8966C16.6712 25.6799 16.5001 25.4091 16.377 25.0841C16.2563 24.7591 16.196 24.3972 16.196 23.9983ZM20.0997 23.9466C20.0997 23.3015 19.9705 22.8128 19.7119 22.4804C19.4534 22.1455 19.1038 21.9781 18.6631 21.9781C18.2174 21.9781 17.8678 22.1468 17.6142 22.4841C17.3606 22.8189 17.2338 23.3064 17.2338 23.9466C17.2338 24.5966 17.3618 25.1075 17.6179 25.4793C17.8764 25.8486 18.2273 26.0332 18.6705 26.0332C19.1186 26.0332 19.4682 25.8461 19.7193 25.4719C19.9729 25.0976 20.0997 24.5892 20.0997 23.9466Z" fill="black"/>
<path d="M26.7733 24.1202V24.9585C26.7733 25.7095 26.8065 26.1637 26.873 26.3213C26.676 26.3681 26.351 26.4592 25.898 26.5946C25.8315 26.4863 25.4277 25.9495 24.6866 24.9844C24.0342 24.1325 23.4999 23.4455 23.0838 22.9236V24.6668C23.0838 25.0238 23.0937 25.2909 23.1134 25.4682C23.133 25.6455 23.1712 25.7784 23.2278 25.867C23.2722 25.9384 23.3337 25.9877 23.4125 26.0148C23.4937 26.0419 23.6058 26.0554 23.7486 26.0554C23.8618 26.0554 23.9529 26.0505 24.0219 26.0406L23.8778 26.4949C23.5258 26.4604 23.1626 26.4432 22.7884 26.4432C22.2935 26.4432 21.8848 26.4629 21.5622 26.5023L21.7136 26.0332C21.8958 26.0431 22.0017 26.048 22.0312 26.048C22.1322 26.048 22.2024 26.0295 22.2418 25.9926C22.2836 25.9532 22.3193 25.8707 22.3489 25.7452C22.44 25.3488 22.4855 24.5449 22.4855 23.3335V22.8866C22.483 22.7685 22.4806 22.6786 22.4781 22.617C22.4757 22.5555 22.4695 22.489 22.4597 22.4176C22.4523 22.3438 22.4449 22.292 22.4375 22.2625C22.4301 22.2305 22.4153 22.196 22.3932 22.1591C22.371 22.1197 22.3489 22.0951 22.3267 22.0852C22.307 22.0729 22.2762 22.0606 22.2344 22.0483C22.1925 22.0335 22.1494 22.0249 22.1051 22.0224C22.0633 22.0175 22.0066 22.0138 21.9352 22.0114C21.8564 22.0114 21.7555 22.0163 21.6324 22.0261L21.7838 21.5571C22.0423 21.5866 22.387 21.6014 22.8179 21.6014C22.9976 21.6014 23.2045 21.5866 23.4384 21.5571C23.7609 22.0963 24.6682 23.3286 26.1602 25.254C26.1701 24.8896 26.175 24.5067 26.175 24.1054C26.175 23.5219 26.1676 23.1009 26.1528 22.8423C26.1455 22.5838 26.1159 22.3893 26.0642 22.2588C26.0223 22.1554 25.962 22.0865 25.8832 22.052C25.8045 22.0151 25.685 21.9966 25.525 21.9966C25.3723 21.9966 25.2739 22.004 25.2295 22.0187L25.381 21.5571C25.6986 21.5916 26.0802 21.6088 26.5259 21.6088C26.905 21.6088 27.2953 21.5891 27.6966 21.5497L27.5452 22.0187L27.2349 22.004C27.134 22.004 27.0589 22.0261 27.0097 22.0705C26.9629 22.1148 26.9247 22.196 26.8952 22.3142C26.8139 22.6121 26.7733 23.2141 26.7733 24.1202Z" fill="black"/>
<path d="M33.6057 26.0332L33.4616 26.4949C33.144 26.4604 32.7661 26.4432 32.3278 26.4432C31.7468 26.4432 31.2519 26.4629 30.8432 26.5023L30.9946 26.0332C31.1571 26.0431 31.2987 26.048 31.4193 26.048C31.4981 26.048 31.5609 26.0271 31.6077 25.9852C31.6545 25.9434 31.6778 25.8843 31.6778 25.808C31.6778 25.739 31.6348 25.6122 31.5486 25.4276L31.2088 24.6557H30.496C30.1242 24.6557 29.7919 24.6643 29.4989 24.6815L29.2625 25.3168C29.26 25.3241 29.2502 25.3512 29.233 25.398C29.2182 25.4423 29.2034 25.4842 29.1886 25.5236C29.1763 25.5605 29.164 25.6011 29.1517 25.6455C29.1394 25.6898 29.1332 25.723 29.1332 25.7452C29.1332 25.8535 29.1714 25.9323 29.2477 25.9815C29.3265 26.0308 29.473 26.0554 29.6872 26.0554C29.8005 26.0554 29.9014 26.0505 29.9901 26.0406L29.846 26.4949C29.4866 26.4604 29.1012 26.4432 28.6901 26.4432C28.3084 26.4432 27.8874 26.4629 27.427 26.5023L27.5858 26.0259C27.6523 26.0406 27.7631 26.048 27.9182 26.048C28.0364 26.048 28.1299 26.0283 28.1989 25.9889C28.2703 25.9495 28.3281 25.8794 28.3724 25.7784C29.0372 24.279 29.5616 22.9347 29.9457 21.7455C30.3274 21.6987 30.6696 21.6236 30.9724 21.5202C31.1226 21.9535 31.4107 22.6712 31.8366 23.6733C32.2971 24.7542 32.5938 25.4276 32.7267 25.6935C32.771 25.787 32.8055 25.8535 32.8301 25.8929C32.8547 25.9323 32.8929 25.9668 32.9446 25.9963C32.9988 26.0259 33.0566 26.0431 33.1182 26.048C33.1822 26.0529 33.2819 26.0554 33.4173 26.0554C33.4764 26.0554 33.5392 26.048 33.6057 26.0332ZM30.9872 24.1645L30.2781 22.5173L29.6724 24.1903C30.3643 24.1903 30.8026 24.1817 30.9872 24.1645Z" fill="black"/>
<path d="M37.0477 26.0406L36.9037 26.4949C36.6132 26.4604 36.218 26.4432 35.7182 26.4432C35.2824 26.4432 34.7949 26.4629 34.2557 26.5023L34.4071 26.0332C34.5893 26.0431 34.7087 26.048 34.7653 26.048C34.9623 26.0382 35.0793 26.0123 35.1162 25.9705C35.1556 25.9286 35.1765 25.8141 35.179 25.627C35.179 25.6122 35.179 25.6011 35.179 25.5938C35.179 23.7102 35.1642 22.5666 35.1347 22.1628C34.8958 22.1357 34.6866 22.1222 34.5068 22.1222C34.1892 22.1222 33.9615 22.1665 33.8236 22.2551C33.6882 22.3413 33.6205 22.5038 33.6205 22.7426C33.6205 22.8559 33.6303 23.0024 33.65 23.1821L33.1145 23.2966C33.144 23.1144 33.1588 22.8312 33.1588 22.4472C33.1588 22.0803 33.1366 21.8033 33.0923 21.6162L33.3804 21.4943C33.8482 21.5953 34.4502 21.6457 35.1864 21.6457H36.1392C36.543 21.6457 36.9135 21.6285 37.2509 21.594C37.5832 21.5596 37.8208 21.5288 37.9636 21.5017L38.2591 21.6162C38.1828 21.9289 38.1446 22.2391 38.1446 22.5469C38.1446 22.9507 38.1471 23.1723 38.152 23.2116L37.6682 23.304C37.678 23.1316 37.683 23.0134 37.683 22.9494C37.6805 22.8411 37.6756 22.7537 37.6682 22.6872C37.6633 22.6207 37.6497 22.553 37.6276 22.4841C37.6054 22.4152 37.5722 22.3622 37.5278 22.3253C37.486 22.2859 37.4281 22.249 37.3543 22.2145C37.2829 22.18 37.193 22.1566 37.0847 22.1443C36.9763 22.1295 36.8458 22.1197 36.6932 22.1148C36.5134 22.1148 36.3522 22.1259 36.2094 22.148C36.2094 22.1554 36.2081 22.1689 36.2057 22.1886C36.2057 22.2083 36.2044 22.2366 36.202 22.2736C36.1995 22.308 36.1971 22.3413 36.1946 22.3733C36.1577 22.9076 36.1392 23.5403 36.1392 24.2716V25.2244C36.1417 25.3352 36.1441 25.4239 36.1466 25.4903C36.1491 25.5568 36.1552 25.6233 36.1651 25.6898C36.1774 25.7538 36.186 25.8018 36.1909 25.8338C36.1958 25.8658 36.2118 25.8978 36.2389 25.9298C36.266 25.9618 36.2869 25.9828 36.3017 25.9926C36.3189 26.0025 36.3522 26.0135 36.4014 26.0259C36.4531 26.0357 36.495 26.0419 36.527 26.0443C36.5615 26.0468 36.6193 26.0505 36.7006 26.0554C36.8926 26.0554 37.0083 26.0505 37.0477 26.0406Z" fill="black"/>
<path d="M38.6063 23.9983C38.6063 23.5797 38.6727 23.2055 38.8057 22.8756C38.9411 22.5456 39.1258 22.2785 39.3597 22.0741C39.5936 21.8698 39.8619 21.7147 40.1648 21.6088C40.4701 21.5029 40.8 21.45 41.1545 21.45C41.5042 21.45 41.823 21.5029 42.1111 21.6088C42.4016 21.7122 42.654 21.8661 42.8682 22.0705C43.0824 22.2723 43.2486 22.5346 43.3668 22.8571C43.4849 23.1796 43.544 23.5477 43.544 23.9614C43.544 24.3799 43.4837 24.7554 43.3631 25.0878C43.2424 25.4177 43.0725 25.691 42.8534 25.9077C42.6367 26.1243 42.3782 26.2893 42.0778 26.4026C41.7799 26.5158 41.45 26.5724 41.0881 26.5724C40.7237 26.5724 40.3888 26.5146 40.0835 26.3989C39.7807 26.2807 39.5197 26.1133 39.3006 25.8966C39.0814 25.6799 38.9103 25.4091 38.7872 25.0841C38.6666 24.7591 38.6063 24.3972 38.6063 23.9983ZM42.5099 23.9466C42.5099 23.3015 42.3807 22.8128 42.1222 22.4804C41.8636 22.1455 41.514 21.9781 41.0733 21.9781C40.6277 21.9781 40.278 22.1468 40.0244 22.4841C39.7708 22.8189 39.644 23.3064 39.644 23.9466C39.644 24.5966 39.7721 25.1075 40.0281 25.4793C40.2866 25.8486 40.6375 26.0332 41.0807 26.0332C41.5288 26.0332 41.8784 25.8461 42.1295 25.4719C42.3831 25.0976 42.5099 24.5892 42.5099 23.9466Z" fill="black"/>
<path d="M12.2331 29.6613L11.3567 32.6182H10.8078L10.1867 30.3803L9.5272 32.6182L8.98262 32.6224L8.14447 29.6613H8.65927L9.27193 32.0693L9.93564 29.6613H10.4802L11.0971 32.0566L11.714 29.6613H12.2331Z" fill="black"/>
<path d="M13.1181 30.0527V30.9206H14.1392V31.3163H13.1181V32.2225H14.2669V32.6182H12.6331V29.657H14.2669V30.0527H13.1181Z" fill="black"/>
<path d="M15.83 29.6613C16.1449 29.6613 16.42 29.7223 16.6554 29.8442C16.8937 29.9633 17.0766 30.1364 17.2043 30.3633C17.3347 30.5873 17.4 30.8497 17.4 31.1504C17.4 31.451 17.3347 31.712 17.2043 31.9332C17.0766 32.1544 16.8937 32.3246 16.6554 32.4437C16.42 32.56 16.1449 32.6182 15.83 32.6182H14.8643V29.6613H15.83ZM15.83 32.2225C16.1761 32.2225 16.4413 32.1289 16.6256 31.9417C16.81 31.7545 16.9022 31.4907 16.9022 31.1504C16.9022 30.8072 16.81 30.5391 16.6256 30.3463C16.4413 30.1534 16.1761 30.0569 15.83 30.0569H15.3493V32.2225H15.83Z" fill="black"/>
<path d="M18.8464 29.6613C19.1613 29.6613 19.4364 29.7223 19.6718 29.8442C19.9101 29.9633 20.093 30.1364 20.2207 30.3633C20.3511 30.5873 20.4164 30.8497 20.4164 31.1504C20.4164 31.451 20.3511 31.712 20.2207 31.9332C20.093 32.1544 19.9101 32.3246 19.6718 32.4437C19.4364 32.56 19.1613 32.6182 18.8464 32.6182H17.8807V29.6613H18.8464ZM18.8464 32.2225C19.1925 32.2225 19.4577 32.1289 19.642 31.9417C19.8264 31.7545 19.9186 31.4907 19.9186 31.1504C19.9186 30.8072 19.8264 30.5391 19.642 30.3463C19.4577 30.1534 19.1925 30.0569 18.8464 30.0569H18.3657V32.2225H18.8464Z" fill="black"/>
<path d="M21.3821 29.6613V32.6182H20.8971V29.6613H21.3821Z" fill="black"/>
<path d="M24.4482 32.6182H23.9632L22.5039 30.4101V32.6182H22.0189V29.657H22.5039L23.9632 31.8609V29.657H24.4482V32.6182Z" fill="black"/>
<path d="M27.2252 30.5122C27.1486 30.3647 27.0422 30.2541 26.9061 30.1803C26.7699 30.1037 26.6125 30.0655 26.4338 30.0655C26.2381 30.0655 26.0637 30.1094 25.9105 30.1973C25.7574 30.2853 25.6368 30.4101 25.5489 30.5717C25.4638 30.7334 25.4213 30.9206 25.4213 31.1333C25.4213 31.3461 25.4638 31.5347 25.5489 31.6992C25.6368 31.8609 25.7574 31.9857 25.9105 32.0736C26.0637 32.1615 26.2381 32.2055 26.4338 32.2055C26.6976 32.2055 26.9118 32.1317 27.0763 31.9843C27.2408 31.8368 27.3415 31.6368 27.3783 31.3844H26.2679V30.9972H27.8974V31.3759C27.8662 31.6056 27.7839 31.8169 27.6506 32.0098C27.5202 32.2027 27.3486 32.3572 27.1358 32.4735C26.9259 32.587 26.6919 32.6437 26.4338 32.6437C26.1559 32.6437 25.902 32.5799 25.6723 32.4523C25.4425 32.3218 25.2596 32.1417 25.1234 31.9119C24.9901 31.6822 24.9235 31.4227 24.9235 31.1333C24.9235 30.844 24.9901 30.5845 25.1234 30.3548C25.2596 30.125 25.4425 29.9463 25.6723 29.8187C25.9049 29.6882 26.1587 29.623 26.4338 29.623C26.7487 29.623 27.028 29.701 27.272 29.857C27.5187 30.0101 27.6974 30.2285 27.8081 30.5122H27.2252Z" fill="black"/>
<path d="M29.966 30.0527V30.9206H30.9871V31.3163H29.966V32.2225H31.1147V32.6182H29.481V29.657H31.1147V30.0527H29.966Z" fill="black"/>
<path d="M34.2606 29.6613L33.1501 32.6182H32.5885L31.4738 29.6613H31.9929L32.8693 32.1204L33.75 29.6613H34.2606Z" fill="black"/>
<path d="M35.1512 30.0527V30.9206H36.1723V31.3163H35.1512V32.2225H36.2999V32.6182H34.6662V29.657H36.2999V30.0527H35.1512Z" fill="black"/>
<path d="M39.3267 32.6182H38.8417L37.3823 30.4101V32.6182H36.8973V29.657H37.3823L38.8417 31.8609V29.657H39.3267V32.6182Z" fill="black"/>
<path d="M41.8739 29.6613V30.0569H41.0868V32.6182H40.6018V30.0569H39.8104V29.6613H41.8739Z" fill="black"/>
<path d="M43.3394 32.648C43.1408 32.648 42.9621 32.6139 42.8033 32.5459C42.6445 32.4749 42.5197 32.3757 42.4289 32.248C42.3381 32.1204 42.2928 31.9715 42.2928 31.8013H42.8118C42.8232 31.9289 42.8728 32.0339 42.9607 32.1161C43.0515 32.1984 43.1777 32.2395 43.3394 32.2395C43.5067 32.2395 43.6372 32.1998 43.7308 32.1204C43.8244 32.0381 43.8712 31.9332 43.8712 31.8056C43.8712 31.7063 43.8414 31.6255 43.7818 31.5631C43.7251 31.5007 43.6528 31.4524 43.5649 31.4184C43.4798 31.3844 43.3606 31.3475 43.2075 31.3078C43.0146 31.2567 42.8572 31.2057 42.7352 31.1546C42.6161 31.1007 42.514 31.0185 42.4289 30.9079C42.3438 30.7972 42.3013 30.6497 42.3013 30.4654C42.3013 30.2952 42.3438 30.1463 42.4289 30.0187C42.514 29.891 42.6331 29.7932 42.7863 29.7251C42.9394 29.657 43.1167 29.623 43.3181 29.623C43.6046 29.623 43.8386 29.6953 44.0201 29.84C44.2045 29.9818 44.3066 30.1775 44.3264 30.4271H43.7904C43.7818 30.3193 43.7308 30.2271 43.6372 30.1505C43.5436 30.074 43.4202 30.0357 43.267 30.0357C43.1281 30.0357 43.0146 30.0711 42.9267 30.142C42.8387 30.2129 42.7948 30.3151 42.7948 30.4484C42.7948 30.5391 42.8217 30.6143 42.8756 30.6739C42.9324 30.7306 43.0033 30.776 43.0884 30.81C43.1734 30.844 43.2897 30.8809 43.4372 30.9206C43.6329 30.9745 43.7918 31.0284 43.9137 31.0823C44.0385 31.1362 44.1435 31.2199 44.2286 31.3333C44.3165 31.4439 44.3605 31.5928 44.3605 31.78C44.3605 31.9304 44.3193 32.0722 44.2371 32.2055C44.1577 32.3388 44.04 32.4466 43.8839 32.5288C43.7308 32.6083 43.5493 32.648 43.3394 32.648Z" fill="black"/>
<path fill-rule="evenodd" clip-rule="evenodd" d="M28.1059 18.8226L28.822 16.0968L27.7754 16.7634C27.5667 16.8964 27.3142 16.9424 27.072 16.8913C26.8298 16.8402 26.6173 16.6962 26.4801 16.4901L25.7914 15.4553L25.1021 16.4906C24.9649 16.6966 24.7524 16.8405 24.5102 16.8915C24.268 16.9425 24.0155 16.8965 23.8069 16.7634L22.7612 16.0968L23.4774 18.8226H28.1063H28.1059ZM23.0146 15.6979C22.652 15.4667 22.1939 15.8009 22.3031 16.2169L23.0198 18.9427C23.0463 19.0437 23.1056 19.1331 23.1883 19.1969C23.271 19.2607 23.3725 19.2953 23.4769 19.2953H28.1059C28.2103 19.2953 28.3118 19.2607 28.3945 19.1969C28.4772 19.1331 28.5365 19.0437 28.563 18.9427L29.2796 16.2169C29.3884 15.8009 28.9308 15.4672 28.5682 15.6979L27.5216 16.3644C27.4173 16.431 27.291 16.454 27.1699 16.4286C27.0489 16.4031 26.9426 16.3312 26.8739 16.2283L26.1847 15.193C26.1415 15.1282 26.083 15.0752 26.0144 15.0384C25.9458 15.0017 25.8692 14.9825 25.7914 14.9825C25.7136 14.9825 25.637 15.0017 25.5683 15.0384C25.4997 15.0752 25.4412 15.1282 25.3981 15.193L24.7088 16.2283C24.6403 16.3313 24.534 16.4033 24.4129 16.4288C24.2918 16.4544 24.1655 16.4314 24.0612 16.3649L23.0146 15.6979Z" fill="black"/>
<path d="M26.2376 14.1553C26.2378 14.2738 26.1908 14.3875 26.1071 14.4714C26.0234 14.5552 25.9099 14.6024 25.7914 14.6025C25.6729 14.6027 25.5592 14.5557 25.4754 14.472C25.3915 14.3883 25.3443 14.2748 25.3442 14.1563C25.3441 14.0378 25.391 13.9241 25.4747 13.8403C25.5584 13.7564 25.672 13.7092 25.7904 13.7091C25.9089 13.709 26.0226 13.7559 26.1065 13.8396C26.1903 13.9233 26.2375 14.0369 26.2376 14.1553ZM29.8096 15.0493C29.8096 15.1678 29.7626 15.2814 29.6789 15.3652C29.5952 15.449 29.4816 15.4962 29.3631 15.4962C29.2446 15.4963 29.1309 15.4493 29.0471 15.3656C28.9633 15.2818 28.9162 15.1682 28.9161 15.0497C28.9161 14.9313 28.9632 14.8176 29.047 14.7339C29.1307 14.6501 29.2444 14.603 29.3628 14.603C29.4813 14.603 29.5949 14.6501 29.6787 14.7339C29.7625 14.8176 29.8096 14.9308 29.8096 15.0493ZM22.6662 15.0493C22.6662 15.1079 22.6547 15.166 22.6323 15.2202C22.6098 15.2745 22.577 15.3237 22.5355 15.3652C22.494 15.4067 22.4448 15.4397 22.3906 15.4621C22.3364 15.4846 22.2784 15.4962 22.2197 15.4962C22.161 15.4963 22.1029 15.4847 22.0487 15.4623C21.9945 15.4399 21.9452 15.407 21.9037 15.3656C21.8622 15.3241 21.8293 15.2749 21.8068 15.2207C21.7843 15.1665 21.7728 15.1084 21.7727 15.0497C21.7727 14.9313 21.8198 14.8176 21.9036 14.7339C21.9873 14.6501 22.101 14.603 22.2195 14.603C22.3379 14.603 22.4516 14.6501 22.5353 14.7339C22.6191 14.8176 22.6662 14.9308 22.6662 15.0493Z" fill="black"/>
<path fill-rule="evenodd" clip-rule="evenodd" d="M23.5459 19.8541C23.5459 19.7914 23.5708 19.7313 23.6152 19.6869C23.6595 19.6426 23.7196 19.6177 23.7823 19.6177H27.9125C27.9752 19.6177 28.0353 19.6426 28.0796 19.6869C28.124 19.7313 28.1489 19.7914 28.1489 19.8541C28.1489 19.9168 28.124 19.9769 28.0796 20.0212C28.0353 20.0655 27.9752 20.0904 27.9125 20.0904H23.7823C23.7196 20.0904 23.6595 20.0655 23.6152 20.0212C23.5708 19.9769 23.5459 19.9168 23.5459 19.8541Z" fill="black"/>
</g>
</svg>
