<svg width="16" height="16" viewBox="0 0 16 16" fill="none" xmlns="http://www.w3.org/2000/svg">
<path fill-rule="evenodd" clip-rule="evenodd" d="M5 2C4.448 2 4 2.448 4 3C4 3.552 4.448 4 5 4C5.552 4 6 3.552 6 3C6 2.448 5.552 2 5 2ZM1 2H2.171C2.583 0.835 3.694 0 5 0C6.306 0 7.417 0.835 7.829 2H15C15.552 2 16 2.448 16 3C16 3.552 15.552 4 15 4H7.829C7.417 5.165 6.306 6 5 6C3.694 6 2.583 5.165 2.171 4H1C0.448 4 0 3.552 0 3C0 2.448 0.448 2 1 2ZM15 12C15.552 12 16 12.448 16 13C16 13.552 15.552 14 15 14H13.829C13.417 15.165 12.306 16 11 16C9.694 16 8.583 15.165 8.171 14H1C0.448 14 0 13.552 0 13C0 12.448 0.448 12 1 12H8.171C8.583 10.835 9.694 10 11 10C12.306 10 13.417 10.835 13.829 12H15ZM10 13C10 13.552 10.448 14 11 14C11.552 14 12 13.552 12 13C12 12.448 11.552 12 11 12C10.448 12 10 12.448 10 13Z" fill="black"/>
</svg>
