<svg width="18" height="22" viewBox="0 0 18 22" fill="none" xmlns="http://www.w3.org/2000/svg">
<path d="M17.378 2.86389C17.378 1.83572 16.8805 0.860696 16.0471 0.255721L15.6949 0L15.3261 0.231232C14.8536 0.527511 14.4567 0.923595 14.1557 1.38236C13.8547 0.923552 13.4577 0.527511 12.9853 0.231232L12.6165 0L12.2643 0.255721C11.9999 0.447641 11.7695 0.676939 11.5779 0.933219C11.3862 0.676939 11.1558 0.447641 10.8914 0.255721L10.5392 0L10.1705 0.231232C9.69798 0.527511 9.30103 0.923595 9.00003 1.38236C8.69902 0.923552 8.30208 0.527511 7.82961 0.231232L7.46085 0L7.10863 0.255721C6.84423 0.447641 6.61381 0.676939 6.42219 0.933219C6.23058 0.676939 6.00016 0.447641 5.73576 0.255721L5.38354 0L5.01478 0.231232C4.54231 0.527511 4.14537 0.923595 3.84436 1.38236C3.54336 0.923552 3.14641 0.527511 2.67394 0.231232L2.30518 0L1.95296 0.255721C1.11959 0.860696 0.62207 1.83572 0.62207 2.86389C0.62207 4.42 1.73088 5.72193 3.1999 6.02135V7.77895H0.62207V8.42341C0.62207 15.599 7.06236 17.9215 7.06665 17.9251V22H10.9334V18.1333H11.5779C12.6439 18.1333 13.5112 19.0006 13.5112 20.0666V20.7111H14.8002V20.0666C14.8002 18.6751 13.9134 17.4869 12.6753 17.037C15.47 15.2511 17.378 12.0522 17.378 8.42341V7.77895H14.8002V6.02135C16.2692 5.72193 17.378 4.42 17.378 2.86389ZM11.5779 4.79498C12.0429 5.41422 12.7255 5.86118 13.5112 6.0213V7.77891H9.64449V6.0213C10.4302 5.86118 11.1128 5.41427 11.5779 4.79498ZM7.52491 1.61566C8.04571 2.10154 8.35553 2.79789 8.35553 3.5251H9.64444C9.64444 2.79789 9.95426 2.10149 10.4751 1.61566C10.7672 1.96156 10.9334 2.40392 10.9334 2.86389C10.9334 3.92995 10.066 4.79726 8.99999 4.79726C7.93392 4.79726 7.06661 3.92995 7.06661 2.86389C7.06665 2.40392 7.23284 1.96152 7.52491 1.61566ZM6.42219 4.79498C6.88728 5.41422 7.56985 5.86118 8.35557 6.0213V7.77891H4.48882V6.0213C5.2745 5.86118 5.95711 5.41427 6.42219 4.79498ZM1.91099 2.86389C1.91099 2.40392 2.07721 1.96156 2.36928 1.61566C2.89009 2.10154 3.1999 2.79789 3.1999 3.5251H4.48882C4.48882 2.79789 4.79863 2.10149 5.31944 1.61566C5.61155 1.96156 5.77774 2.40392 5.77774 2.86389C5.77774 3.92995 4.91042 4.79726 3.84436 4.79726C2.7783 4.79726 1.91099 3.92995 1.91099 2.86389ZM5.77774 15.5554V15.7851C3.58181 14.265 2.13436 11.7792 1.9347 9.06744H9.25227C7.16027 10.4611 5.77774 12.8488 5.77774 15.5554ZM9.64449 20.7111H8.35557V18.1333H9.64449V20.7111ZM16.0654 9.06787C15.6444 14.7839 10.1692 16.8409 10.1648 16.8443H7.83519C7.57388 16.7379 7.37634 16.667 7.06661 16.5235V15.5554C7.06661 11.9782 9.95765 9.06787 13.5112 9.06787H16.0654ZM14.1557 4.79726C13.0896 4.79726 12.2223 3.92995 12.2223 2.86389C12.2223 2.40392 12.3885 1.96156 12.6806 1.61566C13.2014 2.10154 13.5112 2.79789 13.5112 3.5251H14.8002C14.8002 2.79789 15.11 2.10149 15.6308 1.61566C15.9229 1.96156 16.0891 2.40392 16.0891 2.86389C16.0891 3.92995 15.2218 4.79726 14.1557 4.79726Z" fill="black"/>
</svg>
