<svg width="22" height="22" viewBox="0 0 22 22" fill="none" xmlns="http://www.w3.org/2000/svg">
<path d="M19.8319 14.9808C21.0052 13.837 20.8274 11.8015 19.4934 10.8715C19.7656 10.5266 19.9287 10.0918 19.9287 9.61928C19.8948 8.76464 18.6737 8.76425 18.6397 9.61928C18.6397 10.0252 18.3094 10.3555 17.9035 10.3555C15.4985 10.3493 14.2891 13.3023 15.9749 14.9807C15.5556 15.2053 15.1796 15.5008 14.8633 15.8511C14.5208 14.8824 13.8237 14.0798 12.9284 13.6001C13.5911 12.9553 13.8894 11.8783 13.6141 10.9542H14.4517C15.3069 10.9201 15.3062 9.69886 14.4517 9.66512H13.7155V8.63969C13.7155 7.49514 12.5916 6.68329 11.5044 7.04586L11 7.214L10.4957 7.04582C9.40998 6.6839 8.28434 7.49376 8.28434 8.63969V9.66512H7.54816C6.693 9.6992 6.69365 10.9204 7.54816 10.9542H8.38587C8.11044 11.8783 8.40873 12.955 9.07134 13.6C8.17614 14.0797 7.47898 14.8824 7.13652 15.8513C6.82015 15.501 6.44422 15.2055 6.0248 14.9809C7.71062 13.3017 6.50175 10.3499 4.0963 10.3555C1.6911 10.3499 0.482105 13.302 2.16775 14.9807C0.878788 15.6713 0 17.0315 0 18.5933V21.3554C0 21.7113 0.288575 21.9999 0.644525 21.9999H21.3553C21.7112 21.9999 21.9998 21.7113 21.9998 21.3554V18.5933C21.9998 17.0316 21.1211 15.6715 19.8319 14.9808ZM4.0963 11.6445C4.88292 11.6445 5.52285 12.2845 5.52285 13.0711C5.44452 14.9635 2.74787 14.963 2.66979 13.0711C2.66979 12.2845 3.30972 11.6445 4.0963 11.6445ZM5.28459 16.0511L4.0963 18.0316L2.90818 16.0513C3.62081 15.7018 4.57179 15.7014 5.28459 16.0511ZM6.90359 20.7108H1.28905V18.5933C1.28905 17.9397 1.51425 17.338 1.89039 16.8605L3.54364 19.6159C3.78757 20.0307 4.40516 20.0306 4.649 19.6159L6.30234 16.8604C6.67844 17.3379 6.90364 17.9396 6.90364 18.5933V20.7108H6.90359ZM9.57334 8.63969C9.57334 8.37285 9.83532 8.18452 10.0881 8.26874L10.7959 8.50481C10.9282 8.54894 11.0713 8.54902 11.2037 8.50489L11.9119 8.26878C12.1656 8.18448 12.4264 8.3732 12.4264 8.63973V9.66517H9.57334V8.63969ZM9.77817 10.9542H12.2218C12.7965 11.887 12.0977 13.1267 10.9998 13.1169C9.90222 13.1267 9.20287 11.8867 9.77817 10.9542ZM12.1882 14.6704L10.9999 16.6508L9.81173 14.6706C10.5244 14.3211 11.4754 14.3207 12.1882 14.6704ZM13.8071 20.7108H8.19264V17.2125C8.19264 16.5589 8.41784 15.9573 8.79398 15.4798L10.4472 18.2352C10.6912 18.65 11.3087 18.6498 11.5526 18.2352L13.2059 15.4797C13.5819 15.9572 13.8072 16.5589 13.8072 17.2125V20.7108H13.8071ZM17.9035 11.6445C18.6901 11.6445 19.33 12.2845 19.33 13.0711C19.2516 14.9635 16.555 14.963 16.4769 13.0711C16.4769 12.2845 17.1169 11.6445 17.9035 11.6445ZM19.0917 16.0511L17.9035 18.0316L16.7153 16.0513C17.428 15.7018 18.3789 15.7014 19.0917 16.0511ZM20.7107 20.7108H15.0962V18.5933C15.0962 17.9397 15.3214 17.338 15.6975 16.8605L17.3508 19.6159C17.5948 20.0307 18.2123 20.0306 18.4562 19.6159L20.1095 16.8604C20.4856 17.3379 20.7108 17.9396 20.7108 18.5933V20.7108H20.7107Z" fill="black"/>
<path d="M2.0255 8.19273C3.1422 8.19273 4.05073 7.28421 4.05073 6.16751V2.51155L7.5942 1.49913V2.90071C6.30158 2.37095 4.81118 3.38548 4.83279 4.78685C4.94395 7.47344 8.77234 7.47289 8.88325 4.78681V0.644658C8.88325 0.442406 8.78833 0.251885 8.62685 0.130113C8.46534 0.00829729 8.25608 -0.030632 8.06165 0.024926L3.22909 1.40563C2.95241 1.48469 2.76163 1.7376 2.76163 2.02536V4.28137C1.46893 3.75157 -0.0212966 4.76622 0.000230528 6.16755C0.000230528 7.28421 0.908753 8.19273 2.0255 8.19273ZM6.85798 5.52298C6.45205 5.52298 6.1218 5.19273 6.1218 4.78681C6.16223 3.81014 7.55389 3.81044 7.5942 4.78681C7.59415 5.19273 7.2639 5.52298 6.85798 5.52298ZM2.0255 5.43129C2.43142 5.43129 2.76168 5.76154 2.76168 6.16746C2.72124 7.14413 1.32958 7.14383 1.28928 6.16746C1.28928 5.76154 1.61954 5.43129 2.0255 5.43129Z" fill="black"/>
<path d="M16.523 8.19274C17.6397 8.19274 18.5482 7.28422 18.5482 6.16751V2.41281L20.1518 1.95473C20.4941 1.85697 20.6922 1.50021 20.5945 1.15796C20.4967 0.815635 20.1397 0.617336 19.7977 0.715261L17.7267 1.30689C17.45 1.38591 17.2592 1.63886 17.2592 1.92662V4.28137C15.9664 3.75153 14.4762 4.76619 14.4978 6.16751C14.4977 7.28422 15.4063 8.19274 16.523 8.19274ZM16.523 5.43129C16.9289 5.43129 17.2592 5.76155 17.2592 6.16747C17.2188 7.1441 15.8271 7.14388 15.7868 6.16747C15.7868 5.76155 16.1171 5.43129 16.523 5.43129Z" fill="black"/>
</svg>
