<svg width="22" height="22" viewBox="0 0 22 22" fill="none" xmlns="http://www.w3.org/2000/svg">
<path d="M21.0977 15.165V0.644531C21.0977 0.288578 20.8091 0 20.4531 0H1.54688C1.19092 0 0.902344 0.288578 0.902344 0.644531V15.165C0.371766 15.3976 0 15.9275 0 16.543V19.9805C0 20.3364 0.288578 20.625 0.644531 20.625H6.20817L6.07462 21.2126C6.03118 21.4038 6.07711 21.6043 6.1994 21.7576C6.32169 21.9108 6.5071 22 6.70312 22H15.2969C15.4929 22 15.6783 21.9108 15.8006 21.7575C15.9229 21.6043 15.9688 21.4038 15.9254 21.2126L15.7918 20.625H21.3555C21.7114 20.625 22 20.3364 22 19.9805V16.543C22 15.9275 21.6282 15.3976 21.0977 15.165ZM5.19922 15.0391V11.8164H16.8008V15.0391H5.19922ZM9.06641 4.08203V4.72656H7.77734V4.08203C7.77734 3.72664 8.06648 3.4375 8.42188 3.4375C8.77727 3.4375 9.06641 3.72664 9.06641 4.08203ZM7.77734 2.2593C7.02715 2.52536 6.48828 3.24178 6.48828 4.08203V5.37109C6.48828 5.72705 6.77686 6.01562 7.13281 6.01562H9.71094C10.0669 6.01562 10.3555 5.72705 10.3555 5.37109V4.08203C10.3555 3.24178 9.8166 2.52536 9.06641 2.2593V1.28906H12.9336V2.2593C12.1834 2.52536 11.6445 3.24178 11.6445 4.08203V5.37109C11.6445 5.72705 11.9331 6.01562 12.2891 6.01562H14.8672C15.2231 6.01562 15.5117 5.72705 15.5117 5.37109V4.08203C15.5117 3.24178 14.9728 2.52536 14.2227 2.2593V1.28906H16.8008V10.5273H5.19922V1.28906H7.77734V2.2593ZM14.2227 4.08203V4.72656H12.9336V4.08203C12.9336 3.72664 13.2227 3.4375 13.5781 3.4375C13.9335 3.4375 14.2227 3.72664 14.2227 4.08203ZM19.8086 9.02344H18.0898V7.30469H19.8086V9.02344ZM18.0898 10.3125H19.8086V12.0312H18.0898V10.3125ZM19.8086 6.01562H18.0898V4.29688H19.8086V6.01562ZM2.19141 10.3125H3.91016V12.0312H2.19141V10.3125ZM2.19141 7.30469H3.91016V9.02344H2.19141V7.30469ZM3.91016 6.01562H2.19141V4.29688H3.91016V6.01562ZM2.19141 13.3203H3.91016V15.0391H2.19141V13.3203ZM18.0898 13.3203H19.8086V15.0391H18.0898V13.3203ZM19.8086 1.28906V3.00781H18.0898V1.28906H19.8086ZM2.19141 1.28906H3.91016V3.00781H2.19141V1.28906ZM1.28906 19.3359V16.543C1.28906 16.4245 1.38544 16.3281 1.50391 16.3281H7.18472L6.50113 19.3359H1.28906ZM7.51059 20.7109L8.50669 16.3281H13.4933L14.4894 20.7109H7.51059ZM20.7109 19.3359H15.4989L14.8153 16.3281H20.4961C20.6146 16.3281 20.7109 16.4245 20.7109 16.543V19.3359Z" fill="black"/>
</svg>
