<svg width="20" height="21" viewBox="0 0 20 21" fill="none" xmlns="http://www.w3.org/2000/svg">
<g id="stars">
<path id="Vector" d="M7.09138 7.05594L8.99138 3.20344C9.08322 3.01444 9.2267 2.85532 9.40522 2.74449C9.58375 2.63366 9.79001 2.57565 10.0001 2.57719C10.2105 2.57542 10.417 2.63331 10.5958 2.74415C10.7745 2.855 10.9182 3.01425 11.0101 3.20344L12.9114 7.05594L17.1626 7.67469C17.3705 7.70466 17.5658 7.79221 17.7264 7.92741C17.8871 8.06261 18.0067 8.24008 18.0717 8.43974C18.1368 8.63939 18.1446 8.85326 18.0944 9.05715C18.0442 9.26104 17.9379 9.44681 17.7876 9.59344L14.7101 12.5922L15.4364 16.8259C15.472 17.0329 15.4489 17.2457 15.3698 17.4402C15.2908 17.6347 15.1588 17.8032 14.989 17.9267C14.8191 18.0501 14.6181 18.1235 14.4086 18.1386C14.1992 18.1537 13.9897 18.11 13.8039 18.0122L10.0014 16.0122L6.19888 18.0122C6.01305 18.11 5.80356 18.1537 5.59412 18.1386C5.38469 18.1235 5.18366 18.0501 5.0138 17.9267C4.84393 17.8032 4.71199 17.6347 4.63292 17.4402C4.55385 17.2457 4.5308 17.0329 4.56638 16.8259L5.29138 12.5922L2.21638 9.59219C2.06647 9.44559 1.96051 9.26002 1.91045 9.0564C1.8604 8.85279 1.86825 8.63923 1.93311 8.43984C1.99797 8.24045 2.11726 8.06315 2.27753 7.92795C2.4378 7.79275 2.63266 7.70503 2.84013 7.67469L7.09138 7.05594ZM10.0001 14.7472C10.1801 14.7472 10.3601 14.7897 10.5251 14.8759L14.1626 16.7884L13.4676 12.7384C13.4366 12.5587 13.4497 12.3741 13.5059 12.2005C13.5621 12.0269 13.6596 11.8697 13.7901 11.7422L16.7326 8.87469L12.6664 8.28344C12.4861 8.25713 12.3148 8.18741 12.1674 8.08028C12.02 7.97316 11.9008 7.83182 11.8201 7.66844L10.0001 3.98469V14.7472Z" fill="#FFD056"/>
</g>
</svg>
