<svg width="22" height="22" viewBox="0 0 22 22" fill="none" xmlns="http://www.w3.org/2000/svg">
<g clip-path="url(#clip0_2240_28904)">
<path d="M20.0265 10.8235C20.32 10.7935 20.5337 10.5317 20.5038 10.2387C20.0468 5.72509 16.5578 2.23869 12.1735 1.68627L12.2898 1.23298C12.3563 0.97091 12.2982 0.688779 12.1341 0.478207C11.9777 0.276822 11.7451 0.161987 11.4951 0.161987H10.4195C10.1625 0.161987 9.92514 0.282866 9.76872 0.49368C9.60505 0.714405 9.55549 1.00451 9.63552 1.26972L9.76002 1.68313C5.34624 2.22805 1.8451 5.73766 1.40582 10.2815C1.37754 10.575 1.59222 10.8359 1.88571 10.8649C1.90312 10.8663 1.92053 10.8668 1.93793 10.8668C2.20991 10.8668 2.442 10.6606 2.46883 10.3843C2.89385 5.9857 6.54319 2.66829 10.9567 2.66829C15.3502 2.66829 18.9974 5.96878 19.4412 10.3456C19.4712 10.6393 19.7338 10.8523 20.0265 10.8235ZM10.7389 1.22935H11.1878L11.0914 1.60698C11.0462 1.60649 11.0022 1.60069 10.9567 1.60069C10.9212 1.60069 10.8871 1.60504 10.8518 1.60553L10.7389 1.22935Z" fill="black"/>
<path d="M21.4004 11.4424H20.437H1.47659H0.65099C0.356528 11.4424 0.117188 11.6817 0.117188 11.9764C0.117188 12.2711 0.356528 12.5105 0.65099 12.5105H1.02136C1.25829 13.3926 2.05754 14.0473 3.01418 14.0473H5.04809C5.71268 14.857 7.69099 17.2543 7.69099 17.2543C7.70453 17.27 7.71879 17.2854 7.73426 17.3004L10.8713 20.2934L11.1873 20.5678L10.7594 20.8649C10.5176 21.0334 10.4574 21.3668 10.6259 21.6081C10.7299 21.7577 10.8962 21.838 11.0645 21.838C11.1704 21.838 11.2765 21.8066 11.3693 21.742L15.4952 18.8559L16.9651 20.2363C17.0683 20.3335 17.1998 20.3814 17.3311 20.3814C17.473 20.3814 17.6152 20.3251 17.7201 20.2134C17.922 19.998 17.9113 19.66 17.6969 19.4586L15.8634 17.7358C15.6958 17.5789 15.4558 17.5567 15.2604 17.6546C15.1821 17.3995 15.1724 17.1288 15.2416 16.8655C15.353 16.4429 15.566 16.0474 15.8569 15.723L17.076 14.3657C17.1561 14.277 17.202 14.1643 17.2105 14.0476H18.9004C19.8565 14.0476 20.6553 13.3929 20.8922 12.5107H21.4004C21.6956 12.5107 21.9344 12.2714 21.9344 11.9767C21.9344 11.682 21.6953 11.4424 21.4004 11.4424ZM15.0624 15.0098C14.6587 15.4597 14.363 16.0068 14.2088 16.5935C14.0536 17.1846 14.1169 17.7999 14.3853 18.3436L12.0917 19.9392L11.5906 19.5045L8.49459 16.5495C8.33116 16.3523 7.21448 14.9982 6.43167 14.0473H7.22947C7.22947 14.0473 9.03589 15.5895 9.04943 15.5992C9.65262 16.0247 11.0369 16.4033 11.7039 16.4033C12.6487 16.4033 13.5616 16.0048 14.2085 15.3103C14.4252 15.0779 14.6249 14.8722 14.7801 14.7139C15.0419 14.4467 15.3289 14.2521 15.6323 14.1346C15.7478 14.0906 15.8428 14.0659 15.9192 14.0543L15.0624 15.0098ZM13.4284 14.5816C12.9821 15.0608 12.3535 15.3354 11.7039 15.3354C11.1953 15.3354 10.0791 15.0042 9.68235 14.7385L8.87343 14.0473H13.938C13.7915 14.1987 13.6194 14.3768 13.4284 14.5816ZM18.9004 12.9797H16.0237C16.0159 12.9797 16.008 12.9797 15.9995 12.9797H3.01418C2.65734 12.9797 2.34306 12.7921 2.16536 12.5105H19.7482C19.5705 12.7921 19.2572 12.9797 18.9004 12.9797Z" fill="black"/>
<path d="M17.2917 8.95637C17.5733 8.86909 17.7305 8.56955 17.6427 8.28815C16.6471 5.09138 13.8261 4.16955 13.7064 4.13136C13.4267 4.04457 13.1271 4.19857 13.0379 4.479C12.9487 4.75896 13.1035 5.05947 13.3837 5.14964C13.4818 5.18155 15.7981 5.95663 16.6227 8.60509C16.6943 8.83404 16.9049 8.98078 17.1326 8.98078C17.1855 8.98103 17.2392 8.97281 17.2917 8.95637Z" fill="black"/>
</g>
<defs>
<clipPath id="clip0_2240_28904">
<rect width="22" height="22" fill="white"/>
</clipPath>
</defs>
</svg>
