<svg width="22" height="24" viewBox="0 0 22 24" fill="none" xmlns="http://www.w3.org/2000/svg">
<path d="M21.4163 5.5252L20.2049 5.11593L19.7956 3.90459C19.729 3.70715 19.5441 3.57445 19.3356 3.5744C19.1273 3.5744 18.9423 3.70706 18.8756 3.9045L18.4663 5.11589L17.2549 5.52515C17.0575 5.59186 16.9248 5.77673 16.9248 5.98514C16.9248 6.19354 17.0575 6.37846 17.2549 6.44512L18.4663 6.85439L18.8756 8.06587C18.9424 8.26331 19.1273 8.39596 19.3356 8.39596C19.544 8.39596 19.729 8.26321 19.7956 8.06587L20.2049 6.85443L21.4164 6.44517C21.6138 6.37846 21.7465 6.19359 21.7465 5.98518C21.7465 5.77678 21.6138 5.5919 21.4163 5.5252ZM19.8777 6.22284C19.7352 6.27107 19.6213 6.38493 19.5732 6.52743L19.3356 7.23075L19.0981 6.52753C19.0499 6.38498 18.9361 6.27107 18.7934 6.22284L18.0901 5.98523L18.7933 5.74762C18.936 5.69948 19.0499 5.58557 19.098 5.44303L19.3356 4.73971L19.5732 5.44293C19.6213 5.58557 19.7353 5.69948 19.8779 5.74762L20.5812 5.98523L19.8777 6.22284Z" fill="black"/>
<path d="M4.7464 21.1291L3.53501 20.7199L3.12574 19.5084C3.05899 19.3109 2.87407 19.1783 2.66571 19.1783C2.4573 19.1783 2.27238 19.311 2.20573 19.5084L1.79646 20.7198L0.584977 21.1291C0.387539 21.1958 0.254883 21.3807 0.254883 21.5891C0.254883 21.7975 0.387539 21.9823 0.585023 22.049L1.79646 22.4583L2.20573 23.6697C2.27238 23.8671 2.45726 23.9998 2.66571 23.9998C2.87407 23.9998 3.05904 23.8672 3.12574 23.6697L3.53501 22.4583L4.7464 22.049C4.94388 21.9823 5.07654 21.7975 5.07654 21.5891C5.07654 21.3807 4.94388 21.1958 4.7464 21.1291ZM3.20805 21.8268C3.06541 21.8749 2.95151 21.9888 2.90337 22.1314L2.66576 22.8347L2.42815 22.1314C2.38001 21.9888 2.2661 21.8749 2.12355 21.8268L1.4202 21.5892L2.12346 21.3515C2.2661 21.3034 2.38005 21.1895 2.42815 21.0469L2.66576 20.3436L2.90332 21.0469C2.95146 21.1895 3.06541 21.3034 3.20805 21.3515L3.91127 21.5892L3.20805 21.8268Z" fill="black"/>
<path d="M19.335 17.9265C19.1408 17.9265 18.9834 18.0839 18.9834 18.278V18.9308C18.9834 19.125 19.1408 19.2824 19.335 19.2824C19.5292 19.2824 19.6865 19.125 19.6865 18.9308V18.278C19.6865 18.0839 19.5291 17.9265 19.335 17.9265Z" fill="black"/>
<path d="M19.335 20.2754C19.1408 20.2754 18.9834 20.4328 18.9834 20.627V21.2797C18.9834 21.4739 19.1408 21.6313 19.335 21.6313C19.5292 21.6313 19.6865 21.4739 19.6865 21.2797V20.627C19.6865 20.4328 19.5291 20.2754 19.335 20.2754Z" fill="black"/>
<path d="M20.8364 19.4274H20.1836C19.9894 19.4274 19.832 19.5848 19.832 19.7789C19.832 19.9731 19.9894 20.1305 20.1836 20.1305H20.8364C21.0306 20.1305 21.1879 19.9731 21.1879 19.7789C21.1879 19.5848 21.0306 19.4274 20.8364 19.4274Z" fill="black"/>
<path d="M18.4868 19.4274H17.834C17.6398 19.4274 17.4824 19.5848 17.4824 19.7789C17.4824 19.9731 17.6398 20.1305 17.834 20.1305H18.4868C18.681 20.1305 18.8383 19.9731 18.8383 19.7789C18.8383 19.5848 18.6809 19.4274 18.4868 19.4274Z" fill="black"/>
<path d="M4.16699 4.50392C4.3612 4.50392 4.51855 4.34651 4.51855 4.15235V3.49957C4.51855 3.30542 4.3612 3.14801 4.16699 3.14801C3.97279 3.14801 3.81543 3.30542 3.81543 3.49957V4.15235C3.81543 4.34651 3.97279 4.50392 4.16699 4.50392Z" fill="black"/>
<path d="M4.16699 6.85292C4.3612 6.85292 4.51855 6.69551 4.51855 6.50135V5.84857C4.51855 5.65442 4.3612 5.49701 4.16699 5.49701C3.97279 5.49701 3.81543 5.65442 3.81543 5.84857V6.50135C3.81543 6.69551 3.97279 6.85292 4.16699 6.85292Z" fill="black"/>
<path d="M5.01465 5.35199H5.66743C5.86163 5.35199 6.01899 5.19458 6.01899 5.00043C6.01899 4.80627 5.86163 4.64886 5.66743 4.64886H5.01465C4.82045 4.64886 4.66309 4.80627 4.66309 5.00043C4.66309 5.19458 4.82045 5.35199 5.01465 5.35199Z" fill="black"/>
<path d="M2.66602 5.35199H3.3188C3.513 5.35199 3.67036 5.19458 3.67036 5.00043C3.67036 4.80627 3.513 4.64886 3.3188 4.64886H2.66602C2.47181 4.64886 2.31445 4.80627 2.31445 5.00043C2.31445 5.19458 2.47186 5.35199 2.66602 5.35199Z" fill="black"/>
<path d="M17.6028 17.5606C17.7632 17.2799 17.9073 16.9888 18.0318 16.6872C18.1058 16.5077 18.0204 16.3022 17.841 16.2281C17.6614 16.154 17.4559 16.2394 17.3818 16.4189C17.2921 16.6364 17.1913 16.8468 17.0821 17.0509H15.8187C16.0864 16.1364 16.2391 15.1505 16.2679 14.1389H17.8921C17.8792 14.3954 17.8525 14.6511 17.8117 14.9026C17.7806 15.0943 17.9107 15.2749 18.1024 15.306C18.1214 15.3091 18.1404 15.3106 18.1591 15.3106C18.3285 15.3106 18.4777 15.1879 18.5058 15.0153C18.5712 14.6118 18.6045 14.1986 18.6045 13.7873C18.6045 12.4253 18.2442 11.146 17.6145 10.0391C17.6025 10.0098 17.5866 9.98255 17.5675 9.9578C16.6019 8.30817 15.0329 7.05319 13.1655 6.49744C13.1486 6.49106 13.1314 6.48577 13.1141 6.48211C12.7713 6.38278 12.4187 6.30722 12.058 6.25678V5.12297C12.058 4.86164 11.8454 4.64906 11.5841 4.64906H11.3516V2.21395H12.8186C13.1145 2.21395 13.3751 2.00409 13.4382 1.71497L13.659 0.703125H14.5754C14.7696 0.703125 14.9269 0.545719 14.9269 0.351562C14.9269 0.157406 14.7696 0 14.5754 0H7.4246C7.2304 0 7.07304 0.157406 7.07304 0.351562C7.07304 0.545719 7.2304 0.703125 7.4246 0.703125H8.34101L8.56184 1.71497C8.62493 2.00409 8.88551 2.21395 9.18143 2.21395H10.6484V4.64906H10.4159C10.1546 4.64906 9.94202 4.86164 9.94202 5.12297V6.25514C8.60688 6.43884 7.35771 6.9712 6.28282 7.82231C6.13062 7.94283 6.10493 8.16398 6.22545 8.31619C6.34596 8.46844 6.56707 8.49408 6.71932 8.37356C6.95102 8.19009 7.19163 8.02298 7.44012 7.87247C7.10355 8.33892 6.80609 8.87184 6.55704 9.46209C6.50744 9.57966 6.46071 9.69947 6.41543 9.82036H5.35174C5.43195 9.70673 5.51566 9.59494 5.60323 9.48525C5.72435 9.33352 5.69955 9.11231 5.54777 8.99119C5.39599 8.87002 5.17479 8.89491 5.05371 9.04664C3.96888 10.4056 3.39551 12.0449 3.39551 13.7873C3.39551 15.1493 3.7557 16.4285 4.38537 17.5353C4.39732 17.5646 4.4133 17.5918 4.43229 17.6165C5.39646 19.2638 6.96232 20.5176 8.82621 21.0745C8.84435 21.0818 8.86343 21.0872 8.88298 21.0915C9.55531 21.2866 10.2656 21.3916 10.9999 21.3916C12.5352 21.3916 14.0147 20.9362 15.2785 20.0746C16.231 19.4252 17.0147 18.5782 17.5842 17.593C17.591 17.5826 17.5971 17.5718 17.6028 17.5606ZM9.06068 0.703125H12.9394L12.7631 1.51083H9.23698L9.06068 0.703125ZM15.0829 17.0508H12.8579C12.9482 16.1547 13.0011 15.171 13.011 14.1389H15.5643C15.5329 15.1678 15.3651 16.1569 15.0829 17.0508ZM12.8846 20.4277C12.6399 20.4967 12.3904 20.5524 12.1368 20.5943C12.4069 19.9013 12.6255 18.9208 12.7769 17.754H14.8298C14.3631 18.8977 13.6952 19.8354 12.8846 20.4277ZM9.1137 20.4264C8.30384 19.834 7.63657 18.8968 7.17016 17.754H9.2231C9.37446 18.9207 9.59313 19.9012 9.86323 20.5943C9.60846 20.5519 9.35824 20.496 9.1137 20.4264ZM6.91704 17.0508C6.63485 16.1569 6.46704 15.1677 6.43568 14.1389H8.98896C8.99881 15.171 9.05182 16.1547 9.14205 17.0508H6.91704ZM4.10754 14.1389H5.73213C5.76091 15.1505 5.91354 16.1364 6.18129 17.0509H4.92059C4.44884 16.1757 4.16041 15.1879 4.10754 14.1389ZM9.40062 11.6798C9.40943 11.6804 9.41815 11.6807 9.42682 11.6807C9.60926 11.6807 9.76348 11.5398 9.77707 11.355C9.79812 11.0696 9.82277 10.7922 9.85066 10.5235H12.1473C12.2409 11.4221 12.2973 12.412 12.3079 13.4358H9.69232C9.69387 13.2826 9.69612 13.1296 9.69959 12.9779C9.70409 12.7837 9.55029 12.6228 9.35623 12.6183C9.1608 12.6138 9.00115 12.7676 8.99665 12.9617C8.99304 13.1188 8.99074 13.2773 8.98919 13.4358H6.43568C6.46699 12.4067 6.63485 11.4175 6.91704 10.5236H9.14388C9.11834 10.7763 9.09555 11.0363 9.07587 11.3034C9.06152 11.4969 9.20693 11.6655 9.40062 11.6798ZM11 6.88594C11.1109 6.88594 11.2212 6.88884 11.331 6.89405C11.6362 7.48055 11.891 8.52506 12.064 9.82041H9.93373C10.1089 8.50988 10.3668 7.47431 10.6693 6.89391C10.7791 6.88875 10.8893 6.88594 11 6.88594ZM12.8848 7.14755C13.6954 7.73958 14.3631 8.67694 14.8298 9.82036H12.7769C12.6256 8.65373 12.4069 7.6733 12.1369 6.98011C12.3911 7.02244 12.6408 7.07817 12.8848 7.14755ZM17.8924 13.4358H16.2679C16.2391 12.4239 16.0864 11.4379 15.8188 10.5235H17.0794C17.5511 11.3987 17.8396 12.3867 17.8924 13.4358ZM15.5643 13.4358H13.011C13.0012 12.4035 12.9482 11.4197 12.8579 10.5235H15.083C15.3652 11.4175 15.5329 12.4067 15.5643 13.4358ZM9.69218 14.1389H12.3078C12.2972 15.1626 12.2408 16.1524 12.1472 17.0509H9.85273C9.75916 16.1524 9.70277 15.1626 9.69218 14.1389ZM16.6441 9.82036H15.5846C15.5392 9.69947 15.4925 9.57966 15.4429 9.46209C15.1953 8.87522 14.8999 8.34497 14.5657 7.88044C15.3852 8.37698 16.0935 9.03928 16.6441 9.82036ZM10.6451 5.35219H11.3549V6.19134C11.2372 6.18591 11.119 6.18281 11 6.18281C10.8813 6.18281 10.763 6.18572 10.6452 6.19106V5.35219H10.6451ZM9.12241 7.1422C9.3657 7.07386 9.61324 7.01902 9.86435 6.97786C9.5974 7.66425 9.37779 8.64056 9.2247 9.82036H7.17016C7.6383 8.67356 8.30857 7.73391 9.12241 7.1422ZM6.1812 10.5235C5.91349 11.4379 5.76087 12.4239 5.73209 13.4357H4.10763C4.15845 12.4037 4.43327 11.4177 4.91599 10.5235H6.1812ZM5.35582 17.754H6.41552C6.46066 17.8744 6.50721 17.9939 6.55662 18.111C6.80435 18.6983 7.0999 19.229 7.43421 19.6939C6.61469 19.1974 5.90641 18.5351 5.35582 17.754ZM10.6693 20.6804C10.3639 20.0942 10.1091 19.0496 9.93598 17.754H12.064C11.8909 19.0491 11.6362 20.0934 11.331 20.6798C11.2211 20.685 11.1109 20.6885 10.9999 20.6885C10.8891 20.6885 10.7789 20.6856 10.6693 20.6804ZM14.5576 19.7052C14.8953 19.2376 15.1936 18.7031 15.4434 18.111C15.4928 17.9939 15.5393 17.8744 15.5845 17.754H16.6507C16.0925 18.5514 15.3774 19.213 14.5576 19.7052Z" fill="black"/>
</svg>
