<svg width="22" height="22" viewBox="0 0 22 22" fill="none" xmlns="http://www.w3.org/2000/svg">
<path d="M21.3555 18.1328H20.2383V11.9023C20.2383 11.5464 19.9497 11.2578 19.5938 11.2578H16.8008V5.47508C17.551 5.20902 18.0898 4.4926 18.0898 3.65234V0.644531C18.0898 0.288578 17.8013 0 17.4453 0H14.8672C14.5112 0 14.2227 0.288578 14.2227 0.644531V1.71875H12.9336V0.644531C12.9336 0.288578 12.645 0 12.2891 0H9.71094C9.35498 0 9.06641 0.288578 9.06641 0.644531V1.71875H7.77734V0.644531C7.77734 0.288578 7.48877 0 7.13281 0H4.55469C4.19873 0 3.91016 0.288578 3.91016 0.644531V3.65234C3.91016 4.4926 4.44903 5.20902 5.19922 5.47508V11.2578H2.40625C2.0503 11.2578 1.76172 11.5464 1.76172 11.9023V18.1328H0.644531C0.288578 18.1328 0 18.4214 0 18.7773V21.3555C0 21.7114 0.288578 22 0.644531 22H21.3555C21.7114 22 22 21.7114 22 21.3555V18.7773C22 18.4214 21.7114 18.1328 21.3555 18.1328ZM5.19922 20.7109H1.28906V19.4219H5.19922V20.7109ZM5.19922 18.1328H3.05078V12.5469H5.19922V18.1328ZM18.9492 12.5469V18.1328H16.8008V12.5469H18.9492ZM10.3555 20.7109H6.48828V19.4219H10.3555V20.7109ZM9.49609 18.1328V15.3398C9.49609 14.5106 10.1707 13.8359 11 13.8359C11.8293 13.8359 12.5039 14.5106 12.5039 15.3398V18.1328H9.49609ZM15.5117 20.7109H11.6445V19.4219H15.5117V20.7109ZM15.5117 18.1328H13.793V15.3398C13.793 13.7998 12.54 12.5469 11 12.5469C9.45996 12.5469 8.20703 13.7998 8.20703 15.3398V18.1328H6.48828V5.58594H15.5117V18.1328ZM16.1562 4.29688H5.84375C5.48836 4.29688 5.19922 4.00774 5.19922 3.65234V1.28906H6.48828V2.36328C6.48828 2.71923 6.77686 3.00781 7.13281 3.00781H9.71094C10.0669 3.00781 10.3555 2.71923 10.3555 2.36328V1.28906H11.6445V2.36328C11.6445 2.71923 11.9331 3.00781 12.2891 3.00781H14.8672C15.2231 3.00781 15.5117 2.71923 15.5117 2.36328V1.28906H16.8008V3.65234C16.8008 4.00774 16.5116 4.29688 16.1562 4.29688ZM20.7109 20.7109H16.8008V19.4219H20.7109V20.7109Z" fill="black"/>
</svg>
