<svg xmlns="http://www.w3.org/2000/svg" width="43" height="42" viewBox="0 0 43 42" fill="none">
<path fill-rule="evenodd" clip-rule="evenodd" d="M12.6016 21.5312V33.2068V21.5312Z" fill="#CED5EA"/>
<path d="M12.6016 21.5312V33.2068" stroke="#CED5EA" stroke-width="1.5" stroke-linecap="square"/>
<path d="M12.6021 36.1249C15.2889 36.1249 17.4669 35.4715 17.4669 34.6655C17.4669 33.8595 15.2889 33.2061 12.6021 33.2061C9.91535 33.2061 7.7373 33.8595 7.7373 34.6655C7.7373 35.4715 9.91535 36.1249 12.6021 36.1249Z" fill="#CED5EA"/>
<path fill-rule="evenodd" clip-rule="evenodd" d="M7.25 11.8018H17.9526V22.0176C17.9526 24.7045 15.7738 26.8827 13.0867 26.8827H12.1159C9.42853 26.8827 7.25 24.7059 7.25 22.0176V11.8018Z" fill="#ECECEC" stroke="#CED4EA" stroke-width="1.5" stroke-linecap="round" stroke-linejoin="round"/>
<path fill-rule="evenodd" clip-rule="evenodd" d="M17.9526 18.0178V22.022C17.9526 24.7062 15.7738 26.8821 13.0867 26.8821H12.1159C9.42853 26.8821 7.25 24.7047 7.25 22.0151V17.9814" fill="#F8003F"/>
<path d="M17.9526 18.0178V22.022C17.9526 24.7062 15.7738 26.8821 13.0867 26.8821H12.1159C9.42853 26.8821 7.25 24.7047 7.25 22.0151V17.9814" stroke="#CED4EA" stroke-width="1.5" stroke-linecap="round"/>
<path d="M12.6013 13.7473C15.5567 13.7473 17.9526 12.8761 17.9526 11.8014C17.9526 10.7267 15.5567 9.85547 12.6013 9.85547C9.64585 9.85547 7.25 10.7267 7.25 11.8014C7.25 12.8761 9.64585 13.7473 12.6013 13.7473Z" fill="#ECECEC" stroke="#CED4EA" stroke-width="1.5" stroke-linecap="round"/>
<path d="M12.6013 20.0715C15.5567 20.0715 17.9526 19.2003 17.9526 18.1256C17.9526 17.0509 15.5567 16.1797 12.6013 16.1797C9.64585 16.1797 7.25 17.0509 7.25 18.1256C7.25 19.2003 9.64585 20.0715 12.6013 20.0715Z" fill="#F8003F" stroke="#CED4EA" stroke-width="1.5" stroke-linecap="round"/>
<path d="M27.3027 18.6621L30.3246 29.9398" stroke="#CED4EA" stroke-width="1.5" stroke-linecap="square"/>
<path d="M31.0805 32.7595C33.6757 32.0642 35.6104 30.8693 35.4018 30.0907C35.1932 29.3122 32.9202 29.2447 30.325 29.9401C27.7298 30.6355 25.7951 31.8304 26.0037 32.6089C26.2123 33.3875 28.4853 33.4549 31.0805 32.7595Z" fill="#CED5EA"/>
<path fill-rule="evenodd" clip-rule="evenodd" d="M19.6143 10.6494L29.9521 7.87938L32.5962 17.7471C33.2916 20.3425 31.7509 23.0103 29.1553 23.7058L28.2176 23.9571C25.6218 24.6526 22.9541 23.1138 22.2583 20.5171L19.6143 10.6494Z" fill="#ECECEC" stroke="#CED4EA" stroke-width="1.5" stroke-linecap="round" stroke-linejoin="round"/>
<path fill-rule="evenodd" clip-rule="evenodd" d="M31.5622 13.8843L32.5985 17.752C33.2932 20.3447 31.7519 23.0103 29.1563 23.7058L28.2186 23.9571C25.6228 24.6526 22.955 23.1133 22.2588 20.5153L21.2148 16.6191" fill="#F8003F"/>
<path d="M31.5622 13.8843L32.5985 17.752C33.2932 20.3447 31.7519 23.0103 29.1563 23.7058L28.2186 23.9571C25.6228 24.6526 22.955 23.1133 22.2588 20.5153L21.2148 16.6191" stroke="#CED4EA" stroke-width="1.5" stroke-linecap="round"/>
<path d="M25.2866 11.1447C28.1413 10.3798 30.23 8.91818 29.9519 7.88009C29.6737 6.84201 27.134 6.62057 24.2793 7.38549C21.4246 8.15042 19.3358 9.61204 19.614 10.6501C19.8921 11.6882 22.4319 11.9096 25.2866 11.1447Z" fill="#ECECEC" stroke="#CED4EA" stroke-width="1.5" stroke-linecap="round"/>
<path d="M26.9243 17.2531C29.779 16.4882 31.8677 15.0266 31.5896 13.9885C31.3114 12.9504 28.7717 12.729 25.917 13.4939C23.0623 14.2588 20.9735 15.7204 21.2517 16.7585C21.5298 17.7966 24.0695 18.018 26.9243 17.2531Z" fill="#F8003F" stroke="#CED4EA" stroke-width="1.5" stroke-linecap="round"/>
<path d="M15.2044 8.53253L14.2314 7.55957" stroke="#FFDD95" stroke-width="1.5" stroke-linecap="round"/>
<path d="M18.7546 8.53253L19.7275 7.55957" stroke="#FFDD95" stroke-width="1.5" stroke-linecap="round"/>
<path d="M17.0312 8.39569V6.1416" stroke="#FFDD95" stroke-width="1.5" stroke-linecap="round"/>
</svg>