<svg xmlns="http://www.w3.org/2000/svg" width="43" height="42" viewBox="0 0 43 42" fill="none">
<path fill-rule="evenodd" clip-rule="evenodd" d="M32.9303 31.6799V36.3199H8.57031V31.6799L9.73031 26.1699L32.3503 26.7499" fill="#FCB2C5"/>
<path d="M32.9303 31.6799V36.3199H8.57031V31.6799L9.73031 26.1699L32.3503 26.7499" stroke="#2C205F" stroke-width="1.5" stroke-linecap="round" stroke-linejoin="round"/>
<path fill-rule="evenodd" clip-rule="evenodd" d="M14.37 28.7797H10.89C10.89 30.061 9.8513 31.0997 8.57 31.0997C7.2887 31.0997 6.25 30.061 6.25 28.7797V26.7497C6.25 25.6286 7.15774 24.7197 8.2777 24.7197H33.2223C34.3422 24.7197 35.25 25.6309 35.25 26.7497V28.7797C35.25 30.061 34.2113 31.0997 32.93 31.0997C31.6487 31.0997 30.61 30.061 30.61 28.7797H27.13C27.13 30.061 26.0913 31.0997 24.81 31.0997C23.5287 31.0997 22.49 30.061 22.49 28.7797H19.01C19.01 30.061 17.9713 31.0997 16.69 31.0997C15.4087 31.0997 14.37 30.061 14.37 28.7797Z" fill="#EAEAEA" stroke="#2C205F" stroke-width="1.5" stroke-linecap="round" stroke-linejoin="round"/>
<path fill-rule="evenodd" clip-rule="evenodd" d="M29.4498 20.0801V24.7201H12.0498V20.0801" fill="#FCB2C5"/>
<path d="M29.4498 20.0801V24.7201H12.0498V20.0801" stroke="#2C205F" stroke-width="1.5" stroke-linecap="round" stroke-linejoin="round"/>
<path fill-rule="evenodd" clip-rule="evenodd" d="M14.3705 19.5004H10.3105V17.4704C10.3105 16.3493 11.2212 15.4404 12.3411 15.4404H29.16C30.2814 15.4404 31.1905 16.3516 31.1905 17.4704V19.5004H27.1305C27.1305 20.7817 26.0918 21.8204 24.8105 21.8204C23.5292 21.8204 22.4905 20.7817 22.4905 19.5004H19.0105C19.0105 20.7817 17.9718 21.8204 16.6905 21.8204C15.4092 21.8204 14.3705 20.7817 14.3705 19.5004Z" fill="#EAEAEA" stroke="#2C205F" stroke-width="1.5" stroke-linecap="round" stroke-linejoin="round"/>
<path fill-rule="evenodd" clip-rule="evenodd" d="M17.771 5.14089C16.2375 5.71486 15.6624 7.87714 16.4865 9.97049C17.3098 12.0615 20.6663 13.5901 20.6663 13.5901C20.6663 13.5901 24.191 12.0615 25.0142 9.97049C25.8383 7.87714 25.2632 5.71486 23.7297 5.14089C22.7645 4.77962 21.6496 5.13369 20.7504 5.96771C20.7504 5.96771 18.7362 4.77962 17.771 5.14089Z" fill="#D94A8C" stroke="#2C1F5F" stroke-width="1.5" stroke-linecap="round" stroke-linejoin="round"/>
<path d="M16.6904 28.7801C17.0107 28.7801 17.2704 28.5204 17.2704 28.2001C17.2704 27.8798 17.0107 27.6201 16.6904 27.6201C16.37 27.6201 16.1104 27.8798 16.1104 28.2001C16.1104 28.5204 16.37 28.7801 16.6904 28.7801Z" stroke="#2C205F" stroke-width="1.5" stroke-linecap="round" stroke-linejoin="round"/>
<path d="M32.9296 28.7801C33.2499 28.7801 33.5096 28.5204 33.5096 28.2001C33.5096 27.8798 33.2499 27.6201 32.9296 27.6201C32.6093 27.6201 32.3496 27.8798 32.3496 28.2001C32.3496 28.5204 32.6093 28.7801 32.9296 28.7801Z" stroke="#2C205F" stroke-width="1.5" stroke-linecap="round" stroke-linejoin="round"/>
<path d="M24.8105 20.0799C25.1308 20.0799 25.3905 19.8202 25.3905 19.4999C25.3905 19.1796 25.1308 18.9199 24.8105 18.9199C24.4901 18.9199 24.2305 19.1796 24.2305 19.4999C24.2305 19.8202 24.4901 20.0799 24.8105 20.0799Z" stroke="#2C205F" stroke-width="1.5" stroke-linecap="round" stroke-linejoin="round"/>
</svg>