<svg width="24" height="24" viewBox="0 0 24 24" fill="none" xmlns="http://www.w3.org/2000/svg">
<path d="M15.2812 9.89062C15.2812 8.46905 14.1247 7.3125 12.7031 7.3125H9.1875C8.92866 7.3125 8.71875 7.52241 8.71875 7.78125V12C8.71875 12.2588 8.92866 12.4688 9.1875 12.4688H12.7031C14.1247 12.4688 15.2812 11.3122 15.2812 9.89062ZM9.65625 8.25H12.7031C13.6078 8.25 14.3438 8.98598 14.3438 9.89062C14.3438 10.7953 13.6078 11.5312 12.7031 11.5312H9.65625V8.25Z" fill="black"/>
<path d="M18.0938 9.89062C18.0938 6.91823 15.6755 4.5 12.7031 4.5H6.375C6.11616 4.5 5.90625 4.70991 5.90625 4.96875V19.0312C5.90625 19.2901 6.11616 19.5 6.375 19.5H9.1875C9.44634 19.5 9.65625 19.2901 9.65625 19.0312V15.2812H12.7031C15.6755 15.2812 18.0938 12.863 18.0938 9.89062ZM9.1875 14.3438C8.92866 14.3438 8.71875 14.5537 8.71875 14.8125V18.5625H6.84375V5.4375H12.7031C15.1586 5.4375 17.1562 7.43517 17.1562 9.89062C17.1562 12.3461 15.1586 14.3438 12.7031 14.3438H9.1875Z" fill="black"/>
<path d="M12 24C12.2589 24 12.4688 23.7901 12.4688 23.5312C12.4688 23.2724 12.2589 23.0625 12 23.0625C11.7411 23.0625 11.5312 23.2724 11.5312 23.5312C11.5312 23.7901 11.7411 24 12 24Z" fill="black"/>
<path d="M22.125 0H1.875C0.841125 0 0 0.841125 0 1.875V22.125C0 23.1589 0.841125 24 1.875 24H9.89062C10.1495 24 10.3594 23.7901 10.3594 23.5312C10.3594 23.2724 10.1495 23.0625 9.89062 23.0625H1.875C1.35806 23.0625 0.9375 22.6419 0.9375 22.125V1.875C0.9375 1.35806 1.35806 0.9375 1.875 0.9375H22.125C22.6419 0.9375 23.0625 1.35806 23.0625 1.875V22.125C23.0625 22.6419 22.6419 23.0625 22.125 23.0625H14.1094C13.8505 23.0625 13.6406 23.2724 13.6406 23.5312C13.6406 23.7901 13.8505 24 14.1094 24H22.125C23.1589 24 24 23.1589 24 22.125V1.875C24 0.841125 23.1589 0 22.125 0Z" fill="black"/>
</svg>
