<svg xmlns="http://www.w3.org/2000/svg" width="17" height="12" viewBox="0 0 17 12" fill="none">
<path fill-rule="evenodd" clip-rule="evenodd" d="M15.1768 12C15.1768 12 16.1768 12 16.1768 11C16.1768 10 15.1768 7 11.1768 7C7.17676 7 6.17676 10 6.17676 11C6.17676 12 7.17676 12 7.17676 12H15.1768ZM7.19876 11H15.1548C15.1594 10.9995 15.1641 10.9988 15.1688 10.998L15.1768 10.996C15.1748 10.732 15.0098 9.966 14.4168 9.276C13.8648 8.629 12.8948 8 11.1768 8C9.45976 8 8.48976 8.63 7.93676 9.276C7.34376 9.966 7.17776 10.733 7.17676 10.996C7.18408 10.9974 7.19141 10.9987 7.19876 11ZM11.1768 5C11.7072 5 12.2159 4.78929 12.591 4.41421C12.966 4.03914 13.1768 3.53043 13.1768 3C13.1768 2.46957 12.966 1.96086 12.591 1.58579C12.2159 1.21071 11.7072 1 11.1768 1C10.6463 1 10.1376 1.21071 9.76254 1.58579C9.38747 1.96086 9.17676 2.46957 9.17676 3C9.17676 3.53043 9.38747 4.03914 9.76254 4.41421C10.1376 4.78929 10.6463 5 11.1768 5ZM14.1768 3C14.1768 3.39397 14.0992 3.78407 13.9484 4.14805C13.7976 4.51203 13.5767 4.84274 13.2981 5.12132C13.0195 5.3999 12.6888 5.62087 12.3248 5.77164C11.9608 5.9224 11.5707 6 11.1768 6C10.7828 6 10.3927 5.9224 10.0287 5.77164C9.66473 5.62087 9.33401 5.3999 9.05544 5.12132C8.77686 4.84274 8.55588 4.51203 8.40512 4.14805C8.25435 3.78407 8.17676 3.39397 8.17676 3C8.17676 2.20435 8.49283 1.44129 9.05544 0.87868C9.61805 0.316071 10.3811 0 11.1768 0C11.9724 0 12.7355 0.316071 13.2981 0.87868C13.8607 1.44129 14.1768 2.20435 14.1768 3ZM7.11276 7.28C6.71274 7.15404 6.30039 7.07123 5.88276 7.033C5.64809 7.01068 5.41248 6.99967 5.17676 7C1.17676 7 0.176758 10 0.176758 11C0.176758 11.667 0.509758 12 1.17676 12H5.39276C5.24451 11.6878 5.17058 11.3455 5.17676 11C5.17676 9.99 5.55376 8.958 6.26676 8.096C6.50976 7.802 6.79276 7.527 7.11276 7.28ZM5.09676 8C3.42876 8.02 2.48176 8.64 1.93676 9.276C1.33976 9.97 1.17676 10.739 1.17676 11H4.17676C4.17676 9.955 4.49976 8.914 5.09676 8ZM1.67676 3.5C1.67676 2.70435 1.99283 1.94129 2.55544 1.37868C3.11805 0.816071 3.88111 0.5 4.67676 0.5C5.47241 0.5 6.23547 0.816071 6.79808 1.37868C7.36069 1.94129 7.67676 2.70435 7.67676 3.5C7.67676 4.29565 7.36069 5.05871 6.79808 5.62132C6.23547 6.18393 5.47241 6.5 4.67676 6.5C3.88111 6.5 3.11805 6.18393 2.55544 5.62132C1.99283 5.05871 1.67676 4.29565 1.67676 3.5ZM4.67676 1.5C4.14632 1.5 3.63762 1.71071 3.26254 2.08579C2.88747 2.46086 2.67676 2.96957 2.67676 3.5C2.67676 4.03043 2.88747 4.53914 3.26254 4.91421C3.63762 5.28929 4.14632 5.5 4.67676 5.5C5.20719 5.5 5.7159 5.28929 6.09097 4.91421C6.46604 4.53914 6.67676 4.03043 6.67676 3.5C6.67676 2.96957 6.46604 2.46086 6.09097 2.08579C5.7159 1.71071 5.20719 1.5 4.67676 1.5Z" fill="#919191"/>
</svg>