<svg xmlns="http://www.w3.org/2000/svg" width="17" height="16" viewBox="0 0 17 16" fill="none">
<path d="M15.1445 10.6655C15.1065 10.5218 15.0388 10.3877 14.9458 10.2718C14.8527 10.1559 14.7365 10.0609 14.6044 9.99276L11.8322 8.55536C11.6085 8.43669 11.3497 8.40242 11.1028 8.45882C10.856 8.51522 10.6377 8.65851 10.4876 8.86257L10.0394 9.477C10.0164 9.50893 9.98247 9.53134 9.94409 9.54001C9.9057 9.54868 9.86548 9.54302 9.83097 9.52409C9.17182 9.14877 8.56836 8.68307 8.03812 8.1405C7.49592 7.60992 7.0305 7.00609 6.65539 6.34655C6.63647 6.31203 6.63081 6.27178 6.63948 6.23337C6.64815 6.19496 6.67054 6.16105 6.70245 6.13801L7.31426 5.68952C7.5182 5.53938 7.6614 5.32089 7.71776 5.0739C7.77412 4.82692 7.73988 4.56789 7.62129 4.34405L6.19373 1.5724C6.12517 1.44011 6.02953 1.32376 5.91302 1.23093C5.79652 1.13811 5.66178 1.07088 5.51758 1.03365C5.37338 0.996411 5.22295 0.989997 5.07611 1.01482C4.92926 1.03965 4.78929 1.09516 4.66532 1.17773L2.92402 2.3438C2.67951 2.5067 2.48208 2.73104 2.35149 2.99433C2.22091 3.25762 2.16177 3.55063 2.17999 3.84399C2.20303 4.34 2.26978 4.83301 2.37944 5.31727C2.8523 7.14262 3.993 9.01954 5.57744 10.6072C7.16187 12.1948 9.03988 13.3318 10.8641 13.8004C11.3481 13.9101 11.8408 13.9769 12.3365 14H12.4485C12.722 13.9994 12.9912 13.9319 13.2326 13.8033C13.474 13.6747 13.6803 13.4889 13.8335 13.2622L14.9944 11.5199C15.0782 11.3961 15.1349 11.256 15.1607 11.1087C15.1866 10.9615 15.1811 10.8104 15.1445 10.6655ZM14.2481 11.0198L13.094 12.7644C13.0174 12.8776 12.9125 12.9687 12.7899 13.0289C12.6673 13.0891 12.5311 13.1162 12.3947 13.1075C11.9551 13.0872 11.518 13.0294 11.0882 12.9348C9.41638 12.4998 7.68628 11.4481 6.2139 9.96809C4.74152 8.48808 3.68598 6.76365 3.25121 5.09079C3.1559 4.66077 3.09742 4.22341 3.07641 3.78344C3.06746 3.64733 3.09442 3.51124 3.1546 3.38884C3.21478 3.26644 3.30606 3.16202 3.41929 3.08605L5.1606 1.92446C5.18711 1.9067 5.21834 1.89733 5.25024 1.89755H5.29282C5.31489 1.90331 5.33549 1.91368 5.35325 1.92798C5.37102 1.94228 5.38556 1.96019 5.39591 1.98052L6.83019 4.75442C6.84802 4.78882 6.85307 4.82843 6.84445 4.86621C6.83583 4.90398 6.81411 4.93747 6.78313 4.96073L6.17132 5.40921C5.96385 5.56366 5.82011 5.78879 5.76726 6.04207C5.7144 6.29534 5.7561 6.55922 5.88446 6.78383C6.29926 7.50933 6.81206 8.17412 7.40838 8.75942C7.99329 9.35615 8.65768 9.86928 9.38276 10.2843C9.60723 10.4127 9.87095 10.4544 10.1241 10.4016C10.3772 10.3487 10.6022 10.2048 10.7565 9.99725L11.2047 9.38282C11.228 9.35182 11.2615 9.33008 11.2992 9.32146C11.337 9.31283 11.3765 9.31789 11.4109 9.33573L14.1831 10.7709C14.2034 10.7815 14.2212 10.7963 14.2355 10.8142C14.2497 10.8322 14.26 10.853 14.2657 10.8752C14.2714 10.8973 14.2724 10.9205 14.2686 10.9431C14.2648 10.9657 14.2563 10.9872 14.2436 11.0063L14.2481 11.0198Z" fill="#919191" stroke="#919191" stroke-width="0.3"/>
</svg>