<svg height="24" viewBox="0 0 60 60" width="24" xmlns="http://www.w3.org/2000/svg"><g id="Icons"><path d="m13 19a1 1 0 0 0 .707-.293l1-1a1 1 0 0 0 -1.414-1.414l-1 1a1 1 0 0 0 .707 1.707z"/><path d="m17.293 17.293-5 5a1 1 0 1 0 1.414 1.414l5-5a1 1 0 0 0 -1.414-1.414z"/><path d="m6 0a2 2 0 0 0 -2 2v56a2 2 0 0 0 2 2h48a2 2 0 0 0 2-2v-56a2 2 0 0 0 -2-2zm0 10h23v44h-23zm48 48h-48v-2h48zm-4.544-19h.544v11h-2.956c.203-3.726.963-9.135 2.412-11zm-4.414 11.01-3.042.006a21.678 21.678 0 0 1 3.5-11.016h1.654c-1.545 3.224-1.992 8.716-2.112 11.01zm-.042-13.01a1 1 0 0 1 0-2h5v2zm4.421-4c-3.738-3.987-5.1-17.035-5.381-23h5.96v23zm-2.5 0h-1.637c-7.1-4.207-8.855-18.939-9.207-23h5.963c.178 3.722 1.07 16.987 4.881 23zm-3.963.815a2.976 2.976 0 0 0 .455 4.72 23.755 23.755 0 0 0 -3.413 11.395 1.953 1.953 0 0 0 .549 1.448 2.023 2.023 0 0 0 1.457.622h7.994v2h-19v-44h3.066c.303 3.854 1.889 18.173 8.892 23.815zm11.042 20.185h-2v-44h2zm-48-46v-6h48v6z"/><path d="m24 12h-14a2 2 0 0 0 -2 2v14a2 2 0 0 0 2 2h14a2 2 0 0 0 2-2v-14a2 2 0 0 0 -2-2zm-14 16v-14h14v14z"/><path d="m23 32h-12a2 2 0 0 0 -2 2v3a2 2 0 0 0 2 2h2v11a2 2 0 0 0 2 2h4a2 2 0 0 0 2-2v-11h2a2 2 0 0 0 2-2v-3a2 2 0 0 0 -2-2zm-10 5h-2v-3h2zm2-3h4v4h-4zm0 6h4v4h-4zm0 10v-4h4v4zm8-13h-2v-3h2z"/></g></svg>