<svg width="650" height="650" viewBox="0 0 650 650" fill="none" xmlns="http://www.w3.org/2000/svg">
<path d="M168.929 367.179H282.786V466.804H168.929V367.179Z" fill="url(#paint0_linear_5825_42970)"/>
<path d="M135.483 299.433L211.625 367.178V466.803L135.483 534.548C126.268 542.447 112 535.865 112 523.732V310.25C112 298.081 126.268 291.534 135.483 299.433Z" fill="url(#paint1_linear_5825_42970)"/>
<path d="M211.626 367.179H268.555V466.804H211.626V367.179Z" fill="url(#paint2_linear_5825_42970)"/>
<path opacity="0.2" d="M126.303 306.657C127.086 306.657 127.798 306.941 128.474 307.51L204.509 375.149L207.569 377.853H272.111V456.129H207.569L204.509 458.834L128.509 526.472C127.798 527.041 127.086 527.29 126.303 527.29C125.129 527.29 122.674 526.436 122.674 523.732V310.25C122.674 309.183 123.03 308.364 123.706 307.724C124.418 307.048 125.378 306.657 126.303 306.657ZM126.303 295.982C118.974 295.982 112 301.746 112 310.25V523.732C112 532.236 118.974 538 126.303 538C129.47 538 132.708 536.932 135.483 534.549L211.625 466.804H282.786V367.179H211.625L135.483 299.434C132.708 297.05 129.47 295.982 126.303 295.982Z" fill="#424242"/>
<path d="M510.498 523.518H292.924C277.198 523.518 264.46 510.78 264.46 495.053V338.713C264.46 322.987 277.198 310.249 292.924 310.249H510.498C526.224 310.249 538.962 322.987 538.962 338.713V495.053C538.962 510.78 526.224 523.518 510.498 523.518Z" fill="url(#paint3_radial_5825_42970)"/>
<path d="M292.642 483.384H405.752C408.563 483.384 410.876 485.696 410.876 488.507V490.144C410.876 492.955 408.563 495.268 405.752 495.268H292.642C289.831 495.268 287.519 492.955 287.519 490.144V488.507C287.554 485.696 289.831 483.384 292.642 483.384Z" fill="#D5AFFF"/>
<path d="M292.642 462.036H405.752C408.563 462.036 410.876 464.349 410.876 467.16V468.796C410.876 471.607 408.563 473.92 405.752 473.92H292.642C289.831 473.92 287.519 471.607 287.519 468.796V467.16C287.554 464.349 289.831 462.036 292.642 462.036Z" fill="#D5AFFF"/>
<path d="M292.642 440.688H405.752C408.563 440.688 410.876 443 410.876 445.811V447.448C410.876 450.259 408.563 452.571 405.752 452.571H292.642C289.831 452.571 287.519 450.259 287.519 447.448V445.811C287.554 443 289.831 440.688 292.642 440.688Z" fill="#D5AFFF"/>
<path opacity="0.2" d="M510.498 320.923C520.318 320.923 528.288 328.893 528.288 338.713V495.053C528.288 504.873 520.318 512.843 510.498 512.843H292.924C283.104 512.843 275.134 504.873 275.134 495.053V338.713C275.134 328.893 283.104 320.923 292.924 320.923H510.498ZM510.498 310.249H292.924C277.198 310.249 264.46 322.987 264.46 338.713V495.053C264.46 510.78 277.198 523.518 292.924 523.518H510.498C526.224 523.518 538.962 510.78 538.962 495.053V338.713C538.962 322.987 526.224 310.249 510.498 310.249Z" fill="#424242"/>
<path d="M268.553 111C205.683 111 154.696 161.987 154.696 224.857C154.696 287.727 205.683 338.714 268.553 338.714C331.424 338.714 382.41 287.727 382.41 224.857C382.41 161.987 331.459 111 268.553 111ZM284.031 178.496L295.203 142.24C295.843 140.176 298.049 139.037 300.078 139.784C311.997 144.196 323.169 151.135 332.705 160.706C343.628 171.629 351.135 184.616 355.334 198.421C355.939 200.413 354.729 202.513 352.736 203.082L316.444 213.72C314.488 214.29 312.424 213.222 311.819 211.301C309.72 204.541 306.019 198.136 300.647 192.799C296.342 188.494 291.396 185.292 286.13 183.086C284.351 182.339 283.461 180.346 284.031 178.496ZM184.335 191.127C188.747 180.061 195.471 169.672 204.438 160.706C214.115 151.028 225.43 144.019 237.456 139.642C239.484 138.895 241.726 140.105 242.331 142.168L253.005 178.603C253.538 180.417 252.649 182.374 250.905 183.121C245.675 185.327 240.765 188.53 236.495 192.799C232.724 196.571 229.771 200.84 227.6 205.395C226.818 207.067 224.861 207.814 223.117 207.28L186.754 196.073C184.691 195.432 183.516 193.155 184.335 191.127ZM255.175 272.037L244.003 308.222C243.398 310.25 241.228 311.388 239.235 310.712C226.533 306.372 214.578 299.149 204.438 289.008C195.009 279.58 188.106 268.55 183.694 256.808C182.947 254.78 184.121 252.539 186.22 251.898L222.619 241.224C224.434 240.69 226.426 241.509 227.173 243.252C229.344 248.198 232.439 252.859 236.531 256.915C241.334 261.718 246.992 265.205 252.969 267.411C254.784 268.123 255.744 270.186 255.175 272.037ZM249.696 243.715C239.271 233.29 239.271 216.389 249.696 205.964C260.121 195.539 277.021 195.539 287.446 205.964C297.872 216.389 297.872 233.29 287.446 243.715C277.021 254.14 260.121 254.14 249.696 243.715ZM355.156 251.934C350.922 265.49 343.45 278.263 332.74 289.008C322.066 299.682 309.364 307.119 295.879 311.353C293.887 311.993 291.752 310.784 291.182 308.791L280.544 272.464C279.975 270.542 281.006 268.479 282.928 267.838C289.403 265.703 295.523 262.074 300.682 256.915C306.019 251.578 309.72 245.209 311.819 238.484C312.424 236.527 314.559 235.46 316.516 236.065L352.665 247.237C354.587 247.878 355.761 249.977 355.156 251.934Z" fill="url(#paint4_radial_5825_42970)"/>
<path d="M460.687 167.929C417.457 167.929 382.41 202.975 382.41 246.205C382.41 289.436 417.457 324.482 460.687 324.482C503.917 324.482 538.964 289.436 538.964 246.205C538.964 202.975 503.917 167.929 460.687 167.929ZM471.325 214.325L479.011 189.419C479.438 187.996 480.968 187.213 482.355 187.711C490.539 190.736 498.224 195.503 504.806 202.086C512.314 209.593 517.473 218.524 520.355 227.988C520.782 229.34 519.964 230.799 518.576 231.191L493.634 238.52C492.282 238.911 490.859 238.2 490.432 236.848C488.973 232.187 486.447 227.81 482.747 224.11C479.794 221.157 476.378 218.951 472.749 217.421C471.539 216.958 470.934 215.606 471.325 214.325ZM402.762 223.007C405.822 215.393 410.412 208.277 416.567 202.086C423.221 195.432 430.977 190.629 439.268 187.605C440.655 187.107 442.185 187.925 442.612 189.348L449.942 214.397C450.297 215.642 449.693 216.994 448.518 217.492C444.925 219.022 441.545 221.192 438.627 224.146C436.03 226.743 434.002 229.696 432.507 232.827C431.974 233.966 430.622 234.5 429.447 234.108L404.434 226.387C403.011 225.96 402.228 224.395 402.762 223.007ZM451.472 278.655L443.786 303.525C443.359 304.913 441.865 305.696 440.513 305.233C431.76 302.244 423.541 297.263 416.603 290.289C410.127 283.814 405.359 276.235 402.335 268.158C401.801 266.771 402.62 265.205 404.079 264.778L429.127 257.449C430.372 257.093 431.725 257.662 432.258 258.836C433.753 262.252 435.887 265.454 438.698 268.23C442.007 271.539 445.885 273.923 450.013 275.452C451.223 275.951 451.863 277.374 451.472 278.655ZM448.127 258.801C441.189 251.863 441.189 240.584 448.127 233.646C455.065 226.707 466.344 226.707 473.282 233.646C480.22 240.584 480.22 251.863 473.282 258.801C466.309 265.739 455.065 265.739 448.127 258.801ZM520.213 264.814C517.295 274.136 512.172 282.924 504.806 290.289C497.477 297.619 488.724 302.743 479.473 305.66C478.086 306.087 476.627 305.269 476.235 303.881L468.906 278.904C468.515 277.587 469.226 276.164 470.543 275.737C474.99 274.278 479.189 271.788 482.747 268.23C486.411 264.565 488.973 260.189 490.396 255.563C490.823 254.211 492.282 253.499 493.599 253.891L518.434 261.576C519.821 262.039 520.64 263.462 520.213 264.814Z" fill="url(#paint5_radial_5825_42970)"/>
<g opacity="0.2">
<path d="M503.383 452.571C507.297 452.571 510.5 455.773 510.5 459.687C510.5 463.601 507.297 466.803 503.383 466.803C499.47 466.803 496.267 463.601 496.267 459.687C496.267 455.773 499.47 452.571 503.383 452.571ZM503.383 445.455C495.52 445.455 489.151 451.824 489.151 459.687C489.151 467.55 495.52 473.919 503.383 473.919C511.247 473.919 517.616 467.55 517.616 459.687C517.616 451.824 511.247 445.455 503.383 445.455Z" fill="#424242"/>
<path d="M503.383 481.036C507.297 481.036 510.5 484.238 510.5 488.152C510.5 492.066 507.297 495.268 503.383 495.268C499.47 495.268 496.267 492.066 496.267 488.152C496.267 484.238 499.47 481.036 503.383 481.036ZM503.383 473.92C495.52 473.92 489.151 480.289 489.151 488.152C489.151 496.015 495.52 502.384 503.383 502.384C511.247 502.384 517.616 496.015 517.616 488.152C517.616 480.289 511.247 473.92 503.383 473.92Z" fill="#424242"/>
</g>
<path d="M503.384 466.803C507.314 466.803 510.5 463.617 510.5 459.687C510.5 455.757 507.314 452.571 503.384 452.571C499.454 452.571 496.268 455.757 496.268 459.687C496.268 463.617 499.454 466.803 503.384 466.803Z" fill="url(#paint6_linear_5825_42970)"/>
<path d="M503.384 495.267C507.314 495.267 510.5 492.081 510.5 488.151C510.5 484.221 507.314 481.035 503.384 481.035C499.454 481.035 496.268 484.221 496.268 488.151C496.268 492.081 499.454 495.267 503.384 495.267Z" fill="url(#paint7_linear_5825_42970)"/>
<path opacity="0.2" d="M268.552 121.674C325.445 121.674 371.735 167.964 371.735 224.857C371.735 281.75 325.445 328.04 268.552 328.04C211.659 328.04 165.369 281.75 165.369 224.857C165.369 167.964 211.695 121.674 268.552 121.674ZM268.552 111C205.682 111 154.695 161.987 154.695 224.857C154.695 287.727 205.682 338.714 268.552 338.714C331.423 338.714 382.409 287.727 382.409 224.857C382.409 161.987 331.458 111 268.552 111Z" fill="#424242"/>
<path opacity="0.2" d="M460.685 178.603C497.973 178.603 528.288 208.917 528.288 246.205C528.288 283.494 497.973 313.808 460.685 313.808C423.397 313.808 393.082 283.494 393.082 246.205C393.082 208.917 423.432 178.603 460.685 178.603ZM460.685 167.929C417.455 167.929 382.408 202.975 382.408 246.205C382.408 289.436 417.455 324.482 460.685 324.482C503.915 324.482 538.962 289.436 538.962 246.205C538.962 202.975 503.915 167.929 460.685 167.929Z" fill="#424242"/>
<path opacity="0.2" d="M238.664 139.429C240.301 139.429 241.795 140.532 242.293 142.169L252.967 178.603C253.501 180.418 252.612 182.375 250.868 183.122C245.638 185.328 240.728 188.53 236.458 192.8C232.687 196.571 229.734 200.841 227.563 205.431C226.958 206.747 225.606 207.494 224.219 207.494C223.827 207.494 223.471 207.423 223.08 207.316L186.717 196.109C184.618 195.468 183.479 193.191 184.297 191.163C188.709 180.097 195.434 169.708 204.4 160.742C214.078 151.064 225.393 144.055 237.419 139.678C237.846 139.5 238.273 139.429 238.664 139.429ZM298.831 139.571C299.257 139.571 299.684 139.643 300.076 139.785C311.995 144.197 323.167 151.135 332.703 160.706C343.626 171.629 351.134 184.616 355.332 198.421C355.937 200.414 354.727 202.513 352.735 203.082L316.443 213.721C316.087 213.828 315.731 213.863 315.375 213.863C313.774 213.863 312.315 212.867 311.817 211.266C309.718 204.506 306.018 198.101 300.645 192.764C296.34 188.459 291.394 185.257 286.128 183.051C284.349 182.303 283.495 180.311 284.029 178.496L295.201 142.24C295.735 140.639 297.229 139.571 298.831 139.571ZM268.552 198.172C275.383 198.172 282.215 200.77 287.409 206C297.834 216.425 297.834 233.326 287.409 243.751C282.215 248.945 275.383 251.578 268.552 251.578C261.72 251.578 254.889 248.981 249.694 243.751C239.269 233.326 239.269 216.425 249.694 206C254.924 200.77 261.756 198.172 268.552 198.172ZM315.34 235.923C315.696 235.923 316.087 235.994 316.478 236.101L352.628 247.273C354.62 247.878 355.759 249.977 355.154 251.97C350.92 265.526 343.448 278.299 332.739 289.044C322.064 299.718 309.362 307.155 295.877 311.389C295.522 311.496 295.166 311.567 294.774 311.567C293.138 311.567 291.643 310.464 291.145 308.827L280.507 272.5C279.937 270.578 280.969 268.515 282.891 267.874C289.366 265.739 295.486 262.11 300.645 256.951C305.982 251.614 309.683 245.245 311.782 238.52C312.28 236.919 313.774 235.923 315.34 235.923ZM223.685 241.082C225.144 241.082 226.531 241.9 227.136 243.253C229.307 248.198 232.402 252.859 236.494 256.915C241.297 261.719 246.954 265.206 252.932 267.412C254.782 268.088 255.707 270.151 255.138 272.037L244.001 308.222C243.503 309.859 242.009 310.926 240.408 310.926C240.016 310.926 239.625 310.855 239.233 310.748C226.531 306.408 214.576 299.185 204.436 289.044C195.007 279.616 188.105 268.586 183.693 256.844C182.945 254.816 184.12 252.575 186.219 251.934L222.617 241.26C222.938 241.153 223.329 241.082 223.685 241.082ZM238.664 135.871C237.81 135.871 236.992 136.013 236.209 136.298C223.222 141.03 211.694 148.395 201.874 158.18C192.766 167.289 185.756 177.927 180.988 189.775C180.241 191.625 180.312 193.76 181.202 195.575C182.091 197.425 183.728 198.848 185.685 199.453L222.048 210.661C222.76 210.874 223.507 210.981 224.219 210.981C227.029 210.981 229.591 209.38 230.765 206.889C232.829 202.549 235.569 198.67 238.949 195.255C242.756 191.448 247.203 188.459 252.22 186.36C255.636 184.936 257.379 181.165 256.348 177.571L245.674 141.137C244.82 138.041 241.902 135.871 238.664 135.871ZM298.831 136.013C295.664 136.013 292.782 138.148 291.821 141.208L280.649 177.464C279.546 181.094 281.289 184.901 284.776 186.36C289.829 188.459 294.312 191.483 298.155 195.326C302.958 200.129 306.409 205.858 308.437 212.369C309.398 215.393 312.173 217.457 315.411 217.457C316.123 217.457 316.799 217.35 317.475 217.172L353.767 206.534C355.652 206 357.253 204.683 358.179 202.94C359.104 201.232 359.317 199.24 358.748 197.389C354.265 182.659 346.152 169.139 335.229 158.216C325.551 148.538 314.13 141.208 301.321 136.476C300.503 136.156 299.684 136.013 298.831 136.013ZM268.552 194.614C260.475 194.614 252.896 197.745 247.168 203.474C235.391 215.251 235.391 234.464 247.168 246.241C252.896 251.97 260.475 255.101 268.552 255.101C276.628 255.101 284.207 251.97 289.935 246.241C301.713 234.464 301.713 215.251 289.935 203.474C284.243 197.781 276.664 194.614 268.552 194.614ZM315.34 232.365C312.138 232.365 309.327 234.393 308.402 237.453C306.374 243.929 302.922 249.657 298.119 254.425C293.493 259.05 288.014 262.43 281.752 264.494C278.016 265.739 275.952 269.689 277.091 273.496L287.729 309.823C288.655 312.954 291.537 315.125 294.774 315.125C295.522 315.125 296.233 315.018 296.945 314.805C311.319 310.286 324.555 302.245 335.229 291.571C345.974 280.825 354.051 267.518 358.534 253.037C359.104 251.187 358.926 249.23 358.001 247.522C357.076 245.779 355.546 244.498 353.624 243.893L317.51 232.685C316.834 232.472 316.087 232.365 315.34 232.365ZM223.685 237.524C222.973 237.524 222.262 237.631 221.586 237.844L185.187 248.518C183.23 249.088 181.558 250.475 180.668 252.326C179.779 254.14 179.672 256.239 180.348 258.089C185.08 270.721 192.339 281.964 201.91 291.535C212.228 301.853 224.396 309.432 238.095 314.093C238.842 314.342 239.625 314.484 240.408 314.484C243.574 314.484 246.456 312.349 247.417 309.29L258.589 273.104C259.728 269.368 257.806 265.419 254.213 264.103C248.484 262.003 243.396 258.766 239.056 254.425C235.426 250.796 232.544 246.561 230.445 241.829C229.235 239.232 226.602 237.524 223.685 237.524Z" fill="#424242"/>
<path opacity="0.2" d="M440.156 187.464C441.259 187.464 442.326 188.211 442.646 189.35L449.976 214.399C450.332 215.644 449.727 216.996 448.553 217.494C444.959 219.024 441.579 221.194 438.661 224.148C436.064 226.745 434.036 229.698 432.542 232.829C432.115 233.719 431.19 234.252 430.229 234.252C429.98 234.252 429.695 234.217 429.446 234.146L404.433 226.425C403.01 225.998 402.192 224.397 402.761 223.009C405.821 215.395 410.411 208.279 416.566 202.088C423.22 195.434 430.976 190.631 439.266 187.607C439.586 187.535 439.871 187.464 440.156 187.464ZM481.5 187.571C481.785 187.571 482.069 187.607 482.354 187.713C490.538 190.738 498.223 195.505 504.805 202.088C512.313 209.595 517.472 218.526 520.354 227.99C520.781 229.342 519.962 230.801 518.575 231.193L493.633 238.522C493.384 238.593 493.135 238.629 492.886 238.629C491.783 238.629 490.787 237.953 490.431 236.85C488.972 232.189 486.446 227.812 482.745 224.112C479.792 221.159 476.377 218.953 472.747 217.423C471.538 216.925 470.933 215.537 471.324 214.292L479.009 189.386C479.365 188.318 480.397 187.571 481.5 187.571ZM460.686 228.417C465.24 228.417 469.794 230.161 473.281 233.612C480.219 240.55 480.219 251.829 473.281 258.767C469.794 262.254 465.24 263.998 460.686 263.998C456.131 263.998 451.577 262.254 448.09 258.803C441.152 251.865 441.152 240.586 448.09 233.648C451.577 230.161 456.131 228.417 460.686 228.417ZM492.85 253.822C493.099 253.822 493.348 253.857 493.633 253.928L518.468 261.614C519.82 262.041 520.638 263.464 520.212 264.852C517.294 274.174 512.17 282.962 504.805 290.327C497.476 297.657 488.723 302.78 479.472 305.698C479.223 305.769 478.974 305.804 478.725 305.804C477.622 305.804 476.554 305.057 476.234 303.919L468.905 278.941C468.513 277.625 469.225 276.202 470.541 275.775C474.989 274.316 479.187 271.825 482.745 268.267C486.41 264.602 488.972 260.226 490.395 255.601C490.751 254.498 491.747 253.822 492.85 253.822ZM429.837 257.38C430.834 257.38 431.794 257.949 432.221 258.874C433.716 262.29 435.851 265.492 438.661 268.267C441.97 271.576 445.849 273.96 449.976 275.49C451.257 275.953 451.897 277.376 451.506 278.657L443.821 303.527C443.465 304.63 442.433 305.377 441.33 305.377C441.081 305.377 440.796 305.342 440.512 305.235C431.759 302.246 423.54 297.265 416.602 290.291C410.126 283.816 405.358 276.237 402.334 268.16C401.8 266.773 402.619 265.207 404.077 264.78L429.126 257.451C429.339 257.415 429.588 257.38 429.837 257.38ZM440.156 183.906C439.444 183.906 438.768 184.013 438.092 184.262C429.019 187.571 420.942 192.73 414.075 199.562C407.707 205.93 402.796 213.367 399.487 221.657C398.847 223.223 398.918 225.002 399.665 226.531C400.413 228.097 401.765 229.271 403.437 229.769L428.45 237.49C429.055 237.668 429.66 237.775 430.264 237.775C432.613 237.775 434.783 236.423 435.779 234.324C437.131 231.477 438.946 228.88 441.188 226.638C443.714 224.112 446.667 222.155 449.94 220.767C452.787 219.558 454.281 216.391 453.427 213.402L446.098 188.354C445.279 185.756 442.86 183.906 440.156 183.906ZM481.5 184.013C478.832 184.013 476.412 185.792 475.629 188.389L467.944 213.296C467.019 216.356 468.478 219.558 471.395 220.767C474.74 222.155 477.693 224.148 480.255 226.674C483.421 229.84 485.734 233.648 487.051 237.953C487.833 240.515 490.182 242.222 492.886 242.222C493.491 242.222 494.06 242.151 494.629 241.973L519.571 234.644C521.137 234.181 522.489 233.078 523.271 231.655C524.054 230.196 524.232 228.56 523.734 226.994C520.603 216.711 514.91 207.211 507.296 199.597C500.5 192.801 492.53 187.713 483.564 184.404C482.923 184.155 482.212 184.013 481.5 184.013ZM460.686 224.859C454.993 224.859 449.62 227.065 445.6 231.121C437.274 239.447 437.274 253.003 445.6 261.293C449.62 265.35 454.993 267.556 460.686 267.556C466.378 267.556 471.751 265.35 475.772 261.293C484.097 252.968 484.097 239.412 475.772 231.121C471.751 227.101 466.378 224.859 460.686 224.859ZM492.85 250.264C490.146 250.264 487.798 251.971 487.015 254.533C485.663 258.803 483.386 262.574 480.219 265.741C477.159 268.801 473.53 271.042 469.403 272.395C466.272 273.426 464.528 276.735 465.489 279.938L472.819 304.915C473.601 307.548 476.021 309.363 478.725 309.363C479.33 309.363 479.935 309.256 480.539 309.078C490.573 305.911 499.86 300.29 507.331 292.818C514.839 285.31 520.496 275.988 523.627 265.883C524.125 264.318 523.947 262.681 523.2 261.222C522.417 259.764 521.137 258.661 519.535 258.198L494.7 250.513C494.096 250.37 493.455 250.264 492.85 250.264ZM429.837 253.822C429.233 253.822 428.663 253.893 428.058 254.071L403.01 261.4C401.373 261.898 399.986 263.037 399.203 264.567C398.456 266.097 398.349 267.84 398.954 269.406C402.263 278.23 407.351 286.093 414.04 292.818C421.227 300.005 429.766 305.342 439.337 308.58C439.978 308.793 440.618 308.9 441.294 308.9C443.963 308.9 446.382 307.121 447.165 304.559L454.85 279.688C455.811 276.557 454.174 273.248 451.15 272.11C447.379 270.722 443.998 268.587 441.152 265.705C438.768 263.322 436.847 260.511 435.459 257.38C434.499 255.245 432.293 253.822 429.837 253.822Z" fill="#424242"/>
<defs>
<linearGradient id="paint0_linear_5825_42970" x1="225.85" y1="368.509" x2="225.85" y2="465.594" gradientUnits="userSpaceOnUse">
<stop stop-color="#9747FF"/>
<stop offset="0.9957" stop-color="#724C9B"/>
</linearGradient>
<linearGradient id="paint1_linear_5825_42970" x1="161.809" y1="315.142" x2="161.809" y2="506.404" gradientUnits="userSpaceOnUse">
<stop stop-color="#9747FF"/>
<stop offset="0.9957" stop-color="#724C9B"/>
</linearGradient>
<linearGradient id="paint2_linear_5825_42970" x1="260.955" y1="416.984" x2="215.042" y2="416.984" gradientUnits="userSpaceOnUse">
<stop stop-color="#724C9B"/>
<stop offset="1" stop-color="#724C9B" stop-opacity="0"/>
</linearGradient>
<radialGradient id="paint3_radial_5825_42970" cx="0" cy="0" r="1" gradientUnits="userSpaceOnUse" gradientTransform="translate(401.206 314.354) scale(216.459 219.917)">
<stop stop-color="#9747FF"/>
<stop offset="1" stop-color="#724C9B"/>
</radialGradient>
<radialGradient id="paint4_radial_5825_42970" cx="0" cy="0" r="1" gradientUnits="userSpaceOnUse" gradientTransform="translate(269.905 116.795) scale(219.769)">
<stop stop-color="#9747FF"/>
<stop offset="0.9891" stop-color="#724C9B"/>
</radialGradient>
<radialGradient id="paint5_radial_5825_42970" cx="0" cy="0" r="1" gradientUnits="userSpaceOnUse" gradientTransform="translate(461.576 170.608) scale(154.319)">
<stop stop-color="#9747FF"/>
<stop offset="0.9891" stop-color="#724C9B"/>
</radialGradient>
<linearGradient id="paint6_linear_5825_42970" x1="503.384" y1="451.675" x2="503.384" y2="465.949" gradientUnits="userSpaceOnUse">
<stop stop-color="#FF1744"/>
<stop offset="1" stop-color="#D50000"/>
</linearGradient>
<linearGradient id="paint7_linear_5825_42970" x1="503.384" y1="480.146" x2="503.384" y2="494.413" gradientUnits="userSpaceOnUse">
<stop stop-color="#76FF03"/>
<stop offset="1" stop-color="#64DD17"/>
</linearGradient>
</defs>
</svg>
