<svg width="10" height="10" viewBox="0 0 10 10" fill="none" xmlns="http://www.w3.org/2000/svg">
<path d="M9.97391 3.77888C9.90845 3.56758 9.72885 3.41751 9.51637 3.39753L6.6301 3.12405L5.48879 0.336529C5.40464 0.132239 5.21298 0 5.00004 0C4.7871 0 4.59544 0.132239 4.51129 0.337006L3.36998 3.12405L0.483256 3.39753C0.271154 3.41799 0.0920114 3.56758 0.0261682 3.77888C-0.0396751 3.99018 0.0211327 4.22193 0.181583 4.36802L2.36326 6.36458L1.71993 9.32169C1.67286 9.53911 1.75373 9.76386 1.92662 9.89427C2.01955 9.96433 2.12827 10 2.23791 10C2.33244 10 2.4262 9.97341 2.51036 9.92086L5.00004 8.36815L7.48881 9.92086C7.67093 10.0352 7.9005 10.0248 8.073 9.89427C8.24597 9.76347 8.32676 9.53864 8.27969 9.32169L7.63636 6.36458L9.81804 4.36842C9.97849 4.22193 10.0398 3.99057 9.97391 3.77888Z" fill="black"/>
</svg>
