<svg width="18" height="18" viewBox="0 0 18 18" fill="none" xmlns="http://www.w3.org/2000/svg">
<path d="M17.7072 16.293L13.6012 12.1865C14.6647 10.7655 15.1504 8.99439 14.9605 7.22967C14.7706 5.46496 13.9193 3.83769 12.5778 2.67545C11.2364 1.51321 9.50445 0.902283 7.73068 0.965662C5.95692 1.02904 4.27301 1.76202 3.01795 3.01704C1.76288 4.27206 1.02985 5.95594 0.966404 7.7297C0.902962 9.50347 1.51382 11.2354 2.67602 12.5769C3.83822 13.9184 5.46545 14.7698 7.23016 14.9597C8.99486 15.1497 10.766 14.664 12.1871 13.6006L16.2932 17.707C16.4813 17.8917 16.7347 17.9946 16.9983 17.9934C17.2619 17.9923 17.5144 17.887 17.7008 17.7006C17.8872 17.5142 17.9925 17.2617 17.9937 16.9981C17.9948 16.7345 17.8919 16.4811 17.7072 16.293ZM4.46453 11.5351C3.64683 10.7172 3.13803 9.64098 3.02483 8.48995C2.91162 7.33891 3.20101 6.18423 3.8437 5.22263C4.48638 4.26104 5.44259 3.55203 6.54941 3.2164C7.65624 2.88076 8.84519 2.93928 9.91371 3.38197C10.9822 3.82467 11.8642 4.62415 12.4093 5.64421C12.9545 6.66426 13.1291 7.84178 12.9034 8.97614C12.6777 10.1105 12.0657 11.1315 11.1716 11.8652C10.2776 12.5989 9.15676 13 8.00017 13C7.34326 13.0017 6.69251 12.8732 6.08562 12.6217C5.47872 12.3703 4.92773 12.001 4.46453 11.5351Z" fill="#D94A8C"/>
</svg>
