<svg width="32" height="32" viewBox="0 0 32 32" fill="none" xmlns="http://www.w3.org/2000/svg">
<g id="stars">
<path id="Vector" d="M4.13294 15.0667L8.93294 19.4667L7.5996 25.6C7.46627 26.4 7.73294 27.2 8.3996 27.6C8.66627 27.8667 9.06627 28 9.46627 28C9.73294 28 9.9996 28 10.2663 27.8667C10.2663 27.8667 10.3996 27.8667 10.3996 27.7333L15.8663 24.6667L21.3329 27.7333C21.3329 27.7333 21.4663 27.7333 21.4663 27.8667C22.1329 28.1333 22.9329 28.1333 23.4663 27.7333C24.1329 27.3333 24.3996 26.5333 24.2663 25.7333L22.9329 19.6C23.4663 19.2 24.2663 18.4 25.0663 17.6L27.5996 15.3333L27.7329 15.2C28.2663 14.6667 28.3996 13.8667 28.1329 13.2C27.8663 12.5333 27.3329 12 26.5329 11.8667H26.3996L20.1329 11.2L17.5996 5.46667C17.5996 5.46667 17.5996 5.33333 17.4663 5.33333C17.3329 4.4 16.6663 4 15.9996 4C15.3329 4 14.6663 4.4 14.2663 5.06667C14.2663 5.06667 14.2663 5.2 14.1329 5.2L11.5996 10.9333L5.33294 11.6H5.1996C4.53294 11.7333 3.86627 12.2667 3.5996 12.9333C3.46627 13.7333 3.5996 14.5333 4.13294 15.0667Z" fill="#FFD056"/>
</g>
</svg>
