<svg xmlns="http://www.w3.org/2000/svg" width="72" height="54" viewBox="0 0 72 54" fill="none">
<path d="M32.7982 8.56397L32.8031 8.55887C32.7913 8.53922 32.7796 8.51956 32.7679 8.49991C32.6645 8.28629 32.541 8.08825 32.3968 7.90679C29.2813 3.14569 23.9016 0 17.7869 0C8.15144 0 0.340332 7.81108 0.340332 17.4466C0.340332 23.6448 3.62943 29.0585 8.50035 32.1533C11.5841 34.219 18.7957 31.0546 25.1208 24.7295C31.1526 18.6977 34.3101 11.8594 32.7982 8.56397Z" fill="#F6BF3F"/>
<path d="M32.7982 8.56397L32.8031 8.55887C32.7913 8.53922 32.7796 8.51956 32.7679 8.49991C32.6645 8.28629 32.541 8.08825 32.3968 7.90679C29.2813 3.14569 23.9016 0 17.7869 0C8.15144 0 0.340332 7.81108 0.340332 17.4466C0.340332 23.6448 3.62943 29.0585 8.50035 32.1533C11.5841 34.219 18.7957 31.0546 25.1208 24.7295C31.1526 18.6977 34.3101 11.8594 32.7982 8.56397Z" fill="url(#paint0_radial_1459_39522)"/>
<path d="M32.7982 8.56397L32.8031 8.55887C32.7913 8.53922 32.7796 8.51956 32.7679 8.49991C32.6645 8.28629 32.541 8.08825 32.3968 7.90679C29.2813 3.14569 23.9016 0 17.7869 0C8.15144 0 0.340332 7.81108 0.340332 17.4466C0.340332 23.6448 3.62943 29.0585 8.50035 32.1533C11.5841 34.219 18.7957 31.0546 25.1208 24.7295C31.1526 18.6977 34.3101 11.8594 32.7982 8.56397Z" fill="url(#paint1_radial_1459_39522)"/>
<path d="M32.7982 8.56397L32.8031 8.55887C32.7913 8.53922 32.7796 8.51956 32.7679 8.49991C32.6645 8.28629 32.541 8.08825 32.3968 7.90679C29.2813 3.14569 23.9016 0 17.7869 0C8.15144 0 0.340332 7.81108 0.340332 17.4466C0.340332 23.6448 3.62943 29.0585 8.50035 32.1533C11.5841 34.219 18.7957 31.0546 25.1208 24.7295C31.1526 18.6977 34.3101 11.8594 32.7982 8.56397Z" fill="url(#paint2_radial_1459_39522)"/>
<path d="M39.2016 8.56397L39.1968 8.55887C39.2083 8.53922 39.22 8.51956 39.232 8.49991C39.3354 8.28629 39.4589 8.08825 39.6031 7.90679C42.7185 3.14569 48.0983 0 54.2131 0C63.8483 0 71.6595 7.81108 71.6595 17.4466C71.6595 23.6448 68.4752 29.3313 63.6043 32.4261C60.5205 34.4916 53.1804 31.0546 46.8556 24.7295C40.8235 18.6977 37.6897 11.8594 39.2016 8.56397Z" fill="#F7CC36"/>
<path d="M39.2016 8.56397L39.1968 8.55887C39.2083 8.53922 39.22 8.51956 39.232 8.49991C39.3354 8.28629 39.4589 8.08825 39.6031 7.90679C42.7185 3.14569 48.0983 0 54.2131 0C63.8483 0 71.6595 7.81108 71.6595 17.4466C71.6595 23.6448 68.4752 29.3313 63.6043 32.4261C60.5205 34.4916 53.1804 31.0546 46.8556 24.7295C40.8235 18.6977 37.6897 11.8594 39.2016 8.56397Z" fill="url(#paint3_radial_1459_39522)"/>
<path d="M39.2016 8.56397L39.1968 8.55887C39.2083 8.53922 39.22 8.51956 39.232 8.49991C39.3354 8.28629 39.4589 8.08825 39.6031 7.90679C42.7185 3.14569 48.0983 0 54.2131 0C63.8483 0 71.6595 7.81108 71.6595 17.4466C71.6595 23.6448 68.4752 29.3313 63.6043 32.4261C60.5205 34.4916 53.1804 31.0546 46.8556 24.7295C40.8235 18.6977 37.6897 11.8594 39.2016 8.56397Z" fill="url(#paint4_radial_1459_39522)"/>
<path d="M63.6812 31.5502C61.1705 34.061 53.9575 30.9187 47.5706 24.5317C41.1836 18.1448 38.0413 10.9318 40.5521 8.42108C43.0628 5.91035 50.2758 9.05264 56.6627 15.4396C63.0497 21.8265 66.192 29.0395 63.6812 31.5502Z" stroke="url(#paint5_linear_1459_39522)" stroke-width="1.91264"/>
<path d="M63.6773 31.5502C61.1666 34.061 53.9536 30.9187 47.5667 24.5317C41.1797 18.1448 38.0374 10.9318 40.5482 8.42108C43.0589 5.91035 50.2719 9.05264 56.6588 15.4396C63.0458 21.8265 66.1881 29.0395 63.6773 31.5502Z" fill="url(#paint6_linear_1459_39522)"/>
<path fill-rule="evenodd" clip-rule="evenodd" d="M23.2725 35.3563C24.5849 34.842 26.0656 35.4892 26.5797 36.8016C27.684 39.6207 29.6599 46.7102 24.5565 53.0508C23.6727 54.1487 22.0661 54.3225 20.9681 53.4387C19.8701 52.5549 19.6964 50.9483 20.5802 49.8504C23.8991 45.7271 22.7432 41.0022 21.827 38.6636C21.313 37.3511 21.9599 35.8705 23.2725 35.3563Z" fill="#FC28A2"/>
<path fill-rule="evenodd" clip-rule="evenodd" d="M23.2725 35.3563C24.5849 34.842 26.0656 35.4892 26.5797 36.8016C27.684 39.6207 29.6599 46.7102 24.5565 53.0508C23.6727 54.1487 22.0661 54.3225 20.9681 53.4387C19.8701 52.5549 19.6964 50.9483 20.5802 49.8504C23.8991 45.7271 22.7432 41.0022 21.827 38.6636C21.313 37.3511 21.9599 35.8705 23.2725 35.3563Z" fill="url(#paint7_linear_1459_39522)"/>
<path fill-rule="evenodd" clip-rule="evenodd" d="M53.8222 14.1242C54.988 14.6244 55.5275 15.9751 55.0273 17.1409C52.9947 21.8772 49.9844 25.3878 46.9463 27.3381C46.9093 27.4874 46.8703 27.6337 46.8299 27.7761C46.3889 29.3314 45.682 30.7818 44.9857 31.6595C44.1976 32.6533 42.7528 32.8202 41.7588 32.0318C40.8502 31.3111 40.633 30.0419 41.2047 29.07C40.9755 29.0506 40.7478 29.0182 40.5217 28.9718C38.5772 28.5734 37.1393 27.2105 36.5554 25.2147C36.072 23.5635 36.2256 21.9548 37.0434 20.6371C37.8368 19.3592 39.0996 18.6066 40.3719 18.3174C42.6842 17.7914 45.6143 18.7324 46.772 21.5485C48.227 20.0476 49.67 17.9755 50.8055 15.3291C51.306 14.1635 52.6566 13.624 53.8222 14.1242ZM40.9467 23.0599C41.8103 22.087 42.9968 23.2934 42.7094 24.3266C41.4913 25.2147 40.2152 23.9812 40.9467 23.0599Z" fill="url(#paint8_linear_1459_39522)"/>
<path fill-rule="evenodd" clip-rule="evenodd" d="M53.8222 14.1242C54.988 14.6244 55.5275 15.9751 55.0273 17.1409C52.9947 21.8772 49.9844 25.3878 46.9463 27.3381C46.9093 27.4874 46.8703 27.6337 46.8299 27.7761C46.3889 29.3314 45.682 30.7818 44.9857 31.6595C44.1976 32.6533 42.7528 32.8202 41.7588 32.0318C40.8502 31.3111 40.633 30.0419 41.2047 29.07C40.9755 29.0506 40.7478 29.0182 40.5217 28.9718C38.5772 28.5734 37.1393 27.2105 36.5554 25.2147C36.072 23.5635 36.2256 21.9548 37.0434 20.6371C37.8368 19.3592 39.0996 18.6066 40.3719 18.3174C42.6842 17.7914 45.6143 18.7324 46.772 21.5485C48.227 20.0476 49.67 17.9755 50.8055 15.3291C51.306 14.1635 52.6566 13.624 53.8222 14.1242ZM40.9467 23.0599C41.8103 22.087 42.9968 23.2934 42.7094 24.3266C41.4913 25.2147 40.2152 23.9812 40.9467 23.0599Z" fill="url(#paint9_linear_1459_39522)"/>
<path fill-rule="evenodd" clip-rule="evenodd" d="M53.8222 14.1242C54.988 14.6244 55.5275 15.9751 55.0273 17.1409C52.9947 21.8772 49.9844 25.3878 46.9463 27.3381C46.9093 27.4874 46.8703 27.6337 46.8299 27.7761C46.3889 29.3314 45.682 30.7818 44.9857 31.6595C44.1976 32.6533 42.7528 32.8202 41.7588 32.0318C40.8502 31.3111 40.633 30.0419 41.2047 29.07C40.9755 29.0506 40.7478 29.0182 40.5217 28.9718C38.5772 28.5734 37.1393 27.2105 36.5554 25.2147C36.072 23.5635 36.2256 21.9548 37.0434 20.6371C37.8368 19.3592 39.0996 18.6066 40.3719 18.3174C42.6842 17.7914 45.6143 18.7324 46.772 21.5485C48.227 20.0476 49.67 17.9755 50.8055 15.3291C51.306 14.1635 52.6566 13.624 53.8222 14.1242ZM40.9467 23.0599C41.8103 22.087 42.9968 23.2934 42.7094 24.3266C41.4913 25.2147 40.2152 23.9812 40.9467 23.0599Z" fill="url(#paint10_radial_1459_39522)"/>
<path fill-rule="evenodd" clip-rule="evenodd" d="M53.8222 14.1242C54.988 14.6244 55.5275 15.9751 55.0273 17.1409C52.9947 21.8772 49.9844 25.3878 46.9463 27.3381C46.9093 27.4874 46.8703 27.6337 46.8299 27.7761C46.3889 29.3314 45.682 30.7818 44.9857 31.6595C44.1976 32.6533 42.7528 32.8202 41.7588 32.0318C40.8502 31.3111 40.633 30.0419 41.2047 29.07C40.9755 29.0506 40.7478 29.0182 40.5217 28.9718C38.5772 28.5734 37.1393 27.2105 36.5554 25.2147C36.072 23.5635 36.2256 21.9548 37.0434 20.6371C37.8368 19.3592 39.0996 18.6066 40.3719 18.3174C42.6842 17.7914 45.6143 18.7324 46.772 21.5485C48.227 20.0476 49.67 17.9755 50.8055 15.3291C51.306 14.1635 52.6566 13.624 53.8222 14.1242ZM40.9467 23.0599C41.8103 22.087 42.9968 23.2934 42.7094 24.3266C41.4913 25.2147 40.2152 23.9812 40.9467 23.0599Z" fill="url(#paint11_radial_1459_39522)"/>
<path d="M36.2079 53.204C37.4853 53.204 38.5208 52.1684 38.5208 50.891C38.5208 49.6137 37.4853 48.5781 36.2079 48.5781C34.9305 48.5781 33.895 49.6137 33.895 50.891C33.895 52.1684 34.9305 53.204 36.2079 53.204Z" fill="url(#paint12_radial_1459_39522)"/>
<path d="M43.8251 42.9149C45.1025 42.9149 46.138 41.8794 46.138 40.602C46.138 39.3246 45.1025 38.2891 43.8251 38.2891C42.5477 38.2891 41.5122 39.3246 41.5122 40.602C41.5122 41.8794 42.5477 42.9149 43.8251 42.9149Z" fill="url(#paint13_radial_1459_39522)"/>
<path d="M53.872 50.5711C55.1494 50.5711 56.1849 49.5356 56.1849 48.2582C56.1849 46.9808 55.1494 45.9453 53.872 45.9453C52.5946 45.9453 51.5591 46.9808 51.5591 48.2582C51.5591 49.5356 52.5946 50.5711 53.872 50.5711Z" fill="url(#paint14_radial_1459_39522)"/>
<path d="M26.0177 32.5188C27.1684 32.5188 28.1013 31.5859 28.1013 30.4352C28.1013 29.2844 27.1684 28.3516 26.0177 28.3516C24.8669 28.3516 23.9341 29.2844 23.9341 30.4352C23.9341 31.5859 24.8669 32.5188 26.0177 32.5188Z" fill="url(#paint15_radial_1459_39522)"/>
<path d="M18.3288 47.5394C19.3708 47.5394 20.2156 46.6946 20.2156 45.6525C20.2156 44.6104 19.3708 43.7656 18.3288 43.7656C17.2867 43.7656 16.4419 44.6104 16.4419 45.6525C16.4419 46.6946 17.2867 47.5394 18.3288 47.5394Z" fill="url(#paint16_radial_1459_39522)"/>
<path d="M18.3288 47.5394C19.3708 47.5394 20.2156 46.6946 20.2156 45.6525C20.2156 44.6104 19.3708 43.7656 18.3288 43.7656C17.2867 43.7656 16.4419 44.6104 16.4419 45.6525C16.4419 46.6946 17.2867 47.5394 18.3288 47.5394Z" fill="url(#paint17_radial_1459_39522)"/>
<path d="M8.65178 31.5502C11.1625 34.061 18.3755 30.9187 24.7624 24.5317C31.1494 18.1448 34.2917 10.9318 31.7809 8.42108C29.2702 5.91035 22.0572 9.05264 15.6703 15.4396C9.28334 21.8265 6.14105 29.0395 8.65178 31.5502Z" stroke="url(#paint18_linear_1459_39522)" stroke-width="1.14759"/>
<path d="M8.65178 31.5502C11.1625 34.061 18.3755 30.9187 24.7624 24.5317C31.1494 18.1448 34.2917 10.9318 31.7809 8.42108C29.2702 5.91035 22.0572 9.05264 15.6703 15.4396C9.28334 21.8265 6.14105 29.0395 8.65178 31.5502Z" fill="url(#paint19_linear_1459_39522)"/>
<path d="M11.5224 20.302C12.5571 18.8544 13.7852 17.3787 15.1797 15.9375C15.6243 16.8443 16.057 17.847 16.4539 18.9077C17.5554 21.8517 18.4868 25.5209 18.6181 29.3502C18.7698 33.776 17.3045 37.7847 15.4849 40.9384C13.6701 44.084 11.4073 46.5476 9.69713 47.9311C8.60135 48.8178 6.99432 48.648 6.10772 47.5524C5.22114 46.4565 5.39073 44.8496 6.48651 43.963C7.70074 42.9804 9.5563 41.0002 11.0636 38.3878C12.5659 35.7838 13.6263 32.7206 13.5167 29.5251C13.4087 26.3757 12.632 23.2589 11.6732 20.6966C11.6231 20.5628 11.5729 20.4311 11.5224 20.302Z" fill="#24A4DC"/>
<path d="M11.5224 20.302C12.5571 18.8544 13.7852 17.3787 15.1797 15.9375C15.6243 16.8443 16.057 17.847 16.4539 18.9077C17.5554 21.8517 18.4868 25.5209 18.6181 29.3502C18.7698 33.776 17.3045 37.7847 15.4849 40.9384C13.6701 44.084 11.4073 46.5476 9.69713 47.9311C8.60135 48.8178 6.99432 48.648 6.10772 47.5524C5.22114 46.4565 5.39073 44.8496 6.48651 43.963C7.70074 42.9804 9.5563 41.0002 11.0636 38.3878C12.5659 35.7838 13.6263 32.7206 13.5167 29.5251C13.4087 26.3757 12.632 23.2589 11.6732 20.6966C11.6231 20.5628 11.5729 20.4311 11.5224 20.302Z" fill="url(#paint20_linear_1459_39522)"/>
<path d="M11.5224 20.302C12.5571 18.8544 13.7852 17.3787 15.1797 15.9375C15.6243 16.8443 16.057 17.847 16.4539 18.9077C17.5554 21.8517 18.4868 25.5209 18.6181 29.3502C18.7698 33.776 17.3045 37.7847 15.4849 40.9384C13.6701 44.084 11.4073 46.5476 9.69713 47.9311C8.60135 48.8178 6.99432 48.648 6.10772 47.5524C5.22114 46.4565 5.39073 44.8496 6.48651 43.963C7.70074 42.9804 9.5563 41.0002 11.0636 38.3878C12.5659 35.7838 13.6263 32.7206 13.5167 29.5251C13.4087 26.3757 12.632 23.2589 11.6732 20.6966C11.6231 20.5628 11.5729 20.4311 11.5224 20.302Z" fill="url(#paint21_radial_1459_39522)"/>
<path d="M11.5224 20.302C12.5571 18.8544 13.7852 17.3787 15.1797 15.9375C15.6243 16.8443 16.057 17.847 16.4539 18.9077C17.5554 21.8517 18.4868 25.5209 18.6181 29.3502C18.7698 33.776 17.3045 37.7847 15.4849 40.9384C13.6701 44.084 11.4073 46.5476 9.69713 47.9311C8.60135 48.8178 6.99432 48.648 6.10772 47.5524C5.22114 46.4565 5.39073 44.8496 6.48651 43.963C7.70074 42.9804 9.5563 41.0002 11.0636 38.3878C12.5659 35.7838 13.6263 32.7206 13.5167 29.5251C13.4087 26.3757 12.632 23.2589 11.6732 20.6966C11.6231 20.5628 11.5729 20.4311 11.5224 20.302Z" fill="url(#paint22_radial_1459_39522)"/>
<path d="M15.6489 15.4598C15.6558 15.4529 15.6627 15.446 15.6696 15.4391C16.9804 14.1283 18.326 12.954 19.6587 11.9375C20.0294 12.8027 20.5542 13.9305 21.175 15.0905C22.0333 16.6945 22.9896 18.1985 23.8874 19.1734C24.4573 19.7921 24.954 19.8756 26.5269 19.8607L26.7318 19.8582C28.2223 19.8388 30.7454 19.8059 32.868 21.9696C35.017 24.0813 34.9453 26.5105 34.9016 27.9974C34.896 28.1875 34.8906 28.3623 34.8906 28.519V33.9753C34.8906 34.3171 35.0277 34.6443 35.2712 34.8842L36.8816 36.4714C37.8854 37.4606 37.8974 39.0766 36.9079 40.0807C35.9184 41.0844 34.3026 41.0962 33.2986 40.1069C31.5363 38.5427 29.7513 36.6008 29.8001 33.4797L29.7863 28.519C29.7863 28.2778 29.7904 28.0446 29.7937 27.8386L29.7939 27.8179C29.7978 27.5992 29.8006 27.4134 29.8001 27.2358C29.799 26.8787 29.7832 26.637 29.7513 26.4461C29.7049 26.1677 29.6242 25.9352 29.282 25.6021L29.2567 25.5776L29.2322 25.5524C28.7087 25.0139 28.2555 24.9488 26.5756 24.9649L26.5034 24.9656C24.9279 24.9812 22.3209 25.007 20.1329 22.6314C18.7976 21.1815 17.6006 19.2296 16.6743 17.4984C16.299 16.7971 15.9541 16.1052 15.6489 15.4598Z" fill="#FA3F99"/>
<path d="M15.6489 15.4598C15.6558 15.4529 15.6627 15.446 15.6696 15.4391C16.9804 14.1283 18.326 12.954 19.6587 11.9375C20.0294 12.8027 20.5542 13.9305 21.175 15.0905C22.0333 16.6945 22.9896 18.1985 23.8874 19.1734C24.4573 19.7921 24.954 19.8756 26.5269 19.8607L26.7318 19.8582C28.2223 19.8388 30.7454 19.8059 32.868 21.9696C35.017 24.0813 34.9453 26.5105 34.9016 27.9974C34.896 28.1875 34.8906 28.3623 34.8906 28.519V33.9753C34.8906 34.3171 35.0277 34.6443 35.2712 34.8842L36.8816 36.4714C37.8854 37.4606 37.8974 39.0766 36.9079 40.0807C35.9184 41.0844 34.3026 41.0962 33.2986 40.1069C31.5363 38.5427 29.7513 36.6008 29.8001 33.4797L29.7863 28.519C29.7863 28.2778 29.7904 28.0446 29.7937 27.8386L29.7939 27.8179C29.7978 27.5992 29.8006 27.4134 29.8001 27.2358C29.799 26.8787 29.7832 26.637 29.7513 26.4461C29.7049 26.1677 29.6242 25.9352 29.282 25.6021L29.2567 25.5776L29.2322 25.5524C28.7087 25.0139 28.2555 24.9488 26.5756 24.9649L26.5034 24.9656C24.9279 24.9812 22.3209 25.007 20.1329 22.6314C18.7976 21.1815 17.6006 19.2296 16.6743 17.4984C16.299 16.7971 15.9541 16.1052 15.6489 15.4598Z" fill="url(#paint23_radial_1459_39522)"/>
<path d="M15.6489 15.4598C15.6558 15.4529 15.6627 15.446 15.6696 15.4391C16.9804 14.1283 18.326 12.954 19.6587 11.9375C20.0294 12.8027 20.5542 13.9305 21.175 15.0905C22.0333 16.6945 22.9896 18.1985 23.8874 19.1734C24.4573 19.7921 24.954 19.8756 26.5269 19.8607L26.7318 19.8582C28.2223 19.8388 30.7454 19.8059 32.868 21.9696C35.017 24.0813 34.9453 26.5105 34.9016 27.9974C34.896 28.1875 34.8906 28.3623 34.8906 28.519V33.9753C34.8906 34.3171 35.0277 34.6443 35.2712 34.8842L36.8816 36.4714C37.8854 37.4606 37.8974 39.0766 36.9079 40.0807C35.9184 41.0844 34.3026 41.0962 33.2986 40.1069C31.5363 38.5427 29.7513 36.6008 29.8001 33.4797L29.7863 28.519C29.7863 28.2778 29.7904 28.0446 29.7937 27.8386L29.7939 27.8179C29.7978 27.5992 29.8006 27.4134 29.8001 27.2358C29.799 26.8787 29.7832 26.637 29.7513 26.4461C29.7049 26.1677 29.6242 25.9352 29.282 25.6021L29.2567 25.5776L29.2322 25.5524C28.7087 25.0139 28.2555 24.9488 26.5756 24.9649L26.5034 24.9656C24.9279 24.9812 22.3209 25.007 20.1329 22.6314C18.7976 21.1815 17.6006 19.2296 16.6743 17.4984C16.299 16.7971 15.9541 16.1052 15.6489 15.4598Z" fill="url(#paint24_radial_1459_39522)"/>
<path d="M15.6489 15.4598C15.6558 15.4529 15.6627 15.446 15.6696 15.4391C16.9804 14.1283 18.326 12.954 19.6587 11.9375C20.0294 12.8027 20.5542 13.9305 21.175 15.0905C22.0333 16.6945 22.9896 18.1985 23.8874 19.1734C24.4573 19.7921 24.954 19.8756 26.5269 19.8607L26.7318 19.8582C28.2223 19.8388 30.7454 19.8059 32.868 21.9696C35.017 24.0813 34.9453 26.5105 34.9016 27.9974C34.896 28.1875 34.8906 28.3623 34.8906 28.519V33.9753C34.8906 34.3171 35.0277 34.6443 35.2712 34.8842L36.8816 36.4714C37.8854 37.4606 37.8974 39.0766 36.9079 40.0807C35.9184 41.0844 34.3026 41.0962 33.2986 40.1069C31.5363 38.5427 29.7513 36.6008 29.8001 33.4797L29.7863 28.519C29.7863 28.2778 29.7904 28.0446 29.7937 27.8386L29.7939 27.8179C29.7978 27.5992 29.8006 27.4134 29.8001 27.2358C29.799 26.8787 29.7832 26.637 29.7513 26.4461C29.7049 26.1677 29.6242 25.9352 29.282 25.6021L29.2567 25.5776L29.2322 25.5524C28.7087 25.0139 28.2555 24.9488 26.5756 24.9649L26.5034 24.9656C24.9279 24.9812 22.3209 25.007 20.1329 22.6314C18.7976 21.1815 17.6006 19.2296 16.6743 17.4984C16.299 16.7971 15.9541 16.1052 15.6489 15.4598Z" fill="url(#paint25_radial_1459_39522)"/>
<path d="M32.938 29.7578V34.0414C32.938 35.0309 33.3211 35.9818 34.0068 36.6949L35.2498 37.9876" stroke="#FF5CAC" stroke-width="1.53011" stroke-linecap="round"/>
<path d="M60.2558 19.5547C61.4831 21.2103 62.49 22.7587 63.1826 24.2675C62.0655 26.0765 61.0449 28.3324 60.5511 30.6631C59.7229 34.5715 60.2805 38.9076 64.1468 42.9646C65.1192 43.9849 65.0804 45.6005 64.0601 46.5728C63.0397 47.5452 61.4242 47.5064 60.4518 46.4861C55.2581 41.0361 54.4332 34.9109 55.5577 29.6049C56.4007 25.6263 58.3274 22.1102 60.2558 19.5547Z" fill="#2BBAFE"/>
<path d="M60.2558 19.5547C61.4831 21.2103 62.49 22.7587 63.1826 24.2675C62.0655 26.0765 61.0449 28.3324 60.5511 30.6631C59.7229 34.5715 60.2805 38.9076 64.1468 42.9646C65.1192 43.9849 65.0804 45.6005 64.0601 46.5728C63.0397 47.5452 61.4242 47.5064 60.4518 46.4861C55.2581 41.0361 54.4332 34.9109 55.5577 29.6049C56.4007 25.6263 58.3274 22.1102 60.2558 19.5547Z" fill="url(#paint26_linear_1459_39522)"/>
<path d="M60.2558 19.5469C61.4831 21.2025 62.49 22.7509 63.1826 24.2597C62.0655 26.0687 61.0449 28.3246 60.5511 30.6552C59.7229 34.5637 60.2805 38.8998 64.1468 42.9568C65.1192 43.9771 65.0804 45.5927 64.0601 46.565C63.0397 47.5374 61.4242 47.4986 60.4518 46.4783C55.2581 41.0283 54.4332 34.9031 55.5577 29.5971C56.4007 25.6185 58.3274 22.1024 60.2558 19.5469Z" fill="url(#paint27_radial_1459_39522)"/>
<path d="M60.3717 26.8047C58.6038 29.7292 56.671 37.3485 63.0833 44.4308" stroke="url(#paint28_linear_1459_39522)" stroke-width="2.29517" stroke-linecap="round"/>
<path d="M47.1914 27.1797C47.109 27.2348 47.0268 27.2889 46.9444 27.3417C46.9074 27.4913 46.8683 27.6373 46.828 27.7797C46.387 29.3353 45.68 30.7854 44.9838 31.6631C44.1957 32.6572 42.7509 32.8238 41.7568 32.0355C40.8482 31.315 40.631 30.0455 41.2027 29.0737C41.1782 29.0716 41.154 29.0693 41.1297 29.067C42.4242 29.0206 45.3812 28.3118 47.0026 27.2848C47.0671 27.244 47.1302 27.209 47.1914 27.1797Z" fill="#2A82D3"/>
<path d="M47.1914 27.1797C47.109 27.2348 47.0268 27.2889 46.9444 27.3417C46.9074 27.4913 46.8683 27.6373 46.828 27.7797C46.387 29.3353 45.68 30.7854 44.9838 31.6631C44.1957 32.6572 42.7509 32.8238 41.7568 32.0355C40.8482 31.315 40.631 30.0455 41.2027 29.0737C41.1782 29.0716 41.154 29.0693 41.1297 29.067C42.4242 29.0206 45.3812 28.3118 47.0026 27.2848C47.0671 27.244 47.1302 27.209 47.1914 27.1797Z" fill="url(#paint29_radial_1459_39522)"/>
<path d="M47.1914 27.1797C47.109 27.2348 47.0268 27.2889 46.9444 27.3417C46.9074 27.4913 46.8683 27.6373 46.828 27.7797C46.387 29.3353 45.68 30.7854 44.9838 31.6631C44.1957 32.6572 42.7509 32.8238 41.7568 32.0355C40.8482 31.315 40.631 30.0455 41.2027 29.0737C41.1782 29.0716 41.154 29.0693 41.1297 29.067C42.4242 29.0206 45.3812 28.3118 47.0026 27.2848C47.0671 27.244 47.1302 27.209 47.1914 27.1797Z" fill="url(#paint30_radial_1459_39522)"/>
<path d="M46.7721 21.5499C45.6144 18.7339 42.6843 17.7929 40.372 18.3189C39.0997 18.608 37.8369 19.3607 37.0434 20.6386C36.4669 21.5678 36.2204 22.6418 36.2946 23.7734H40.7423C40.7063 23.5419 40.7637 23.2918 40.9467 23.0613C41.8104 22.0884 42.9969 23.2949 42.7095 24.328C43.6161 23.9178 45.7086 22.6469 46.7721 21.5499Z" fill="url(#paint31_radial_1459_39522)"/>
<path d="M43.5809 26.7193C42.4408 26.9365 40.2362 26.8487 39.1939 24.6773C37.8801 21.9403 41.4638 18.9027 44.4494 21.7796" stroke="url(#paint32_linear_1459_39522)" stroke-width="1.91264" stroke-linecap="round"/>
<path d="M53.8743 16.4375C53.1298 18.1921 50.6999 23.4241 46.2974 26.1677" stroke="url(#paint33_linear_1459_39522)" stroke-width="1.91264" stroke-linecap="round"/>
<defs>
<radialGradient id="paint0_radial_1459_39522" cx="0" cy="0" r="1" gradientUnits="userSpaceOnUse" gradientTransform="translate(27.3937 11.0914) rotate(-132.541) scale(18.402 13.3552)">
<stop stop-color="#FFE94C"/>
<stop offset="1" stop-color="#FFE94C" stop-opacity="0"/>
</radialGradient>
<radialGradient id="paint1_radial_1459_39522" cx="0" cy="0" r="1" gradientUnits="userSpaceOnUse" gradientTransform="translate(10.0071) rotate(61.1177) scale(34.3452 34.6706)">
<stop offset="0.683811" stop-color="#B9706D" stop-opacity="0"/>
<stop offset="1" stop-color="#B9706D"/>
</radialGradient>
<radialGradient id="paint2_radial_1459_39522" cx="0" cy="0" r="1" gradientUnits="userSpaceOnUse" gradientTransform="translate(23.725 17.4719) rotate(176.876) scale(23.4195 23.4558)">
<stop offset="0.838992" stop-color="#F3C893" stop-opacity="0"/>
<stop offset="1" stop-color="#F3C893"/>
</radialGradient>
<radialGradient id="paint3_radial_1459_39522" cx="0" cy="0" r="1" gradientUnits="userSpaceOnUse" gradientTransform="translate(60.1254 19.2209) rotate(-47.8156) scale(19.1089 15.9333)">
<stop stop-color="#FFE76D"/>
<stop offset="1" stop-color="#FFE76D" stop-opacity="0"/>
</radialGradient>
<radialGradient id="paint4_radial_1459_39522" cx="0" cy="0" r="1" gradientUnits="userSpaceOnUse" gradientTransform="translate(40.5198 5.34414) rotate(27.7904) scale(7.73508 7.74707)">
<stop stop-color="#D6BE6F"/>
<stop offset="1" stop-color="#D6BE6F" stop-opacity="0"/>
</radialGradient>
<linearGradient id="paint5_linear_1459_39522" x1="62.9412" y1="27.5897" x2="52.7414" y2="41.4161" gradientUnits="userSpaceOnUse">
<stop stop-color="#ECB43E"/>
<stop offset="1" stop-color="#925960"/>
</linearGradient>
<linearGradient id="paint6_linear_1459_39522" x1="55.4788" y1="24.0133" x2="70.6958" y2="47.6609" gradientUnits="userSpaceOnUse">
<stop stop-color="#572943"/>
<stop offset="1" stop-color="#4D2C30"/>
</linearGradient>
<linearGradient id="paint7_linear_1459_39522" x1="25.6389" y1="33.1068" x2="29.1482" y2="46.3462" gradientUnits="userSpaceOnUse">
<stop stop-color="#C9136C"/>
<stop offset="1" stop-color="#C9136C" stop-opacity="0"/>
</linearGradient>
<linearGradient id="paint8_linear_1459_39522" x1="51.6403" y1="17.6307" x2="38.8794" y2="32.5293" gradientUnits="userSpaceOnUse">
<stop offset="0.252724" stop-color="#1DA2CD"/>
<stop offset="1" stop-color="#255EB1"/>
</linearGradient>
<linearGradient id="paint9_linear_1459_39522" x1="55.7876" y1="15.6369" x2="53.1555" y2="17.87" gradientUnits="userSpaceOnUse">
<stop stop-color="#0D8CBA"/>
<stop offset="1" stop-color="#0D8CBA" stop-opacity="0"/>
</linearGradient>
<radialGradient id="paint10_radial_1459_39522" cx="0" cy="0" r="1" gradientUnits="userSpaceOnUse" gradientTransform="translate(47.174 16.5141) rotate(119.705) scale(14.3243 9.28103)">
<stop offset="0.835044" stop-color="#3165CF" stop-opacity="0"/>
<stop offset="1" stop-color="#3165CF"/>
</radialGradient>
<radialGradient id="paint11_radial_1459_39522" cx="0" cy="0" r="1" gradientUnits="userSpaceOnUse" gradientTransform="translate(51.111 24.629) rotate(-168.317) scale(16.352 15.9988)">
<stop offset="0.807628" stop-color="#2471AD" stop-opacity="0"/>
<stop offset="0.950123" stop-color="#2471AD"/>
</radialGradient>
<radialGradient id="paint12_radial_1459_39522" cx="0" cy="0" r="1" gradientUnits="userSpaceOnUse" gradientTransform="translate(37.6037 50.253) rotate(130.855) scale(3.90152)">
<stop stop-color="#43C7F4"/>
<stop offset="1" stop-color="#2D64CF"/>
</radialGradient>
<radialGradient id="paint13_radial_1459_39522" cx="0" cy="0" r="1" gradientUnits="userSpaceOnUse" gradientTransform="translate(44.6821 39.7569) rotate(140.042) scale(3.27373)">
<stop stop-color="#FF48A3"/>
<stop offset="1" stop-color="#DB1D93"/>
</radialGradient>
<radialGradient id="paint14_radial_1459_39522" cx="0" cy="0" r="1" gradientUnits="userSpaceOnUse" gradientTransform="translate(55.2874 47.6401) rotate(144.498) scale(3.67379)">
<stop stop-color="#F7C851"/>
<stop offset="1" stop-color="#D97654"/>
</radialGradient>
<radialGradient id="paint15_radial_1459_39522" cx="0" cy="0" r="1" gradientUnits="userSpaceOnUse" gradientTransform="translate(26.3768 31.2256) rotate(-96.8428) scale(3.01229 3.01229)">
<stop stop-color="#D48D3B"/>
<stop offset="1" stop-color="#B46518"/>
</radialGradient>
<radialGradient id="paint16_radial_1459_39522" cx="0" cy="0" r="1" gradientUnits="userSpaceOnUse" gradientTransform="translate(19.1389 45.386) rotate(138.621) scale(2.23209)">
<stop stop-color="#F8AC4B"/>
<stop offset="1" stop-color="#E5A437"/>
</radialGradient>
<radialGradient id="paint17_radial_1459_39522" cx="0" cy="0" r="1" gradientUnits="userSpaceOnUse" gradientTransform="translate(17.803 45.9641) rotate(-25.7553) scale(2.52375)">
<stop offset="0.756841" stop-color="#EB9530" stop-opacity="0"/>
<stop offset="1" stop-color="#EB9530"/>
</radialGradient>
<linearGradient id="paint18_linear_1459_39522" x1="16.4104" y1="11.479" x2="26.6101" y2="25.3053" gradientUnits="userSpaceOnUse">
<stop stop-color="#EABE3F"/>
<stop offset="1" stop-color="#976061"/>
</linearGradient>
<linearGradient id="paint19_linear_1459_39522" x1="31.781" y1="8.421" x2="8.65189" y2="31.5501" gradientUnits="userSpaceOnUse">
<stop stop-color="#5E2B40"/>
<stop offset="1" stop-color="#6E4546"/>
</linearGradient>
<linearGradient id="paint20_linear_1459_39522" x1="6.3087" y1="49.1649" x2="10.9126" y2="44.9244" gradientUnits="userSpaceOnUse">
<stop stop-color="#3067D9"/>
<stop offset="1" stop-color="#3067D9" stop-opacity="0"/>
</linearGradient>
<radialGradient id="paint21_radial_1459_39522" cx="0" cy="0" r="1" gradientUnits="userSpaceOnUse" gradientTransform="translate(6.26419 28.0093) rotate(-5.85601) scale(13.5291 28.9448)">
<stop offset="0.655172" stop-color="#47CEFA" stop-opacity="0"/>
<stop offset="1" stop-color="#47CEFA"/>
</radialGradient>
<radialGradient id="paint22_radial_1459_39522" cx="0" cy="0" r="1" gradientUnits="userSpaceOnUse" gradientTransform="translate(10.7309 20.8142) rotate(16.4404) scale(3.8528 8.16486)">
<stop stop-color="#1569A5"/>
<stop offset="1" stop-color="#1569A5" stop-opacity="0"/>
</radialGradient>
<radialGradient id="paint23_radial_1459_39522" cx="0" cy="0" r="1" gradientUnits="userSpaceOnUse" gradientTransform="translate(15.6489 14.2824) rotate(63.9414) scale(17.1257 4.31597)">
<stop stop-color="#A80963"/>
<stop offset="1" stop-color="#A80963" stop-opacity="0"/>
</radialGradient>
<radialGradient id="paint24_radial_1459_39522" cx="0" cy="0" r="1" gradientUnits="userSpaceOnUse" gradientTransform="translate(36.5422 21.158) rotate(92.7817) scale(16.255 6.77479)">
<stop offset="0.198253" stop-color="#A80963"/>
<stop offset="1" stop-color="#A80963" stop-opacity="0"/>
</radialGradient>
<radialGradient id="paint25_radial_1459_39522" cx="0" cy="0" r="1" gradientUnits="userSpaceOnUse" gradientTransform="translate(27.1101 34.289) rotate(-83.9041) scale(9.57875 4.14706)">
<stop stop-color="#A80963"/>
<stop offset="1" stop-color="#A80963" stop-opacity="0"/>
</radialGradient>
<linearGradient id="paint26_linear_1459_39522" x1="63.6014" y1="20.828" x2="59.9845" y2="26.0918" gradientUnits="userSpaceOnUse">
<stop stop-color="#184E8C"/>
<stop offset="1" stop-color="#184E8C" stop-opacity="0"/>
</linearGradient>
<radialGradient id="paint27_radial_1459_39522" cx="0" cy="0" r="1" gradientUnits="userSpaceOnUse" gradientTransform="translate(64.8515 40.3604) rotate(164.748) scale(3.94126 12.955)">
<stop stop-color="#4BDCFF"/>
<stop offset="1" stop-color="#4BDCFF" stop-opacity="0"/>
</radialGradient>
<linearGradient id="paint28_linear_1459_39522" x1="63.0833" y1="44.4308" x2="60.8683" y2="26.8047" gradientUnits="userSpaceOnUse">
<stop stop-color="#4BDAFF"/>
<stop offset="1" stop-color="#4BDAFF" stop-opacity="0"/>
</linearGradient>
<radialGradient id="paint29_radial_1459_39522" cx="0" cy="0" r="1" gradientUnits="userSpaceOnUse" gradientTransform="translate(43.7825 27.7634) rotate(76.1713) scale(2.66943 8.7562)">
<stop offset="0.306182" stop-color="#1E58A8"/>
<stop offset="1" stop-color="#1E58A8" stop-opacity="0"/>
</radialGradient>
<radialGradient id="paint30_radial_1459_39522" cx="0" cy="0" r="1" gradientUnits="userSpaceOnUse" gradientTransform="translate(46.8928 28.88) rotate(163.015) scale(6.27959 8.83504)">
<stop offset="0.590262" stop-color="#1E58A8" stop-opacity="0"/>
<stop offset="1" stop-color="#1E58A8"/>
</radialGradient>
<radialGradient id="paint31_radial_1459_39522" cx="0" cy="0" r="1" gradientUnits="userSpaceOnUse" gradientTransform="translate(44.0236 24.9497) rotate(-92.6291) scale(3.91214 3.216)">
<stop offset="0.186923" stop-color="#3258A2"/>
<stop offset="1" stop-color="#3258A2" stop-opacity="0"/>
</radialGradient>
<linearGradient id="paint32_linear_1459_39522" x1="41.0295" y1="19.8254" x2="41.5248" y2="26.7969" gradientUnits="userSpaceOnUse">
<stop stop-color="#46B4E2"/>
<stop offset="1" stop-color="#46B4E2" stop-opacity="0"/>
</linearGradient>
<linearGradient id="paint33_linear_1459_39522" x1="53.3957" y1="16.4375" x2="47.4236" y2="27.7679" gradientUnits="userSpaceOnUse">
<stop stop-color="#46B4E2"/>
<stop offset="1" stop-color="#46B4E2" stop-opacity="0"/>
</linearGradient>
</defs>
</svg>