<svg width="32" height="32" viewBox="0 0 32 32" fill="none" xmlns="http://www.w3.org/2000/svg">
<g id="Vector">
<path d="M32 16C32 24.8366 24.8366 32 16 32C7.16344 32 0 24.8366 0 16C0 7.16344 7.16344 0 16 0C24.8366 0 32 7.16344 32 16Z" fill="#1D1D1D"/>
<path d="M9.40227 16.0205L9.31364 16.3045C9.15606 16.2833 8.92955 16.2727 8.63409 16.2727C8.37803 16.2727 8.12651 16.2848 7.87955 16.3091L7.97273 16.0205L8.15909 16.0295C8.23788 16.0295 8.29091 16.0091 8.31818 15.9682C8.34545 15.9273 8.35909 15.8439 8.35909 15.7182C8.35909 15.5682 8.35 15.3045 8.33182 14.9273C8.32121 14.6333 8.30076 14.3212 8.27045 13.9909C8.12197 14.2894 7.93788 14.6818 7.71818 15.1682C7.50151 15.647 7.35227 15.9992 7.27045 16.225C7.13258 16.2417 7.00076 16.2652 6.875 16.2955C6.75833 16.0045 6.63106 15.7129 6.49318 15.4205C6.42955 15.2856 6.25758 14.9303 5.97727 14.3545L5.8 13.9955C5.78182 14.2227 5.76288 14.5114 5.74318 14.8614C5.72197 15.2432 5.71136 15.5348 5.71136 15.7364C5.71136 15.8606 5.72576 15.9417 5.75455 15.9795C5.78485 16.0159 5.85606 16.0341 5.96818 16.0341C6.03333 16.0341 6.08712 16.0311 6.12955 16.025L6.04091 16.3045C5.81667 16.2833 5.62576 16.2727 5.46818 16.2727C5.20606 16.2727 4.95985 16.2848 4.72955 16.3091L4.82273 16.0205C4.94697 16.0265 5.02121 16.0295 5.04545 16.0295C5.08939 16.0295 5.12197 16.0235 5.14318 16.0114C5.16439 15.9992 5.18409 15.9697 5.20227 15.9227C5.22045 15.8758 5.24091 15.7985 5.26364 15.6909C5.3197 15.403 5.36364 15.1205 5.39545 14.8432C5.44091 14.4841 5.46364 14.1985 5.46364 13.9864C5.46364 13.8015 5.43788 13.6811 5.38636 13.625C5.33636 13.5689 5.22879 13.5409 5.06364 13.5409C4.93182 13.5409 4.84318 13.5455 4.79773 13.5545L4.89091 13.2659C4.97576 13.2765 5.08485 13.2841 5.21818 13.2886C5.40909 13.2947 5.53788 13.2977 5.60455 13.2977C5.84091 13.2977 6.04394 13.2856 6.21364 13.2614C6.30909 13.5492 6.44848 13.8917 6.63182 14.2886C6.82273 14.6932 7.00909 15.075 7.19091 15.4341C7.35303 15.0902 7.52727 14.6962 7.71364 14.2523C7.87424 13.8674 7.99167 13.5386 8.06591 13.2659C8.2053 13.2871 8.41061 13.2977 8.68182 13.2977C8.96515 13.2977 9.20227 13.2886 9.39318 13.2705L9.29545 13.5545C9.29242 13.5545 9.28258 13.5538 9.26591 13.5523C9.24924 13.5508 9.22727 13.5492 9.2 13.5477C9.17424 13.5462 9.14697 13.5455 9.11818 13.5455C9.01364 13.5455 8.94091 13.5667 8.9 13.6091C8.85909 13.6515 8.83864 13.725 8.83864 13.8295C8.83864 14.2962 8.84773 14.8114 8.86591 15.375C8.87955 15.6614 8.89318 15.8318 8.90682 15.8864C8.92348 15.9515 8.95606 15.9924 9.00455 16.0091C9.02879 16.0167 9.0947 16.025 9.20227 16.0341C9.30379 16.0341 9.37045 16.0295 9.40227 16.0205Z" fill="white"/>
<path d="M9.65909 14.7682C9.65909 14.5106 9.7 14.2803 9.78182 14.0773C9.86515 13.8742 9.97879 13.7098 10.1227 13.5841C10.2667 13.4583 10.4318 13.3629 10.6182 13.2977C10.8061 13.2326 11.0091 13.2 11.2273 13.2C11.4424 13.2 11.6386 13.2326 11.8159 13.2977C11.9947 13.3614 12.15 13.4561 12.2818 13.5818C12.4136 13.7061 12.5159 13.8674 12.5886 14.0659C12.6614 14.2644 12.6977 14.4909 12.6977 14.7455C12.6977 15.003 12.6606 15.2341 12.5864 15.4386C12.5121 15.6417 12.4076 15.8098 12.2727 15.9432C12.1394 16.0765 11.9803 16.178 11.7955 16.2477C11.6121 16.3174 11.4091 16.3523 11.1864 16.3523C10.9621 16.3523 10.7561 16.3167 10.5682 16.2455C10.3818 16.1727 10.2212 16.0697 10.0864 15.9364C9.95152 15.803 9.84621 15.6364 9.77045 15.4364C9.69621 15.2364 9.65909 15.0136 9.65909 14.7682ZM12.0614 14.7364C12.0614 14.3394 11.9818 14.0386 11.8227 13.8341C11.6636 13.628 11.4485 13.525 11.1773 13.525C10.903 13.525 10.6879 13.6288 10.5318 13.8364C10.3758 14.0424 10.2977 14.3424 10.2977 14.7364C10.2977 15.1364 10.3765 15.4508 10.5341 15.6795C10.6932 15.9068 10.9091 16.0205 11.1818 16.0205C11.4576 16.0205 11.6727 15.9053 11.8273 15.675C11.9833 15.4447 12.0614 15.1318 12.0614 14.7364Z" fill="white"/>
<path d="M16.1682 14.8432V15.3591C16.1682 15.8212 16.1886 16.1008 16.2295 16.1977C16.1083 16.2265 15.9083 16.2826 15.6295 16.3659C15.5886 16.2992 15.3402 15.9689 14.8841 15.375C14.4826 14.8508 14.1538 14.428 13.8977 14.1068V15.1795C13.8977 15.3992 13.9038 15.5636 13.9159 15.6727C13.928 15.7818 13.9515 15.8636 13.9864 15.9182C14.0136 15.9621 14.0515 15.9924 14.1 16.0091C14.15 16.0258 14.2189 16.0341 14.3068 16.0341C14.3765 16.0341 14.4326 16.0311 14.475 16.025L14.3864 16.3045C14.1697 16.2833 13.9462 16.2727 13.7159 16.2727C13.4114 16.2727 13.1598 16.2848 12.9614 16.3091L13.0545 16.0205C13.1667 16.0265 13.2318 16.0295 13.25 16.0295C13.3121 16.0295 13.3553 16.0182 13.3795 15.9955C13.4053 15.9712 13.4273 15.9205 13.4455 15.8432C13.5015 15.5992 13.5295 15.1045 13.5295 14.3591V14.0841C13.528 14.0114 13.5265 13.9561 13.525 13.9182C13.5235 13.8803 13.5197 13.8394 13.5136 13.7955C13.5091 13.75 13.5045 13.7182 13.5 13.7C13.4955 13.6803 13.4864 13.6591 13.4727 13.6364C13.4591 13.6121 13.4455 13.597 13.4318 13.5909C13.4197 13.5833 13.4008 13.5758 13.375 13.5682C13.3492 13.5591 13.3227 13.5538 13.2955 13.5523C13.2697 13.5492 13.2348 13.547 13.1909 13.5455C13.1424 13.5455 13.0803 13.5485 13.0045 13.5545L13.0977 13.2659C13.2568 13.2841 13.4689 13.2932 13.7341 13.2932C13.8447 13.2932 13.972 13.2841 14.1159 13.2659C14.3144 13.5977 14.8727 14.3561 15.7909 15.5409C15.797 15.3167 15.8 15.0811 15.8 14.8341C15.8 14.475 15.7955 14.2159 15.7864 14.0568C15.7818 13.8977 15.7636 13.778 15.7318 13.6977C15.7061 13.6341 15.6689 13.5917 15.6205 13.5705C15.572 13.5477 15.4985 13.5364 15.4 13.5364C15.3061 13.5364 15.2455 13.5409 15.2182 13.55L15.3114 13.2659C15.5068 13.2871 15.7417 13.2977 16.0159 13.2977C16.2492 13.2977 16.4894 13.2856 16.7364 13.2614L16.6432 13.55L16.4523 13.5409C16.3902 13.5409 16.3439 13.5545 16.3136 13.5818C16.2848 13.6091 16.2614 13.6591 16.2432 13.7318C16.1932 13.9152 16.1682 14.2856 16.1682 14.8432Z" fill="white"/>
<path d="M20.3727 16.0205L20.2841 16.3045C20.0886 16.2833 19.8561 16.2727 19.5864 16.2727C19.2288 16.2727 18.9242 16.2848 18.6727 16.3091L18.7659 16.0205C18.8659 16.0265 18.953 16.0295 19.0273 16.0295C19.0758 16.0295 19.1144 16.0167 19.1432 15.9909C19.172 15.9652 19.1864 15.9288 19.1864 15.8818C19.1864 15.8394 19.1598 15.7614 19.1068 15.6477L18.8977 15.1727H18.4591C18.2303 15.1727 18.0258 15.178 17.8455 15.1886L17.7 15.5795C17.6985 15.5841 17.6924 15.6008 17.6818 15.6295C17.6727 15.6568 17.6636 15.6826 17.6545 15.7068C17.647 15.7295 17.6394 15.7545 17.6318 15.7818C17.6242 15.8091 17.6205 15.8295 17.6205 15.8432C17.6205 15.9098 17.6439 15.9583 17.6909 15.9886C17.7394 16.0189 17.8295 16.0341 17.9614 16.0341C18.0311 16.0341 18.0932 16.0311 18.1477 16.025L18.0591 16.3045C17.8379 16.2833 17.6008 16.2727 17.3477 16.2727C17.1129 16.2727 16.8538 16.2848 16.5705 16.3091L16.6682 16.0159C16.7091 16.025 16.7773 16.0295 16.8727 16.0295C16.9455 16.0295 17.003 16.0174 17.0455 15.9932C17.0894 15.9689 17.125 15.9258 17.1523 15.8636C17.5614 14.9409 17.8841 14.1136 18.1205 13.3818C18.3553 13.353 18.5659 13.3068 18.7523 13.2432C18.8447 13.5098 19.022 13.9515 19.2841 14.5682C19.5674 15.2333 19.75 15.6477 19.8318 15.8114C19.8591 15.8689 19.8803 15.9098 19.8955 15.9341C19.9106 15.9583 19.9341 15.9795 19.9659 15.9977C19.9992 16.0159 20.0348 16.0265 20.0727 16.0295C20.1121 16.0326 20.1735 16.0341 20.2568 16.0341C20.2932 16.0341 20.3318 16.0295 20.3727 16.0205ZM18.7614 14.8705L18.325 13.8568L17.9523 14.8864C18.378 14.8864 18.6477 14.8811 18.7614 14.8705Z" fill="white"/>
<path d="M22.4909 16.025L22.4023 16.3045C22.2235 16.2833 21.9803 16.2727 21.6727 16.2727C21.4045 16.2727 21.1045 16.2848 20.7727 16.3091L20.8659 16.0205C20.978 16.0265 21.0515 16.0295 21.0864 16.0295C21.2076 16.0235 21.2795 16.0076 21.3023 15.9818C21.3265 15.9561 21.3394 15.8856 21.3409 15.7705C21.3409 15.7614 21.3409 15.7545 21.3409 15.75C21.3409 14.5909 21.3318 13.8871 21.3136 13.6386C21.1667 13.622 21.0379 13.6136 20.9273 13.6136C20.7318 13.6136 20.5917 13.6409 20.5068 13.6955C20.4235 13.7485 20.3818 13.8485 20.3818 13.9955C20.3818 14.0652 20.3879 14.1553 20.4 14.2659L20.0705 14.3364C20.0886 14.2242 20.0977 14.05 20.0977 13.8136C20.0977 13.5879 20.0841 13.4174 20.0568 13.3023L20.2341 13.2273C20.522 13.2894 20.8924 13.3205 21.3455 13.3205H21.9318C22.1803 13.3205 22.4083 13.3098 22.6159 13.2886C22.8205 13.2674 22.9667 13.2485 23.0545 13.2318L23.2364 13.3023C23.1894 13.4947 23.1659 13.6856 23.1659 13.875C23.1659 14.1235 23.1674 14.2598 23.1705 14.2841L22.8727 14.3409C22.8788 14.2348 22.8818 14.1621 22.8818 14.1227C22.8803 14.0561 22.8773 14.0023 22.8727 13.9614C22.8697 13.9205 22.8614 13.8788 22.8477 13.8364C22.8341 13.7939 22.8136 13.7614 22.7864 13.7386C22.7606 13.7144 22.725 13.6917 22.6795 13.6705C22.6356 13.6492 22.5803 13.6348 22.5136 13.6273C22.447 13.6182 22.3667 13.6121 22.2727 13.6091C22.1621 13.6091 22.0629 13.6159 21.975 13.6295C21.975 13.6341 21.9742 13.6424 21.9727 13.6545C21.9727 13.6667 21.972 13.6841 21.9705 13.7068C21.9689 13.728 21.9674 13.7485 21.9659 13.7682C21.9432 14.097 21.9318 14.4864 21.9318 14.9364V15.5227C21.9333 15.5909 21.9348 15.6455 21.9364 15.6864C21.9379 15.7273 21.9417 15.7682 21.9477 15.8091C21.9553 15.8485 21.9606 15.878 21.9636 15.8977C21.9667 15.9174 21.9765 15.9371 21.9932 15.9568C22.0098 15.9765 22.0227 15.9894 22.0318 15.9955C22.0424 16.0015 22.0629 16.0083 22.0932 16.0159C22.125 16.022 22.1508 16.0258 22.1705 16.0273C22.1917 16.0288 22.2273 16.0311 22.2773 16.0341C22.3955 16.0341 22.4667 16.0311 22.4909 16.025Z" fill="white"/>
<path d="M23.45 14.7682C23.45 14.5106 23.4909 14.2803 23.5727 14.0773C23.6561 13.8742 23.7697 13.7098 23.9136 13.5841C24.0576 13.4583 24.2227 13.3629 24.4091 13.2977C24.597 13.2326 24.8 13.2 25.0182 13.2C25.2333 13.2 25.4295 13.2326 25.6068 13.2977C25.7856 13.3614 25.9409 13.4561 26.0727 13.5818C26.2045 13.7061 26.3068 13.8674 26.3795 14.0659C26.4523 14.2644 26.4886 14.4909 26.4886 14.7455C26.4886 15.003 26.4515 15.2341 26.3773 15.4386C26.303 15.6417 26.1985 15.8098 26.0636 15.9432C25.9303 16.0765 25.7712 16.178 25.5864 16.2477C25.403 16.3174 25.2 16.3523 24.9773 16.3523C24.753 16.3523 24.547 16.3167 24.3591 16.2455C24.1727 16.1727 24.0121 16.0697 23.8773 15.9364C23.7424 15.803 23.6371 15.6364 23.5614 15.4364C23.4871 15.2364 23.45 15.0136 23.45 14.7682ZM25.8523 14.7364C25.8523 14.3394 25.7727 14.0386 25.6136 13.8341C25.4545 13.628 25.2394 13.525 24.9682 13.525C24.6939 13.525 24.4788 13.6288 24.3227 13.8364C24.1667 14.0424 24.0886 14.3424 24.0886 14.7364C24.0886 15.1364 24.1674 15.4508 24.325 15.6795C24.4841 15.9068 24.7 16.0205 24.9727 16.0205C25.2485 16.0205 25.4636 15.9053 25.6182 15.675C25.7742 15.4447 25.8523 15.1318 25.8523 14.7364Z" fill="white"/>
<path d="M7.22036 18.2531L6.68102 20.0727H6.34327L5.96102 18.6956L5.5552 20.0727L5.22007 20.0753L4.70429 18.2531H5.02109L5.39811 19.735L5.80655 18.2531H6.14167L6.52131 19.7271L6.90095 18.2531H7.22036Z" fill="white"/>
<path d="M7.76501 18.494V19.0281H8.39337V19.2716H7.76501V19.8292H8.47192V20.0727H7.46653V18.2505H8.47192V18.494H7.76501Z" fill="white"/>
<path d="M9.43387 18.2531C9.62762 18.2531 9.79693 18.2906 9.9418 18.3657C10.0884 18.439 10.201 18.5455 10.2795 18.6851C10.3598 18.823 10.4 18.9844 10.4 19.1695C10.4 19.3545 10.3598 19.5151 10.2795 19.6512C10.201 19.7873 10.0884 19.8921 9.9418 19.9654C9.79693 20.0369 9.62762 20.0727 9.43387 20.0727H8.83955V18.2531H9.43387ZM9.43387 19.8292C9.64682 19.8292 9.81002 19.7716 9.92347 19.6564C10.0369 19.5412 10.0937 19.3789 10.0937 19.1695C10.0937 18.9583 10.0369 18.7933 9.92347 18.6746C9.81002 18.5559 9.64682 18.4966 9.43387 18.4966H9.13802V19.8292H9.43387Z" fill="white"/>
<path d="M11.2901 18.2531C11.4839 18.2531 11.6532 18.2906 11.798 18.3657C11.9447 18.439 12.0573 18.5455 12.1358 18.6851C12.2161 18.823 12.2562 18.9844 12.2562 19.1695C12.2562 19.3545 12.2161 19.5151 12.1358 19.6512C12.0573 19.7873 11.9447 19.8921 11.798 19.9654C11.6532 20.0369 11.4839 20.0727 11.2901 20.0727H10.6958V18.2531H11.2901ZM11.2901 19.8292C11.5031 19.8292 11.6663 19.7716 11.7797 19.6564C11.8932 19.5412 11.9499 19.3789 11.9499 19.1695C11.9499 18.9583 11.8932 18.7933 11.7797 18.6746C11.6663 18.5559 11.5031 18.4966 11.2901 18.4966H10.9943V19.8292H11.2901Z" fill="white"/>
<path d="M12.8505 18.2531V20.0727H12.552V18.2531H12.8505Z" fill="white"/>
<path d="M14.7374 20.0727H14.4389L13.5409 18.7139V20.0727H13.2424V18.2505H13.5409L14.4389 19.6067V18.2505H14.7374V20.0727Z" fill="white"/>
<path d="M16.4463 18.7767C16.3991 18.686 16.3337 18.6179 16.2499 18.5725C16.1661 18.5254 16.0692 18.5018 15.9593 18.5018C15.8388 18.5018 15.7315 18.5289 15.6372 18.583C15.543 18.6371 15.4688 18.7139 15.4147 18.8134C15.3623 18.9129 15.3362 19.0281 15.3362 19.159C15.3362 19.2899 15.3623 19.406 15.4147 19.5072C15.4688 19.6067 15.543 19.6835 15.6372 19.7376C15.7315 19.7917 15.8388 19.8188 15.9593 19.8188C16.1216 19.8188 16.2534 19.7734 16.3546 19.6826C16.4559 19.5919 16.5178 19.4688 16.5405 19.3135H15.8572V19.0752H16.8599V19.3082C16.8407 19.4496 16.7901 19.5796 16.7081 19.6983C16.6278 19.817 16.5222 19.9121 16.3913 19.9837C16.2621 20.0535 16.1181 20.0884 15.9593 20.0884C15.7882 20.0884 15.632 20.0492 15.4906 19.9706C15.3492 19.8903 15.2367 19.7795 15.1529 19.6381C15.0708 19.4967 15.0298 19.337 15.0298 19.159C15.0298 18.9809 15.0708 18.8212 15.1529 18.6799C15.2367 18.5385 15.3492 18.4285 15.4906 18.35C15.6338 18.2697 15.79 18.2295 15.9593 18.2295C16.153 18.2295 16.325 18.2775 16.4751 18.3735C16.6269 18.4678 16.7369 18.6022 16.805 18.7767H16.4463Z" fill="white"/>
<path d="M18.1329 18.494V19.0281H18.7613V19.2716H18.1329V19.8292H18.8398V20.0727H17.8344V18.2505H18.8398V18.494H18.1329Z" fill="white"/>
<path d="M20.7757 18.2531L20.0924 20.0727H19.7468L19.0608 18.2531H19.3802L19.9196 19.7664L20.4616 18.2531H20.7757Z" fill="white"/>
<path d="M21.3238 18.494V19.0281H21.9522V19.2716H21.3238V19.8292H22.0307V20.0727H21.0253V18.2505H22.0307V18.494H21.3238Z" fill="white"/>
<path d="M23.8933 20.0727H23.5949L22.6968 18.7139V20.0727H22.3984V18.2505H22.6968L23.5949 19.6067V18.2505H23.8933V20.0727Z" fill="white"/>
<path d="M25.4608 18.2531V18.4966H24.9765V20.0727H24.678V18.4966H24.191V18.2531H25.4608Z" fill="white"/>
<path d="M26.3627 20.0911C26.2405 20.0911 26.1305 20.0701 26.0328 20.0282C25.9351 19.9846 25.8583 19.9235 25.8024 19.8449C25.7465 19.7664 25.7186 19.6748 25.7186 19.57H26.038C26.045 19.6486 26.0756 19.7132 26.1297 19.7638C26.1855 19.8144 26.2632 19.8397 26.3627 19.8397C26.4657 19.8397 26.546 19.8153 26.6036 19.7664C26.6612 19.7158 26.69 19.6512 26.69 19.5727C26.69 19.5116 26.6716 19.4618 26.635 19.4234C26.6001 19.385 26.5556 19.3553 26.5015 19.3344C26.4491 19.3135 26.3758 19.2908 26.2815 19.2663C26.1628 19.2349 26.066 19.2035 25.9909 19.1721C25.9176 19.1389 25.8548 19.0883 25.8024 19.0202C25.75 18.9521 25.7239 18.8614 25.7239 18.7479C25.7239 18.6432 25.75 18.5516 25.8024 18.473C25.8548 18.3945 25.9281 18.3343 26.0223 18.2924C26.1166 18.2505 26.2257 18.2295 26.3496 18.2295C26.5259 18.2295 26.6699 18.274 26.7816 18.3631C26.8951 18.4503 26.9579 18.5708 26.9701 18.7244H26.6402C26.635 18.658 26.6036 18.6013 26.546 18.5542C26.4884 18.5071 26.4124 18.4835 26.3182 18.4835C26.2327 18.4835 26.1628 18.5053 26.1087 18.5489C26.0546 18.5926 26.0276 18.6554 26.0276 18.7375C26.0276 18.7933 26.0441 18.8396 26.0773 18.8762C26.1122 18.9111 26.1559 18.9391 26.2082 18.96C26.2606 18.9809 26.3321 19.0036 26.4229 19.0281C26.5433 19.0612 26.6411 19.0944 26.7161 19.1276C26.7929 19.1607 26.8575 19.2122 26.9099 19.282C26.964 19.3501 26.9911 19.4417 26.9911 19.5569C26.9911 19.6495 26.9657 19.7367 26.9151 19.8188C26.8663 19.9008 26.7938 19.9671 26.6978 20.0177C26.6036 20.0666 26.4919 20.0911 26.3627 20.0911Z" fill="white"/>
<path fill-rule="evenodd" clip-rule="evenodd" d="M16.9882 11.5831L17.4289 9.90575L16.7849 10.3159C16.6564 10.3978 16.501 10.4261 16.352 10.3946C16.203 10.3632 16.0722 10.2746 15.9878 10.1478L15.5639 9.51098L15.1398 10.1481C15.0553 10.2748 14.9245 10.3634 14.7755 10.3948C14.6265 10.4261 14.4711 10.3978 14.3427 10.3159L13.6992 9.90575L14.1399 11.5831H16.9885H16.9882ZM13.8551 9.66022C13.632 9.51796 13.3501 9.72364 13.4173 9.97964L13.8583 11.657C13.8747 11.7192 13.9111 11.7742 13.962 11.8135C14.0129 11.8527 14.0754 11.874 14.1396 11.874H16.9882C17.0525 11.874 17.115 11.8527 17.1659 11.8135C17.2167 11.7742 17.2532 11.7192 17.2695 11.657L17.7105 9.97964C17.7775 9.72364 17.4959 9.51825 17.2727 9.66022L16.6287 10.0704C16.5645 10.1114 16.4868 10.1255 16.4123 10.1099C16.3378 10.0942 16.2724 10.05 16.2301 9.98662L15.806 9.34953C15.7794 9.30968 15.7434 9.27702 15.7012 9.25442C15.659 9.23183 15.6118 9.22001 15.5639 9.22001C15.516 9.22001 15.4689 9.23183 15.4267 9.25442C15.3844 9.27702 15.3485 9.30968 15.3219 9.34953L14.8977 9.98662C14.8555 10.05 14.7902 10.0943 14.7156 10.11C14.6411 10.1258 14.5634 10.1116 14.4992 10.0707L13.8551 9.66022Z" fill="white"/>
<path d="M15.8385 8.71098C15.8386 8.78389 15.8097 8.85385 15.7582 8.90546C15.7067 8.95707 15.6368 8.9861 15.5639 8.98618C15.491 8.98626 15.4211 8.95737 15.3695 8.90587C15.3178 8.85437 15.2888 8.78447 15.2887 8.71156C15.2886 8.63865 15.3175 8.5687 15.369 8.51709C15.4205 8.46548 15.4904 8.43644 15.5633 8.43636C15.6363 8.43629 15.7062 8.46518 15.7578 8.51668C15.8094 8.56818 15.8385 8.63807 15.8385 8.71098ZM18.0367 9.26109C18.0367 9.334 18.0078 9.40394 17.9562 9.45552C17.9047 9.50711 17.8348 9.53611 17.7619 9.53615C17.689 9.53618 17.619 9.50726 17.5675 9.45573C17.5159 9.4042 17.4869 9.33429 17.4868 9.26138C17.4868 9.18847 17.5158 9.11855 17.5674 9.06699C17.6189 9.01544 17.6888 8.98647 17.7617 8.98647C17.8347 8.98647 17.9046 9.01544 17.9561 9.06699C18.0077 9.11855 18.0367 9.18818 18.0367 9.26109ZM13.6407 9.26109C13.6407 9.29719 13.6337 9.33294 13.6199 9.36631C13.6061 9.39967 13.5858 9.42998 13.5603 9.45552C13.5348 9.48106 13.5045 9.50133 13.4712 9.51516C13.4378 9.529 13.4021 9.53613 13.366 9.53615C13.3299 9.53617 13.2941 9.52907 13.2607 9.51528C13.2274 9.50148 13.1971 9.48124 13.1715 9.45573C13.146 9.43021 13.1257 9.39992 13.1119 9.36657C13.0981 9.33323 13.0909 9.29748 13.0909 9.26138C13.0909 9.18847 13.1199 9.11855 13.1714 9.06699C13.223 9.01544 13.2929 8.98647 13.3658 8.98647C13.4387 8.98647 13.5087 9.01544 13.5602 9.06699C13.6118 9.11855 13.6407 9.18818 13.6407 9.26109Z" fill="white"/>
<path fill-rule="evenodd" clip-rule="evenodd" d="M14.1821 12.2179C14.1821 12.1793 14.1974 12.1423 14.2247 12.115C14.252 12.0878 14.289 12.0724 14.3276 12.0724H16.8692C16.9078 12.0724 16.9448 12.0878 16.9721 12.115C16.9994 12.1423 17.0147 12.1793 17.0147 12.2179C17.0147 12.2565 16.9994 12.2935 16.9721 12.3207C16.9448 12.348 16.9078 12.3633 16.8692 12.3633H14.3276C14.289 12.3633 14.252 12.348 14.2247 12.3207C14.1974 12.2935 14.1821 12.2565 14.1821 12.2179Z" fill="white"/>
</g>
</svg>
