<svg id="Capa_1" enable-background="new 0 0 512.001 512.001" height="24" viewBox="0 0 512.001 512.001" width="24" xmlns="http://www.w3.org/2000/svg"><g><path d="m121.001 347h-91.054c-.473-33.362-4.087-51.448-7.592-68.971-3.782-18.911-7.354-36.772-7.354-73.529 0-4.142-3.358-7.5-7.5-7.5s-7.5 3.358-7.5 7.5c0 38.243 3.887 57.677 7.646 76.471 3.782 18.911 7.354 36.772 7.354 73.529v29.533l-14.942 119.537c-.514 4.11 2.401 7.858 6.512 8.372.316.04.629.059.939.059 3.728 0 6.958-2.776 7.433-6.571l14.178-113.43h114.379v112.5c0 4.142 3.358 7.5 7.5 7.5s7.5-3.358 7.5-7.5v-120c.001-20.678-16.822-37.5-37.499-37.5zm21.21 30h-112.21v-15h91c9.777 0 18.114 6.271 21.21 15z"/><path d="m293.6 317h150.901c4.142 0 7.5-3.358 7.5-7.5v-30c0-4.142-3.358-7.5-7.5-7.5h-181v-129.5c0-4.142-3.358-7.5-7.5-7.5h-94.25c-9.778 0-18.114-6.271-21.21-15h230.92c-3.096 8.729-11.432 15-21.21 15h-64.25c-4.142 0-7.5 3.358-7.5 7.5s3.358 7.5 7.5 7.5h64.25c12.253 0 23.153-5.907 30-15.023 6.847 9.116 17.747 15.023 30 15.023h64.25c20.678 0 37.5-16.822 37.5-37.5 0-17.766-12.622-33.221-30.009-36.75l-218.491-44.38v-23.87c0-4.142-3.358-7.5-7.5-7.5s-7.5 3.358-7.5 7.5v23.87l-218.489 44.381c-17.39 3.528-30.011 18.984-30.011 36.749 0 20.678 16.822 37.5 37.5 37.5h64.25c12.253 0 23.153-5.907 30-15.023 6.847 9.116 17.747 15.023 30 15.023h86.75v122h-181c-4.142 0-7.5 3.358-7.5 7.5v30c0 4.142 3.358 7.5 7.5 7.5h150.901c-1.067 42.104-11.108 63.885-21.711 86.857-11.401 24.703-23.19 50.246-23.19 100.643 0 4.142 3.358 7.5 7.5 7.5s7.5-3.358 7.5-7.5c0-47.103 10.594-70.056 21.81-94.357 2.718-5.89 5.457-11.832 8.055-18.143h30.136v82.5c0 4.142 3.358 7.5 7.5 7.5s7.5-3.358 7.5-7.5v-82.5h30.136c2.597 6.311 5.336 12.253 8.055 18.143 11.216 24.301 21.81 47.254 21.81 94.357 0 4.142 3.358 7.5 7.5 7.5s7.5-3.358 7.5-7.5c0-50.397-11.789-75.94-23.19-100.643-10.605-22.972-20.647-44.753-21.713-86.857zm71.829-226.95c1.975.801 5.457 5.979 6.783 14.95h-232.423c1.326-8.971 4.809-14.149 6.786-14.951l109.426-44.454zm109.072 44.95h-64.25c-9.778 0-18.114-6.271-21.21-15h106.67c-3.096 8.73-11.433 15-21.21 15zm21.2-30h-108.37c-1.605-14.216-7.736-25.389-16.26-28.848l-37.54-15.251 145.475 29.549c7.872 1.598 14.109 7.277 16.695 14.55zm-462.705-14.549 145.471-29.549-37.536 15.249c-8.526 3.46-14.657 14.633-16.262 28.849h-108.369c2.587-7.273 8.823-12.952 16.696-14.549zm68.755 44.549h-64.25c-9.778 0-18.114-6.271-21.21-15h106.67c-3.096 8.73-11.433 15-21.21 15zm-26.75 152h362v15h-362zm148.906 90c5.103-15.726 8.874-34.531 9.496-60h15.098v60zm39.594 0v-60h15.098c.622 25.469 4.393 44.274 9.496 60z"/><path d="m504.355 280.971c3.759-18.794 7.646-38.228 7.646-76.471 0-4.142-3.358-7.5-7.5-7.5s-7.5 3.358-7.5 7.5c0 36.757-3.572 54.619-7.354 73.529-3.505 17.523-7.119 35.609-7.592 68.971h-91.054c-20.678 0-37.5 16.822-37.5 37.5v120c0 4.142 3.358 7.5 7.5 7.5s7.5-3.358 7.5-7.5v-112.5h114.379l14.179 113.43c.474 3.794 3.705 6.571 7.433 6.571.31 0 .624-.02.939-.059 4.11-.514 7.026-4.262 6.512-8.372l-14.942-119.537v-29.533c0-36.757 3.572-54.618 7.354-73.529zm-113.354 81.029h91v15h-112.21c3.096-8.729 11.432-15 21.21-15z"/></g></svg>