<svg width="22" height="22" viewBox="0 0 22 22" fill="none" xmlns="http://www.w3.org/2000/svg">
<path d="M21.3555 11.6443C21.7114 11.6443 22 11.3557 22 10.9998V9.71072C22 9.35476 21.7114 9.06619 21.3555 9.06619H19.3789V8.42166C19.3789 6.64468 17.9332 5.199 16.1562 5.199H5.84375C5.11882 5.199 4.44916 5.43975 3.91016 5.84529V4.83622C5.36564 3.76161 6.48871 3.06723 6.48871 1.85564C6.48871 0.815199 5.63935 0.000167847 4.55512 0.000167847C4.00009 0.000167847 3.57543 0.209254 3.26605 0.484598C2.95672 0.209297 2.53206 0.000167847 1.97699 0.000167847C0.892762 0.000167847 0.0433984 0.815199 0.0433984 1.85564C0.0433984 3.0665 1.16076 3.75744 2.62109 4.83557V9.06619H0.644531C0.288578 9.06619 0 9.35476 0 9.71072V10.9998C0 11.3557 0.288578 11.6443 0.644531 11.6443C1.00048 11.6443 1.28906 11.3557 1.28906 10.9998V10.3552H2.62109V11.3196C1.04281 12.3593 0 14.1389 0 16.156V18.7771C0 19.1331 0.288578 19.4217 0.644531 19.4217H1.33203V20.0662C1.33203 21.1324 2.19944 21.9998 3.26562 21.9998H4.55469C5.62087 21.9998 6.48828 21.1324 6.48828 20.0662V19.4217H15.5117V20.0662C15.5117 21.1324 16.3791 21.9998 17.4453 21.9998H18.7344C19.8006 21.9998 20.668 21.1324 20.668 20.0662V19.4217H21.3555C21.7114 19.4217 22 19.1331 22 18.7771V16.156C22 14.1389 20.9572 12.3593 19.3789 11.3196V10.3552H20.7109V10.9998C20.7109 11.3558 20.9995 11.6443 21.3555 11.6443ZM1.33246 1.85564C1.33246 1.57416 1.55384 1.28923 1.97699 1.28923C2.44539 1.28923 2.62741 1.7401 2.65315 1.81126C2.73341 2.08153 2.97778 2.26037 3.26 2.26411C3.26275 2.26415 3.2655 2.26415 3.2682 2.26415C3.54823 2.26415 3.79436 2.07526 3.87986 1.80795C3.88154 1.80275 4.0517 1.28923 4.55507 1.28923C4.97823 1.28923 5.19961 1.57416 5.19961 1.85564C5.19961 2.35464 4.28931 2.95814 3.26601 3.70953C2.18921 2.91869 1.33246 2.34386 1.33246 1.85564ZM1.28906 16.8006H3.22266C4.08689 16.8006 4.82281 17.3583 5.09072 18.1326H1.28906V16.8006ZM4.55469 20.7107H3.26562C2.91023 20.7107 2.62109 20.4216 2.62109 20.0662V19.4217H5.19922V20.0662C5.19922 20.4216 4.91008 20.7107 4.55469 20.7107ZM19.3789 20.0662C19.3789 20.4216 19.0898 20.7107 18.7344 20.7107H17.4453C17.0899 20.7107 16.8008 20.4216 16.8008 20.0662V19.4217H19.3789V20.0662ZM16.9093 18.1326C17.1772 17.3583 17.9132 16.8006 18.7773 16.8006H20.7109V18.1326H16.9093ZM20.6643 15.5115H18.7773C17.1973 15.5115 15.876 16.6396 15.5759 18.1326H6.42409C6.12399 16.6396 4.8027 15.5115 3.22266 15.5115H1.33573C1.63883 13.4218 3.4693 11.6443 5.84375 11.6443H16.1562C18.5384 11.6443 20.3618 13.4262 20.6643 15.5115ZM6.48828 10.3552C6.48828 9.64446 7.06655 9.06619 7.77734 9.06619C8.48813 9.06619 9.06641 9.64446 9.06641 10.3552H6.48828ZM12.9336 10.3552C12.9336 9.64446 13.5119 9.06619 14.2227 9.06619C14.9334 9.06619 15.5117 9.64446 15.5117 10.3552H12.9336ZM16.8008 10.3907V10.3553C16.8008 8.93371 15.6442 7.77717 14.2227 7.77717C12.8011 7.77717 11.6445 8.93371 11.6445 10.3553H10.3555C10.3555 8.93371 9.19892 7.77717 7.77734 7.77717C6.35577 7.77717 5.19922 8.93371 5.19922 10.3553V10.3907C4.75256 10.4396 4.32098 10.5386 3.91016 10.6821V9.71076V8.4217C3.91016 7.35552 4.77757 6.48811 5.84375 6.48811H16.1562C17.2224 6.48811 18.0898 7.35552 18.0898 8.4217V10.682C17.679 10.5386 17.2474 10.4396 16.8008 10.3907Z" fill="black"/>
</svg>
