<svg width="32" height="32" viewBox="0 0 32 32" fill="none" xmlns="http://www.w3.org/2000/svg">
<g id="ph:x-light">
<path id="Vector" d="M7.80449 25.8225L7.80466 25.8227L7.81462 25.8127L16.0018 17.6267L24.1845 25.8083C24.2887 25.9186 24.4138 26.0072 24.5525 26.069C24.6935 26.1319 24.8458 26.1657 25.0002 26.1684C25.1546 26.1711 25.308 26.1427 25.4512 26.0849C25.5944 26.027 25.7245 25.9409 25.8337 25.8317C25.9429 25.7225 26.029 25.5924 26.0868 25.4493C26.1447 25.3061 26.1731 25.1527 26.1703 24.9983C26.1676 24.8439 26.1338 24.6916 26.071 24.5505C26.0092 24.4118 25.9205 24.2868 25.8102 24.1826L17.6287 15.9998L25.8147 7.81267L25.8148 7.81284L25.8244 7.80254C26.0276 7.58453 26.1382 7.29619 26.1329 6.99827C26.1277 6.70034 26.007 6.41608 25.7963 6.20538C25.5856 5.99468 25.3013 5.87399 25.0034 5.86873C24.7055 5.86348 24.4171 5.97407 24.1991 6.1772L24.1989 6.17702L24.189 6.18698L16.0018 14.373L7.81462 6.18698L7.8148 6.18681L7.80449 6.1772C7.58649 5.97407 7.29815 5.86348 7.00022 5.86873C6.70229 5.87399 6.41804 5.99468 6.20733 6.20538C5.99663 6.41608 5.87594 6.70034 5.87069 6.99827C5.86543 7.2962 5.97602 7.58453 6.17915 7.80254L6.17897 7.8027L6.18894 7.81267L14.3749 15.9998L6.18894 24.187L6.18876 24.1868L6.17915 24.1972C5.97602 24.4152 5.86543 24.7035 5.87069 25.0014C5.87594 25.2994 5.99663 25.5836 6.20733 25.7943C6.41803 26.005 6.70229 26.1257 7.00022 26.131C7.29815 26.1362 7.58648 26.0256 7.80449 25.8225Z" fill="#1A1A1A" stroke="#1A1A1A" stroke-width="0.8"/>
</g>
</svg>
