<svg width="24" height="24" viewBox="0 0 24 24" fill="none" xmlns="http://www.w3.org/2000/svg">
<g id="&#240;&#159;&#166;&#134; icon &#34;youtube&#34;">
<path id="Vector" d="M20.4 0H3.6C1.61177 0 0 1.61177 0 3.6V20.4C0 22.3882 1.61177 24 3.6 24H20.4C22.3882 24 24 22.3882 24 20.4V3.6C24 1.61177 22.3882 0 20.4 0Z" fill="#ED1D24"/>
<path id="Vector_2" d="M20.0156 7.92211C19.8281 7.21898 19.2187 6.65648 18.5156 6.46898C16.9219 6.04711 7.31249 6.00023 5.48436 6.46898C4.78124 6.65648 4.17186 7.21898 3.98436 7.92211C3.56249 9.70336 3.51561 14.2502 3.98436 16.0784C4.17186 16.7815 4.78124 17.344 5.48436 17.5315C7.17186 18.0002 16.7812 18.0002 18.5156 17.5315C19.2187 17.344 19.8281 16.7815 20.0156 16.0784C20.4375 14.3909 20.4375 9.65648 20.0156 7.92211Z" fill="white"/>
<path id="Vector_3" d="M10.3125 9.51562V14.4844L14.6719 12" fill="#ED1D24"/>
</g>
</svg>
