<svg width="135" height="40" viewBox="0 0 135 40" fill="none" xmlns="http://www.w3.org/2000/svg">
<path d="M130 40H5C2.25 40 0 37.75 0 35V5C0 2.25 2.25 2.38419e-06 5 2.38419e-06H130C132.75 2.38419e-06 135 2.25 135 5V35C135 37.75 132.75 40 130 40Z" fill="black"/>
<path d="M130 2.38419e-06H5C2.25 2.38419e-06 0 2.25 0 5V35C0 37.75 2.25 40 5 40H130C132.75 40 135 37.75 135 35V5C135 2.25 132.75 2.38419e-06 130 2.38419e-06ZM130 0.800002C132.316 0.800002 134.2 2.6844 134.2 5V35C134.2 37.316 132.316 39.2004 130 39.2004H5C2.6844 39.2004 0.8 37.316 0.8 35V5C0.8 2.6844 2.6844 0.800002 5 0.800002H130Z" fill="#A6A6A6"/>
<path d="M47.4184 10.2432C47.4184 11.081 47.1703 11.7482 46.6734 12.2459C46.109 12.8377 45.3734 13.1338 44.4691 13.1338C43.6031 13.1338 42.8668 12.8338 42.2613 12.233C41.6547 11.6326 41.3521 10.8881 41.3521 9.99979C41.3521 9.11109 41.6547 8.36699 42.2613 7.76619C42.8668 7.16579 43.6031 6.86539 44.4691 6.86539C44.8988 6.86539 45.3102 6.94939 45.7008 7.11699C46.0914 7.28499 46.4047 7.50799 46.6391 7.78729L46.1117 8.31499C45.7145 7.84039 45.1676 7.60329 44.4691 7.60329C43.8375 7.60329 43.2914 7.82519 42.8305 8.26929C42.3695 8.71389 42.1391 9.29039 42.1391 9.99979C42.1391 10.7092 42.3695 11.2857 42.8305 11.7303C43.2914 12.1744 43.8375 12.3963 44.4691 12.3963C45.1391 12.3963 45.6977 12.1732 46.1449 11.7264C46.4352 11.4353 46.6031 11.0307 46.648 10.5111H44.4691V9.79039H47.3766C47.4047 9.94709 47.4184 10.0975 47.4184 10.2432Z" fill="white"/>
<path d="M47.4184 10.2433H47.3184C47.3176 11.062 47.0784 11.6979 46.6026 12.1753L46.6015 12.1761L46.6012 12.1769C46.0547 12.7483 45.3522 13.0327 44.469 13.0339C43.6261 13.0327 42.9206 12.7452 42.3315 12.1624C41.7438 11.5784 41.4531 10.8655 41.452 9.99988C41.4531 9.13388 41.7438 8.42138 42.3315 7.83778C42.9206 7.25458 43.6261 6.96668 44.469 6.96548C44.8858 6.96548 45.2827 7.04678 45.6612 7.20888C46.0401 7.37218 46.3394 7.58618 46.5624 7.85188L46.639 7.78738L46.5684 7.71668L46.0409 8.24478L46.1117 8.31508L46.1887 8.25108C45.773 7.75298 45.1894 7.50188 44.469 7.50338C43.814 7.50258 43.2378 7.73658 42.7612 8.19758C42.28 8.66008 42.0383 9.26898 42.0391 9.99988C42.0383 10.7308 42.28 11.3397 42.7612 11.8022C43.2378 12.2632 43.814 12.4972 44.469 12.4964C45.1612 12.4976 45.7512 12.2628 46.2156 11.7972C46.5257 11.4862 46.7015 11.0554 46.7476 10.5198L46.757 10.4112H44.569V9.89048H47.3765V9.79048L47.278 9.80808C47.3054 9.95968 47.3184 10.1038 47.3184 10.2433H47.4184H47.5184C47.5184 10.0913 47.5042 9.93508 47.4749 9.77258L47.4601 9.69048H44.369V10.5112V10.6112H46.6479V10.5112L46.5484 10.5026C46.5043 11.0058 46.344 11.3847 46.0742 11.6558C45.6445 12.0839 45.1171 12.2952 44.469 12.2964C43.8608 12.2956 43.3449 12.0862 42.9 11.6585C42.4594 11.2323 42.2402 10.6882 42.2391 9.99988C42.2402 9.31158 42.4594 8.76748 42.9 8.34128C43.3449 7.91358 43.8608 7.70418 44.469 7.70338C45.1452 7.70498 45.6558 7.92838 46.0351 8.37958L46.1054 8.46318L46.7098 7.85808L46.7745 7.79328L46.7155 7.72328C46.4698 7.43038 46.1425 7.19788 45.7401 7.02528C45.337 6.85218 44.9116 6.76548 44.469 6.76548C43.58 6.76468 42.8129 7.07718 42.1906 7.69558C41.566 8.31278 41.2512 9.08858 41.252 9.99988C41.2512 10.9108 41.5659 11.687 42.1909 12.3046C42.8128 12.9226 43.58 13.2347 44.469 13.2339C45.3948 13.2347 46.1628 12.9272 46.7456 12.3151L46.6734 12.246L46.744 12.3167C47.262 11.7991 47.5191 11.0999 47.5184 10.2433H47.4184Z" fill="white"/>
<path d="M52.0278 7.7371H49.2954V9.6395H51.7595V10.3605H49.2954V12.2629H52.0278V13H48.5251V7H52.0278V7.7371Z" fill="white"/>
<path d="M52.0278 7.7372V7.6372H49.1954V9.7396H51.6595V10.2603L49.1954 10.2606V12.363H51.9278V12.9001H48.625V7.1001H51.9278V7.7372H52.0278V7.6372V7.7372H52.1278V7.0001V6.9001H48.425V13.1001H52.1278V12.263V12.163H49.3954V10.4606H51.8595V9.6396V9.5396H49.3954V7.8372H52.1278V7.7372H52.0278Z" fill="white"/>
<path d="M55.2791 13H54.5076V7.7371H52.8318V7H56.9549V7.7371H55.2791V13Z" fill="white"/>
<path d="M55.279 13.0001V12.9001H54.6075V7.6372H52.9317V7.1001H56.8548V7.6372H55.179V13.0001H55.279V12.9001V13.0001H55.379V7.8372H57.0548V7.0001V6.9001H52.7317V7.7372V7.8372H54.4075V13.1001H55.279H55.379V13.0001H55.279Z" fill="white"/>
<path d="M59.938 13V7H60.7087V13H59.938Z" fill="white"/>
<path d="M59.9379 13.0001H60.0379V7.1001H60.6086V12.9001H59.9379V13.0001H60.0379H59.9379V13.1001H60.7086H60.8086V6.9001H59.9379H59.8379V13.1001H59.9379V13.0001Z" fill="white"/>
<path d="M64.1286 13H63.3571V7.7371H61.6814V7H65.8044V7.7371H64.1286V13Z" fill="white"/>
<path d="M64.1285 13.0001V12.9001H63.457V7.6372H61.7813V7.1001H65.7043V7.6372H64.0285V13.0001H64.1285V12.9001V13.0001H64.2285V7.8372H65.9043V7.0001V6.9001H61.5813V7.7372V7.8372H63.257V13.1001H64.1285H64.2285V13.0001H64.1285Z" fill="white"/>
<path d="M69.7793 11.7221C70.2234 12.1717 70.7668 12.3963 71.4094 12.3963C72.052 12.3963 72.5957 12.1717 73.0391 11.7221C73.4836 11.2725 73.7063 10.6978 73.7063 9.99979C73.7063 9.30179 73.4836 8.72709 73.0391 8.27749C72.5957 7.82789 72.052 7.60329 71.4094 7.60329C70.7668 7.60329 70.2234 7.82789 69.7793 8.27749C69.3359 8.72709 69.1133 9.30179 69.1133 9.99979C69.1133 10.6978 69.3359 11.2725 69.7793 11.7221ZM73.6094 12.2244C73.0195 12.831 72.2859 13.1338 71.4094 13.1338C70.532 13.1338 69.7988 12.831 69.2102 12.2244C68.6199 11.6185 68.3262 10.8768 68.3262 9.99979C68.3262 9.12279 68.6199 8.38099 69.2102 7.77519C69.7988 7.16849 70.532 6.86539 71.4094 6.86539C72.2813 6.86539 73.0129 7.17009 73.6055 7.77909C74.1973 8.38809 74.4934 9.12829 74.4934 9.99979C74.4934 10.8768 74.198 11.6185 73.6094 12.2244Z" fill="white"/>
<path d="M69.7794 11.7222L69.7083 11.7925C70.1689 12.2601 70.7435 12.4976 71.4095 12.4964C72.0751 12.4976 72.6505 12.2601 73.1103 11.7925C73.5739 11.3245 73.8071 10.719 73.8064 9.99989C73.8071 9.28079 73.5739 8.67529 73.1103 8.20729C72.6505 7.73969 72.0751 7.50219 71.4095 7.50339C70.7435 7.50219 70.1689 7.73969 69.7083 8.20729C69.2458 8.67529 69.0122 9.28079 69.0134 9.99989C69.0122 10.719 69.2458 11.3245 69.7083 11.7925L69.7794 11.7222L69.8505 11.6519C69.4263 11.2202 69.2142 10.6772 69.2134 9.99989C69.2142 9.32259 69.4263 8.77959 69.8505 8.34789C70.2786 7.91629 70.7899 7.70459 71.4095 7.70339C72.0286 7.70459 72.5411 7.91629 72.9681 8.34789C73.3931 8.77959 73.6052 9.32259 73.606 9.99989C73.6052 10.6772 73.3931 11.2202 72.9681 11.6519C72.5411 12.0835 72.0286 12.2952 71.4095 12.2964C70.7899 12.2952 70.2786 12.0835 69.8505 11.6519L69.7794 11.7222ZM73.6095 12.2245L73.538 12.155C72.9646 12.7425 72.2634 13.0327 71.4095 13.0339C70.5552 13.0327 69.854 12.7425 69.2817 12.155L69.279 12.1519L69.2817 12.155C68.7095 11.5655 68.4271 10.8546 68.4263 9.99989C68.4271 9.14519 68.7095 8.43429 69.2817 7.84479C69.854 7.25729 70.5552 6.96669 71.4095 6.96549C72.2579 6.96669 72.9575 7.25849 73.5341 7.84909C74.1083 8.44129 74.3923 9.15109 74.3935 9.99989C74.3923 10.8546 74.1091 11.5655 73.538 12.155L73.6095 12.2245L73.6814 12.294C74.2876 11.6714 74.5942 10.8991 74.5935 9.99989C74.5942 9.10579 74.2864 8.33509 73.6774 7.70969C73.0681 7.08189 72.3048 6.76439 71.4095 6.76549C70.5095 6.76439 69.7439 7.08039 69.1384 7.70579V7.70539C68.531 8.32839 68.2255 9.10069 68.2263 9.99989C68.2255 10.8991 68.531 11.6714 69.1384 12.2944L69.1411 12.2972L69.1384 12.294C69.7439 12.9194 70.5095 13.2347 71.4095 13.2339C72.3091 13.2347 73.0747 12.9194 73.6814 12.294L73.6095 12.2245Z" fill="white"/>
<path d="M75.5754 13V7H76.5137L79.4297 11.6676H79.4629L79.4297 10.5113V7H80.2012V13H79.3965L76.3457 8.1062H76.3125L76.3457 9.2629V13H75.5754Z" fill="white"/>
<path d="M75.5753 13.0001H75.6753V7.1001H76.4581L79.3741 11.7677H79.4628H79.5655L79.5296 10.5099V7.1001H80.1011V12.9001H79.4519L76.4011 8.0063H76.3124H76.2097L76.2456 9.2646V12.9001H75.5753V13.0001H75.6753H75.5753V13.1001H76.3456H76.4456V9.2614L76.4124 8.1036L76.3124 8.1063V8.2063H76.3456V8.1063L76.2608 8.1595L79.3409 13.1001H80.2011H80.3011V6.9001H79.4296H79.3296V10.5126L79.3628 11.6704L79.4628 11.6677V11.5677H79.4296V11.6677L79.5144 11.6146L76.569 6.9001H75.5753H75.4753V13.1001H75.5753V13.0001Z" fill="white"/>
<path d="M106.936 30H108.802V17.4988H106.936V30ZM123.743 22.002L121.604 27.4219H121.54L119.32 22.002H117.31L120.639 29.5773L118.741 33.791H120.688L125.818 22.002H123.743ZM113.161 28.5801C112.549 28.5801 111.697 28.2746 111.697 27.5184C111.697 26.5535 112.759 26.1836 113.675 26.1836C114.496 26.1836 114.881 26.3605 115.38 26.602C115.235 27.7598 114.238 28.5801 113.161 28.5801ZM113.386 21.7285C112.035 21.7285 110.636 22.3238 110.057 23.6426L111.713 24.334C112.067 23.6426 112.726 23.4172 113.418 23.4172C114.383 23.4172 115.364 23.9965 115.38 25.0258V25.1543C115.042 24.9613 114.319 24.6719 113.434 24.6719C111.649 24.6719 109.831 25.6527 109.831 27.4863C109.831 29.159 111.295 30.2367 112.935 30.2367C114.19 30.2367 114.881 29.6738 115.316 29.0145H115.38V29.9793H117.181V25.1863C117.181 22.9672 115.525 21.7285 113.386 21.7285ZM101.854 23.5238H99.1999V19.2387H101.854C103.249 19.2387 104.041 20.3937 104.041 21.3812C104.041 22.35 103.249 23.5238 101.854 23.5238ZM101.806 17.4988H97.3349V30H99.1999V25.2637H101.806C103.874 25.2637 105.907 23.7664 105.907 21.3812C105.907 18.9961 103.874 17.4988 101.806 17.4988ZM77.4249 28.5824C76.1358 28.5824 75.0565 27.5031 75.0565 26.0207C75.0565 24.5227 76.1358 23.427 77.4249 23.427C78.6976 23.427 79.6964 24.5227 79.6964 26.0207C79.6964 27.5031 78.6976 28.5824 77.4249 28.5824ZM79.5675 22.702H79.503C79.0843 22.2027 78.2784 21.7516 77.2636 21.7516C75.137 21.7516 73.1878 23.6203 73.1878 26.0207C73.1878 28.4051 75.137 30.2578 77.2636 30.2578C78.2784 30.2578 79.0843 29.8066 79.503 29.2914H79.5675V29.9035C79.5675 31.5309 78.6976 32.4008 77.296 32.4008C76.1522 32.4008 75.4433 31.5789 75.153 30.8863L73.5261 31.5629C73.9933 32.6906 75.2339 34.0762 77.296 34.0762C79.487 34.0762 81.3397 32.7871 81.3397 29.6457V22.0094H79.5675V22.702ZM82.6284 30H84.4972V17.4984H82.6284V30ZM87.2522 25.8758C87.2038 24.2324 88.5249 23.3949 89.4753 23.3949C90.2169 23.3949 90.8449 23.7652 91.0539 24.2973L87.2522 25.8758ZM93.0519 24.4582C92.6979 23.5074 91.6179 21.7516 89.4108 21.7516C87.2198 21.7516 85.3995 23.4754 85.3995 26.0047C85.3995 28.3891 87.2038 30.2578 89.6202 30.2578C91.5699 30.2578 92.6979 29.0656 93.1649 28.373L91.7149 27.4062C91.2319 28.1152 90.5709 28.5824 89.6202 28.5824C88.6698 28.5824 87.9933 28.1473 87.5581 27.2937L93.2449 24.9414L93.0519 24.4582ZM47.7437 23.0566V24.8609H52.0612C51.9323 25.8758 51.594 26.6168 51.0784 27.1324C50.4503 27.7609 49.4675 28.4535 47.7437 28.4535C45.0854 28.4535 43.0073 26.3109 43.0073 23.6527C43.0073 20.9945 45.0854 18.8516 47.7437 18.8516C49.1776 18.8516 50.2245 19.4156 50.9979 20.1406L52.2706 18.868C51.1913 17.8367 49.7573 17.0473 47.7437 17.0473C44.1026 17.0473 41.0417 20.0117 41.0417 23.6527C41.0417 27.2937 44.1026 30.2578 47.7437 30.2578C49.7093 30.2578 51.1913 29.6137 52.3511 28.4051C53.5433 27.2129 53.914 25.5375 53.914 24.1844C53.914 23.7652 53.8819 23.3789 53.8171 23.0566H47.7437ZM58.8226 28.5824C57.5335 28.5824 56.4218 27.5191 56.4218 26.0047C56.4218 24.4742 57.5335 23.427 58.8226 23.427C60.1112 23.427 61.2229 24.4742 61.2229 26.0047C61.2229 27.5191 60.1112 28.5824 58.8226 28.5824ZM58.8226 21.7516C56.4702 21.7516 54.553 23.5398 54.553 26.0047C54.553 28.4535 56.4702 30.2578 58.8226 30.2578C61.1745 30.2578 63.0917 28.4535 63.0917 26.0047C63.0917 23.5398 61.1745 21.7516 58.8226 21.7516ZM68.1358 28.5824C66.8472 28.5824 65.7354 27.5191 65.7354 26.0047C65.7354 24.4742 66.8472 23.427 68.1358 23.427C69.4245 23.427 70.5362 24.4742 70.5362 26.0047C70.5362 27.5191 69.4245 28.5824 68.1358 28.5824ZM68.1358 21.7516C65.7835 21.7516 63.8667 23.5398 63.8667 26.0047C63.8667 28.4535 65.7835 30.2578 68.1358 30.2578C70.4878 30.2578 72.405 28.4535 72.405 26.0047C72.405 23.5398 70.4878 21.7516 68.1358 21.7516Z" fill="white"/>
<path d="M10.5098 32.3896L10.4355 32.3185C10.1445 32.0106 9.97266 31.5325 9.97266 30.9134V31.0591V8.94315C9.97266 8.94115 9.97266 8.93965 9.97266 8.93805C9.97266 8.93995 9.97266 8.94155 9.97266 8.94355V9.08965C9.97266 8.41925 10.173 7.91425 10.5086 7.61145L22.8984 20.0009L10.5098 32.3896ZM9.97266 8.93685C9.97266 8.88175 9.97416 8.82825 9.97696 8.77555C9.97416 8.82785 9.97266 8.88175 9.97266 8.93685ZM9.97696 8.77315C9.97696 8.77245 9.97696 8.77165 9.97726 8.77085C9.97696 8.77165 9.97696 8.77245 9.97696 8.77315ZM9.97726 8.76615C9.97726 8.76575 9.97726 8.76535 9.97726 8.76495C9.97726 8.76535 9.97726 8.76575 9.97726 8.76615Z" fill="url(#paint0_linear_491_3843)"/>
<path d="M27.0277 24.2783L27.1219 24.2248L32.0148 21.4447C32.4813 21.1795 32.7922 20.858 32.9473 20.5178C32.7926 20.858 32.4816 21.1799 32.0148 21.4451L27.1219 24.2252L27.0277 24.2783ZM27.0289 24.1318L22.8984 20.0006L27.0285 15.8701L32.0148 18.7029C32.648 19.0627 33.0035 19.5264 33.0629 20.0002C33.0629 20.0006 33.0629 20.0014 33.0629 20.0021C33.0035 20.4748 32.648 20.9389 32.0148 21.2986L27.0289 24.1318Z" fill="url(#paint1_linear_491_3843)"/>
<path d="M11.3928 32.8613C11.0467 32.8613 10.7447 32.7488 10.5092 32.5363L10.5097 32.5359C10.7452 32.7484 11.0476 32.8613 11.3937 32.8613C11.4237 32.8613 11.4542 32.8605 11.4851 32.859C11.4538 32.8605 11.4228 32.8613 11.3928 32.8613ZM11.3933 32.7148C11.0472 32.7152 10.7452 32.6023 10.5097 32.3898V32.3895L22.8983 20.0008L27.0288 24.132L12.5135 32.3793C12.1119 32.607 11.7315 32.7148 11.3933 32.7148ZM10.5062 32.5336C10.4843 32.5137 10.4628 32.4926 10.4417 32.4707L10.5062 32.5336Z" fill="url(#paint2_linear_491_3843)"/>
<path d="M22.8983 20.001L10.5085 7.61148C10.744 7.39938 11.0456 7.28688 11.3913 7.28688C11.7304 7.28688 12.1112 7.39508 12.5136 7.62318L27.0284 15.8705L22.8983 20.001ZM27.1218 15.7772L12.5136 7.47718C12.1112 7.24898 11.7304 7.14078 11.3913 7.14078C11.3897 7.14078 11.3886 7.14078 11.387 7.14078C11.389 7.14078 11.3905 7.14078 11.3929 7.14078C11.7312 7.14078 12.1116 7.24858 12.5136 7.47678L27.1218 15.7772Z" fill="url(#paint3_linear_491_3843)"/>
<path d="M11.4852 32.8589C11.7996 32.8409 12.1477 32.7327 12.5137 32.5253L27.0277 24.2784L12.5137 32.5253C12.148 32.7331 11.7996 32.8409 11.4852 32.8589ZM10.5094 32.5362L10.5063 32.5335C10.5074 32.5343 10.5086 32.5354 10.5094 32.5362ZM10.4418 32.4706L10.4355 32.4644V32.464C10.4379 32.4663 10.4398 32.4686 10.4418 32.4706Z" fill="black"/>
<path d="M27.0278 24.2783L27.122 24.2248L27.0278 24.2783Z" fill="url(#paint4_linear_491_3843)"/>
<path d="M11.3938 32.8613C11.0477 32.8613 10.7453 32.7484 10.5098 32.5359L10.5094 32.5363C10.5086 32.5355 10.5074 32.5344 10.5063 32.5336L10.4418 32.4707C10.4398 32.4687 10.4379 32.4664 10.4355 32.4641L10.5098 32.3898C10.7453 32.6023 11.0473 32.7152 11.3934 32.7148C11.7316 32.7148 12.1121 32.607 12.5137 32.3793L27.0289 24.132L27.1219 24.225L27.0277 24.2785L12.5137 32.5254C12.1477 32.7328 11.7996 32.841 11.4852 32.859C11.4543 32.8605 11.4238 32.8613 11.3938 32.8613Z" fill="url(#paint5_linear_491_3843)"/>
<path d="M10.4355 32.4644C10.1445 32.1565 9.97266 31.6784 9.97266 31.0593V31.0589C9.97266 31.6784 10.1445 32.1561 10.4355 32.464V32.4644Z" fill="black"/>
<path d="M10.4355 32.4639C10.1445 32.156 9.97266 31.6783 9.97266 31.0588V30.9131C9.97266 31.5322 10.1445 32.0103 10.4355 32.3182L10.5098 32.3893L10.4355 32.4639Z" fill="url(#paint6_linear_491_3843)"/>
<path d="M10.4355 32.4639L10.5098 32.3893V32.3896L10.4355 32.4639Z" fill="url(#paint7_linear_491_3843)"/>
<path d="M32.9473 20.5181C33.0242 20.3493 33.0629 20.1759 33.0629 20.0024C33.0629 20.0021 33.0629 20.0017 33.0629 20.0017C33.0629 20.1755 33.0242 20.3489 32.9473 20.5181Z" fill="black"/>
<path d="M27.1221 24.2251L27.0291 24.1321L32.015 21.2989C32.6482 20.9392 33.0037 20.4751 33.0631 20.0024C33.0631 20.1759 33.0244 20.3493 32.9475 20.5181C32.7924 20.8583 32.4815 21.1798 32.015 21.445L27.1221 24.2251Z" fill="url(#paint8_linear_491_3843)"/>
<path d="M33.063 20.001V20.0006C33.0626 19.4775 32.713 18.9545 32.0149 18.5576L27.122 15.7775H27.1216L27.122 15.7772L32.0149 18.5572C32.7138 18.9541 33.0638 19.4779 33.063 20.001Z" fill="#404040"/>
<path d="M33.063 20.0005C33.0036 19.5267 32.6481 19.063 32.0149 18.7032L27.0286 15.8704L27.1216 15.7774H27.122L32.0149 18.5575C32.713 18.9544 33.0626 19.4774 33.063 20.0005Z" fill="url(#paint9_linear_491_3843)"/>
<path d="M9.97266 8.93799C9.97266 8.93759 9.97266 8.93719 9.97266 8.93679C9.97266 8.93719 9.97266 8.93759 9.97266 8.93799ZM9.97696 8.77549C9.97696 8.77469 9.97696 8.77389 9.97696 8.77309C9.97696 8.77389 9.97696 8.77469 9.97696 8.77549ZM9.97726 8.77079C9.97726 8.76919 9.97726 8.76769 9.97726 8.76609C9.97726 8.76769 9.97726 8.76919 9.97726 8.77079ZM9.97726 8.76489C10.0352 7.73759 10.5938 7.14419 11.384 7.14069C11.0414 7.14269 10.743 7.25519 10.5094 7.46569V7.46529L10.5066 7.46809C10.482 7.49029 10.4586 7.51379 10.4355 7.53799C10.173 7.81569 10.0074 8.23169 9.97726 8.76489Z" fill="#404040"/>
<path d="M9.97266 9.08936V8.94326C9.97266 8.94126 9.97266 8.93966 9.97266 8.93776C9.97266 8.93736 9.97266 8.93696 9.97266 8.93656C9.97266 8.88146 9.97416 8.82756 9.97696 8.77526C9.97696 8.77446 9.97696 8.77366 9.97696 8.77286C9.97696 8.77216 9.97696 8.77136 9.97726 8.77056C9.97726 8.76896 9.97726 8.76746 9.97726 8.76586C9.97726 8.76546 9.97726 8.76506 9.97726 8.76466C10.0074 8.23146 10.173 7.81545 10.4355 7.53775L10.5086 7.61116C10.173 7.91396 9.97266 8.41895 9.97266 9.08936ZM10.5066 7.46785L10.5094 7.46506C10.5086 7.46626 10.5074 7.46705 10.5066 7.46785Z" fill="url(#paint10_linear_491_3843)"/>
<path d="M27.0285 15.8701L12.5137 7.62282C12.1113 7.39472 11.7305 7.28652 11.3914 7.28652C11.0457 7.28652 10.7441 7.39902 10.5086 7.61112L10.4355 7.53772C10.4586 7.51352 10.482 7.49002 10.5066 7.46782C10.5074 7.46702 10.5086 7.46622 10.5094 7.46542C10.743 7.25492 11.0414 7.14242 11.384 7.14042C11.3848 7.14042 11.3859 7.14042 11.3871 7.14042C11.3887 7.14042 11.3898 7.14042 11.3914 7.14042C11.7305 7.14042 12.1113 7.24862 12.5137 7.47682L27.1219 15.7768L27.1215 15.7771L27.0285 15.8701Z" fill="url(#paint11_linear_491_3843)"/>
<defs>
<linearGradient id="paint0_linear_491_3843" x1="21.7998" y1="8.70985" x2="5.01726" y2="25.4924" gradientUnits="userSpaceOnUse">
<stop stop-color="#00A0FF"/>
<stop offset="0.00657445" stop-color="#00A1FF"/>
<stop offset="0.2601" stop-color="#00BEFF"/>
<stop offset="0.5122" stop-color="#00D2FF"/>
<stop offset="0.7604" stop-color="#00DFFF"/>
<stop offset="1" stop-color="#00E3FF"/>
</linearGradient>
<linearGradient id="paint1_linear_491_3843" x1="33.8344" y1="20.0012" x2="9.63744" y2="20.0012" gradientUnits="userSpaceOnUse">
<stop stop-color="#FFE000"/>
<stop offset="0.4087" stop-color="#FFBD00"/>
<stop offset="0.7754" stop-color="#FFA500"/>
<stop offset="1" stop-color="#FF9C00"/>
</linearGradient>
<linearGradient id="paint2_linear_491_3843" x1="24.8269" y1="22.2961" x2="2.06854" y2="45.0544" gradientUnits="userSpaceOnUse">
<stop stop-color="#FF3A44"/>
<stop offset="1" stop-color="#C31162"/>
</linearGradient>
<linearGradient id="paint3_linear_491_3843" x1="7.29724" y1="0.17638" x2="17.4597" y2="10.3389" gradientUnits="userSpaceOnUse">
<stop stop-color="#32A071"/>
<stop offset="0.0685" stop-color="#2DA771"/>
<stop offset="0.4762" stop-color="#15CF74"/>
<stop offset="0.8009" stop-color="#06E775"/>
<stop offset="1" stop-color="#00F076"/>
</linearGradient>
<linearGradient id="paint4_linear_491_3843" x1="33.8343" y1="20.0011" x2="9.63821" y2="20.0011" gradientUnits="userSpaceOnUse">
<stop stop-color="#CCB300"/>
<stop offset="0.4087" stop-color="#CC9700"/>
<stop offset="0.7754" stop-color="#CC8400"/>
<stop offset="1" stop-color="#CC7D00"/>
</linearGradient>
<linearGradient id="paint5_linear_491_3843" x1="24.827" y1="22.2961" x2="2.06874" y2="45.0544" gradientUnits="userSpaceOnUse">
<stop stop-color="#CC2E36"/>
<stop offset="1" stop-color="#9C0E4E"/>
</linearGradient>
<linearGradient id="paint6_linear_491_3843" x1="21.7998" y1="8.70946" x2="5.01725" y2="25.492" gradientUnits="userSpaceOnUse">
<stop stop-color="#008DE0"/>
<stop offset="0.00657445" stop-color="#008DE0"/>
<stop offset="0.2601" stop-color="#00A7E0"/>
<stop offset="0.5122" stop-color="#00B8E0"/>
<stop offset="0.7604" stop-color="#00C4E0"/>
<stop offset="1" stop-color="#00C7E0"/>
</linearGradient>
<linearGradient id="paint7_linear_491_3843" x1="24.8272" y1="22.2964" x2="2.06999" y2="45.0549" gradientUnits="userSpaceOnUse">
<stop stop-color="#E0333C"/>
<stop offset="1" stop-color="#AB0F56"/>
</linearGradient>
<linearGradient id="paint8_linear_491_3843" x1="33.8346" y1="20.0015" x2="9.63755" y2="20.0015" gradientUnits="userSpaceOnUse">
<stop stop-color="#E0C500"/>
<stop offset="0.4087" stop-color="#E0A600"/>
<stop offset="0.7754" stop-color="#E09100"/>
<stop offset="1" stop-color="#E08900"/>
</linearGradient>
<linearGradient id="paint9_linear_491_3843" x1="33.8345" y1="20.0015" x2="9.63747" y2="20.0015" gradientUnits="userSpaceOnUse">
<stop stop-color="#FFE840"/>
<stop offset="0.4087" stop-color="#FFCE40"/>
<stop offset="0.7754" stop-color="#FFBC40"/>
<stop offset="1" stop-color="#FFB540"/>
</linearGradient>
<linearGradient id="paint10_linear_491_3843" x1="21.7997" y1="8.70956" x2="5.01724" y2="25.492" gradientUnits="userSpaceOnUse">
<stop stop-color="#40B8FF"/>
<stop offset="0.00657445" stop-color="#40B9FF"/>
<stop offset="0.2601" stop-color="#40CEFF"/>
<stop offset="0.5122" stop-color="#40DDFF"/>
<stop offset="0.7604" stop-color="#40E7FF"/>
<stop offset="1" stop-color="#40EAFF"/>
</linearGradient>
<linearGradient id="paint11_linear_491_3843" x1="7.29735" y1="0.176016" x2="17.4598" y2="10.3385" gradientUnits="userSpaceOnUse">
<stop stop-color="#65B895"/>
<stop offset="0.0685" stop-color="#62BD95"/>
<stop offset="0.4762" stop-color="#50DB97"/>
<stop offset="0.8009" stop-color="#44ED98"/>
<stop offset="1" stop-color="#40F498"/>
</linearGradient>
</defs>
</svg>
