<svg width="50" height="50" viewBox="0 0 50 50" fill="none" xmlns="http://www.w3.org/2000/svg">
<rect width="50" height="50" rx="7" fill="url(#paint0_linear_491_3802)"/>
<path d="M41.7049 29.4292C40.796 29.4292 40.2129 28.4923 39.1839 26.5012C38.1549 24.5101 36.68 21.6211 33.6959 21.6211C30.7118 21.6211 29.2712 24.432 28.2079 26.5012C27.1447 28.5703 26.5959 29.4292 25.7041 29.4292C24.8123 29.4292 24.212 28.4923 23.183 26.5012C22.154 24.5101 20.6792 21.6211 17.6951 21.6211C14.711 21.6211 13.2704 24.432 12.2071 26.5012C11.1438 28.5703 10.6041 29.4535 9.67798 29.4535C7.67247 30.0273 8.11089 32.7595 9.67798 33.2162C10.039 33.2162 10.3858 33.2922 10.7041 33.2162C13.0168 32.664 14.2545 30.2721 15.1741 28.4532C16.2202 26.3841 16.769 25.5252 17.6951 25.5252C18.6212 25.5252 19.1871 26.4621 20.199 28.4532C21.2108 30.4443 22.7028 33.3333 25.7041 33.3333C28.7053 33.3333 30.1287 30.5224 31.192 28.4532C32.2553 26.3841 32.787 25.5252 33.7131 25.5252C34.6391 25.5252 35.2051 26.4621 36.2341 28.4532C37.2631 30.4443 38.738 33.3333 41.7221 33.3333C43.7097 33.3333 44.0313 29.5512 41.7049 29.4292Z" fill="white"/>
<ellipse cx="17.7747" cy="18.6155" rx="1.99618" ry="1.949" fill="white"/>
<ellipse cx="33.3524" cy="18.6155" rx="1.99618" ry="1.949" fill="white"/>
<defs>
<linearGradient id="paint0_linear_491_3802" x1="0.499997" y1="50.5" x2="50" y2="0.500002" gradientUnits="userSpaceOnUse">
<stop offset="0.00340409" stop-color="#724C9B"/>
<stop offset="1" stop-color="#FF2C62"/>
</linearGradient>
</defs>
</svg>
