<svg width="32" height="32" viewBox="0 0 32 32" fill="none" xmlns="http://www.w3.org/2000/svg">
<g clip-path="url(#clip0_491_3971)">
<path d="M2.0001 2.17723C-0.514564 4.78924 0.0001029 7.5639 0.0001029 15.9932C0.0001029 22.9932 -1.22123 30.0106 5.17077 31.6626C7.16677 32.1759 24.8521 32.1759 26.8454 31.6599C29.5068 30.9732 31.6721 28.8146 31.9681 25.0506C32.0094 24.5252 32.0094 7.47057 31.9668 6.93457C31.6521 2.92523 29.1841 0.614566 25.9321 0.146566C25.1868 0.0385658 25.0374 0.0065658 21.2134 -0.000100873C7.64943 0.0065658 4.6761 -0.597435 2.0001 2.17723Z" fill="url(#paint0_linear_491_3971)"/>
<path d="M15.9973 4.18523C11.1559 4.18523 6.55858 3.75456 4.80258 8.26123C4.07725 10.1226 4.18258 12.5399 4.18258 16.0012C4.18258 19.0386 4.08525 21.8932 4.80258 23.7399C6.55458 28.2492 11.1893 27.8172 15.9946 27.8172C20.6306 27.8172 25.4106 28.2999 27.1879 23.7399C27.9146 21.8599 27.8079 19.4786 27.8079 16.0012C27.8079 11.3852 28.0626 8.40523 25.8239 6.1679C23.5573 3.90123 20.4919 4.18523 15.9919 4.18523H15.9973ZM14.9386 6.31456C25.0373 6.29856 26.3226 5.1759 25.6133 20.7719C25.3613 26.2879 21.1613 25.6826 15.9986 25.6826C6.58525 25.6826 6.31458 25.4132 6.31458 15.9959C6.31458 6.46923 7.06125 6.3199 14.9386 6.3119V6.31456ZM22.3039 8.2759C21.5213 8.2759 20.8866 8.91056 20.8866 9.69323C20.8866 10.4759 21.5213 11.1106 22.3039 11.1106C23.0866 11.1106 23.7213 10.4759 23.7213 9.69323C23.7213 8.91056 23.0866 8.2759 22.3039 8.2759ZM15.9973 9.93323C12.6466 9.93323 9.93058 12.6506 9.93058 16.0012C9.93058 19.3519 12.6466 22.0679 15.9973 22.0679C19.3479 22.0679 22.0626 19.3519 22.0626 16.0012C22.0626 12.6506 19.3479 9.93323 15.9973 9.93323ZM15.9973 12.0626C21.2039 12.0626 21.2106 19.9399 15.9973 19.9399C10.7919 19.9399 10.7839 12.0626 15.9973 12.0626Z" fill="white"/>
</g>
<defs>
<linearGradient id="paint0_linear_491_3971" x1="2.06146" y1="29.956" x2="31.8021" y2="4.21589" gradientUnits="userSpaceOnUse">
<stop stop-color="#FFDD55"/>
<stop offset="0.5" stop-color="#FF543E"/>
<stop offset="1" stop-color="#C837AB"/>
</linearGradient>
<clipPath id="clip0_491_3971">
<rect width="32" height="32" fill="white"/>
</clipPath>
</defs>
</svg>
