<svg width="120" height="40" viewBox="0 0 120 40" fill="none" xmlns="http://www.w3.org/2000/svg">
<path d="M110.444 0.00013H9.56145C9.19372 0.00013 8.8304 0.00013 8.46364 0.00213C8.15663 0.00413 7.85207 0.00994 7.54211 0.01483C6.86874 0.0227318 6.19695 0.0818063 5.53259 0.19154C4.86915 0.303663 4.2265 0.515046 3.62637 0.81854C3.02697 1.1246 2.47929 1.5223 2.00318 1.9972C1.52457 2.47077 1.12561 3.01815 0.82165 3.61829C0.516847 4.21724 0.305496 4.85907 0.194896 5.52161C0.083244 6.18332 0.0231632 6.85265 0.0151925 7.52361C0.00588648 7.83021 0.00490373 8.13783 0 8.44447V31.5587C0.00490373 31.8692 0.00588648 32.17 0.0151925 32.4806C0.0231657 33.1516 0.0832464 33.8209 0.194896 34.4825C0.30519 35.1455 0.516554 35.7877 0.82165 36.3868C1.12548 36.985 1.52449 37.5302 2.00318 38.0011C2.47748 38.4781 3.02552 38.8761 3.62637 39.1798C4.2265 39.4841 4.86908 39.6968 5.53259 39.8106C6.19707 39.9195 6.86879 39.9786 7.54211 39.9874C7.85207 39.9942 8.15663 39.9981 8.46364 39.9981C8.83039 40.0001 9.19374 40.0001 9.56145 40.0001H110.444C110.804 40.0001 111.171 40.0001 111.531 39.9981C111.837 39.9981 112.15 39.9942 112.455 39.9874C113.128 39.9791 113.798 39.92 114.461 39.8106C115.127 39.696 115.772 39.4834 116.375 39.1798C116.975 38.8759 117.522 38.478 117.996 38.0011C118.474 37.5284 118.874 36.9836 119.181 36.3868C119.484 35.7872 119.693 35.1451 119.802 34.4825C119.914 33.8208 119.976 33.1516 119.988 32.4806C119.992 32.17 119.992 31.8692 119.992 31.5587C120 31.1954 120 30.8341 120 30.4649V9.53626C120 9.17005 120 8.80677 119.992 8.44447C119.992 8.13783 119.992 7.83021 119.988 7.52357C119.976 6.85255 119.914 6.18337 119.802 5.52157C119.693 4.85941 119.484 4.21763 119.181 3.61825C118.562 2.41533 117.581 1.43616 116.375 0.81845C115.772 0.515697 115.127 0.30437 114.461 0.19145C113.798 0.0812328 113.128 0.0221378 112.455 0.01469C112.15 0.00981 111.837 0.00395 111.531 0.002C111.171 0 110.804 0 110.444 0V0.00013Z" fill="#A6A6A6"/>
<path d="M8.46856 39.125C8.16303 39.125 7.86487 39.1211 7.56174 39.1143C6.93376 39.1061 6.30725 39.0516 5.68735 38.9512C5.10932 38.8519 4.54937 38.6673 4.02596 38.4033C3.50735 38.1415 3.03433 37.7983 2.62504 37.3867C2.20981 36.98 1.86412 36.5082 1.60166 35.9902C1.33631 35.4688 1.15267 34.9099 1.05714 34.333C0.953972 33.7131 0.898156 33.0863 0.890169 32.458C0.883812 32.2471 0.875488 31.5449 0.875488 31.5449V8.44434C0.875488 8.44434 0.884353 7.75293 0.89022 7.5498C0.897867 6.92248 0.953358 6.29665 1.05621 5.67773C1.15192 5.09925 1.3357 4.53875 1.6012 4.01563C1.8627 3.49794 2.20647 3.02586 2.61919 2.61768C3.03145 2.20562 3.50597 1.8606 4.02547 1.59521C4.54767 1.33209 5.10657 1.14873 5.68343 1.05127C6.30537 0.949836 6.93405 0.894996 7.5642 0.88721L8.46906 0.875H111.526L112.442 0.8877C113.066 0.895099 113.689 0.94945 114.305 1.05029C114.888 1.14898 115.453 1.33362 115.981 1.59814C117.022 2.13299 117.869 2.97916 118.403 4.01807C118.664 4.53758 118.845 5.09351 118.939 5.66699C119.044 6.29099 119.102 6.92174 119.114 7.5542C119.117 7.8374 119.117 8.1416 119.117 8.44434C119.125 8.81934 119.125 9.17627 119.125 9.53613V30.4648C119.125 30.8281 119.125 31.1826 119.117 31.54C119.117 31.8652 119.117 32.1631 119.113 32.4697C119.101 33.0909 119.044 33.7104 118.941 34.3232C118.848 34.9043 118.665 35.4675 118.4 35.9932C118.136 36.5056 117.792 36.9733 117.381 37.3789C116.972 37.7927 116.498 38.1379 115.978 38.4014C115.451 38.6674 114.887 38.8527 114.305 38.9512C113.686 39.0522 113.059 39.1067 112.431 39.1143C112.137 39.1211 111.83 39.125 111.531 39.125L110.444 39.127L8.46856 39.125Z" fill="black"/>
<path d="M24.8384 20.3008C24.8492 19.4662 25.0715 18.6478 25.4847 17.9218C25.8978 17.1959 26.4885 16.5859 27.2015 16.1488C26.7485 15.5036 26.1509 14.9727 25.4561 14.5981C24.7614 14.2236 23.9886 14.0157 23.1992 13.9911C21.5152 13.8148 19.8827 14.9959 19.0246 14.9959C18.1499 14.9959 16.8287 14.0086 15.406 14.0378C14.4857 14.0674 13.5889 14.3343 12.8028 14.8123C12.0167 15.2904 11.3682 15.9633 10.9205 16.7656C8.98105 20.1141 10.4277 25.0351 12.2855 27.7417C13.215 29.0671 14.3013 30.5475 15.7228 30.495C17.1137 30.4375 17.6332 29.6105 19.3122 29.6105C20.9756 29.6105 21.463 30.495 22.9133 30.4616C24.4058 30.4375 25.3462 29.1304 26.2431 27.7925C26.911 26.8481 27.4249 25.8044 27.7658 24.7C26.8987 24.3343 26.1587 23.7221 25.6381 22.9398C25.1175 22.1575 24.8394 21.2397 24.8384 20.3008Z" fill="white"/>
<path d="M22.0989 12.2108C22.9127 11.2366 23.3137 9.98445 23.2166 8.72021C21.9733 8.85044 20.8248 9.44299 20 10.3798C19.5967 10.8375 19.2879 11.3699 19.0911 11.9467C18.8943 12.5235 18.8134 13.1333 18.8531 13.7412C19.475 13.7476 20.0902 13.6132 20.6524 13.3481C21.2147 13.083 21.7092 12.6942 22.0989 12.2108Z" fill="white"/>
<path d="M42.421 27.1397H37.6743L36.5344 30.4961H34.5239L39.0199 18.0781H41.1088L45.6047 30.4961H43.56L42.421 27.1397ZM38.166 25.5908H41.9285L40.0737 20.1436H40.0218L38.166 25.5908Z" fill="white"/>
<path d="M55.3145 25.9699C55.3145 28.7834 53.8044 30.591 51.5256 30.591C50.9483 30.6211 50.3742 30.4885 49.869 30.2084C49.3638 29.9283 48.9479 29.5119 48.6689 29.007H48.6258V33.4914H46.7622V21.4426H48.5661V22.9485H48.6004C48.8922 22.446 49.3151 22.0318 49.8241 21.7499C50.3332 21.4681 50.9093 21.3291 51.4913 21.3479C53.7956 21.3479 55.3145 23.1643 55.3145 25.9699ZM53.399 25.9699C53.399 24.1369 52.449 22.9319 50.9997 22.9319C49.5758 22.9319 48.618 24.1623 48.618 25.9699C48.618 27.7942 49.5758 29.0158 50.9997 29.0158C52.4491 29.0158 53.399 27.8196 53.399 25.9699Z" fill="white"/>
<path d="M65.3072 25.9699C65.3072 28.7834 63.7971 30.591 61.5182 30.591C60.941 30.6211 60.3669 30.4885 59.8617 30.2084C59.3565 29.9283 58.9406 29.5119 58.6616 29.007H58.6185V33.4914H56.7549V21.4426H58.5588V22.9484H58.593C58.8848 22.446 59.3077 22.0318 59.8168 21.7499C60.3258 21.4681 60.902 21.3291 61.4839 21.3479C63.7883 21.3479 65.3072 23.1643 65.3072 25.9699ZM63.3917 25.9699C63.3917 24.1369 62.4417 22.9318 60.9924 22.9318C59.5684 22.9318 58.6107 24.1623 58.6107 25.9699C58.6107 27.7942 59.5684 29.0158 60.9924 29.0158C62.4417 29.0158 63.3917 27.8195 63.3917 25.9699H63.3917Z" fill="white"/>
<path d="M71.9116 27.0362C72.0497 28.2676 73.2494 29.0762 74.8887 29.0762C76.4595 29.0762 77.5896 28.2676 77.5896 27.1572C77.5896 26.1934 76.908 25.6162 75.2941 25.2207L73.6803 24.833C71.3936 24.2822 70.332 23.2158 70.332 21.4854C70.332 19.3428 72.2044 17.8711 74.8632 17.8711C77.4946 17.8711 79.2985 19.3428 79.3592 21.4854H77.478C77.3653 20.2461 76.3381 19.4981 74.8368 19.4981C73.3355 19.4981 72.3082 20.2549 72.3082 21.3565C72.3082 22.2344 72.9644 22.751 74.5694 23.1465L75.9414 23.4824C78.4964 24.0849 79.558 25.1084 79.558 26.9248C79.558 29.248 77.7022 30.7031 74.7506 30.7031C71.989 30.7031 70.1244 29.2822 70.0039 27.0361L71.9116 27.0362Z" fill="white"/>
<path d="M83.5802 19.2998V21.4424H85.3067V22.9141H83.5802V27.9053C83.5802 28.6807 83.9259 29.042 84.6849 29.042C84.8898 29.0384 85.0945 29.0241 85.2979 28.999V30.4619C84.9567 30.5255 84.6099 30.5543 84.2628 30.5478C82.4246 30.5478 81.7078 29.8593 81.7078 28.1035V22.9141H80.3877V21.4424H81.7078V19.2998H83.5802Z" fill="white"/>
<path d="M86.3066 25.9697C86.3066 23.1211 87.9891 21.3311 90.6126 21.3311C93.245 21.3311 94.9196 23.1211 94.9196 25.9697C94.9196 28.8262 93.2538 30.6084 90.6126 30.6084C87.9724 30.6084 86.3066 28.8262 86.3066 25.9697ZM93.0207 25.9697C93.0207 24.0156 92.1227 22.8623 90.6126 22.8623C89.1025 22.8623 88.2055 24.0244 88.2055 25.9697C88.2055 27.9316 89.1025 29.0762 90.6126 29.0762C92.1227 29.0762 93.0207 27.9316 93.0207 25.9697H93.0207Z" fill="white"/>
<path d="M96.4561 21.4425H98.2335V22.9835H98.2766C98.3969 22.5022 98.6796 22.0769 99.0773 21.779C99.475 21.4811 99.9634 21.3288 100.46 21.3478C100.675 21.347 100.889 21.3703 101.099 21.4171V23.1554C100.828 23.0728 100.545 23.0348 100.262 23.0431C99.9909 23.0321 99.721 23.0797 99.4704 23.1826C99.2199 23.2855 98.9946 23.4412 98.8102 23.6391C98.6257 23.837 98.4863 24.0724 98.4016 24.3291C98.317 24.5857 98.289 24.8576 98.3197 25.1261V30.4962H96.4561L96.4561 21.4425Z" fill="white"/>
<path d="M109.691 27.8369C109.441 29.4805 107.836 30.6084 105.782 30.6084C103.141 30.6084 101.501 28.8437 101.501 26.0127C101.501 23.1729 103.15 21.3311 105.704 21.3311C108.216 21.3311 109.795 23.0518 109.795 25.7969V26.4336H103.383V26.5459C103.353 26.8791 103.395 27.2148 103.505 27.5306C103.616 27.8464 103.793 28.1352 104.024 28.3778C104.255 28.6203 104.535 28.8111 104.845 28.9374C105.156 29.0637 105.49 29.1226 105.825 29.1103C106.265 29.1515 106.707 29.0498 107.085 28.8203C107.463 28.5909 107.756 28.246 107.922 27.8369L109.691 27.8369ZM103.392 25.1348H107.931C107.947 24.8352 107.902 24.5354 107.797 24.2541C107.692 23.9729 107.53 23.7164 107.321 23.5006C107.111 23.2849 106.86 23.1145 106.582 23.0003C106.303 22.8861 106.004 22.8305 105.704 22.8369C105.4 22.8351 105.099 22.8933 104.819 23.008C104.538 23.1227 104.282 23.2918 104.067 23.5054C103.853 23.7191 103.682 23.973 103.566 24.2527C103.45 24.5323 103.391 24.8321 103.392 25.1348V25.1348Z" fill="white"/>
<path d="M37.9323 8.73089C38.323 8.70293 38.7151 8.76179 39.0802 8.90323C39.4454 9.04466 39.7745 9.26514 40.0438 9.54876C40.3131 9.83239 40.516 10.1721 40.6377 10.5434C40.7595 10.9146 40.7971 11.3082 40.7478 11.6957C40.7478 13.602 39.7147 14.6977 37.9323 14.6977H35.771V8.73089H37.9323ZM36.7003 13.8539H37.8285C38.1077 13.8705 38.3871 13.8249 38.6464 13.7203C38.9056 13.6157 39.1382 13.4547 39.3273 13.2491C39.5163 13.0436 39.6569 12.7986 39.739 12.532C39.8211 12.2653 39.8426 11.9838 39.8018 11.7079C39.8396 11.4331 39.816 11.1533 39.7326 10.8886C39.6493 10.624 39.5083 10.381 39.3197 10.177C39.1311 9.9731 38.8996 9.81329 38.6418 9.70905C38.384 9.60481 38.1063 9.55873 37.8285 9.5741H36.7003V13.8539Z" fill="white"/>
<path d="M41.7977 12.4443C41.7693 12.1484 41.8032 11.8498 41.8973 11.5677C41.9914 11.2857 42.1436 11.0263 42.3441 10.8063C42.5446 10.5864 42.789 10.4106 43.0616 10.2903C43.3343 10.17 43.6291 10.1079 43.9272 10.1079C44.2253 10.1079 44.5201 10.17 44.7927 10.2903C45.0653 10.4106 45.3097 10.5864 45.5102 10.8063C45.7107 11.0263 45.8629 11.2857 45.957 11.5677C46.0511 11.8498 46.0851 12.1484 46.0567 12.4443C46.0856 12.7405 46.052 13.0395 45.9582 13.322C45.8643 13.6045 45.7122 13.8644 45.5117 14.0848C45.3111 14.3052 45.0666 14.4813 44.7937 14.6019C44.5208 14.7224 44.2256 14.7847 43.9272 14.7847C43.6287 14.7847 43.3336 14.7224 43.0607 14.6019C42.7878 14.4813 42.5432 14.3052 42.3426 14.0848C42.1421 13.8644 41.99 13.6045 41.8961 13.322C41.8023 13.0395 41.7687 12.7405 41.7977 12.4443ZM45.14 12.4443C45.14 11.4682 44.7003 10.8974 43.9286 10.8974C43.154 10.8974 42.7182 11.4682 42.7182 12.4443C42.7182 13.4282 43.154 13.9946 43.9286 13.9946C44.7003 13.9946 45.14 13.4243 45.14 12.4443H45.14Z" fill="white"/>
<path d="M51.7179 14.6978H50.7934L49.8602 11.3813H49.7897L48.8603 14.6978H47.9446L46.7 10.1948H47.6039L48.4128 13.6308H48.4794L49.4077 10.1948H50.2627L51.191 13.6308H51.2616L52.0665 10.1948H52.9577L51.7179 14.6978Z" fill="white"/>
<path d="M54.0046 10.1949H54.8625V10.9102H54.9291C55.0421 10.6533 55.2326 10.4379 55.4742 10.2941C55.7157 10.1503 55.9962 10.0852 56.2766 10.1079C56.4963 10.0915 56.717 10.1245 56.9221 10.2046C57.1273 10.2847 57.3118 10.4098 57.4619 10.5707C57.612 10.7315 57.7239 10.924 57.7893 11.1338C57.8546 11.3436 57.8718 11.5654 57.8396 11.7827V14.6977H56.9484V12.0059C56.9484 11.2823 56.6331 10.9224 55.974 10.9224C55.8248 10.9155 55.6759 10.9408 55.5375 10.9966C55.399 11.0525 55.2743 11.1375 55.1719 11.2459C55.0695 11.3543 54.9918 11.4834 54.9442 11.6246C54.8965 11.7657 54.88 11.9154 54.8958 12.0635V14.6978H54.0046L54.0046 10.1949Z" fill="white"/>
<path d="M59.2595 8.43701H60.1507V14.6978H59.2595V8.43701Z" fill="white"/>
<path d="M61.3894 12.4444C61.3611 12.1484 61.395 11.8499 61.4892 11.5678C61.5833 11.2857 61.7355 11.0263 61.936 10.8064C62.1366 10.5864 62.381 10.4106 62.6536 10.2903C62.9262 10.17 63.2211 10.1079 63.5192 10.1079C63.8173 10.1079 64.1121 10.17 64.3848 10.2903C64.6574 10.4106 64.9018 10.5864 65.1023 10.8064C65.3029 11.0263 65.4551 11.2857 65.5492 11.5678C65.6433 11.8499 65.6773 12.1484 65.6489 12.4444C65.6778 12.7406 65.6442 13.0396 65.5504 13.3221C65.4565 13.6046 65.3044 13.8645 65.1038 14.0849C64.9032 14.3053 64.6586 14.4814 64.3857 14.6019C64.1128 14.7225 63.8177 14.7847 63.5192 14.7847C63.2207 14.7847 62.9256 14.7225 62.6527 14.6019C62.3798 14.4814 62.1352 14.3053 61.9346 14.0849C61.734 13.8645 61.5819 13.6046 61.488 13.3221C61.3941 13.0396 61.3606 12.7406 61.3894 12.4444ZM64.7318 12.4444C64.7318 11.4683 64.2921 10.8975 63.5204 10.8975C62.7458 10.8975 62.31 11.4683 62.31 12.4444C62.31 13.4283 62.7458 13.9947 63.5204 13.9947C64.2921 13.9947 64.7318 13.4244 64.7318 12.4444H64.7318Z" fill="white"/>
<path d="M66.5872 13.4243C66.5872 12.6138 67.1924 12.1465 68.2667 12.0801L69.4898 12.0098V11.6211C69.4898 11.1455 69.1745 10.877 68.5654 10.877C68.0679 10.877 67.7232 11.0591 67.6242 11.3774H66.7615C66.8525 10.604 67.5821 10.1079 68.6065 10.1079C69.7386 10.1079 70.3771 10.6699 70.3771 11.6211V14.6978H69.5192V14.0649H69.4487C69.3056 14.2919 69.1046 14.477 68.8663 14.6012C68.628 14.7254 68.3609 14.7843 68.0923 14.7719C67.9028 14.7916 67.7112 14.7714 67.5299 14.7127C67.3487 14.654 67.1817 14.5581 67.0399 14.4311C66.8981 14.3042 66.7845 14.149 66.7066 13.9756C66.6286 13.8021 66.5879 13.6144 66.5872 13.4243ZM69.4898 13.0395V12.6631L68.3871 12.7334C67.7653 12.7749 67.4832 12.9858 67.4832 13.3828C67.4832 13.7881 67.8358 14.0239 68.3206 14.0239C68.4626 14.0382 68.6061 14.0239 68.7425 13.9819C68.8789 13.9398 69.0054 13.8707 69.1145 13.7789C69.2235 13.6871 69.313 13.5743 69.3775 13.4473C69.442 13.3202 69.4802 13.1816 69.4898 13.0395Z" fill="white"/>
<path d="M71.5483 12.4444C71.5483 11.0215 72.2818 10.1201 73.4227 10.1201C73.7049 10.1072 73.985 10.1746 74.2302 10.3145C74.4754 10.4544 74.6756 10.661 74.8075 10.9101H74.8741V8.43701H75.7652V14.6978H74.9113V13.9863H74.8408C74.6988 14.2338 74.4916 14.4378 74.2416 14.5763C73.9917 14.7148 73.7085 14.7825 73.4227 14.772C72.274 14.772 71.5483 13.8706 71.5483 12.4444ZM72.4689 12.4444C72.4689 13.3994 72.9204 13.9741 73.6754 13.9741C74.4265 13.9741 74.8907 13.3911 74.8907 12.4483C74.8907 11.5098 74.4217 10.9185 73.6754 10.9185C72.9252 10.9185 72.4689 11.4971 72.4689 12.4444H72.4689Z" fill="white"/>
<path d="M79.4525 12.4443C79.4241 12.1484 79.458 11.8498 79.5521 11.5677C79.6462 11.2857 79.7984 11.0263 79.9989 10.8063C80.1994 10.5864 80.4438 10.4106 80.7164 10.2903C80.989 10.17 81.2838 10.1079 81.582 10.1079C81.8801 10.1079 82.1749 10.17 82.4475 10.2903C82.7201 10.4106 82.9645 10.5864 83.165 10.8063C83.3655 11.0263 83.5177 11.2857 83.6118 11.5677C83.7059 11.8498 83.7398 12.1484 83.7114 12.4443C83.7404 12.7405 83.7068 13.0395 83.613 13.322C83.5191 13.6045 83.367 13.8644 83.1665 14.0848C82.9659 14.3052 82.7213 14.4813 82.4485 14.6019C82.1756 14.7224 81.8804 14.7847 81.582 14.7847C81.2835 14.7847 80.9883 14.7224 80.7154 14.6019C80.4426 14.4813 80.198 14.3052 79.9974 14.0848C79.7969 13.8644 79.6448 13.6045 79.5509 13.322C79.4571 13.0395 79.4235 12.7405 79.4525 12.4443ZM82.7948 12.4443C82.7948 11.4682 82.3551 10.8974 81.5834 10.8974C80.8088 10.8974 80.373 11.4682 80.373 12.4443C80.373 13.4282 80.8088 13.9946 81.5834 13.9946C82.3551 13.9946 82.7948 13.4243 82.7948 12.4443Z" fill="white"/>
<path d="M84.9072 10.1949H85.7651V10.9102H85.8317C85.9447 10.6533 86.1352 10.4379 86.3767 10.2941C86.6183 10.1503 86.8988 10.0852 87.1792 10.1079C87.3989 10.0915 87.6195 10.1245 87.8247 10.2046C88.0299 10.2847 88.2144 10.4098 88.3645 10.5707C88.5146 10.7315 88.6265 10.924 88.6918 11.1338C88.7572 11.3436 88.7744 11.5654 88.7422 11.7827V14.6977H87.851V12.0059C87.851 11.2823 87.5357 10.9224 86.8766 10.9224C86.7274 10.9155 86.5785 10.9408 86.4401 10.9966C86.3016 11.0525 86.1769 11.1375 86.0745 11.2459C85.9721 11.3543 85.8944 11.4834 85.8467 11.6246C85.7991 11.7657 85.7826 11.9154 85.7984 12.0635V14.6978H84.9072V10.1949Z" fill="white"/>
<path d="M93.7775 9.07373V10.2153H94.7558V10.9639H93.7775V13.2793C93.7775 13.751 93.9723 13.9575 94.416 13.9575C94.5295 13.9572 94.643 13.9503 94.7558 13.937V14.6772C94.5957 14.7058 94.4336 14.721 94.271 14.7226C93.28 14.7226 92.8853 14.375 92.8853 13.5068V10.9638H92.1685V10.2153H92.8853V9.07373H93.7775Z" fill="white"/>
<path d="M95.9731 8.43701H96.8565V10.9185H96.927C97.0454 10.6591 97.2412 10.4425 97.4876 10.2982C97.734 10.1539 98.019 10.0888 98.3038 10.1118C98.5224 10.1 98.7409 10.1364 98.9438 10.2184C99.1466 10.3004 99.3288 10.4261 99.4773 10.5864C99.6259 10.7468 99.7371 10.9378 99.8031 11.146C99.869 11.3541 99.8881 11.5742 99.859 11.7905V14.6978H98.9669V12.0098C98.9669 11.2905 98.631 10.9263 98.0013 10.9263C97.8482 10.9137 97.6941 10.9347 97.5499 10.9878C97.4057 11.0408 97.2749 11.1247 97.1666 11.2334C97.0583 11.3421 96.9752 11.4732 96.9229 11.6173C96.8707 11.7614 96.8507 11.9152 96.8643 12.0679V14.6977H95.9732L95.9731 8.43701Z" fill="white"/>
<path d="M105.055 13.482C104.934 13.8935 104.672 14.2495 104.314 14.4877C103.956 14.7258 103.526 14.831 103.099 14.7847C102.801 14.7926 102.505 14.7357 102.232 14.6182C101.959 14.5007 101.715 14.3253 101.516 14.1041C101.318 13.883 101.17 13.6214 101.083 13.3376C100.996 13.0538 100.972 12.7545 101.013 12.4605C100.973 12.1656 100.997 11.8657 101.084 11.581C101.171 11.2964 101.318 11.0336 101.515 10.8105C101.713 10.5874 101.956 10.4093 102.228 10.2881C102.501 10.1669 102.796 10.1054 103.095 10.108C104.351 10.108 105.109 10.964 105.109 12.378V12.6881H101.92V12.7379C101.907 12.9031 101.927 13.0695 101.982 13.2262C102.036 13.383 102.122 13.5267 102.236 13.6481C102.349 13.7696 102.486 13.8661 102.639 13.9315C102.792 13.9969 102.957 14.0297 103.123 14.0279C103.336 14.0534 103.552 14.0151 103.743 13.9179C103.935 13.8207 104.093 13.669 104.197 13.482L105.055 13.482ZM101.92 12.0308H104.201C104.212 11.8797 104.192 11.7279 104.141 11.5852C104.09 11.4425 104.009 11.312 103.905 11.2021C103.8 11.0923 103.673 11.0055 103.533 10.9473C103.393 10.8891 103.242 10.8609 103.09 10.8643C102.936 10.8624 102.783 10.8913 102.64 10.9492C102.497 11.0072 102.367 11.093 102.258 11.2017C102.149 11.3104 102.063 11.4398 102.005 11.5822C101.947 11.7246 101.918 11.8771 101.92 12.0308H101.92Z" fill="white"/>
</svg>
