<svg width="32" height="32" viewBox="0 0 32 32" fill="none" xmlns="http://www.w3.org/2000/svg">
<g clip-path="url(#clip0_491_3974)">
<path d="M27.6364 0H4.36364C1.95367 0 0 1.95367 0 4.36364V27.6364C0 30.0463 1.95367 32 4.36364 32H27.6364C30.0463 32 32 30.0463 32 27.6364V4.36364C32 1.95367 30.0463 0 27.6364 0Z" fill="#D50012"/>
<path d="M16.4692 6C11.0147 6 8.2583 9.91273 8.2583 13.1764C8.2583 15.1527 9.00557 16.9091 10.611 17.5655C10.6669 17.5949 10.7291 17.6105 10.7923 17.611C10.8555 17.6114 10.9179 17.5967 10.9742 17.568C11.0305 17.5393 11.0791 17.4975 11.1159 17.4461C11.1527 17.3947 11.1766 17.3353 11.1856 17.2727C11.2401 17.0709 11.3674 16.5618 11.4201 16.3509C11.4983 16.0618 11.4674 15.9618 11.2547 15.7109C10.7928 15.1655 10.4965 14.4582 10.4965 13.4582C10.4965 10.5491 12.6783 7.95454 16.1528 7.95454C19.2437 7.95454 20.9328 9.84 20.9328 12.3582C20.9328 15.6709 19.4674 18.4655 17.2965 18.4655C16.0947 18.4655 15.1947 17.4709 15.4783 16.2527C15.8237 14.7982 16.4928 13.2273 16.4928 12.1764C16.4928 11.2364 15.9874 10.4509 14.9438 10.4509C13.7147 10.4509 12.7274 11.7236 12.7274 13.4255C12.7186 14.0504 12.8426 14.6701 13.091 15.2436C13.091 15.2436 11.8328 20.5691 11.6128 21.5036C11.1747 23.36 11.5474 25.6382 11.5783 25.8673C11.5831 25.8968 11.5965 25.9243 11.6168 25.9462C11.6371 25.9682 11.6634 25.9838 11.6925 25.9909C11.7215 25.9981 11.752 25.9966 11.7802 25.9866C11.8084 25.9765 11.833 25.9584 11.851 25.9345C11.9656 25.7854 13.4274 23.98 13.9256 22.1745C14.0656 21.6636 14.7328 19.0164 14.7328 19.0164C15.1328 19.7782 16.2983 20.4491 17.5401 20.4491C21.2328 20.4491 23.7383 17.0818 23.7383 12.5764C23.7419 9.17273 20.8547 6 16.4692 6Z" fill="white"/>
</g>
<defs>
<clipPath id="clip0_491_3974">
<rect width="32" height="32" fill="white"/>
</clipPath>
</defs>
</svg>
