<svg width="24" height="24" viewBox="0 0 24 24" fill="none" xmlns="http://www.w3.org/2000/svg">
<path d="M20.86 14.2173V12.9817C20.86 12.1036 20.1456 11.3892 19.2675 11.3892H17.7165V9.08127C17.8167 9.07686 17.917 9.07292 18.0171 9.06828C19.1535 9.0156 20.0788 8.15824 20.2174 7.0297C20.4149 5.41961 20.4149 3.78683 20.2174 2.17679C20.0789 1.04821 19.1535 0.190893 18.0171 0.138252C17.5986 0.118939 17.187 0.102017 16.7938 0.0879539C16.5999 0.0808288 16.4368 0.23266 16.4299 0.426725C16.4229 0.620791 16.5746 0.783685 16.7686 0.790622C17.1594 0.804591 17.5686 0.82142 17.9846 0.840639C18.7774 0.877343 19.4229 1.47534 19.5195 2.26243C19.7101 3.81566 19.7101 5.39083 19.5195 6.94406C19.4228 7.7312 18.7774 8.32915 17.9847 8.3659C14.0138 8.54876 9.98693 8.54876 6.01603 8.3659C5.22327 8.32915 4.57774 7.7312 4.48118 6.94406C4.29058 5.39083 4.29058 3.81566 4.48118 2.26243C4.57779 1.47529 5.22327 0.877343 6.01594 0.840639C9.11589 0.697855 12.2619 0.666027 15.3668 0.746184C15.5611 0.750216 15.7223 0.597869 15.7273 0.403803C15.7323 0.20969 15.579 0.0482969 15.3849 0.0432812C12.2634 -0.0372515 9.10028 -0.00528214 5.9835 0.138205C4.84709 0.190893 3.92181 1.04821 3.78325 2.17674C3.58571 3.78683 3.58571 5.41961 3.78325 7.02965C3.92176 8.15819 4.84709 9.01555 5.98355 9.06824C6.08377 9.07283 6.18413 9.07682 6.2844 9.08122V11.3892H4.73304C3.85501 11.3892 3.14062 12.1035 3.14062 12.9816V14.2173C3.14062 15.024 3.74387 15.6921 4.52285 15.7954C4.44387 16.1705 4.36797 16.5461 4.29649 16.9165C4.25969 17.1072 4.38443 17.2915 4.57507 17.3283C4.59757 17.3327 4.61998 17.3347 4.64206 17.3347C4.80715 17.3347 4.95444 17.2178 4.98688 17.0497C5.06591 16.6402 5.15047 16.2243 5.23865 15.8096H7.44251C6.50818 18.8542 5.83739 22.2908 5.64951 23.2968H4.23996C4.26471 21.9123 4.43332 20.2731 4.742 18.4175C4.77387 18.226 4.6444 18.0449 4.45291 18.013C4.26138 17.9811 4.08025 18.1106 4.04842 18.3021C3.70684 20.3554 3.53368 22.1541 3.53368 23.6484C3.53368 23.8425 3.69109 23.9999 3.88525 23.9999H5.94263C6.11326 23.9999 6.25923 23.8774 6.28885 23.7094C6.29363 23.6822 6.58872 22.0218 7.08208 19.9048H16.9181C17.4116 22.0218 17.7068 23.6823 17.7116 23.7094C17.7412 23.8774 17.8872 23.9999 18.0578 23.9999H20.1152C20.3094 23.9999 20.4668 23.8425 20.4668 23.6484C20.4668 22.1928 20.2922 19.6633 19.4775 15.7954C20.2566 15.6924 20.86 15.0242 20.86 14.2173ZM17.0133 11.3892H15.5161V9.15875C16.0158 9.14539 16.5149 9.12918 17.0133 9.1101V11.3892ZM14.813 9.17572V11.3892H9.18789V9.17572C10.1244 9.19574 11.0623 9.20615 12.0003 9.20615C12.9384 9.20619 13.8764 9.19574 14.813 9.17572ZM6.98754 9.11014C7.48597 9.12922 7.9851 9.14544 8.48475 9.1588V11.3893H6.98754V9.11014ZM15.8211 15.8097C15.9772 16.3089 16.1264 16.8207 16.2674 17.3324H7.73253C7.87349 16.8207 8.02265 16.3089 8.17879 15.8097H15.8211ZM7.24938 19.2018C7.34201 18.8208 7.44022 18.4301 7.54362 18.0355H16.4563C16.5597 18.4301 16.658 18.8208 16.7506 19.2018H7.24938ZM18.3507 23.2969C18.1627 22.2909 17.4916 18.8539 16.5572 15.8097H18.7617C19.211 17.9232 19.7154 20.8127 19.7603 23.2969H18.3507ZM20.1568 14.2173C20.1568 14.7076 19.7579 15.1066 19.2675 15.1066H4.73304C4.24272 15.1066 3.84376 14.7077 3.84376 14.2173V12.9817C3.84376 12.4913 4.24268 12.0924 4.73304 12.0924H19.2675C19.7579 12.0924 20.1568 12.4913 20.1568 12.9817V14.2173Z" fill="black"/>
</svg>
