<svg width="24" height="24" viewBox="0 0 24 24" fill="none" xmlns="http://www.w3.org/2000/svg">
<path d="M22.4163 5.5252L21.2049 5.11593L20.7956 3.90459C20.729 3.70715 20.5441 3.57445 20.3356 3.5744C20.1273 3.5744 19.9423 3.70706 19.8756 3.9045L19.4663 5.11589L18.2549 5.52515C18.0575 5.59186 17.9248 5.77673 17.9248 5.98514C17.9248 6.19354 18.0575 6.37846 18.2549 6.44512L19.4663 6.85439L19.8756 8.06587C19.9424 8.26331 20.1273 8.39596 20.3356 8.39596C20.544 8.39596 20.729 8.26321 20.7956 8.06587L21.2049 6.85443L22.4164 6.44517C22.6138 6.37846 22.7465 6.19359 22.7465 5.98518C22.7465 5.77678 22.6138 5.5919 22.4163 5.5252ZM20.8777 6.22284C20.7352 6.27107 20.6213 6.38493 20.5732 6.52743L20.3356 7.23075L20.0981 6.52753C20.0499 6.38498 19.9361 6.27107 19.7934 6.22284L19.0901 5.98523L19.7933 5.74762C19.936 5.69948 20.0499 5.58557 20.098 5.44303L20.3356 4.73971L20.5732 5.44293C20.6213 5.58557 20.7353 5.69948 20.8779 5.74762L21.5812 5.98523L20.8777 6.22284Z" fill="black"/>
<path d="M5.7464 21.1291L4.53501 20.7199L4.12574 19.5084C4.05899 19.3109 3.87407 19.1783 3.66571 19.1783C3.4573 19.1783 3.27238 19.311 3.20573 19.5084L2.79646 20.7198L1.58498 21.1291C1.38754 21.1958 1.25488 21.3807 1.25488 21.5891C1.25488 21.7975 1.38754 21.9823 1.58502 22.049L2.79646 22.4583L3.20573 23.6697C3.27238 23.8671 3.45726 23.9998 3.66571 23.9998C3.87407 23.9998 4.05904 23.8672 4.12574 23.6697L4.53501 22.4583L5.7464 22.049C5.94388 21.9823 6.07654 21.7975 6.07654 21.5891C6.07654 21.3807 5.94388 21.1958 5.7464 21.1291ZM4.20805 21.8268C4.06541 21.8749 3.95151 21.9888 3.90337 22.1314L3.66576 22.8347L3.42815 22.1314C3.38001 21.9888 3.2661 21.8749 3.12355 21.8268L2.4202 21.5892L3.12346 21.3515C3.2661 21.3034 3.38005 21.1895 3.42815 21.0469L3.66576 20.3436L3.90332 21.0469C3.95146 21.1895 4.06541 21.3034 4.20805 21.3515L4.91127 21.5892L4.20805 21.8268Z" fill="black"/>
<path d="M20.335 17.9265C20.1408 17.9265 19.9834 18.0839 19.9834 18.278V18.9308C19.9834 19.125 20.1408 19.2824 20.335 19.2824C20.5292 19.2824 20.6865 19.125 20.6865 18.9308V18.278C20.6865 18.0839 20.5291 17.9265 20.335 17.9265Z" fill="black"/>
<path d="M20.335 20.2754C20.1408 20.2754 19.9834 20.4328 19.9834 20.627V21.2797C19.9834 21.4739 20.1408 21.6313 20.335 21.6313C20.5292 21.6313 20.6865 21.4739 20.6865 21.2797V20.627C20.6865 20.4328 20.5291 20.2754 20.335 20.2754Z" fill="black"/>
<path d="M21.8364 19.4274H21.1836C20.9894 19.4274 20.832 19.5848 20.832 19.7789C20.832 19.9731 20.9894 20.1305 21.1836 20.1305H21.8364C22.0306 20.1305 22.1879 19.9731 22.1879 19.7789C22.1879 19.5848 22.0306 19.4274 21.8364 19.4274Z" fill="black"/>
<path d="M19.4868 19.4274H18.834C18.6398 19.4274 18.4824 19.5848 18.4824 19.7789C18.4824 19.9731 18.6398 20.1305 18.834 20.1305H19.4868C19.681 20.1305 19.8383 19.9731 19.8383 19.7789C19.8383 19.5848 19.6809 19.4274 19.4868 19.4274Z" fill="black"/>
<path d="M5.16699 4.50392C5.3612 4.50392 5.51855 4.34651 5.51855 4.15235V3.49957C5.51855 3.30542 5.3612 3.14801 5.16699 3.14801C4.97279 3.14801 4.81543 3.30542 4.81543 3.49957V4.15235C4.81543 4.34651 4.97279 4.50392 5.16699 4.50392Z" fill="black"/>
<path d="M5.16699 6.85292C5.3612 6.85292 5.51855 6.69551 5.51855 6.50135V5.84857C5.51855 5.65442 5.3612 5.49701 5.16699 5.49701C4.97279 5.49701 4.81543 5.65442 4.81543 5.84857V6.50135C4.81543 6.69551 4.97279 6.85292 5.16699 6.85292Z" fill="black"/>
<path d="M6.01465 5.35199H6.66743C6.86163 5.35199 7.01899 5.19458 7.01899 5.00043C7.01899 4.80627 6.86163 4.64886 6.66743 4.64886H6.01465C5.82045 4.64886 5.66309 4.80627 5.66309 5.00043C5.66309 5.19458 5.82045 5.35199 6.01465 5.35199Z" fill="black"/>
<path d="M3.66602 5.35199H4.3188C4.513 5.35199 4.67036 5.19458 4.67036 5.00043C4.67036 4.80627 4.513 4.64886 4.3188 4.64886H3.66602C3.47181 4.64886 3.31445 4.80627 3.31445 5.00043C3.31445 5.19458 3.47186 5.35199 3.66602 5.35199Z" fill="black"/>
<path d="M18.6028 17.5606C18.7632 17.2799 18.9073 16.9888 19.0318 16.6872C19.1058 16.5077 19.0204 16.3022 18.841 16.2281C18.6614 16.154 18.4559 16.2394 18.3818 16.4189C18.2921 16.6364 18.1913 16.8468 18.0821 17.0509H16.8187C17.0864 16.1364 17.2391 15.1505 17.2679 14.1389H18.8921C18.8792 14.3954 18.8525 14.6511 18.8117 14.9026C18.7806 15.0943 18.9107 15.2749 19.1024 15.306C19.1214 15.3091 19.1404 15.3106 19.1591 15.3106C19.3285 15.3106 19.4777 15.1879 19.5058 15.0153C19.5712 14.6118 19.6045 14.1986 19.6045 13.7873C19.6045 12.4253 19.2442 11.146 18.6145 10.0391C18.6025 10.0098 18.5866 9.98255 18.5675 9.9578C17.6019 8.30817 16.0329 7.05319 14.1655 6.49744C14.1486 6.49106 14.1314 6.48577 14.1141 6.48211C13.7713 6.38278 13.4187 6.30722 13.058 6.25678V5.12297C13.058 4.86164 12.8454 4.64906 12.5841 4.64906H12.3516V2.21395H13.8186C14.1145 2.21395 14.3751 2.00409 14.4382 1.71497L14.659 0.703125H15.5754C15.7696 0.703125 15.9269 0.545719 15.9269 0.351562C15.9269 0.157406 15.7696 0 15.5754 0H8.4246C8.2304 0 8.07304 0.157406 8.07304 0.351562C8.07304 0.545719 8.2304 0.703125 8.4246 0.703125H9.34101L9.56184 1.71497C9.62493 2.00409 9.88551 2.21395 10.1814 2.21395H11.6484V4.64906H11.4159C11.1546 4.64906 10.942 4.86164 10.942 5.12297V6.25514C9.60688 6.43884 8.35771 6.9712 7.28282 7.82231C7.13062 7.94283 7.10493 8.16398 7.22545 8.31619C7.34596 8.46844 7.56707 8.49408 7.71932 8.37356C7.95102 8.19009 8.19163 8.02298 8.44012 7.87247C8.10355 8.33892 7.80609 8.87184 7.55704 9.46209C7.50744 9.57966 7.46071 9.69947 7.41543 9.82036H6.35174C6.43195 9.70673 6.51566 9.59494 6.60323 9.48525C6.72435 9.33352 6.69955 9.11231 6.54777 8.99119C6.39599 8.87002 6.17479 8.89491 6.05371 9.04664C4.96888 10.4056 4.39551 12.0449 4.39551 13.7873C4.39551 15.1493 4.7557 16.4285 5.38537 17.5353C5.39732 17.5646 5.4133 17.5918 5.43229 17.6165C6.39646 19.2638 7.96232 20.5176 9.82621 21.0745C9.84435 21.0818 9.86343 21.0872 9.88298 21.0915C10.5553 21.2866 11.2656 21.3916 11.9999 21.3916C13.5352 21.3916 15.0147 20.9362 16.2785 20.0746C17.231 19.4252 18.0147 18.5782 18.5842 17.593C18.591 17.5826 18.5971 17.5718 18.6028 17.5606ZM10.0607 0.703125H13.9394L13.7631 1.51083H10.237L10.0607 0.703125ZM16.0829 17.0508H13.8579C13.9482 16.1547 14.0011 15.171 14.011 14.1389H16.5643C16.5329 15.1678 16.3651 16.1569 16.0829 17.0508ZM13.8846 20.4277C13.6399 20.4967 13.3904 20.5524 13.1368 20.5943C13.4069 19.9013 13.6255 18.9208 13.7769 17.754H15.8298C15.3631 18.8977 14.6952 19.8354 13.8846 20.4277ZM10.1137 20.4264C9.30384 19.834 8.63657 18.8968 8.17016 17.754H10.2231C10.3745 18.9207 10.5931 19.9012 10.8632 20.5943C10.6085 20.5519 10.3582 20.496 10.1137 20.4264ZM7.91704 17.0508C7.63485 16.1569 7.46704 15.1677 7.43568 14.1389H9.98896C9.99881 15.171 10.0518 16.1547 10.1421 17.0508H7.91704ZM5.10754 14.1389H6.73213C6.76091 15.1505 6.91354 16.1364 7.18129 17.0509H5.92059C5.44884 16.1757 5.16041 15.1879 5.10754 14.1389ZM10.4006 11.6798C10.4094 11.6804 10.4181 11.6807 10.4268 11.6807C10.6093 11.6807 10.7635 11.5398 10.7771 11.355C10.7981 11.0696 10.8228 10.7922 10.8507 10.5235H13.1473C13.2409 11.4221 13.2973 12.412 13.3079 13.4358H10.6923C10.6939 13.2826 10.6961 13.1296 10.6996 12.9779C10.7041 12.7837 10.5503 12.6228 10.3562 12.6183C10.1608 12.6138 10.0011 12.7676 9.99665 12.9617C9.99304 13.1188 9.99074 13.2773 9.98919 13.4358H7.43568C7.46699 12.4067 7.63485 11.4175 7.91704 10.5236H10.1439C10.1183 10.7763 10.0956 11.0363 10.0759 11.3034C10.0615 11.4969 10.2069 11.6655 10.4006 11.6798ZM12 6.88594C12.1109 6.88594 12.2212 6.88884 12.331 6.89405C12.6362 7.48055 12.891 8.52506 13.064 9.82041H10.9337C11.1089 8.50988 11.3668 7.47431 11.6693 6.89391C11.7791 6.88875 11.8893 6.88594 12 6.88594ZM13.8848 7.14755C14.6954 7.73958 15.3631 8.67694 15.8298 9.82036H13.7769C13.6256 8.65373 13.4069 7.6733 13.1369 6.98011C13.3911 7.02244 13.6408 7.07817 13.8848 7.14755ZM18.8924 13.4358H17.2679C17.2391 12.4239 17.0864 11.4379 16.8188 10.5235H18.0794C18.5511 11.3987 18.8396 12.3867 18.8924 13.4358ZM16.5643 13.4358H14.011C14.0012 12.4035 13.9482 11.4197 13.8579 10.5235H16.083C16.3652 11.4175 16.5329 12.4067 16.5643 13.4358ZM10.6922 14.1389H13.3078C13.2972 15.1626 13.2408 16.1524 13.1472 17.0509H10.8527C10.7592 16.1524 10.7028 15.1626 10.6922 14.1389ZM17.6441 9.82036H16.5846C16.5392 9.69947 16.4925 9.57966 16.4429 9.46209C16.1953 8.87522 15.8999 8.34497 15.5657 7.88044C16.3852 8.37698 17.0935 9.03928 17.6441 9.82036ZM11.6451 5.35219H12.3549V6.19134C12.2372 6.18591 12.119 6.18281 12 6.18281C11.8813 6.18281 11.763 6.18572 11.6452 6.19106V5.35219H11.6451ZM10.1224 7.1422C10.3657 7.07386 10.6132 7.01902 10.8644 6.97786C10.5974 7.66425 10.3778 8.64056 10.2247 9.82036H8.17016C8.6383 8.67356 9.30857 7.73391 10.1224 7.1422ZM7.1812 10.5235C6.91349 11.4379 6.76087 12.4239 6.73209 13.4357H5.10763C5.15845 12.4037 5.43327 11.4177 5.91599 10.5235H7.1812ZM6.35582 17.754H7.41552C7.46066 17.8744 7.50721 17.9939 7.55662 18.111C7.80435 18.6983 8.0999 19.229 8.43421 19.6939C7.61469 19.1974 6.90641 18.5351 6.35582 17.754ZM11.6693 20.6804C11.3639 20.0942 11.1091 19.0496 10.936 17.754H13.064C12.8909 19.0491 12.6362 20.0934 12.331 20.6798C12.2211 20.685 12.1109 20.6885 11.9999 20.6885C11.8891 20.6885 11.7789 20.6856 11.6693 20.6804ZM15.5576 19.7052C15.8953 19.2376 16.1936 18.7031 16.4434 18.111C16.4928 17.9939 16.5393 17.8744 16.5845 17.754H17.6507C17.0925 18.5514 16.3774 19.213 15.5576 19.7052Z" fill="black"/>
</svg>
