<svg width="27" height="24" viewBox="0 0 27 24" fill="none" xmlns="http://www.w3.org/2000/svg">
<g clip-path="url(#clip0_728_25445)">
<path d="M25.5295 3.04111C22.262 1.08 17.9896 0 13.4995 0C9.00939 0 4.73706 1.08 1.46968 3.04097C1.1334 3.24248 0.932617 3.58181 0.932617 3.94866V5.09128V5.09142V8.73234V8.73258V12.3719V12.372V16.0129V16.0132V19.6526V23.4371C0.932617 23.7475 1.19708 24 1.52207 24H25.4769C25.8028 24 26.0678 23.7475 26.0678 23.4371V19.6527V16.0132V16.0129V12.3721C26.0678 12.3721 26.0678 12.372 26.0678 12.3719V8.73253V8.7323V5.09152V5.09128V3.94866C26.0678 3.58106 25.8661 3.24145 25.5295 3.04111ZM1.669 5.94042L2.68604 6.91195L1.669 7.88348V5.94042ZM4.59174 12.3721L3.20656 13.6953L1.82138 12.3721L3.20656 11.0494L4.59174 12.3721ZM1.82143 8.73239L3.20661 7.4092L4.59179 8.73239L3.20661 10.0551L1.82143 8.73239ZM4.59174 16.013L3.20656 17.3357L1.82143 16.013L3.20661 14.6898L4.59174 16.013ZM4.22355 19.3011H2.18962L3.20656 18.33L4.22355 19.3011ZM3.72723 17.8328L4.74417 16.8618V18.8039L3.72723 17.8328ZM3.72713 14.1925L4.74417 13.221V15.1641L3.72713 14.1925ZM3.72723 10.5523L4.74417 9.5812V11.5233L3.72723 10.5523ZM3.72713 6.91195L4.74417 5.94042V7.88344L3.72713 6.91195ZM3.20661 6.4147L2.18942 5.44303H4.2238L3.20661 6.4147ZM1.669 9.5812L2.68594 10.5523L1.669 11.5233V9.5812ZM1.669 13.221L2.68604 14.1926L1.669 15.1641V13.221ZM1.669 16.8618L2.68594 17.8328L1.669 18.8039V16.8618ZM25.3314 23.2969H21.9181V22.1269C21.9181 21.8202 21.6568 21.5707 21.3356 21.5707H14.3985C14.1951 21.5707 14.0303 21.7281 14.0303 21.9223C14.0303 22.1165 14.1951 22.2739 14.3985 22.2739H21.1817V23.2969H5.81733V22.2739H12.7049C12.9082 22.2739 13.0731 22.1165 13.0731 21.9223C13.0731 21.7281 12.9082 21.5707 12.7049 21.5707H5.66342C5.34226 21.5707 5.08095 21.8202 5.08095 22.1269V23.2969H1.669V20.0042H5.11236H21.8866H25.3314V23.2969ZM7.63113 9.43476H9.05892C9.26226 9.43476 9.42711 9.27741 9.42711 9.0832C9.42711 8.889 9.26226 8.73164 9.05892 8.73164H8.71322V7.67677H11.4141V8.73164H11.0684C10.865 8.73164 10.7002 8.889 10.7002 9.0832C10.7002 9.27741 10.865 9.43476 11.0684 9.43476H12.4947C12.6981 9.43476 12.8629 9.27741 12.8629 9.0832C12.8629 8.889 12.6981 8.73164 12.4947 8.73164H12.1504V7.67677H14.8499V8.73164H14.5042C14.3008 8.73164 14.136 8.889 14.136 9.0832C14.136 9.27741 14.3008 9.43476 14.5042 9.43476H15.932C16.1353 9.43476 16.3002 9.27741 16.3002 9.0832C16.3002 8.889 16.1353 8.73164 15.932 8.73164H15.5863V7.67677H18.2857V8.73164H17.9414C17.738 8.73164 17.5732 8.889 17.5732 9.0832C17.5732 9.27741 17.738 9.43476 17.9414 9.43476H19.3678C19.5712 9.43476 19.736 9.27741 19.736 9.0832C19.736 8.889 19.5712 8.73164 19.3678 8.73164H19.0221V7.67677H21.5184V8.73234V8.73258V12.372V12.3721V16.0129V16.0132V19.3011H13.8677V16.149C13.8677 16.149 14.1249 16.2265 14.1646 16.2265C14.3175 16.2265 14.4603 16.1349 14.5128 15.9892C14.579 15.8056 14.4768 15.6055 14.2845 15.5424L13.6417 15.3312C13.6285 15.3259 13.6148 15.3216 13.6008 15.3178L12.8567 15.0734C12.6645 15.0101 12.4549 15.1078 12.3887 15.2914C12.3226 15.475 12.4248 15.675 12.6171 15.7382L13.1313 15.9071V19.3011H5.48056V16.0132C5.48056 16.0132 5.48056 16.0131 5.48056 16.0131V12.3721C5.48056 12.3721 5.48056 12.372 5.48056 12.3719V8.73263C5.48056 8.73258 5.48056 8.73248 5.48056 8.73248V7.67681H7.97684V8.73169H7.63113C7.42779 8.73169 7.26294 8.88905 7.26294 9.08325C7.26294 9.27745 7.42779 9.43476 7.63113 9.43476ZM22.4073 16.013L23.7931 14.6897L25.1788 16.013L23.7931 17.3357L22.4073 16.013ZM24.8105 19.3011H22.7757L23.7931 18.33L24.8105 19.3011ZM22.4073 12.3721L23.7931 11.0493L25.1788 12.3721L23.7931 13.6953L22.4073 12.3721ZM22.4073 8.73239L23.7931 7.40916L25.1788 8.73239L23.7931 10.0552L22.4073 8.73239ZM22.7754 5.44303H24.8107L23.7931 6.41475L22.7754 5.44303ZM23.2724 6.91195L22.2548 7.88367V5.94028L23.2724 6.91195ZM23.2723 10.5523L22.2548 11.5235V9.58102L23.2723 10.5523ZM23.2724 14.1925L22.2548 15.1642V13.2209L23.2724 14.1925ZM23.2723 17.8328L22.2548 18.8041V16.8616L23.2723 17.8328ZM25.3314 18.8041L24.3138 17.8328L25.3314 16.8616V18.8041ZM25.3314 15.1642L24.3137 14.1925L25.3314 13.2209V15.1642ZM25.3314 11.5235L24.3138 10.5523L25.3314 9.58102V11.5235ZM25.3314 7.88367L24.3137 6.91195L25.3314 5.94023V7.88367ZM25.3314 4.73991H21.8866H14.6072C14.4038 4.73991 14.239 4.89727 14.239 5.09147C14.239 5.28567 14.4038 5.44303 14.6072 5.44303H21.5184V6.97364H5.48056V5.44303H12.9067C13.11 5.44303 13.2749 5.28567 13.2749 5.09147C13.2749 4.89727 13.11 4.73991 12.9067 4.73991H5.11354C5.11271 4.73991 5.11187 4.73991 5.11104 4.73991H1.669V3.94866C1.669 3.82528 1.74082 3.70861 1.86134 3.63637C5.01305 1.74487 9.14621 0.703125 13.4995 0.703125C17.8527 0.703125 21.9859 1.74488 25.1388 3.63708C25.1967 3.67153 25.3314 3.77091 25.3314 3.94866V4.73991Z" fill="black"/>
<path d="M15.097 1.62646H11.902C11.27 1.62646 10.7559 2.11743 10.7559 2.72086C10.7559 3.32503 11.27 3.81656 11.902 3.81656H15.097C15.7298 3.81656 16.2445 3.32503 16.2445 2.72086C16.2445 2.11743 15.7298 1.62646 15.097 1.62646ZM15.097 3.11343H11.902C11.676 3.11343 11.4922 2.93732 11.4922 2.72086C11.4922 2.50509 11.676 2.32959 11.902 2.32959H15.097C15.3237 2.32959 15.5081 2.50509 15.5081 2.72086C15.5081 2.93732 15.3237 3.11343 15.097 3.11343Z" fill="black"/>
</g>
<defs>
<clipPath id="clip0_728_25445">
<rect width="25.1351" height="24" fill="white" transform="translate(0.932617)"/>
</clipPath>
</defs>
</svg>
