<svg width="27" height="24" viewBox="0 0 27 24" fill="none" xmlns="http://www.w3.org/2000/svg">
<path d="M19.7842 0H7.21667C6.06045 0.0013 5.12343 0.896 5.12207 2V20.4C5.12333 21.35 5.82318 22.1687 6.79775 22.36V24H9.31126V22.4H17.6896V24H20.2032V22.36C21.1777 22.1687 21.8776 21.35 21.8788 20.4V2C21.8775 0.896 20.9404 0.0013 19.7842 0ZM8.47342 23.2H7.63558V22.4H8.47342V23.2ZM19.3653 23.2H18.5275V22.4H19.3653V23.2ZM21.041 20.4C21.041 21.0627 20.4783 21.6 19.7842 21.6H7.21667C6.52257 21.6 5.95991 21.0627 5.95991 20.4V2C5.95991 1.33725 6.52257 0.8 7.21667 0.8H19.7842C20.4783 0.8 21.041 1.33725 21.041 2V20.4Z" fill="black"/>
<path d="M13.5006 8C9.79878 8 6.79785 10.8654 6.79785 14.4C6.80225 17.9329 9.80056 20.7958 13.5006 20.8C17.2023 20.8 20.2033 17.9346 20.2033 14.4C20.2033 10.8654 17.2023 8 13.5006 8ZM13.5006 20C10.2615 20 7.63569 17.4928 7.63569 14.4C7.63915 11.3086 10.2629 8.8033 13.5006 8.8C16.7396 8.8 19.3654 11.3072 19.3654 14.4C19.3654 17.4928 16.7396 20 13.5006 20Z" fill="black"/>
<path d="M13.5007 9.59998C10.7243 9.59998 8.47363 11.749 8.47363 14.4C8.47662 17.0498 10.7255 19.1971 13.5007 19.2C16.277 19.2 18.5277 17.0509 18.5277 14.4C18.5277 11.749 16.277 9.59998 13.5007 9.59998ZM13.5007 18.4C11.187 18.4 9.31147 16.6091 9.31147 14.4C9.31404 12.1918 11.1881 10.4024 13.5007 10.4C15.8143 10.4 17.6898 12.1908 17.6898 14.4C17.6898 16.6091 15.8143 18.4 13.5007 18.4Z" fill="black"/>
<path d="M13.4998 1.59998C11.8803 1.59998 10.5674 2.85358 10.5674 4.39998C10.5692 5.94563 11.8811 7.19823 13.4998 7.19998C15.1194 7.19998 16.4322 5.94638 16.4322 4.39998C16.4322 2.85358 15.1194 1.59998 13.4998 1.59998ZM13.4998 6.39998C12.343 6.39998 11.4052 5.50453 11.4052 4.39998C11.4066 3.29598 12.3436 2.40128 13.4998 2.39998C14.6566 2.39998 15.5944 3.29543 15.5944 4.39998C15.5944 5.50453 14.6566 6.39998 13.4998 6.39998Z" fill="black"/>
<path d="M13.4999 3.20001C12.8058 3.20001 12.2432 3.73726 12.2432 4.40001C12.2432 5.06276 12.8058 5.60001 13.4999 5.60001C14.194 5.60001 14.7567 5.06276 14.7567 4.40001C14.7567 3.73726 14.194 3.20001 13.4999 3.20001ZM13.4999 4.80001C13.2686 4.80001 13.081 4.62091 13.081 4.40001C13.081 4.17911 13.2686 4.00001 13.4999 4.00001C13.7313 4.00001 13.9188 4.17911 13.9188 4.40001C13.9188 4.62091 13.7313 4.80001 13.4999 4.80001Z" fill="black"/>
<path d="M7.63569 1.59998H6.79785V2.39998H7.63569V1.59998Z" fill="black"/>
<path d="M20.2031 1.59998H19.3652V2.39998H20.2031V1.59998Z" fill="black"/>
<path d="M7.63569 20H6.79785V20.8H7.63569V20Z" fill="black"/>
<path d="M20.2031 20H19.3652V20.8H20.2031V20Z" fill="black"/>
<path d="M13.4999 12.4C12.3431 12.4 11.4053 13.2955 11.4053 14.4C11.4066 15.504 12.3437 16.3987 13.4999 16.4C14.6567 16.4 15.5945 15.5046 15.5945 14.4C15.5945 13.2955 14.6567 12.4 13.4999 12.4ZM13.4999 15.6C12.8058 15.6 12.2431 15.0628 12.2431 14.4C12.2431 13.7373 12.8058 13.2 13.4999 13.2C14.194 13.2 14.7566 13.7373 14.7566 14.4C14.7566 15.0628 14.194 15.6 13.4999 15.6Z" fill="black"/>
<path d="M3.44616 14H1.77048C1.53913 14 1.35156 14.1791 1.35156 14.4C1.35156 14.6209 1.53913 14.8 1.77048 14.8H3.44616C3.67751 14.8 3.86508 14.6209 3.86508 14.4C3.86508 14.1791 3.67751 14 3.44616 14Z" fill="black"/>
<path d="M3.74208 11.3172L2.48533 10.1172C2.31891 9.96376 2.05368 9.96816 1.89298 10.1271C1.7362 10.2821 1.7362 10.5278 1.89298 10.6828L3.14973 11.8828C3.31615 12.0363 3.58138 12.0319 3.74208 11.873C3.89886 11.718 3.89886 11.4722 3.74208 11.3172Z" fill="black"/>
<path d="M3.73236 16.9172C3.57002 16.7674 3.3126 16.7674 3.15027 16.9172L1.89351 18.1172C1.7271 18.2707 1.72249 18.5239 1.88325 18.6828C2.04401 18.8417 2.30918 18.8461 2.4756 18.6926C2.47911 18.6894 2.48251 18.6861 2.48586 18.6828L3.74262 17.4828C3.90338 17.3239 3.89877 17.0707 3.73236 16.9172Z" fill="black"/>
<path d="M25.2303 14H23.5547C23.3233 14 23.1357 14.1791 23.1357 14.4C23.1357 14.6209 23.3233 14.8 23.5547 14.8H25.2303C25.4617 14.8 25.6493 14.6209 25.6493 14.4C25.6493 14.1791 25.4617 14 25.2303 14Z" fill="black"/>
<path d="M25.0972 10.1172C24.9349 9.96752 24.6775 9.96752 24.5152 10.1172L23.2584 11.3172C23.0948 11.4735 23.0949 11.7267 23.2585 11.8829C23.3371 11.9579 23.4436 12 23.5546 12C23.6657 12 23.7722 11.9578 23.8508 11.8828L25.1075 10.6828C25.2683 10.5239 25.2637 10.2707 25.0972 10.1172Z" fill="black"/>
<path d="M25.1074 18.1172L23.8506 16.9172C23.6842 16.7637 23.419 16.7681 23.2582 16.927C23.1014 17.082 23.1014 17.3278 23.2582 17.4828L24.515 18.6828C24.6814 18.8363 24.9466 18.8319 25.1074 18.673C25.2642 18.518 25.2642 18.2722 25.1074 18.1172Z" fill="black"/>
</svg>
