<svg width="24" height="24" viewBox="0 0 24 24" fill="none" xmlns="http://www.w3.org/2000/svg">
<g clip-path="url(#clip0_728_25415)">
<path d="M23.0859 3.87914H19.2422C19.048 3.87914 18.8906 4.03654 18.8906 4.2307C18.8906 4.42485 19.048 4.58226 19.2422 4.58226H23.0859C23.2022 4.58226 23.2969 4.6769 23.2969 4.7932V5.808C23.2969 5.86186 23.2771 5.90221 23.2604 5.92664C23.2603 5.92678 23.2602 5.92696 23.26 5.9271C23.2205 5.98462 23.1555 6.01889 23.0859 6.01889C22.8744 6.01889 1.12477 6.01889 0.914062 6.01889C0.797766 6.01889 0.703125 5.92425 0.703125 5.80795V4.79315C0.703125 4.67685 0.797766 4.58221 0.914062 4.58221H17.6016C17.7958 4.58221 17.9531 4.42481 17.9531 4.23065C17.9531 4.0365 17.7958 3.87909 17.6016 3.87909H0.914062C0.410062 3.87909 0 4.28915 0 4.79315V5.80795C0 6.31195 0.410062 6.72201 0.914062 6.72201H1.28906V8.20171C1.28906 8.86082 1.82527 9.39703 2.48438 9.39703H3.2543V13.5455C3.2543 13.7396 3.4117 13.897 3.60586 13.897C3.80002 13.897 3.95742 13.7396 3.95742 13.5455V9.39703H5.30681L4.70311 19.0677C4.69088 19.2639 4.52728 19.4176 4.33064 19.4176C4.12486 19.4176 3.95747 19.2502 3.95747 19.0444V15.1861C3.95747 14.9919 3.80006 14.8345 3.60591 14.8345C3.41175 14.8345 3.25434 14.9919 3.25434 15.1861V19.0444C3.25434 19.6379 3.73716 20.1207 4.33064 20.1207C4.89769 20.1207 5.36953 19.6774 5.40487 19.1114L6.01134 9.39698H17.9887L18.5952 19.1114C18.6305 19.6774 19.1024 20.1207 19.6694 20.1207C20.2629 20.1207 20.7458 19.6379 20.7458 19.0444V9.39712H21.5156C22.1747 9.39712 22.7109 8.86092 22.7109 8.20181V6.72211H23.0859C23.3865 6.72211 23.6677 6.57436 23.8386 6.32681C23.8388 6.32639 23.8392 6.32596 23.8395 6.32559C23.9445 6.17282 24 5.99385 24 5.80804V4.79325C24 4.2892 23.5899 3.87914 23.0859 3.87914ZM20.0426 19.0445C20.0426 19.2503 19.8752 19.4177 19.6694 19.4177C19.4728 19.4177 19.3091 19.264 19.2969 19.0678L18.6931 9.39712H20.0426V19.0445ZM22.0078 8.20181C22.0078 8.47321 21.787 8.694 21.5156 8.694C21.2197 8.694 2.964 8.694 2.48438 8.694C2.21297 8.694 1.99219 8.47321 1.99219 8.20181V6.72211H22.0078V8.20181Z" fill="black"/>
</g>
<defs>
<clipPath id="clip0_728_25415">
<rect width="24" height="24" fill="white"/>
</clipPath>
</defs>
</svg>
